<svg height="14" width="14" xmlns="http://www.w3.org/2000/svg"><path d="m8.4 0 .5 2.4 2.1-1.3 2 2-1.4 2.1 2.4.4v2.8l-1.903.395-.514-.949 1.417-.246v-1.2l-2.4-.5-.3-.8 1.3-2-.8-.8-2 1.3-.7-.2-.5-2.4h-1.2l-.5 2.4-.7.3-2-1.3-.9.8 1.3 2-.2.7-2.4.5v1.2l2.4.5.3.8-1.3 2 .8.8 2-1.3.693.26-.714 1.318-.079-.378-2.1 1.3-2-2 1.4-2.1-2.4-.4v-2.8l2.4-.5-1.3-2.1 2-2 2.1 1.4.4-2.4zm-1.4 5c.627 0 1.188.292 1.556.747l-.572 1.053c-.079-.487-.453-.8-.984-.8-.6 0-1 .4-1 1s.4 1 1 1c.132 0 .254-.02.364-.056l-.566 1.046a2.007 2.007 0 0 1 -1.798-1.99c0-1.1.9-2 2-2zm2.5 1 4.5 8h-9zm.5 6h-1v1h1zm0-4h-1v3h1z"/></svg>