<?xml version="1.0" encoding="UTF-8"?>
<svg width="14px" height="14px" viewBox="0 0 14 14" version="1.1" xmlns="http://www.w3.org/2000/svg" xmlns:xlink="http://www.w3.org/1999/xlink">
    <title>icon_lamp</title>
    <g id="官网相关" stroke="none" stroke-width="1" fill="none" fill-rule="evenodd">
        <g id="09-应用状态-成功" transform="translate(-415.000000, -462.000000)" fill="#FFFFFF" fill-rule="nonzero">
            <g id="编组-4" transform="translate(120.000000, 92.000000)">
                <g id="编组-13" transform="translate(250.000000, 335.000000)">
                    <g id="编组备份" transform="translate(40.000000, 30.000000)">
                        <g id="灯" transform="translate(5.000000, 5.000000)">
                            <path d="M9.6693427,3.73909037 C10.6338618,4.53529086 11.1933564,5.73404844 11.1912254,6.99982084 C11.1912254,8.33492872 10.5881586,9.56074838 9.53552434,10.3623148 C9.2798294,10.5576003 9.13266433,10.8227586 9.13266433,11.0900668 L9.13266433,11.8998746 L5.01590567,11.8998746 L5.01590567,11.1090579 C5.01590567,10.8277751 4.89789262,10.5694249 4.70928249,10.4336208 C3.3921726,9.48980062 2.74450577,7.89168437 3.01986954,6.26060249 C3.30050176,4.59118016 4.57686904,3.23815618 6.19498244,2.89309206 C7.43306573,2.62900873 8.7020572,2.93609071 9.6693427,3.73909037 Z M8.713999,9.24076681 C9.41114749,8.71595933 9.82151377,7.88370974 9.81897817,6.99982084 C9.82035078,6.15574079 9.44717502,5.35637801 8.8039137,4.82552277 C8.14957351,4.28302321 7.32277973,4.08379617 6.47456096,4.26367382 C5.42087306,4.48834174 4.55544405,5.40743774 4.3713999,6.49817 C4.18840943,7.58926058 4.62007025,8.65885183 5.4981435,9.28842364 C5.89749122,9.57472294 6.18233818,10.0057843 6.31053688,10.4999104 L7.84154541,10.4999104 C7.97747115,10.0136674 8.27917712,9.57257301 8.71435023,9.24076681 L8.713999,9.24076681 Z M8.4467135,12.6000358 C8.82565067,12.6000358 9.13283994,12.9134285 9.13283994,13.3000179 C9.13283994,13.6866073 8.82565067,14 8.4467135,14 L5.7018565,14 C5.32896699,13.9913924 5.03107921,13.6805349 5.03107921,13.3000179 C5.03107921,12.9195009 5.32896699,12.6086435 5.7018565,12.6000358 L8.4467135,12.6000358 Z M6.38815855,2.09976709 L6.38815855,0 L7.76041144,0 L7.76041144,2.09976709 L6.38815855,2.09976709 L6.38815855,2.09976709 Z M12.4113899,2.54408641 L10.9551932,4.02968954 L9.98544907,3.04036242 L11.4412945,1.55475928 L12.4117411,2.54480305 L12.4113899,2.54408641 Z M11.9417963,7.7945791 L11.9417963,6.39425661 L14,6.39425661 L14,7.79422078 L11.9417963,7.79422078 L11.9417963,7.7945791 Z M4.16312092,3.04036242 L3.19267436,4.02933122 L1.73753136,2.54444473 L2.70762669,1.55440096 L4.16312092,3.0400041 L4.16312092,3.04036242 Z M0,7.79422078 L0,6.39425661 L2.05820371,6.39425661 L2.05820371,7.79422078 L0,7.79422078 Z" id="形状"></path>
                        </g>
                    </g>
                </g>
            </g>
        </g>
    </g>
</svg>