<?xml version="1.0" encoding="UTF-8"?>
<svg width="20px" height="20px" viewBox="0 0 20 20" version="1.1" xmlns="http://www.w3.org/2000/svg" xmlns:xlink="http://www.w3.org/1999/xlink">
    <title>icon_label_unfinished_ required</title>
    <g id="官网相关" stroke="none" stroke-width="1" fill="none" fill-rule="evenodd">
        <g id="01-参数配置-基础配置-其他项折叠" transform="translate(-166.000000, -788.000000)" fill-rule="nonzero">
            <g id="编组-4" transform="translate(120.000000, 92.000000)">
                <g id="编组-5" transform="translate(20.000000, 240.000000)">
                    <g id="编组-17" transform="translate(16.000000, 382.000000)">
                        <g id="疑问备份-2" transform="translate(10.000000, 74.000000)">
                            <path d="M9.99997494,2 C5.58168862,2 2,5.58170882 2,9.99997494 C2,14.4182578 5.58167191,18 9.99995824,18 C14.4183281,18 18,14.4182578 18,10 C18,5.58174223 14.4183615,2 9.99997494,2 Z" id="形状结合" fill="#FF7D00" transform="translate(10.000000, 10.000000) scale(1, -1) translate(-10.000000, -10.000000) "></path>
                            <path d="M10.624161,13.0190431 C10.8451087,13.0190431 11.0241589,13.1981252 11.0241589,13.4191045 L11.0241589,14.6190548 C11.0241589,14.8399673 10.8451254,15.0190995 10.624161,15.0190995 L9.42416722,15.0190995 C9.20330302,15.0190995 9.02420272,14.839984 9.02420272,14.6190715 L9.02420272,13.4191045 C9.02420272,13.1981419 9.20328631,13.0190431 9.42416722,13.0190431 L10.624161,13.0190431 Z M10.624161,5.00139386 C10.8451087,5.00139386 11.0241589,5.18047596 11.0241589,5.40145525 L11.0241589,11.0044626 C11.0241589,11.2253751 10.8451254,11.4045073 10.624161,11.4045073 L9.42416722,11.4045073 C9.20330302,11.4045073 9.02420272,11.2253918 9.02420272,11.0044794 L9.02420272,5.40145525 C9.02420272,5.18049266 9.20328631,5.00139386 9.42416722,5.00139386 L10.624161,5.00139386 Z" id="形状结合" fill="#FFFFFF" transform="translate(10.024181, 10.010247) scale(1, -1) rotate(-180.000000) translate(-10.024181, -10.010247) "></path>
                        </g>
                    </g>
                </g>
            </g>
        </g>
    </g>
</svg>