<?xml version="1.0" encoding="UTF-8"?>
<svg width="20px" height="20px" viewBox="0 0 20 20" version="1.1" xmlns="http://www.w3.org/2000/svg" xmlns:xlink="http://www.w3.org/1999/xlink">
    <title>icon_label_finish</title>
    <g id="官网相关" stroke="none" stroke-width="1" fill="none" fill-rule="evenodd">
        <g id="01-参数配置-基础配置-其他项折叠" transform="translate(-166.000000, -762.000000)" fill-rule="nonzero">
            <g id="编组-4" transform="translate(120.000000, 92.000000)">
                <g id="编组-5" transform="translate(20.000000, 240.000000)">
                    <g id="编组-17" transform="translate(16.000000, 382.000000)">
                        <g id="疑问" transform="translate(10.000000, 48.000000)">
                            <path d="M9.99997494,2 C5.58168862,2 2,5.58170882 2,9.99997494 C2,14.4182578 5.58167191,18 9.99995824,18 C14.4183281,18 18,14.4182578 18,10 C18,5.58174223 14.4183615,2 9.99997494,2 Z" id="形状结合" fill="#4AC285"></path>
                            <path d="M6.43167335,9.59461137 L8.51044173,11.4117286 L13.6854437,6.18026924 C13.6854437,6.18026924 14.0329657,5.83204736 14.3359427,6.10355437 C14.4264469,6.18592563 14.5303853,6.41713083 14.29564,6.77984723 L8.89225634,13.7255482 C8.89225634,13.7255482 8.47756326,14.3477518 7.98544667,13.7184777 L5.65496346,10.2634802 C5.65496346,10.2634802 5.37779433,9.79612048 5.72425574,9.51542183 C5.84092132,9.42138424 6.10607034,9.275025 6.43167335,9.59461137 L6.43202688,9.59461137 L6.43167335,9.59461137 Z" id="路径" fill="#FFFFFF"></path>
                        </g>
                    </g>
                </g>
            </g>
        </g>
    </g>
</svg>