<svg height="20" viewBox="0 0 20 20" width="20" xmlns="http://www.w3.org/2000/svg"><g fill="none" fill-rule="evenodd"><path d="m15 1.25c1.5187831 0 2.75 1.23121694 2.75 2.75l.0009611 4.29910035c-.4709291-.24740396-.9734962-.44273339-1.5000476-.57833458l-.0009135-3.72076577c0-.69035594-.5596441-1.25-1.25-1.25h-10c-.69035594 0-1.25.55964406-1.25 1.25v12c0 .6903559.55964406 1.25 1.25 1.25l3.06121555.0008596c.23014966.5380008.52575723 1.0413269.87681006 1.4999655l-3.93802561-.0008251c-1.51878306 0-2.75-1.2312169-2.75-2.75v-12c0-1.51878306 1.23121694-2.75 2.75-2.75zm2.7508358 8.8130933-.0008358 5.9369067c0 1.5187831-1.2312169 2.75-2.75 2.75l-3.9896762.0013429c-.5091886-.4184506-.9418735-.926592-1.27390144-1.5002709l5.26357764-.001072c.6903559 0 1.25-.5596441 1.25-1.25l.0006744-6.71551258c.5427954.18212307 1.0477984.44660759 1.5001614.77860588z" fill="#4ac285" fill-rule="nonzero"/><g transform="translate(9 9)"><circle cx="5.5" cy="5.5" fill="#4ac285" r="5.5"/><path d="m2.47209554 5.18075646 1.6370301 1.43097984 4.07531407-4.11977427s.27367357-.27422474.51226792-.06041297c.07127206.06486738.15312356.24694147-.03173834.53258063l-4.25516465 5.46973951s-.32657079.48998532-.71411261-.00556801l-1.83525553-2.72081052s-.21827069-.36804579.05456767-.58909598c.09187414-.0740546.300679-.1893125.55709137.06236177h.00027841z" fill="#fff" fill-rule="nonzero"/></g><g stroke="#4ac285" stroke-linecap="round" stroke-width="1.5"><path d="m6 5.5h7.5"/><path d="m6 9h2.5"/></g></g></svg>