<?xml version="1.0" encoding="UTF-8"?>
<svg width="20px" height="20px" viewBox="0 0 20 20" version="1.1" xmlns="http://www.w3.org/2000/svg" xmlns:xlink="http://www.w3.org/1999/xlink">
    <title>icon_container_finish</title>
    <g id="官网相关" stroke="none" stroke-width="1" fill="none" fill-rule="evenodd">
        <g id="14-交互补充" transform="translate(-60.000000, -288.000000)">
            <g id="编组-6备份-3" transform="translate(50.000000, 150.000000)">
                <g id="编组-2备份-7" transform="translate(0.000000, 64.000000)">
                    <g id="row备份-6" transform="translate(0.000000, 68.000000)">
                        <g id="container" transform="translate(10.000000, 6.000000)">
                            <path d="M7,19 L5,19 C3.8954305,19 3,18.1045695 3,17 L3,3 C3,1.8954305 3.8954305,1 5,1 L15,1 C16.1045695,1 17,1.8954305 17,3 L17,7.7919651" id="路径" stroke="#32BE77" stroke-width="1.5" stroke-linecap="round"></path>
                            <path d="M9.88167335,14.5946114 L11.9604417,16.4117286 L17.1354437,11.1802692 C17.1354437,11.1802692 17.4829657,10.8320474 17.7859427,11.1035544 C17.8764469,11.1859256 17.9803853,11.4171308 17.74564,11.7798472 L12.3422563,18.7255482 C12.3422563,18.7255482 11.9275633,19.3477518 11.4354467,18.7184777 L9.10496346,15.2634802 C9.10496346,15.2634802 8.82779433,14.7961205 9.17425574,14.5154218 C9.29092132,14.4213842 9.55607034,14.275025 9.88167335,14.5946114 L9.88202688,14.5946114 L9.88167335,14.5946114 Z" id="路径" fill="#32BE77" fill-rule="nonzero"></path>
                            <line x1="6.5" y1="4" x2="13.5" y2="4" id="路径-2" stroke="#32BE77" stroke-width="1.5" stroke-linecap="round"></line>
                            <line x1="6.5" y1="7" x2="13.5" y2="7" id="路径-2备份" stroke="#32BE77" stroke-width="1.5" stroke-linecap="round"></line>
                            <line x1="6.5" y1="10" x2="10.5" y2="10" id="路径-2备份-2" stroke="#32BE77" stroke-width="1.5" stroke-linecap="round"></line>
                        </g>
                    </g>
                </g>
            </g>
        </g>
    </g>
</svg>