<?xml version="1.0" encoding="UTF-8"?>
<svg width="283px" height="228px" viewBox="0 0 283 228" version="1.1" xmlns="http://www.w3.org/2000/svg" xmlns:xlink="http://www.w3.org/1999/xlink">
    <title>image_faied_JB_CN</title>
    <defs>
        <path d="M4,0 L279,0 C281.209139,-4.05812251e-16 283,1.790861 283,4 L283,224 C283,226.209139 281.209139,228 279,228 L4,228 C1.790861,228 2.705415e-16,226.209139 0,224 L0,4 C-2.705415e-16,1.790861 1.790861,4.05812251e-16 4,0 Z" id="path-1"></path>
        <path d="M2,0 L99,0 C100.104569,-2.02906125e-16 101,0.8954305 101,2 L101,67 C101,68.1045695 100.104569,69 99,69 L2,69 C0.8954305,69 1.3527075e-16,68.1045695 0,67 L0,2 C-1.3527075e-16,0.8954305 0.8954305,2.02906125e-16 2,0 Z" id="path-3"></path>
        <filter x="-13.4%" y="-19.6%" width="126.7%" height="139.1%" filterUnits="objectBoundingBox" id="filter-4">
            <feMorphology radius="0.5" operator="dilate" in="SourceAlpha" result="shadowSpreadOuter1"></feMorphology>
            <feOffset dx="0" dy="0" in="shadowSpreadOuter1" result="shadowOffsetOuter1"></feOffset>
            <feGaussianBlur stdDeviation="4" in="shadowOffsetOuter1" result="shadowBlurOuter1"></feGaussianBlur>
            <feColorMatrix values="0 0 0 0 0.211764706   0 0 0 0 0.262745098   0 0 0 0 0.360784314  0 0 0 0.1 0" type="matrix" in="shadowBlurOuter1"></feColorMatrix>
        </filter>
    </defs>
    <g id="Web" stroke="none" stroke-width="1" fill="none" fill-rule="evenodd">
        <g id="编组-10备份-3">
            <mask id="mask-2" fill="white">
                <use xlink:href="#path-1"></use>
            </mask>
            <use id="image_faied_JB_CN" fill="#F9FBFD" xlink:href="#path-1"></use>
            <g id="编组-11" mask="url(#mask-2)">
                <g id="编组-12">
                    <path d="M4,0 L279,0 C281.209139,-4.05812251e-16 283,1.790861 283,4 L283,54 L283,54 L0,54 L0,4 C-2.705415e-16,1.790861 1.790861,4.05812251e-16 4,0 Z" id="矩形" fill="#E5F2FF"></path>
                    <circle id="椭圆形" stroke="#FFFFFF" fill="#0080FF" cx="13" cy="17" r="4"></circle>
                    <g id="Jetbrains-插件请右击服务，选择" transform="translate(26.210000, 10.324000)" fill-rule="nonzero">
                        <path d="M2.94,11.872 C4.046,11.872 4.858,11.564 5.362,10.948 C5.81,10.388 6.034,9.576 6.034,8.484 L6.034,1.68 L4.886,1.68 L4.886,8.442 C4.886,9.268 4.732,9.87 4.438,10.248 C4.13,10.64 3.64,10.85 2.968,10.85 C1.75,10.85 1.148,10.164 1.148,8.82 L1.148,8.484 L9.9475983e-14,8.484 L9.9475983e-14,8.834 C9.9475983e-14,9.814 0.252,10.57 0.784,11.102 C1.288,11.606 2.002,11.872 2.94,11.872 Z M11.3610233,11.872 C12.2990233,11.872 13.0690233,11.592 13.6710233,11.06 C14.1610233,10.612 14.4830233,10.052 14.6510233,9.352 L13.5310233,9.352 C13.3490233,9.856 13.1110233,10.234 12.8030233,10.486 C12.4390233,10.78 11.9490233,10.934 11.3610233,10.934 C10.6750233,10.934 10.1290233,10.71 9.73702326,10.262 C9.34502326,9.814 9.13502326,9.184 9.07902326,8.372 L14.7910233,8.372 C14.7630233,7.112 14.4830233,6.118 13.9510233,5.418 C13.3630233,4.634 12.4810233,4.242 11.3190233,4.242 C10.2690233,4.242 9.44302326,4.62 8.82702326,5.376 C8.21102326,6.09 7.91702326,6.986 7.91702326,8.05 C7.91702326,9.226 8.22502326,10.15 8.86902326,10.85 C9.48502326,11.522 10.3250233,11.872 11.3610233,11.872 Z M13.6290233,7.504 L9.10702326,7.504 C9.17702326,6.79 9.40102326,6.23 9.79302326,5.81 C10.1850233,5.39 10.7030233,5.18 11.3470233,5.18 C12.7190233,5.18 13.4890233,5.95 13.6290233,7.504 Z M20.0900465,11.676 L20.0900465,10.738 L19.1660465,10.738 C18.9140465,10.738 18.7320465,10.668 18.6340465,10.556 C18.5220465,10.444 18.4800465,10.248 18.4800465,9.982 L18.4800465,5.376 L20.2720465,5.376 L20.2720465,4.438 L18.4800465,4.438 L18.4800465,2.1 L17.3740465,2.562 L17.3740465,4.438 L15.9180465,4.438 L15.9180465,5.376 L17.3740465,5.376 L17.3740465,9.982 C17.3740465,10.528 17.4860465,10.934 17.7240465,11.214 C17.9760465,11.522 18.4100465,11.676 18.9980465,11.676 L20.0900465,11.676 Z M25.4170698,11.872 C26.4670698,11.872 27.2930698,11.48 27.8950698,10.724 C28.4270698,10.024 28.7070698,9.128 28.7070698,8.036 C28.7070698,6.972 28.4270698,6.104 27.8950698,5.404 C27.3070698,4.62 26.4950698,4.242 25.4730698,4.242 C24.4370698,4.242 23.6390698,4.746 23.0790698,5.768 L23.0790698,1.484 L21.9590698,1.484 L21.9590698,11.676 L23.0090698,11.676 L23.0090698,10.486 C23.4990698,11.41 24.2970698,11.872 25.4170698,11.872 Z M25.2770698,10.948 C24.5490698,10.948 23.9750698,10.668 23.5830698,10.108 C23.2190698,9.604 23.0370698,8.946 23.0370698,8.134 L23.0370698,7.994 C23.0370698,7.154 23.2330698,6.468 23.6530698,5.95 C24.0450698,5.418 24.5770698,5.166 25.2350698,5.166 C26.0190698,5.166 26.6070698,5.446 27.0130698,6.006 C27.3770698,6.496 27.5590698,7.168 27.5590698,8.036 C27.5590698,8.904 27.3770698,9.59 27.0410698,10.094 C26.6490698,10.654 26.0610698,10.948 25.2770698,10.948 Z M31.710093,11.676 L31.710093,7.84 C31.710093,7.168 31.892093,6.594 32.284093,6.118 C32.662093,5.614 33.138093,5.376 33.698093,5.376 C34.048093,5.376 34.412093,5.418 34.776093,5.53 L34.776093,4.41 C34.510093,4.298 34.174093,4.242 33.782093,4.242 C33.278093,4.242 32.844093,4.396 32.466093,4.704 C32.158093,4.942 31.906093,5.278 31.710093,5.698 L31.710093,4.438 L30.604093,4.438 L30.604093,11.676 L31.710093,11.676 Z M38.2831163,11.872 C38.9551163,11.872 39.5571163,11.718 40.0891163,11.424 C40.5371163,11.172 40.9151163,10.85 41.1951163,10.458 L41.1951163,11.676 L42.2451163,11.676 L42.2451163,7.028 C42.2451163,6.188 42.0211163,5.53 41.6011163,5.054 C41.0971163,4.508 40.3411163,4.242 39.3051163,4.242 C38.4371163,4.242 37.7511163,4.41 37.2191163,4.746 C36.6311163,5.11 36.2531163,5.684 36.0991163,6.44 L37.2051163,6.524 C37.3171163,6.062 37.5551163,5.712 37.9331163,5.488 C38.2691163,5.264 38.7031163,5.166 39.2351163,5.166 C40.4951163,5.166 41.1251163,5.768 41.1251163,6.986 L41.1251163,7.364 L39.3891163,7.392 C38.2971163,7.406 37.4571163,7.616 36.8691163,8.008 C36.1971163,8.428 35.8751163,9.044 35.8751163,9.87 C35.8751163,10.458 36.0991163,10.948 36.5471163,11.326 C36.9811163,11.69 37.5551163,11.872 38.2831163,11.872 Z M38.5211163,10.99 C38.0731163,10.99 37.7091163,10.878 37.4291163,10.668 C37.1491163,10.444 37.0231163,10.178 37.0231163,9.842 C37.0231163,8.792 37.8351163,8.26 39.4591163,8.232 L41.1251163,8.204 L41.1251163,8.82 C41.1251163,9.38 40.8591163,9.884 40.3411163,10.318 C39.8091163,10.766 39.2071163,10.99 38.5211163,10.99 Z M45.3461395,3.374 C45.5841395,3.374 45.7801395,3.29 45.9481395,3.136 C46.1161395,2.968 46.2001395,2.772 46.2001395,2.534 C46.2001395,2.282 46.1161395,2.086 45.9481395,1.946 C45.7801395,1.778 45.5841395,1.708 45.3461395,1.708 C45.1081395,1.708 44.9121395,1.778 44.7441395,1.946 C44.5761395,2.086 44.5061395,2.282 44.5061395,2.534 C44.5061395,2.772 44.5761395,2.968 44.7441395,3.136 C44.9121395,3.29 45.1081395,3.374 45.3461395,3.374 Z M45.9061395,11.676 L45.9061395,4.438 L44.7861395,4.438 L44.7861395,11.676 L45.9061395,11.676 Z M49.5671628,11.676 L49.5671628,7.308 C49.6091628,6.65 49.8191628,6.132 50.2111628,5.74 C50.5751628,5.376 51.0091628,5.194 51.5131628,5.194 C52.7731628,5.194 53.4171628,5.894 53.4171628,7.308 L53.4171628,11.676 L54.5371628,11.676 L54.5371628,7.224 C54.5371628,5.236 53.6271628,4.242 51.8351628,4.242 C51.3591628,4.242 50.9251628,4.354 50.5331628,4.578 C50.1411628,4.788 49.8191628,5.096 49.5671628,5.502 L49.5671628,4.438 L48.4471628,4.438 L48.4471628,11.676 L49.5671628,11.676 Z M59.402186,11.872 C61.446186,11.872 62.468186,11.116 62.468186,9.632 C62.468186,9.002 62.174186,8.512 61.600186,8.148 C61.222186,7.91 60.606186,7.686 59.738186,7.476 C59.010186,7.28 58.506186,7.126 58.240186,7 C57.820186,6.79 57.624186,6.524 57.624186,6.216 C57.624186,5.894 57.778186,5.642 58.086186,5.46 C58.366186,5.264 58.758186,5.18 59.262186,5.18 C59.836186,5.18 60.284186,5.292 60.592186,5.516 C60.872186,5.712 61.054186,6.048 61.152186,6.496 L62.244186,6.496 C62.048186,4.984 61.068186,4.242 59.276186,4.242 C58.464186,4.242 57.792186,4.424 57.288186,4.788 C56.742186,5.152 56.476186,5.628 56.476186,6.244 C56.476186,6.86 56.742186,7.322 57.302186,7.658 C57.638186,7.882 58.240186,8.092 59.094186,8.302 C59.878186,8.498 60.396186,8.652 60.634186,8.764 C61.082186,8.988 61.320186,9.296 61.320186,9.702 C61.320186,10.514 60.662186,10.934 59.374186,10.934 C58.758186,10.934 58.296186,10.822 57.988186,10.598 C57.680186,10.346 57.470186,9.94 57.386186,9.366 L56.294186,9.366 C56.462186,11.032 57.498186,11.872 59.402186,11.872 Z M72.5306977,12.964 C73.2866977,12.964 73.6646977,12.572 73.6646977,11.788 L73.6646977,7.616 C74.0706977,7.406 74.4766977,7.182 74.8966977,6.944 L74.8966977,5.95 C74.4906977,6.202 74.0846977,6.426 73.6646977,6.65 L73.6646977,3.78 L74.8966977,3.78 L74.8966977,2.814 L73.6646977,2.814 L73.6646977,0.252 L72.6846977,0.252 L72.6846977,2.814 L70.9066977,2.814 L70.9066977,3.78 L72.6846977,3.78 L72.6846977,7.112 C72.0686977,7.364 71.4526977,7.588 70.8226977,7.77 L71.0466977,8.722 C71.5926977,8.526 72.1386977,8.316 72.6846977,8.078 L72.6846977,11.536 C72.6846977,11.9 72.5166977,12.082 72.1946977,12.082 C71.8586977,12.082 71.5086977,12.054 71.1446977,12.012 L71.3546977,12.964 L72.5306977,12.964 Z M83.0026977,13.09 L83.0026977,5.81 L80.4126977,5.81 L80.4126977,6.706 L82.0646977,6.706 L82.0646977,8.54 L80.3846977,8.54 L80.3846977,9.408 L82.0646977,9.408 L82.0646977,11.396 L79.7126977,11.396 L79.7126977,4.34 L83.5206977,4.34 L83.5206977,3.416 L79.7126977,3.416 L79.7126977,1.89 C81.0566977,1.778 82.2326977,1.624 83.2546977,1.414 L82.7646977,0.574 C80.7766977,0.924 78.2706977,1.106 75.2466977,1.106 L75.5686977,2.03 C76.7166977,2.03 77.7806977,2.002 78.7746977,1.946 L78.7746977,3.416 L75.3306977,3.416 L75.3306977,4.34 L78.7746977,4.34 L78.7746977,11.396 L76.3666977,11.396 L76.3666977,9.422 L78.1026977,9.422 L78.1026977,8.554 L76.3666977,8.554 L76.3666977,6.846 C77.0806977,6.65 77.7386977,6.412 78.3546977,6.132 L77.7666977,5.334 C77.0526977,5.726 76.2826977,6.02 75.4566977,6.216 L75.4566977,12.978 L76.3666977,12.978 L76.3666977,12.292 L82.0646977,12.292 L82.0646977,13.09 L83.0026977,13.09 Z M87.8117209,13.09 L87.8117209,3.738 C88.3717209,2.744 88.8337209,1.694 89.1977209,0.588 L88.2457209,0.154 C87.5737209,2.338 86.5097209,4.284 85.0257209,5.964 L85.3477209,7.042 C85.8797209,6.482 86.3697209,5.894 86.8177209,5.278 L86.8177209,13.09 L87.8117209,13.09 Z M94.1957209,13.02 L94.1957209,8.512 L97.9337209,8.512 L97.9337209,7.546 L94.1957209,7.546 L94.1957209,4.172 L97.4157209,4.172 L97.4157209,3.192 L94.1957209,3.192 L94.1957209,0.28 L93.1877209,0.28 L93.1877209,3.192 L91.1297209,3.192 C91.3257209,2.576 91.4797209,1.904 91.5917209,1.204 L90.5977209,1.078 C90.2897209,2.94 89.7157209,4.522 88.8617209,5.81 L89.5057209,6.65 C90.0237209,5.922 90.4577209,5.096 90.8077209,4.172 L93.1877209,4.172 L93.1877209,7.546 L89.0717209,7.546 L89.0717209,8.512 L93.1877209,8.512 L93.1877209,13.02 L94.1957209,13.02 Z M112.402744,5.516 L112.402744,4.676 L108.580744,4.676 L108.580744,3.724 L111.548744,3.724 L111.548744,2.912 L108.580744,2.912 L108.580744,1.974 L112.052744,1.974 L112.052744,1.148 L108.580744,1.148 L108.580744,0.238 L107.614744,0.238 L107.614744,1.148 L104.226744,1.148 L104.226744,1.974 L107.614744,1.974 L107.614744,2.912 L104.786744,2.912 L104.786744,3.724 L107.614744,3.724 L107.614744,4.676 L103.834744,4.676 L103.834744,5.516 L112.402744,5.516 Z M102.980744,3.22 L103.666744,2.52 C103.022744,1.806 102.238744,1.092 101.300744,0.392 L100.586744,1.078 C101.594744,1.834 102.392744,2.548 102.980744,3.22 Z M101.678744,12.586 C102.546744,11.956 103.386744,11.228 104.170744,10.416 L103.904744,9.352 C103.428744,9.842 102.994744,10.276 102.574744,10.668 L102.574744,4.522 L99.6067442,4.522 L99.6067442,5.488 L101.608744,5.488 L101.608744,11.046 C101.608744,11.284 101.496744,11.494 101.286744,11.69 L101.678744,12.586 Z M105.864744,13.076 L105.864744,10.85 L110.386744,10.85 L110.386744,11.648 C110.386744,11.97 110.204744,12.138 109.868744,12.138 L108.748744,12.096 L108.986744,12.992 L110.162744,12.992 C110.946744,12.992 111.352744,12.614 111.352744,11.858 L111.352744,6.398 L104.898744,6.398 L104.898744,13.076 L105.864744,13.076 Z M110.386744,8.26 L105.864744,8.26 L105.864744,7.224 L110.386744,7.224 L110.386744,8.26 Z M110.386744,10.066 L105.864744,10.066 L105.864744,9.044 L110.386744,9.044 L110.386744,10.066 Z M118.611767,13.09 L118.611767,12.32 L124.393767,12.32 L124.393767,13.09 L125.387767,13.09 L125.387767,6.342 L118.359767,6.342 C118.947767,5.418 119.437767,4.382 119.857767,3.234 L126.689767,3.234 L126.689767,2.268 L120.165767,2.268 C120.347767,1.638 120.501767,0.98 120.641767,0.294 L119.619767,0.168 C119.479767,0.896 119.311767,1.596 119.101767,2.268 L114.439767,2.268 L114.439767,3.234 L118.765767,3.234 C117.785767,5.796 116.189767,7.798 113.977767,9.226 L114.509767,10.178 C115.685767,9.436 116.721767,8.512 117.603767,7.406 L117.603767,13.09 L118.611767,13.09 Z M124.393767,11.354 L118.611767,11.354 L118.611767,7.308 L124.393767,7.308 L124.393767,11.354 Z M131.092791,13.104 L131.092791,12.46 L138.722791,12.46 L138.722791,13.104 L139.688791,13.104 L139.688791,7.798 L138.722791,7.798 L138.722791,11.522 L135.418791,11.522 L135.418791,6.58 L141.088791,6.58 L141.088791,5.6 L135.418791,5.6 L135.418791,3.276 L139.940791,3.276 L139.940791,2.31 L135.418791,2.31 L135.418791,0.336 L134.382791,0.336 L134.382791,2.31 L129.804791,2.31 L129.804791,3.276 L134.382791,3.276 L134.382791,5.6 L128.726791,5.6 L128.726791,6.58 L134.382791,6.58 L134.382791,11.522 L131.092791,11.522 L131.092791,7.798 L130.126791,7.798 L130.126791,13.104 L131.092791,13.104 Z M150.195814,13.09 L150.195814,6.888 L150.531814,6.888 C150.839814,8.26 151.441814,9.492 152.337814,10.584 C151.777814,11.256 151.105814,11.802 150.307814,12.236 L150.839814,13.048 C151.679814,12.6 152.393814,12.026 153.009814,11.312 C153.653814,11.942 154.409814,12.516 155.305814,13.034 L155.809814,12.18 C154.955814,11.69 154.213814,11.144 153.583814,10.528 C154.227814,9.52 154.689814,8.288 154.955814,6.846 L154.955814,5.992 L150.195814,5.992 L150.195814,1.75 L153.933814,1.75 C153.905814,2.814 153.849814,3.5 153.751814,3.808 C153.667814,4.018 153.541814,4.158 153.373814,4.214 C153.205814,4.256 152.967814,4.284 152.631814,4.284 C152.239814,4.284 151.931814,4.27 151.693814,4.27 L151.959814,5.138 L153.093814,5.138 C153.975814,5.138 154.493814,4.844 154.661814,4.27 C154.829814,3.71 154.913814,2.562 154.913814,0.826 L149.243814,0.826 L149.243814,13.09 L150.195814,13.09 Z M143.881814,13.104 C144.455814,11.844 144.791814,10.234 144.875814,8.274 L147.143814,8.274 L147.143814,11.438 C147.143814,11.942 146.961814,12.194 146.611814,12.194 C146.275814,12.194 145.925814,12.166 145.533814,12.138 L145.771814,13.034 L146.891814,13.034 C147.675814,13.034 148.067814,12.6 148.067814,11.76 L148.067814,0.84 L143.979814,0.84 L143.979814,7.56 C143.965814,9.52 143.685814,11.144 143.125814,12.404 L143.881814,13.104 Z M147.143814,4.116 L144.889814,4.116 L144.889814,1.75 L147.143814,1.75 L147.143814,4.116 Z M147.143814,7.364 L144.889814,7.364 L144.889814,5.026 L147.143814,5.026 L147.143814,7.364 Z M152.911814,9.8 C152.197814,8.932 151.693814,7.966 151.399814,6.888 L154.059814,6.888 C153.807814,7.994 153.429814,8.96 152.911814,9.8 Z M157.846837,7.126 C160.114837,6.776 162.116837,6.202 163.824837,5.418 C165.560837,6.286 167.534837,6.846 169.746837,7.098 L170.208837,6.16 C168.262837,5.964 166.498837,5.53 164.916837,4.858 C166.204837,4.13 167.296837,3.248 168.192837,2.212 L168.192837,1.4 L162.088837,1.4 C162.284837,1.064 162.466837,0.714 162.620837,0.336 L161.598837,0.196 C161.010837,1.596 159.862837,2.772 158.182837,3.738 L158.798837,4.55 C159.442837,4.158 160.016837,3.724 160.548837,3.248 C161.220837,3.836 161.948837,4.368 162.732837,4.83 C161.192837,5.446 159.414837,5.894 157.384837,6.174 L157.846837,7.126 Z M163.810837,4.34 C162.872837,3.85 162.004837,3.262 161.220837,2.576 L161.402837,2.352 L166.750837,2.352 C165.924837,3.108 164.944837,3.78 163.810837,4.34 Z M158.196837,13.104 C160.772837,12.292 162.410837,11.242 163.124837,9.982 C163.306837,9.646 163.460837,9.296 163.572837,8.932 L167.716837,8.932 C167.674837,10.332 167.548837,11.2 167.338837,11.536 C167.114837,11.872 166.596837,12.054 165.756837,12.068 L164.104837,11.998 L164.356837,12.908 C165.000837,12.936 165.546837,12.964 165.994837,12.964 C166.988837,12.964 167.688837,12.726 168.094837,12.264 C168.500837,11.802 168.710837,10.388 168.738837,8.022 L163.810837,8.022 C163.894837,7.518 163.950837,6.986 163.950837,6.426 L162.956837,6.426 C162.956837,6.986 162.900837,7.518 162.788837,8.022 L158.336837,8.022 L158.336837,8.932 L162.508837,8.932 C162.396837,9.212 162.242837,9.478 162.074837,9.73 C161.346837,10.752 159.820837,11.606 157.524837,12.278 L158.196837,13.104 Z M172.88986,13.93 C173.47786,13.776 173.96786,13.468 174.33186,13.02 C174.69586,12.544 174.87786,11.998 174.87786,11.382 C174.87786,10.976 174.77986,10.654 174.59786,10.402 C174.40186,10.136 174.13586,10.01 173.82786,10.01 C173.54786,10.01 173.33786,10.08 173.16986,10.248 C173.00186,10.402 172.91786,10.612 172.91786,10.878 C172.91786,11.116 173.00186,11.326 173.16986,11.494 C173.33786,11.662 173.53386,11.746 173.77186,11.746 C173.91186,11.746 174.02386,11.718 174.07986,11.69 C174.07986,12.026 173.98186,12.334 173.77186,12.628 C173.54786,12.908 173.25386,13.118 172.88986,13.244 L172.88986,13.93 Z M190.970884,11.074 C192.286884,10.388 193.140884,9.506 193.504884,8.442 C193.742884,7.742 193.882884,6.902 193.924884,5.936 L195.338884,5.936 L195.338884,9.912 C195.338884,10.22 195.422884,10.472 195.618884,10.668 C195.800884,10.864 196.066884,10.962 196.430884,10.962 L197.438884,10.962 C197.914884,10.948 198.250884,10.836 198.446884,10.64 C198.656884,10.416 198.810884,9.73 198.894884,8.568 L198.012884,8.274 C197.956884,9.268 197.844884,9.828 197.676884,9.954 C197.564884,10.038 197.424884,10.08 197.228884,10.08 L196.724884,10.08 C196.416884,10.08 196.276884,9.94 196.276884,9.688 L196.276884,5.936 L198.628884,5.936 L198.628884,4.956 L195.338884,4.956 L195.338884,2.954 L198.138884,2.954 L198.138884,1.988 L195.338884,1.988 L195.338884,0.196 L194.358884,0.196 L194.358884,1.988 L192.510884,1.988 C192.678884,1.54 192.832884,1.078 192.972884,0.588 L192.006884,0.392 C191.670884,1.652 191.124884,2.814 190.368884,3.864 L191.250884,4.41 C191.558884,3.962 191.838884,3.486 192.090884,2.954 L194.358884,2.954 L194.358884,4.956 L190.718884,4.956 L190.718884,5.936 L192.972884,5.936 C192.930884,6.804 192.790884,7.56 192.552884,8.176 C192.188884,9.016 191.446884,9.716 190.312884,10.276 L190.970884,11.074 Z M189.094884,3.346 L189.794884,2.646 C189.150884,1.918 188.366884,1.19 187.428884,0.462 L186.742884,1.12 C187.736884,1.904 188.520884,2.646 189.094884,3.346 Z M187.162884,13.132 C187.946884,11.816 188.506884,11.172 188.856884,11.172 C189.024884,11.172 189.206884,11.284 189.402884,11.522 C189.836884,12.026 190.326884,12.376 190.872884,12.544 C191.432884,12.698 192.174884,12.782 193.070884,12.796 C193.966884,12.81 194.806884,12.824 195.562884,12.824 L198.810884,12.824 L199.062884,11.816 C198.684884,11.844 198.152884,11.858 197.480884,11.872 C196.780884,11.886 196.094884,11.9 195.422884,11.9 C194.330884,11.9 193.406884,11.886 192.678884,11.872 C191.838884,11.844 191.208884,11.732 190.774884,11.536 C190.382884,11.354 190.018884,11.06 189.682884,10.654 C189.570884,10.528 189.458884,10.416 189.346884,10.332 L189.346884,5.096 L186.420884,5.096 L186.420884,6.02 L188.408884,6.02 L188.408884,10.276 C187.820884,10.528 187.162884,11.256 186.406884,12.446 L187.162884,13.132 Z M202.373907,12.95 C203.199907,12.95 203.619907,12.544 203.619907,11.732 L203.619907,7.714 C204.165907,7.49 204.697907,7.252 205.215907,7 L205.215907,5.978 C204.683907,6.244 204.151907,6.496 203.619907,6.72 L203.619907,3.892 L205.187907,3.892 L205.187907,2.926 L203.619907,2.926 L203.619907,0.28 L202.583907,0.28 L202.583907,2.926 L200.875907,2.926 L200.875907,3.892 L202.583907,3.892 L202.583907,7.098 C201.953907,7.308 201.309907,7.49 200.651907,7.644 L200.903907,8.652 C201.463907,8.484 202.023907,8.302 202.583907,8.106 L202.583907,11.466 C202.583907,11.83 202.387907,12.026 202.023907,12.026 C201.673907,12.026 201.309907,11.998 200.945907,11.97 L201.155907,12.95 L202.373907,12.95 Z M205.873907,6.258 C207.231907,5.922 208.407907,5.502 209.387907,4.97 C210.395907,5.558 211.683907,5.964 213.223907,6.174 L213.587907,5.278 C212.313907,5.11 211.221907,4.816 210.325907,4.396 C211.389907,3.64 212.117907,2.73 212.523907,1.638 L212.523907,0.798 L205.887907,0.798 L205.887907,1.708 L206.587907,1.708 C206.979907,2.772 207.609907,3.654 208.491907,4.368 C207.623907,4.788 206.587907,5.124 205.397907,5.404 L205.873907,6.258 Z M209.387907,3.864 C208.561907,3.304 207.959907,2.576 207.581907,1.708 L211.459907,1.708 C211.025907,2.548 210.339907,3.262 209.387907,3.864 Z M209.905907,12.936 L209.905907,10.724 L213.377907,10.724 L213.377907,9.786 L209.905907,9.786 L209.905907,8.19 L212.663907,8.19 L212.663907,7.266 L209.905907,7.266 L209.905907,6.034 L208.925907,6.034 L208.925907,7.266 L206.125907,7.266 L206.125907,8.19 L208.925907,8.19 L208.925907,9.786 L205.411907,9.786 L205.411907,10.724 L208.925907,10.724 L208.925907,12.936 L209.905907,12.936 Z M219.97893,3.92 C220.24493,3.92 220.45493,3.836 220.62293,3.682 C220.79093,3.514 220.88893,3.304 220.88893,3.052 C220.88893,2.8 220.80493,2.604 220.65093,2.436 C220.48293,2.268 220.27293,2.198 220.03493,2.198 C219.89493,2.198 219.78293,2.212 219.72693,2.24 C219.72693,1.904 219.82493,1.596 220.03493,1.33 C220.25893,1.022 220.55293,0.812 220.93093,0.7 L220.93093,1.43884904e-13 C220.31493,0.154 219.83893,0.462 219.47493,0.924 C219.11093,1.372 218.94293,1.918 218.94293,2.548 C218.94293,2.94 219.02693,3.276 219.20893,3.528 C219.40493,3.78 219.65693,3.92 219.97893,3.92 Z M217.20693,3.92 C217.48693,3.92 217.71093,3.836 217.87893,3.682 C218.03293,3.514 218.11693,3.304 218.11693,3.052 C218.11693,2.8 218.03293,2.604 217.86493,2.436 C217.69693,2.268 217.50093,2.198 217.27693,2.198 C217.12293,2.198 217.01093,2.212 216.95493,2.24 C216.95493,1.904 217.05293,1.596 217.27693,1.316 C217.48693,1.022 217.78093,0.812 218.15893,0.7 L218.15893,1.43884904e-13 C217.54293,0.154 217.06693,0.462 216.71693,0.924 C216.35293,1.372 216.17093,1.918 216.17093,2.548 C216.17093,2.954 216.25493,3.276 216.45093,3.528 C216.63293,3.78 216.88493,3.92 217.20693,3.92 Z" id="Jetbrains插件请右击服务，选择“" fill="#36435C"></path>
                        <path d="M226.985953,11.676 C228.553953,11.676 229.757953,11.214 230.597953,10.304 C231.395953,9.436 231.801953,8.218 231.801953,6.678 C231.801953,5.11 231.423953,3.892 230.681953,3.052 C229.869953,2.128 228.679953,1.68 227.097953,1.68 L223.513953,1.68 L223.513953,11.676 L226.985953,11.676 Z M226.789953,10.682 L224.661953,10.682 L224.661953,2.674 L226.915953,2.674 C228.231953,2.674 229.183953,3.01 229.799953,3.696 C230.373953,4.34 230.667953,5.334 230.667953,6.678 C230.667953,7.98 230.345953,8.974 229.729953,9.646 C229.071953,10.332 228.091953,10.682 226.789953,10.682 Z M236.722977,11.872 C237.660977,11.872 238.430977,11.592 239.032977,11.06 C239.522977,10.612 239.844977,10.052 240.012977,9.352 L238.892977,9.352 C238.710977,9.856 238.472977,10.234 238.164977,10.486 C237.800977,10.78 237.310977,10.934 236.722977,10.934 C236.036977,10.934 235.490977,10.71 235.098977,10.262 C234.706977,9.814 234.496977,9.184 234.440977,8.372 L240.152977,8.372 C240.124977,7.112 239.844977,6.118 239.312977,5.418 C238.724977,4.634 237.842977,4.242 236.680977,4.242 C235.630977,4.242 234.804977,4.62 234.188977,5.376 C233.572977,6.09 233.278977,6.986 233.278977,8.05 C233.278977,9.226 233.586977,10.15 234.230977,10.85 C234.846977,11.522 235.686977,11.872 236.722977,11.872 Z M238.990977,7.504 L234.468977,7.504 C234.538977,6.79 234.762977,6.23 235.154977,5.81 C235.546977,5.39 236.064977,5.18 236.708977,5.18 C238.080977,5.18 238.850977,5.95 238.990977,7.504 Z M244.976,11.676 L247.72,4.438 L246.488,4.438 L244.416,10.276 L242.344,4.438 L241.112,4.438 L243.842,11.676 L244.976,11.676 Z M5.068,31.872 C6.132,31.872 7.056,31.564 7.826,30.962 C8.652,30.318 9.17,29.408 9.394,28.246 L8.288,28.246 C8.092,29.114 7.686,29.772 7.098,30.22 C6.538,30.64 5.866,30.85 5.068,30.85 C3.892,30.85 3.01,30.458 2.394,29.688 C1.806,28.96 1.526,27.966 1.526,26.72 C1.526,25.474 1.82,24.48 2.408,23.724 C3.038,22.912 3.934,22.506 5.096,22.506 C5.88,22.506 6.538,22.688 7.084,23.066 C7.644,23.458 8.008,24.018 8.148,24.746 L9.254,24.746 C9.114,23.752 8.666,22.954 7.91,22.366 C7.154,21.778 6.216,21.484 5.11,21.484 C3.57,21.484 2.366,22.002 1.526,23.066 C0.756,24.018 0.378,25.236 0.378,26.72 C0.378,28.204 0.742,29.408 1.498,30.332 C2.324,31.354 3.514,31.872 5.068,31.872 Z M14.084,31.872 C15.162,31.872 16.03,31.494 16.688,30.738 C17.29,30.038 17.598,29.142 17.598,28.064 C17.598,26.972 17.29,26.076 16.674,25.362 C16.03,24.606 15.162,24.242 14.084,24.242 C12.992,24.242 12.138,24.606 11.494,25.362 C10.878,26.076 10.57,26.972 10.57,28.064 C10.57,29.142 10.878,30.038 11.494,30.738 C12.138,31.494 12.992,31.872 14.084,31.872 Z M14.084,30.934 C13.314,30.934 12.712,30.64 12.292,30.052 C11.9,29.52 11.718,28.862 11.718,28.064 C11.718,27.252 11.9,26.594 12.292,26.062 C12.712,25.474 13.314,25.18 14.084,25.18 C14.84,25.18 15.442,25.474 15.89,26.062 C16.268,26.594 16.464,27.252 16.464,28.064 C16.464,28.848 16.268,29.52 15.89,30.052 C15.442,30.64 14.84,30.934 14.084,30.934 Z M20.174,31.676 L20.174,27.308 C20.216,26.65 20.426,26.132 20.818,25.74 C21.182,25.376 21.616,25.194 22.12,25.194 C23.38,25.194 24.024,25.894 24.024,27.308 L24.024,31.676 L25.144,31.676 L25.144,27.224 C25.144,25.236 24.234,24.242 22.442,24.242 C21.966,24.242 21.532,24.354 21.14,24.578 C20.748,24.788 20.426,25.096 20.174,25.502 L20.174,24.438 L19.054,24.438 L19.054,31.676 L20.174,31.676 Z M29.022,31.676 L29.022,25.376 L32.326,25.376 L32.326,31.676 L33.432,31.676 L33.432,24.438 L29.022,24.438 L29.022,23.64 C29.022,23.29 29.092,23.038 29.232,22.884 C29.372,22.716 29.61,22.646 29.918,22.646 L31.164,22.646 L31.164,21.68 L29.778,21.68 C29.162,21.68 28.686,21.848 28.364,22.198 C28.056,22.534 27.902,22.996 27.902,23.612 L27.902,24.438 L26.082,24.438 L26.082,25.376 L27.902,25.376 L27.902,31.676 L29.022,31.676 Z M38.626,34.644 C40.824,34.644 41.93,33.482 41.93,31.172 L41.93,24.438 L40.81,24.438 L40.81,25.684 C40.278,24.718 39.466,24.242 38.374,24.242 C37.366,24.242 36.568,24.592 35.98,25.306 C35.392,25.978 35.112,26.832 35.112,27.896 C35.112,28.946 35.392,29.8 35.98,30.472 C36.568,31.158 37.366,31.508 38.374,31.508 C39.466,31.508 40.278,31.018 40.81,30.052 L40.81,31.326 C40.81,32.922 40.082,33.734 38.626,33.734 C37.968,33.734 37.478,33.608 37.156,33.37 C36.834,33.146 36.624,32.782 36.54,32.292 L35.42,32.292 C35.546,33.076 35.868,33.664 36.386,34.056 C36.89,34.448 37.646,34.644 38.626,34.644 Z M38.528,30.57 C37.744,30.57 37.17,30.29 36.778,29.758 C36.428,29.282 36.26,28.652 36.26,27.896 C36.26,27.084 36.456,26.426 36.848,25.95 C37.254,25.418 37.814,25.166 38.542,25.166 C39.256,25.166 39.816,25.418 40.236,25.95 C40.628,26.426 40.824,27.084 40.824,27.896 C40.824,28.68 40.628,29.324 40.236,29.814 C39.816,30.318 39.256,30.57 38.528,30.57 Z" id="DevConfig" fill="#0080FF"></path>
                        <path d="M46.69,23.906 C47.278,23.738 47.768,23.43 48.132,22.982 C48.496,22.52 48.678,21.974 48.678,21.358 C48.678,20.938 48.58,20.616 48.398,20.364 C48.202,20.112 47.936,19.986 47.628,19.986 C47.348,19.986 47.138,20.056 46.984,20.224 C46.802,20.378 46.718,20.588 46.718,20.854 C46.718,21.092 46.802,21.288 46.97,21.456 C47.138,21.624 47.334,21.708 47.572,21.708 C47.712,21.708 47.824,21.694 47.88,21.666 C47.88,22.002 47.782,22.31 47.572,22.604 C47.348,22.884 47.054,23.08 46.69,23.206 L46.69,23.906 Z M43.918,23.906 C44.506,23.738 44.996,23.43 45.36,22.982 C45.724,22.52 45.906,21.974 45.906,21.358 C45.906,20.938 45.808,20.616 45.626,20.364 C45.43,20.112 45.178,19.986 44.87,19.986 C44.59,19.986 44.366,20.056 44.198,20.224 C44.03,20.378 43.96,20.588 43.96,20.854 C43.96,21.092 44.044,21.288 44.212,21.456 C44.366,21.624 44.562,21.708 44.8,21.708 C44.94,21.708 45.052,21.694 45.108,21.666 C45.108,22.002 45.01,22.31 44.786,22.604 C44.562,22.884 44.282,23.08 43.918,23.206 L43.918,23.906 Z M61.264,31.144 L61.264,27.126 L63.49,27.126 L63.49,26.174 L61.264,26.174 L61.264,23.388 L63.042,23.388 L63.042,22.45 L61.264,22.45 L61.264,20.238 L60.284,20.238 L60.284,22.45 L58.072,22.45 L58.072,20.224 L57.106,20.224 L57.106,22.45 L55.454,22.45 L55.454,23.388 L57.106,23.388 L57.106,24.494 C57.106,25.082 57.064,25.642 56.994,26.174 L54.964,26.174 L54.964,27.126 L56.812,27.126 C56.504,28.442 55.902,29.422 55.02,30.052 L55.622,30.864 C56.7,30.052 57.428,28.806 57.792,27.126 L60.284,27.126 L60.284,31.144 L61.264,31.144 Z M53.76,23.346 L54.488,22.632 C53.844,21.904 53.046,21.19 52.108,20.462 L51.422,21.12 C52.416,21.918 53.2,22.66 53.76,23.346 Z M60.284,26.174 L57.96,26.174 C58.03,25.586 58.072,24.942 58.072,24.27 L58.072,23.388 L60.284,23.388 L60.284,26.174 Z M51.954,33.104 C52.724,31.816 53.27,31.172 53.606,31.172 C53.774,31.172 53.956,31.284 54.138,31.522 C54.572,32.026 55.062,32.376 55.608,32.544 C56.168,32.698 56.882,32.782 57.778,32.796 C58.66,32.81 59.486,32.824 60.242,32.824 L63.448,32.824 L63.686,31.816 C63.322,31.844 62.79,31.858 62.118,31.872 C61.432,31.886 60.76,31.9 60.102,31.9 C59.024,31.9 58.114,31.886 57.386,31.872 C56.574,31.844 55.944,31.732 55.524,31.536 C55.132,31.354 54.782,31.06 54.446,30.654 C54.334,30.528 54.222,30.416 54.11,30.332 L54.11,25.096 L51.17,25.096 L51.17,26.02 L53.172,26.02 L53.172,30.276 C52.598,30.528 51.94,31.242 51.198,32.418 L51.954,33.104 Z M65.464,32.88 C68.404,30.976 70.336,28.232 71.26,24.662 C71.33,24.83 71.4,25.026 71.484,25.25 C72.926,28.946 74.774,31.494 77.042,32.866 L77.672,32.054 C75.46,30.668 73.71,28.302 72.394,24.956 C71.526,22.688 70.476,21.106 69.23,20.238 L68.39,20.77 C69.286,21.414 70.056,22.31 70.7,23.486 C69.804,27.21 67.858,30.066 64.862,32.026 L65.464,32.88 Z M80.276,33.02 L80.276,32.264 L84.266,32.264 L84.266,33.02 L85.162,33.02 L85.162,23.402 L83.566,23.402 L83.566,21.778 L85.386,21.778 L85.386,20.826 L79.016,20.826 L79.016,21.778 L80.906,21.778 L80.906,23.402 L79.38,23.402 L79.38,33.02 L80.276,33.02 Z M89.866,32.796 C90.538,32.796 90.972,32.572 91.196,32.152 C91.42,31.718 91.574,30.78 91.672,29.324 L90.678,29.002 C90.636,30.122 90.566,30.878 90.454,31.256 C90.342,31.648 90.09,31.844 89.698,31.844 L87.5,31.844 C87.206,31.83 87.066,31.578 87.066,31.102 L87.066,26.51 L90.888,26.51 L90.888,20.84 L85.848,20.84 L85.848,21.792 L89.908,21.792 L89.908,25.53 L86.086,25.53 L86.086,31.466 C86.086,32.348 86.422,32.796 87.094,32.796 L89.866,32.796 Z M82.698,23.402 L81.774,23.402 L81.774,21.778 L82.698,21.778 L82.698,23.402 Z M84.266,29.03 L80.276,29.03 L80.276,24.326 L81.102,24.326 L81.102,25.236 C81.088,26.524 80.836,27.448 80.332,28.036 L80.864,28.526 C81.452,27.826 81.76,26.734 81.788,25.236 L81.788,24.326 L82.67,24.326 L82.67,26.846 C82.67,27.49 82.964,27.812 83.552,27.812 L84.266,27.812 L84.266,29.03 Z M84.266,27.028 L83.72,27.028 C83.482,27.028 83.37,26.902 83.37,26.664 L83.37,24.326 L84.266,24.326 L84.266,27.028 Z M84.266,31.312 L80.276,31.312 L80.276,29.954 L84.266,29.954 L84.266,31.312 Z M105.588,32.754 L105.588,31.942 L103.558,31.942 L103.558,25.768 L99.498,25.768 C99.554,25.516 99.596,25.25 99.652,24.97 L105.336,24.97 L105.336,24.2 L99.764,24.2 L99.848,23.388 L104.384,23.388 L104.384,20.77 L94.248,20.77 L94.248,23.388 L98.84,23.388 L98.756,24.2 L93.31,24.2 L93.31,24.97 L98.644,24.97 L98.49,25.768 L98.49,25.768 L95.088,25.768 L95.088,31.942 L93.058,31.942 L93.058,32.754 L105.588,32.754 Z M103.432,22.674 L101.346,22.674 L101.346,21.512 L103.432,21.512 L103.432,22.674 Z M100.422,22.674 L98.21,22.674 L98.21,21.512 L100.422,21.512 L100.422,22.674 Z M97.3,22.674 L95.214,22.674 L95.214,21.512 L97.3,21.512 L97.3,22.674 Z M102.564,27.35 L96.068,27.35 L96.068,26.468 L102.564,26.468 L102.564,27.35 Z M102.564,28.862 L96.068,28.862 L96.068,27.98 L102.564,27.98 L102.564,28.862 Z M102.564,30.388 L96.068,30.388 L96.068,29.506 L102.564,29.506 L102.564,30.388 Z M102.564,31.942 L96.068,31.942 L96.068,31.018 L102.564,31.018 L102.564,31.942 Z M109.942,29.954 L109.942,24.284 L116.634,24.284 L116.634,29.926 L117.642,29.926 L117.642,23.304 L113.526,23.304 C113.666,22.828 113.764,22.31 113.848,21.778 L119.476,21.778 L119.476,20.826 L107.156,20.826 L107.156,21.778 L112.784,21.778 C112.714,22.31 112.616,22.814 112.476,23.304 L108.934,23.304 L108.934,29.954 L109.942,29.954 Z M107.94,33.02 C109.984,32.544 111.454,31.886 112.35,31.032 C113.274,30.108 113.778,28.89 113.834,27.35 L113.834,25.124 L112.798,25.124 L112.798,27.35 C112.756,28.582 112.364,29.576 111.608,30.346 C110.81,31.088 109.396,31.676 107.366,32.124 L107.94,33.02 Z M118.566,33.118 L119.182,32.166 C117.698,31.298 116.046,30.57 114.24,29.954 L113.68,30.78 C115.346,31.34 116.97,32.124 118.566,33.118 Z M121.982,33.93 C122.57,33.776 123.06,33.468 123.424,33.02 C123.788,32.544 123.97,31.998 123.97,31.382 C123.97,30.976 123.872,30.654 123.69,30.402 C123.494,30.136 123.228,30.01 122.92,30.01 C122.64,30.01 122.43,30.08 122.262,30.248 C122.094,30.402 122.01,30.612 122.01,30.878 C122.01,31.116 122.094,31.326 122.262,31.494 C122.43,31.662 122.626,31.746 122.864,31.746 C123.004,31.746 123.116,31.718 123.172,31.69 C123.172,32.026 123.074,32.334 122.864,32.628 C122.64,32.908 122.346,33.118 121.982,33.244 L121.982,33.93 Z M138.978,22.842 L139.888,22.394 C139.468,21.554 139.02,20.784 138.558,20.084 L137.634,20.532 C138.11,21.204 138.558,21.974 138.978,22.842 Z M135.8,33.118 C137.13,32.46 138.082,31.536 138.67,30.346 C138.964,29.716 139.202,28.974 139.37,28.106 L143.234,28.106 L143.234,33.006 L144.27,33.006 L144.27,28.106 L147.56,28.106 L147.56,27.14 L144.27,27.14 L144.27,23.85 L147.014,23.85 L147.014,22.884 L143.878,22.884 C144.354,22.184 144.788,21.372 145.18,20.476 L144.102,20.084 C143.71,21.078 143.262,22.016 142.73,22.884 L135.66,22.884 L135.66,23.85 L138.614,23.85 L138.614,25.208 C138.6,25.894 138.558,26.538 138.474,27.14 L135.086,27.14 L135.086,28.106 L138.32,28.106 C138.208,28.652 138.054,29.142 137.872,29.59 C137.368,30.682 136.472,31.55 135.212,32.194 L135.8,33.118 Z M143.234,27.14 L139.51,27.14 C139.58,26.552 139.622,25.908 139.636,25.208 L139.636,23.85 L143.234,23.85 L143.234,27.14 Z M156.058,33.062 L156.058,32.334 L160.006,32.334 L160.006,33.048 L160.972,33.048 L160.972,26.468 L158.242,26.468 L158.242,23.724 L161.532,23.724 L161.532,22.772 L158.242,22.772 L158.242,20.182 L157.262,20.182 L157.262,26.468 L155.106,26.468 L155.106,33.062 L156.058,33.062 Z M152.306,33.076 L152.306,27.56 C152.74,28.162 153.244,28.96 153.832,29.954 L154.392,29.1 C153.692,28.204 152.992,27.406 152.306,26.692 L152.306,26.132 L154.378,26.132 L154.378,25.194 L152.306,25.194 L152.306,20.266 L151.326,20.266 L151.326,25.194 L149.212,25.194 L149.212,26.132 L151.2,26.132 C150.724,27.616 149.926,28.946 148.82,30.122 L149.226,31.158 C150.122,30.066 150.822,28.834 151.326,27.476 L151.326,33.076 L152.306,33.076 Z M153.622,24.382 C154.028,23.472 154.28,22.436 154.392,21.26 L153.566,21.162 C153.482,22.282 153.258,23.276 152.894,24.144 L153.622,24.382 Z M149.996,24.48 L150.738,24.284 C150.514,23.206 150.276,22.254 149.996,21.414 L149.226,21.666 C149.534,22.562 149.786,23.5 149.996,24.48 Z M160.006,31.382 L156.058,31.382 L156.058,27.406 L160.006,27.406 L160.006,31.382 Z M170.408,33.034 L170.408,32.404 L174.146,32.404 L174.146,33.034 L175.112,33.034 L175.112,26.468 L172.466,26.468 L172.466,23.738 L175.686,23.738 L175.686,22.786 L172.466,22.786 L172.466,20.238 L171.472,20.238 L171.472,26.468 L169.456,26.468 L169.456,33.034 L170.408,33.034 Z M164.43,29.562 L164.43,21.722 L167.608,21.722 L167.608,29.562 L168.518,29.562 L168.518,20.798 L163.506,20.798 L163.506,29.562 L164.43,29.562 Z M163.506,33.062 C164.528,32.572 165.27,31.9 165.718,31.032 C166.166,30.108 166.418,28.876 166.446,27.322 L166.446,22.702 L165.564,22.702 L165.564,27.322 C165.536,28.582 165.354,29.604 164.99,30.388 C164.598,31.144 163.926,31.746 162.96,32.208 L163.506,33.062 Z M174.146,31.452 L170.408,31.452 L170.408,27.406 L174.146,27.406 L174.146,31.452 Z M168.154,33.02 L168.882,32.306 C168.35,31.536 167.706,30.766 166.922,29.982 L166.264,30.612 C167.062,31.466 167.692,32.264 168.154,33.02 Z M177.926,33.048 C179.158,32.404 180.04,31.494 180.572,30.318 C180.992,29.366 181.258,28.176 181.384,26.734 L185.43,26.734 L185.43,32.936 L186.452,32.936 L186.452,26.734 L189.518,26.734 L189.518,25.768 L186.452,25.768 L186.452,22.058 L188.79,22.058 L188.79,21.078 L177.884,21.078 L177.884,22.058 L180.432,22.058 L180.432,25.278 C180.432,25.418 180.418,25.586 180.418,25.768 L177.128,25.768 L177.128,26.734 L180.362,26.734 C180.25,27.854 180.054,28.806 179.76,29.618 C179.312,30.682 178.514,31.536 177.38,32.18 L177.926,33.048 Z M185.43,25.768 L181.454,25.768 C181.454,25.614 181.468,25.446 181.468,25.278 L181.468,22.058 L185.43,22.058 L185.43,25.768 Z M194.278,33.118 C195.972,32.46 197.4,31.732 198.548,30.92 C199.724,31.69 201.208,32.404 203,33.062 L203.518,32.124 C201.894,31.564 200.508,30.948 199.374,30.276 C200.522,29.296 201.278,28.204 201.656,27 L201.656,26.132 L195.93,26.132 C196.126,25.628 196.294,25.096 196.462,24.536 L203.28,24.536 L203.28,23.57 L196.728,23.57 C196.98,22.534 197.204,21.442 197.386,20.266 L196.364,20.14 C196.196,21.344 195.972,22.478 195.692,23.57 L193.242,23.57 L194.04,20.812 L193.046,20.644 L191.94,24.536 L195.412,24.536 C194.432,27.658 192.934,30.108 190.89,31.9 L191.408,32.824 C193.004,31.522 194.32,29.772 195.342,27.56 C195.804,28.54 196.574,29.45 197.666,30.29 C196.616,30.976 195.314,31.606 193.746,32.18 L194.278,33.118 Z M201.53,23.276 L202.244,22.562 C201.572,21.792 200.746,21.022 199.738,20.252 L199.066,20.91 C200.116,21.75 200.942,22.534 201.53,23.276 Z M198.492,29.702 C197.372,28.89 196.574,28.008 196.098,27.056 L200.634,27.056 C200.242,28.008 199.528,28.89 198.492,29.702 Z M205.366,28.358 C207.55,27.574 209.188,26.58 210.28,25.362 L212.814,25.362 C213.71,26.566 215.208,27.532 217.308,28.288 L217.742,27.364 C216.006,26.874 214.718,26.202 213.878,25.362 L217.364,25.362 L217.364,24.438 L210.98,24.438 C211.204,24.06 211.4,23.668 211.554,23.262 C212.632,23.206 213.682,23.136 214.69,23.08 C215.04,23.416 215.362,23.738 215.642,24.074 L216.482,23.486 C215.754,22.688 214.69,21.75 213.304,20.672 L212.534,21.162 C212.996,21.54 213.43,21.904 213.836,22.268 C212.156,22.38 210.392,22.478 208.516,22.534 C209.314,22.016 210.126,21.344 210.938,20.504 L209.958,20.168 C208.572,21.54 207.424,22.338 206.514,22.562 L206.668,23.444 C207.998,23.402 209.286,23.36 210.532,23.304 C210.378,23.696 210.168,24.074 209.902,24.438 L205.184,24.438 L205.184,25.362 L209.048,25.362 C208.054,26.244 206.668,26.944 204.904,27.462 L205.366,28.358 Z M207.774,29.114 C209.748,28.428 211.204,27.504 212.142,26.328 L211.358,25.852 C210.504,26.888 209.16,27.714 207.34,28.33 L207.774,29.114 Z M207.69,31.004 C210.21,30.556 212.282,29.408 213.92,27.546 L213.136,27.014 C211.708,28.736 209.706,29.814 207.116,30.234 L207.69,31.004 Z M207.48,33.23 C211.778,32.32 214.578,30.71 215.866,28.414 L214.97,28.022 C213.822,30.066 211.134,31.55 206.906,32.446 L207.48,33.23 Z M231.28,33.076 L231.826,32.25 C230.818,31.564 229.964,30.598 229.236,29.338 C230.02,27.686 230.454,25.684 230.524,23.346 L231.434,23.346 L231.434,22.38 L227.738,22.38 C227.85,21.764 227.962,21.092 228.046,20.378 L227.066,20.21 C226.786,22.87 226.226,24.984 225.4,26.552 L226.03,27.322 C226.324,26.818 226.604,26.244 226.856,25.6 C227.234,27 227.696,28.232 228.242,29.31 C227.598,30.5 226.744,31.466 225.652,32.222 L226.17,33.062 C227.22,32.306 228.088,31.368 228.76,30.248 C229.46,31.424 230.3,32.376 231.28,33.076 Z M219.478,26.72 C220.682,25.908 221.522,24.956 221.984,23.85 L221.984,26.51 L222.922,26.51 L222.922,24.69 C223.426,25.026 224.028,25.474 224.728,26.034 L225.246,25.25 C224.462,24.774 223.678,24.34 222.922,23.962 L222.922,23.808 L225.47,23.808 L225.47,22.926 L222.922,22.926 L222.922,20.252 L221.984,20.252 L221.984,22.926 L219.254,22.926 L219.254,23.808 L221.242,23.808 C220.822,24.578 220.066,25.278 218.988,25.908 L219.478,26.72 Z M224.238,22.604 C224.686,22.016 225.036,21.414 225.316,20.798 L224.588,20.462 C224.336,21.05 223.972,21.638 223.524,22.24 L224.238,22.604 Z M220.472,22.59 L221.2,22.254 C220.948,21.638 220.668,21.05 220.332,20.504 L219.534,20.77 C219.87,21.302 220.178,21.904 220.472,22.59 Z M228.704,28.302 C228.144,27.126 227.696,25.712 227.346,24.074 L227.528,23.346 L229.6,23.346 C229.544,25.236 229.25,26.888 228.704,28.302 Z M219.38,33.034 C220.78,32.642 221.942,32.124 222.866,31.48 C223.692,31.844 224.406,32.222 225.022,32.586 L225.568,31.802 C224.952,31.466 224.308,31.158 223.636,30.85 C224.364,30.178 224.882,29.38 225.19,28.456 L225.19,27.63 L222.264,27.63 C222.348,27.378 222.446,27.126 222.544,26.86 L221.606,26.748 C221.508,27.028 221.396,27.322 221.27,27.63 L219.226,27.63 L219.226,28.512 L220.878,28.512 C220.598,29.072 220.276,29.646 219.912,30.262 C220.598,30.514 221.242,30.78 221.858,31.046 C221.046,31.508 220.052,31.886 218.904,32.194 L219.38,33.034 Z M222.712,30.458 C222.208,30.248 221.676,30.052 221.116,29.856 C221.396,29.436 221.648,28.988 221.872,28.512 L224.28,28.512 C223.944,29.24 223.412,29.898 222.712,30.458 Z" id="”进入配置页，并粘贴开发参数" fill="#36435C"></path>
                    </g>
                </g>
            </g>
            <g id="编组-14" mask="url(#mask-2)">
                <g transform="translate(6.000000, 64.000000)">
                    <rect id="矩形" stroke="none" fill="#0080FF" fill-rule="evenodd" x="40" y="77" width="231" height="20" rx="2"></rect>
                    <line x1="7" y1="14" x2="7" y2="176" id="路径-6" stroke="#D4DFEB" stroke-width="1" fill="none" opacity="0.5"></line>
                    <line x1="17" y1="34" x2="17" y2="196" id="路径-6备份" stroke="#D4DFEB" stroke-width="1" fill="none" opacity="0.5"></line>
                    <line x1="27" y1="54" x2="27" y2="216" id="路径-6备份-2" stroke="#D4DFEB" stroke-width="1" fill="none" opacity="0.5"></line>
                    <line x1="37" y1="74" x2="37" y2="236" id="路径-6备份-3" stroke="#D4DFEB" stroke-width="1" fill="none" opacity="0.5"></line>
                    <g id="编组-7" stroke="none" stroke-width="1" fill="none" fill-rule="evenodd">
                        <g id="namespace备份-2" transform="translate(20.000000, 0.000000)" fill="#D4DFEB" fill-rule="nonzero">
                            <g id="应用" transform="translate(1.000000, 0.419851)">
                                <path d="M5.46114286,12.5384047 L5.46114286,7.47263923 C5.46114286,7.03832946 5.17371429,6.60401971 4.81428572,6.38656937 L0.64685715,3.78189259 C0.287428571,3.63653178 0,3.78189259 0,4.14352195 L0,9.20928739 C0,9.64359715 0.287428571,10.0779069 0.64685715,10.2947663 L4.81428572,12.9006249 C5.17371429,13.1174843 5.46114286,12.9727144 5.46114286,12.5384047 Z M1.29314286,2.91327308 L5.38914286,5.51854075 C5.74857143,5.73540018 6.252,5.73540018 6.61085715,5.59063026 L10.7068572,3.49176186 C11.0657143,3.27490243 11.0657143,2.98536258 10.7068572,2.76850315 L6.39542858,0.162644572 C6.10800001,-0.0542148573 5.53257144,-0.0542148573 5.17371429,0.162644572 L1.29371429,2.18942347 C0.934285721,2.4062829 0.934285721,2.69582274 1.29314286,2.91327308 Z M7.25771429,12.900034 L11.3531429,10.8011656 C11.7125714,10.5843062 12,10.1499964 12,9.71568666 L12,4.65051213 C12,4.21620236 11.7125714,4.07143244 11.3531429,4.28888277 L7.25771429,6.38716027 C6.89771428,6.60461059 6.61085715,7.03892036 6.61085715,7.47323012 L6.61085715,12.5389956 C6.61085715,12.9727144 6.89828572,13.1174844 7.25771429,12.900034 Z" id="形状"></path>
                            </g>
                        </g>
                        <g id="arrow_down" stroke="#D4DFEB" stroke-width="2">
                            <polyline id="路径-7" points="2.5 5 7 9.5 11.5 5"></polyline>
                        </g>
                        <path d="M44,3 L96,3 C98.209139,3 100,4.790861 100,7 C100,9.209139 98.209139,11 96,11 L44,11 C41.790861,11 40,9.209139 40,7 C40,4.790861 41.790861,3 44,3 Z" id="矩形" fill="#D4DFEB"></path>
                    </g>
                    <g id="编组-7备份" stroke="none" stroke-width="1" fill="none" fill-rule="evenodd" transform="translate(10.000000, 20.000000)">
                        <g id="app_connected备份-2" transform="translate(20.000000, 0.000000)" fill="#D4DFEB">
                            <path d="M7,2 C8.87116425,2 10.4422446,3.2848121 10.8791657,5.02036107 C12.6334179,5.2088765 14,6.69484707 14,8.5 C14,10.2629068 12.6966339,11.7213961 11.0009499,11.9644196 L11,12 L4,12 C1.790861,12 0,10.209139 0,8 C0,5.95358546 1.53674929,4.26609794 3.5191836,4.02860171 C4.20617545,2.81725705 5.50764742,2 7,2 Z M8.84877393,5.57471429 L6.0203468,8.40314142 L4.60613324,6.98892785 L3.89902646,7.69603463 L6.0203468,9.81735498 L9.55588071,6.28182107 L8.84877393,5.57471429 Z" id="形状结合"></path>
                        </g>
                        <g id="arrow_down" stroke="#D4DFEB" stroke-width="2">
                            <polyline id="路径-7" points="2.5 5 7 9.5 11.5 5"></polyline>
                        </g>
                        <path d="M44,3 L86,3 C88.209139,3 90,4.790861 90,7 C90,9.209139 88.209139,11 86,11 L44,11 C41.790861,11 40,9.209139 40,7 C40,4.790861 41.790861,3 44,3 Z" id="矩形" fill="#D4DFEB"></path>
                    </g>
                    <g id="编组-7备份-2" stroke="none" stroke-width="1" fill="none" fill-rule="evenodd" transform="translate(20.000000, 40.000000)">
                        <g id="arrow_down" stroke="#D4DFEB" stroke-width="2">
                            <polyline id="路径-7" points="2.5 5 7 9.5 11.5 5"></polyline>
                        </g>
                        <rect id="矩形" fill="#D4DFEB" x="20" y="3" width="90" height="8" rx="4"></rect>
                    </g>
                    <g id="编组-7备份-3" stroke="none" stroke-width="1" fill="none" fill-rule="evenodd" transform="translate(30.000000, 60.000000)">
                        <g id="arrow_down" stroke="#D4DFEB" stroke-width="2">
                            <polyline id="路径-7" points="2.5 5 7 9.5 11.5 5"></polyline>
                        </g>
                        <rect id="矩形" fill="#D4DFEB" x="20" y="3" width="80" height="8" rx="4"></rect>
                    </g>
                    <g id="编组-7备份-4" stroke="none" stroke-width="1" fill="none" fill-rule="evenodd" transform="translate(40.000000, 80.000000)">
                        <g id="status_running备份-2" fill="#5DE29E">
                            <circle id="椭圆形" cx="7" cy="7" r="3"></circle>
                        </g>
                        <rect id="矩形" fill="#D4DFEB" x="20" y="3" width="100" height="8" rx="4"></rect>
                    </g>
                    <g id="编组-7备份-5" stroke="none" stroke-width="1" fill="none" fill-rule="evenodd" transform="translate(40.000000, 100.000000)">
                        <g id="status_running备份-2" fill="#5DE29E">
                            <circle id="椭圆形" cx="7" cy="7" r="3"></circle>
                        </g>
                        <rect id="矩形" fill="#D4DFEB" x="20" y="3" width="100" height="8" rx="4"></rect>
                    </g>
                    <g id="编组-7备份-6" stroke="none" stroke-width="1" fill="none" fill-rule="evenodd" transform="translate(40.000000, 120.000000)">
                        <g id="status_running备份-2" fill="#5DE29E">
                            <circle id="椭圆形" cx="7" cy="7" r="3"></circle>
                        </g>
                        <rect id="矩形" fill="#D4DFEB" x="20" y="3" width="100" height="8" rx="4"></rect>
                    </g>
                    <g id="编组-7备份-7" stroke="none" stroke-width="1" fill="none" fill-rule="evenodd" transform="translate(40.000000, 140.000000)">
                        <g id="status_running备份-2" fill="#5DE29E">
                            <circle id="椭圆形" cx="7" cy="7" r="3"></circle>
                        </g>
                        <rect id="矩形" fill="#D4DFEB" x="20" y="3" width="100" height="8" rx="4"></rect>
                    </g>
                </g>
            </g>
            <g id="编组-16" mask="url(#mask-2)">
                <g transform="translate(176.000000, 137.000000)">
                    <g id="矩形" fill="none">
                        <use fill="black" fill-opacity="1" filter="url(#filter-4)" xlink:href="#path-3"></use>
                        <use fill="#F9FBFD" fill-rule="evenodd" xlink:href="#path-3"></use>
                    </g>
                    <g id="编组-17" stroke-width="1" fill="none" fill-rule="evenodd" transform="translate(6.000000, 43.000000)">
                        <path d="M2,0 L87,0 C88.1045695,-8.05134447e-15 89,0.8954305 89,2 L89,18 C89,19.1045695 88.1045695,20 87,20 L2,20 C0.8954305,20 1.3527075e-16,19.1045695 0,18 L0,2 C-1.3527075e-16,0.8954305 0.8954305,2.02906125e-16 2,0 Z" id="矩形" fill="#0080FF"></path>
                        <g id="setting_normal备份-2" transform="translate(3.000000, 3.000000)" fill="#FFFFFF" fill-rule="nonzero">
                            <path d="M8.1,3.4 L7.6,1 L6.4,1 L5.9,3.4 L5.2,3.7 L3.2,2.4 L2.3,3.2 L3.6,5.2 L3.4,5.9 L1,6.4 L1,7.6 L3.4,8.1 L3.7,8.9 L2.4,10.9 L3.2,11.7 L5.2,10.4 L6,10.7 L6.4,13 L7.6,13 L8.1,10.6 L8.9,10.3 L10.9,11.6 L11.7,10.8 L10.4,8.8 L10.7,8 L13,7.6 L13,6.4 L10.6,5.9 L10.3,5.1 L11.6,3.1 L10.8,2.3 L8.8,3.6 L8.1,3.4 L8.1,3.4 Z M8.4,0 L8.9,2.4 L11,1.1 L13,3.1 L11.6,5.2 L14,5.6 L14,8.4 L11.6,8.9 L13,11 L11,13 L8.9,11.6 L8.4,14 L5.6,14 L5.1,11.6 L3,12.9 L1,10.9 L2.4,8.8 L0,8.4 L0,5.6 L2.4,5.1 L1.1,3 L3.1,1 L5.2,2.4 L5.6,0 L8.4,0 Z M9,7 C9,8.1 8.1,9 7,9 C5.9,9 5,8.1 5,7 C5,5.9 5.9,5 7,5 C8.1,5 9,5.9 9,7 Z M7,8 C7.6,8 8,7.6 8,7 C8,6.4 7.6,6 7,6 C6.4,6 6,6.4 6,7 C6,7.6 6.4,8 7,8 Z" id="形状"></path>
                        </g>
                        <text id="Dev-Config" font-family="PingFangSC-Semibold, PingFang SC" font-size="12" font-weight="500" line-spacing="14" fill="#FFFFFF">
                            <tspan x="21" y="16">Dev Config</tspan>
                        </text>
                    </g>
                    <rect id="矩形" fill="#D4DFEB" fill-rule="evenodd" x="27" y="9" width="65" height="8" rx="4"></rect>
                    <rect id="矩形备份-4" fill="#D4DFEB" fill-rule="evenodd" x="27" y="29" width="65" height="8" rx="4"></rect>
                    <rect id="矩形备份" fill="#D4DFEB" fill-rule="evenodd" x="9" y="6" width="14" height="14" rx="2"></rect>
                    <rect id="矩形备份-3" fill="#D4DFEB" fill-rule="evenodd" x="9" y="26" width="14" height="14" rx="2"></rect>
                </g>
            </g>
        </g>
    </g>
</svg>