<?xml version="1.0" encoding="UTF-8"?>
<svg width="283px" height="228px" viewBox="0 0 283 228" version="1.1" xmlns="http://www.w3.org/2000/svg" xmlns:xlink="http://www.w3.org/1999/xlink">
    <title>image_success_JB_CN</title>
    <defs>
        <path d="M4,0 L279,0 C281.209139,-4.05812251e-16 283,1.790861 283,4 L283,224 C283,226.209139 281.209139,228 279,228 L4,228 C1.790861,228 2.705415e-16,226.209139 0,224 L0,4 C-2.705415e-16,1.790861 1.790861,4.05812251e-16 4,0 Z" id="path-1"></path>
        <path d="M2,0 L117,0 C118.104569,-2.02906125e-16 119,0.8954305 119,2 L119,67 C119,68.1045695 118.104569,69 117,69 L2,69 C0.8954305,69 1.3527075e-16,68.1045695 0,67 L0,2 C-1.3527075e-16,0.8954305 0.8954305,2.02906125e-16 2,0 Z" id="path-3"></path>
        <filter x="-11.3%" y="-19.6%" width="122.7%" height="139.1%" filterUnits="objectBoundingBox" id="filter-4">
            <feMorphology radius="0.5" operator="dilate" in="SourceAlpha" result="shadowSpreadOuter1"></feMorphology>
            <feOffset dx="0" dy="0" in="shadowSpreadOuter1" result="shadowOffsetOuter1"></feOffset>
            <feGaussianBlur stdDeviation="4" in="shadowOffsetOuter1" result="shadowBlurOuter1"></feGaussianBlur>
            <feColorMatrix values="0 0 0 0 0.211764706   0 0 0 0 0.262745098   0 0 0 0 0.360784314  0 0 0 0.1 0" type="matrix" in="shadowBlurOuter1"></feColorMatrix>
        </filter>
    </defs>
    <g id="Web" stroke="none" stroke-width="1" fill="none" fill-rule="evenodd">
        <g id="编组-10备份-3">
            <mask id="mask-2" fill="white">
                <use xlink:href="#path-1"></use>
            </mask>
            <use id="image_success_JB_CN" fill="#F9FBFD" xlink:href="#path-1"></use>
            <g id="编组-11" mask="url(#mask-2)">
                <g id="编组-12">
                    <path d="M4,0 L279,0 C281.209139,-4.05812251e-16 283,1.790861 283,4 L283,54 L283,54 L0,54 L0,4 C-2.705415e-16,1.790861 1.790861,4.05812251e-16 4,0 Z" id="矩形" fill="#E5F2FF"></path>
                    <circle id="椭圆形" stroke="#FFFFFF" fill="#0080FF" cx="13" cy="17" r="4"></circle>
                    <g id="Jetbrains-插件请右击服务，选择" transform="translate(26.210000, 10.324000)" fill-rule="nonzero">
                        <path d="M2.94,11.872 C4.046,11.872 4.858,11.564 5.362,10.948 C5.81,10.388 6.034,9.576 6.034,8.484 L6.034,1.68 L4.886,1.68 L4.886,8.442 C4.886,9.268 4.732,9.87 4.438,10.248 C4.13,10.64 3.64,10.85 2.968,10.85 C1.75,10.85 1.148,10.164 1.148,8.82 L1.148,8.484 L1.42108547e-14,8.484 L1.42108547e-14,8.834 C1.42108547e-14,9.814 0.252,10.57 0.784,11.102 C1.288,11.606 2.002,11.872 2.94,11.872 Z M11.2368889,11.872 C12.1748889,11.872 12.9448889,11.592 13.5468889,11.06 C14.0368889,10.612 14.3588889,10.052 14.5268889,9.352 L13.4068889,9.352 C13.2248889,9.856 12.9868889,10.234 12.6788889,10.486 C12.3148889,10.78 11.8248889,10.934 11.2368889,10.934 C10.5508889,10.934 10.0048889,10.71 9.61288889,10.262 C9.22088889,9.814 9.01088889,9.184 8.95488889,8.372 L14.6668889,8.372 C14.6388889,7.112 14.3588889,6.118 13.8268889,5.418 C13.2388889,4.634 12.3568889,4.242 11.1948889,4.242 C10.1448889,4.242 9.31888889,4.62 8.70288889,5.376 C8.08688889,6.09 7.79288889,6.986 7.79288889,8.05 C7.79288889,9.226 8.10088889,10.15 8.74488889,10.85 C9.36088889,11.522 10.2008889,11.872 11.2368889,11.872 Z M13.5048889,7.504 L8.98288889,7.504 C9.05288889,6.79 9.27688889,6.23 9.66888889,5.81 C10.0608889,5.39 10.5788889,5.18 11.2228889,5.18 C12.5948889,5.18 13.3648889,5.95 13.5048889,7.504 Z M19.8417778,11.676 L19.8417778,10.738 L18.9177778,10.738 C18.6657778,10.738 18.4837778,10.668 18.3857778,10.556 C18.2737778,10.444 18.2317778,10.248 18.2317778,9.982 L18.2317778,5.376 L20.0237778,5.376 L20.0237778,4.438 L18.2317778,4.438 L18.2317778,2.1 L17.1257778,2.562 L17.1257778,4.438 L15.6697778,4.438 L15.6697778,5.376 L17.1257778,5.376 L17.1257778,9.982 C17.1257778,10.528 17.2377778,10.934 17.4757778,11.214 C17.7277778,11.522 18.1617778,11.676 18.7497778,11.676 L19.8417778,11.676 Z M25.0446667,11.872 C26.0946667,11.872 26.9206667,11.48 27.5226667,10.724 C28.0546667,10.024 28.3346667,9.128 28.3346667,8.036 C28.3346667,6.972 28.0546667,6.104 27.5226667,5.404 C26.9346667,4.62 26.1226667,4.242 25.1006667,4.242 C24.0646667,4.242 23.2666667,4.746 22.7066667,5.768 L22.7066667,1.484 L21.5866667,1.484 L21.5866667,11.676 L22.6366667,11.676 L22.6366667,10.486 C23.1266667,11.41 23.9246667,11.872 25.0446667,11.872 Z M24.9046667,10.948 C24.1766667,10.948 23.6026667,10.668 23.2106667,10.108 C22.8466667,9.604 22.6646667,8.946 22.6646667,8.134 L22.6646667,7.994 C22.6646667,7.154 22.8606667,6.468 23.2806667,5.95 C23.6726667,5.418 24.2046667,5.166 24.8626667,5.166 C25.6466667,5.166 26.2346667,5.446 26.6406667,6.006 C27.0046667,6.496 27.1866667,7.168 27.1866667,8.036 C27.1866667,8.904 27.0046667,9.59 26.6686667,10.094 C26.2766667,10.654 25.6886667,10.948 24.9046667,10.948 Z M31.2135556,11.676 L31.2135556,7.84 C31.2135556,7.168 31.3955556,6.594 31.7875556,6.118 C32.1655556,5.614 32.6415556,5.376 33.2015556,5.376 C33.5515556,5.376 33.9155556,5.418 34.2795556,5.53 L34.2795556,4.41 C34.0135556,4.298 33.6775556,4.242 33.2855556,4.242 C32.7815556,4.242 32.3475556,4.396 31.9695556,4.704 C31.6615556,4.942 31.4095556,5.278 31.2135556,5.698 L31.2135556,4.438 L30.1075556,4.438 L30.1075556,11.676 L31.2135556,11.676 Z M37.6624444,11.872 C38.3344444,11.872 38.9364444,11.718 39.4684444,11.424 C39.9164444,11.172 40.2944444,10.85 40.5744444,10.458 L40.5744444,11.676 L41.6244444,11.676 L41.6244444,7.028 C41.6244444,6.188 41.4004444,5.53 40.9804444,5.054 C40.4764444,4.508 39.7204444,4.242 38.6844444,4.242 C37.8164444,4.242 37.1304444,4.41 36.5984444,4.746 C36.0104444,5.11 35.6324444,5.684 35.4784444,6.44 L36.5844444,6.524 C36.6964444,6.062 36.9344444,5.712 37.3124444,5.488 C37.6484444,5.264 38.0824444,5.166 38.6144444,5.166 C39.8744444,5.166 40.5044444,5.768 40.5044444,6.986 L40.5044444,7.364 L38.7684444,7.392 C37.6764444,7.406 36.8364444,7.616 36.2484444,8.008 C35.5764444,8.428 35.2544444,9.044 35.2544444,9.87 C35.2544444,10.458 35.4784444,10.948 35.9264444,11.326 C36.3604444,11.69 36.9344444,11.872 37.6624444,11.872 Z M37.9004444,10.99 C37.4524444,10.99 37.0884444,10.878 36.8084444,10.668 C36.5284444,10.444 36.4024444,10.178 36.4024444,9.842 C36.4024444,8.792 37.2144444,8.26 38.8384444,8.232 L40.5044444,8.204 L40.5044444,8.82 C40.5044444,9.38 40.2384444,9.884 39.7204444,10.318 C39.1884444,10.766 38.5864444,10.99 37.9004444,10.99 Z M44.6013333,3.374 C44.8393333,3.374 45.0353333,3.29 45.2033333,3.136 C45.3713333,2.968 45.4553333,2.772 45.4553333,2.534 C45.4553333,2.282 45.3713333,2.086 45.2033333,1.946 C45.0353333,1.778 44.8393333,1.708 44.6013333,1.708 C44.3633333,1.708 44.1673333,1.778 43.9993333,1.946 C43.8313333,2.086 43.7613333,2.282 43.7613333,2.534 C43.7613333,2.772 43.8313333,2.968 43.9993333,3.136 C44.1673333,3.29 44.3633333,3.374 44.6013333,3.374 Z M45.1613333,11.676 L45.1613333,4.438 L44.0413333,4.438 L44.0413333,11.676 L45.1613333,11.676 Z M48.6982222,11.676 L48.6982222,7.308 C48.7402222,6.65 48.9502222,6.132 49.3422222,5.74 C49.7062222,5.376 50.1402222,5.194 50.6442222,5.194 C51.9042222,5.194 52.5482222,5.894 52.5482222,7.308 L52.5482222,11.676 L53.6682222,11.676 L53.6682222,7.224 C53.6682222,5.236 52.7582222,4.242 50.9662222,4.242 C50.4902222,4.242 50.0562222,4.354 49.6642222,4.578 C49.2722222,4.788 48.9502222,5.096 48.6982222,5.502 L48.6982222,4.438 L47.5782222,4.438 L47.5782222,11.676 L48.6982222,11.676 Z M58.4091111,11.872 C60.4531111,11.872 61.4751111,11.116 61.4751111,9.632 C61.4751111,9.002 61.1811111,8.512 60.6071111,8.148 C60.2291111,7.91 59.6131111,7.686 58.7451111,7.476 C58.0171111,7.28 57.5131111,7.126 57.2471111,7 C56.8271111,6.79 56.6311111,6.524 56.6311111,6.216 C56.6311111,5.894 56.7851111,5.642 57.0931111,5.46 C57.3731111,5.264 57.7651111,5.18 58.2691111,5.18 C58.8431111,5.18 59.2911111,5.292 59.5991111,5.516 C59.8791111,5.712 60.0611111,6.048 60.1591111,6.496 L61.2511111,6.496 C61.0551111,4.984 60.0751111,4.242 58.2831111,4.242 C57.4711111,4.242 56.7991111,4.424 56.2951111,4.788 C55.7491111,5.152 55.4831111,5.628 55.4831111,6.244 C55.4831111,6.86 55.7491111,7.322 56.3091111,7.658 C56.6451111,7.882 57.2471111,8.092 58.1011111,8.302 C58.8851111,8.498 59.4031111,8.652 59.6411111,8.764 C60.0891111,8.988 60.3271111,9.296 60.3271111,9.702 C60.3271111,10.514 59.6691111,10.934 58.3811111,10.934 C57.7651111,10.934 57.3031111,10.822 56.9951111,10.598 C56.6871111,10.346 56.4771111,9.94 56.3931111,9.366 L55.3011111,9.366 C55.4691111,11.032 56.5051111,11.872 58.4091111,11.872 Z M71.4755556,12.964 C72.2315556,12.964 72.6095556,12.572 72.6095556,11.788 L72.6095556,7.616 C73.0155556,7.406 73.4215556,7.182 73.8415556,6.944 L73.8415556,5.95 C73.4355556,6.202 73.0295556,6.426 72.6095556,6.65 L72.6095556,3.78 L73.8415556,3.78 L73.8415556,2.814 L72.6095556,2.814 L72.6095556,0.252 L71.6295556,0.252 L71.6295556,2.814 L69.8515556,2.814 L69.8515556,3.78 L71.6295556,3.78 L71.6295556,7.112 C71.0135556,7.364 70.3975556,7.588 69.7675556,7.77 L69.9915556,8.722 C70.5375556,8.526 71.0835556,8.316 71.6295556,8.078 L71.6295556,11.536 C71.6295556,11.9 71.4615556,12.082 71.1395556,12.082 C70.8035556,12.082 70.4535556,12.054 70.0895556,12.012 L70.2995556,12.964 L71.4755556,12.964 Z M81.9475556,13.09 L81.9475556,5.81 L79.3575556,5.81 L79.3575556,6.706 L81.0095556,6.706 L81.0095556,8.54 L79.3295556,8.54 L79.3295556,9.408 L81.0095556,9.408 L81.0095556,11.396 L78.6575556,11.396 L78.6575556,4.34 L82.4655556,4.34 L82.4655556,3.416 L78.6575556,3.416 L78.6575556,1.89 C80.0015556,1.778 81.1775556,1.624 82.1995556,1.414 L81.7095556,0.574 C79.7215556,0.924 77.2155556,1.106 74.1915556,1.106 L74.5135556,2.03 C75.6615556,2.03 76.7255556,2.002 77.7195556,1.946 L77.7195556,3.416 L74.2755556,3.416 L74.2755556,4.34 L77.7195556,4.34 L77.7195556,11.396 L75.3115556,11.396 L75.3115556,9.422 L77.0475556,9.422 L77.0475556,8.554 L75.3115556,8.554 L75.3115556,6.846 C76.0255556,6.65 76.6835556,6.412 77.2995556,6.132 L76.7115556,5.334 C75.9975556,5.726 75.2275556,6.02 74.4015556,6.216 L74.4015556,12.978 L75.3115556,12.978 L75.3115556,12.292 L81.0095556,12.292 L81.0095556,13.09 L81.9475556,13.09 Z M86.6324444,13.09 L86.6324444,3.738 C87.1924444,2.744 87.6544444,1.694 88.0184444,0.588 L87.0664444,0.154 C86.3944444,2.338 85.3304444,4.284 83.8464444,5.964 L84.1684444,7.042 C84.7004444,6.482 85.1904444,5.894 85.6384444,5.278 L85.6384444,13.09 L86.6324444,13.09 Z M93.0164444,13.02 L93.0164444,8.512 L96.7544444,8.512 L96.7544444,7.546 L93.0164444,7.546 L93.0164444,4.172 L96.2364444,4.172 L96.2364444,3.192 L93.0164444,3.192 L93.0164444,0.28 L92.0084444,0.28 L92.0084444,3.192 L89.9504444,3.192 C90.1464444,2.576 90.3004444,1.904 90.4124444,1.204 L89.4184444,1.078 C89.1104444,2.94 88.5364444,4.522 87.6824444,5.81 L88.3264444,6.65 C88.8444444,5.922 89.2784444,5.096 89.6284444,4.172 L92.0084444,4.172 L92.0084444,7.546 L87.8924444,7.546 L87.8924444,8.512 L92.0084444,8.512 L92.0084444,13.02 L93.0164444,13.02 Z M111.099333,5.516 L111.099333,4.676 L107.277333,4.676 L107.277333,3.724 L110.245333,3.724 L110.245333,2.912 L107.277333,2.912 L107.277333,1.974 L110.749333,1.974 L110.749333,1.148 L107.277333,1.148 L107.277333,0.238 L106.311333,0.238 L106.311333,1.148 L102.923333,1.148 L102.923333,1.974 L106.311333,1.974 L106.311333,2.912 L103.483333,2.912 L103.483333,3.724 L106.311333,3.724 L106.311333,4.676 L102.531333,4.676 L102.531333,5.516 L111.099333,5.516 Z M101.677333,3.22 L102.363333,2.52 C101.719333,1.806 100.935333,1.092 99.9973333,0.392 L99.2833333,1.078 C100.291333,1.834 101.089333,2.548 101.677333,3.22 Z M100.375333,12.586 C101.243333,11.956 102.083333,11.228 102.867333,10.416 L102.601333,9.352 C102.125333,9.842 101.691333,10.276 101.271333,10.668 L101.271333,4.522 L98.3033333,4.522 L98.3033333,5.488 L100.305333,5.488 L100.305333,11.046 C100.305333,11.284 100.193333,11.494 99.9833333,11.69 L100.375333,12.586 Z M104.561333,13.076 L104.561333,10.85 L109.083333,10.85 L109.083333,11.648 C109.083333,11.97 108.901333,12.138 108.565333,12.138 L107.445333,12.096 L107.683333,12.992 L108.859333,12.992 C109.643333,12.992 110.049333,12.614 110.049333,11.858 L110.049333,6.398 L103.595333,6.398 L103.595333,13.076 L104.561333,13.076 Z M109.083333,8.26 L104.561333,8.26 L104.561333,7.224 L109.083333,7.224 L109.083333,8.26 Z M109.083333,10.066 L104.561333,10.066 L104.561333,9.044 L109.083333,9.044 L109.083333,10.066 Z M117.184222,13.09 L117.184222,12.32 L122.966222,12.32 L122.966222,13.09 L123.960222,13.09 L123.960222,6.342 L116.932222,6.342 C117.520222,5.418 118.010222,4.382 118.430222,3.234 L125.262222,3.234 L125.262222,2.268 L118.738222,2.268 C118.920222,1.638 119.074222,0.98 119.214222,0.294 L118.192222,0.168 C118.052222,0.896 117.884222,1.596 117.674222,2.268 L113.012222,2.268 L113.012222,3.234 L117.338222,3.234 C116.358222,5.796 114.762222,7.798 112.550222,9.226 L113.082222,10.178 C114.258222,9.436 115.294222,8.512 116.176222,7.406 L116.176222,13.09 L117.184222,13.09 Z M122.966222,11.354 L117.184222,11.354 L117.184222,7.308 L122.966222,7.308 L122.966222,11.354 Z M129.541111,13.104 L129.541111,12.46 L137.171111,12.46 L137.171111,13.104 L138.137111,13.104 L138.137111,7.798 L137.171111,7.798 L137.171111,11.522 L133.867111,11.522 L133.867111,6.58 L139.537111,6.58 L139.537111,5.6 L133.867111,5.6 L133.867111,3.276 L138.389111,3.276 L138.389111,2.31 L133.867111,2.31 L133.867111,0.336 L132.831111,0.336 L132.831111,2.31 L128.253111,2.31 L128.253111,3.276 L132.831111,3.276 L132.831111,5.6 L127.175111,5.6 L127.175111,6.58 L132.831111,6.58 L132.831111,11.522 L129.541111,11.522 L129.541111,7.798 L128.575111,7.798 L128.575111,13.104 L129.541111,13.104 Z M148.52,13.09 L148.52,6.888 L148.856,6.888 C149.164,8.26 149.766,9.492 150.662,10.584 C150.102,11.256 149.43,11.802 148.632,12.236 L149.164,13.048 C150.004,12.6 150.718,12.026 151.334,11.312 C151.978,11.942 152.734,12.516 153.63,13.034 L154.134,12.18 C153.28,11.69 152.538,11.144 151.908,10.528 C152.552,9.52 153.014,8.288 153.28,6.846 L153.28,5.992 L148.52,5.992 L148.52,1.75 L152.258,1.75 C152.23,2.814 152.174,3.5 152.076,3.808 C151.992,4.018 151.866,4.158 151.698,4.214 C151.53,4.256 151.292,4.284 150.956,4.284 C150.564,4.284 150.256,4.27 150.018,4.27 L150.284,5.138 L151.418,5.138 C152.3,5.138 152.818,4.844 152.986,4.27 C153.154,3.71 153.238,2.562 153.238,0.826 L147.568,0.826 L147.568,13.09 L148.52,13.09 Z M142.206,13.104 C142.78,11.844 143.116,10.234 143.2,8.274 L145.468,8.274 L145.468,11.438 C145.468,11.942 145.286,12.194 144.936,12.194 C144.6,12.194 144.25,12.166 143.858,12.138 L144.096,13.034 L145.216,13.034 C146,13.034 146.392,12.6 146.392,11.76 L146.392,0.84 L142.304,0.84 L142.304,7.56 C142.29,9.52 142.01,11.144 141.45,12.404 L142.206,13.104 Z M145.468,4.116 L143.214,4.116 L143.214,1.75 L145.468,1.75 L145.468,4.116 Z M145.468,7.364 L143.214,7.364 L143.214,5.026 L145.468,5.026 L145.468,7.364 Z M151.236,9.8 C150.522,8.932 150.018,7.966 149.724,6.888 L152.384,6.888 C152.132,7.994 151.754,8.96 151.236,9.8 Z M156.046889,7.126 C158.314889,6.776 160.316889,6.202 162.024889,5.418 C163.760889,6.286 165.734889,6.846 167.946889,7.098 L168.408889,6.16 C166.462889,5.964 164.698889,5.53 163.116889,4.858 C164.404889,4.13 165.496889,3.248 166.392889,2.212 L166.392889,1.4 L160.288889,1.4 C160.484889,1.064 160.666889,0.714 160.820889,0.336 L159.798889,0.196 C159.210889,1.596 158.062889,2.772 156.382889,3.738 L156.998889,4.55 C157.642889,4.158 158.216889,3.724 158.748889,3.248 C159.420889,3.836 160.148889,4.368 160.932889,4.83 C159.392889,5.446 157.614889,5.894 155.584889,6.174 L156.046889,7.126 Z M162.010889,4.34 C161.072889,3.85 160.204889,3.262 159.420889,2.576 L159.602889,2.352 L164.950889,2.352 C164.124889,3.108 163.144889,3.78 162.010889,4.34 Z M156.396889,13.104 C158.972889,12.292 160.610889,11.242 161.324889,9.982 C161.506889,9.646 161.660889,9.296 161.772889,8.932 L165.916889,8.932 C165.874889,10.332 165.748889,11.2 165.538889,11.536 C165.314889,11.872 164.796889,12.054 163.956889,12.068 L162.304889,11.998 L162.556889,12.908 C163.200889,12.936 163.746889,12.964 164.194889,12.964 C165.188889,12.964 165.888889,12.726 166.294889,12.264 C166.700889,11.802 166.910889,10.388 166.938889,8.022 L162.010889,8.022 C162.094889,7.518 162.150889,6.986 162.150889,6.426 L161.156889,6.426 C161.156889,6.986 161.100889,7.518 160.988889,8.022 L156.536889,8.022 L156.536889,8.932 L160.708889,8.932 C160.596889,9.212 160.442889,9.478 160.274889,9.73 C159.546889,10.752 158.020889,11.606 155.724889,12.278 L156.396889,13.104 Z M170.965778,13.93 C171.553778,13.776 172.043778,13.468 172.407778,13.02 C172.771778,12.544 172.953778,11.998 172.953778,11.382 C172.953778,10.976 172.855778,10.654 172.673778,10.402 C172.477778,10.136 172.211778,10.01 171.903778,10.01 C171.623778,10.01 171.413778,10.08 171.245778,10.248 C171.077778,10.402 170.993778,10.612 170.993778,10.878 C170.993778,11.116 171.077778,11.326 171.245778,11.494 C171.413778,11.662 171.609778,11.746 171.847778,11.746 C171.987778,11.746 172.099778,11.718 172.155778,11.69 C172.155778,12.026 172.057778,12.334 171.847778,12.628 C171.623778,12.908 171.329778,13.118 170.965778,13.244 L170.965778,13.93 Z M188.922667,11.074 C190.238667,10.388 191.092667,9.506 191.456667,8.442 C191.694667,7.742 191.834667,6.902 191.876667,5.936 L193.290667,5.936 L193.290667,9.912 C193.290667,10.22 193.374667,10.472 193.570667,10.668 C193.752667,10.864 194.018667,10.962 194.382667,10.962 L195.390667,10.962 C195.866667,10.948 196.202667,10.836 196.398667,10.64 C196.608667,10.416 196.762667,9.73 196.846667,8.568 L195.964667,8.274 C195.908667,9.268 195.796667,9.828 195.628667,9.954 C195.516667,10.038 195.376667,10.08 195.180667,10.08 L194.676667,10.08 C194.368667,10.08 194.228667,9.94 194.228667,9.688 L194.228667,5.936 L196.580667,5.936 L196.580667,4.956 L193.290667,4.956 L193.290667,2.954 L196.090667,2.954 L196.090667,1.988 L193.290667,1.988 L193.290667,0.196 L192.310667,0.196 L192.310667,1.988 L190.462667,1.988 C190.630667,1.54 190.784667,1.078 190.924667,0.588 L189.958667,0.392 C189.622667,1.652 189.076667,2.814 188.320667,3.864 L189.202667,4.41 C189.510667,3.962 189.790667,3.486 190.042667,2.954 L192.310667,2.954 L192.310667,4.956 L188.670667,4.956 L188.670667,5.936 L190.924667,5.936 C190.882667,6.804 190.742667,7.56 190.504667,8.176 C190.140667,9.016 189.398667,9.716 188.264667,10.276 L188.922667,11.074 Z M187.046667,3.346 L187.746667,2.646 C187.102667,1.918 186.318667,1.19 185.380667,0.462 L184.694667,1.12 C185.688667,1.904 186.472667,2.646 187.046667,3.346 Z M185.114667,13.132 C185.898667,11.816 186.458667,11.172 186.808667,11.172 C186.976667,11.172 187.158667,11.284 187.354667,11.522 C187.788667,12.026 188.278667,12.376 188.824667,12.544 C189.384667,12.698 190.126667,12.782 191.022667,12.796 C191.918667,12.81 192.758667,12.824 193.514667,12.824 L196.762667,12.824 L197.014667,11.816 C196.636667,11.844 196.104667,11.858 195.432667,11.872 C194.732667,11.886 194.046667,11.9 193.374667,11.9 C192.282667,11.9 191.358667,11.886 190.630667,11.872 C189.790667,11.844 189.160667,11.732 188.726667,11.536 C188.334667,11.354 187.970667,11.06 187.634667,10.654 C187.522667,10.528 187.410667,10.416 187.298667,10.332 L187.298667,5.096 L184.372667,5.096 L184.372667,6.02 L186.360667,6.02 L186.360667,10.276 C185.772667,10.528 185.114667,11.256 184.358667,12.446 L185.114667,13.132 Z M200.201556,12.95 C201.027556,12.95 201.447556,12.544 201.447556,11.732 L201.447556,7.714 C201.993556,7.49 202.525556,7.252 203.043556,7 L203.043556,5.978 C202.511556,6.244 201.979556,6.496 201.447556,6.72 L201.447556,3.892 L203.015556,3.892 L203.015556,2.926 L201.447556,2.926 L201.447556,0.28 L200.411556,0.28 L200.411556,2.926 L198.703556,2.926 L198.703556,3.892 L200.411556,3.892 L200.411556,7.098 C199.781556,7.308 199.137556,7.49 198.479556,7.644 L198.731556,8.652 C199.291556,8.484 199.851556,8.302 200.411556,8.106 L200.411556,11.466 C200.411556,11.83 200.215556,12.026 199.851556,12.026 C199.501556,12.026 199.137556,11.998 198.773556,11.97 L198.983556,12.95 L200.201556,12.95 Z M203.701556,6.258 C205.059556,5.922 206.235556,5.502 207.215556,4.97 C208.223556,5.558 209.511556,5.964 211.051556,6.174 L211.415556,5.278 C210.141556,5.11 209.049556,4.816 208.153556,4.396 C209.217556,3.64 209.945556,2.73 210.351556,1.638 L210.351556,0.798 L203.715556,0.798 L203.715556,1.708 L204.415556,1.708 C204.807556,2.772 205.437556,3.654 206.319556,4.368 C205.451556,4.788 204.415556,5.124 203.225556,5.404 L203.701556,6.258 Z M207.215556,3.864 C206.389556,3.304 205.787556,2.576 205.409556,1.708 L209.287556,1.708 C208.853556,2.548 208.167556,3.262 207.215556,3.864 Z M207.733556,12.936 L207.733556,10.724 L211.205556,10.724 L211.205556,9.786 L207.733556,9.786 L207.733556,8.19 L210.491556,8.19 L210.491556,7.266 L207.733556,7.266 L207.733556,6.034 L206.753556,6.034 L206.753556,7.266 L203.953556,7.266 L203.953556,8.19 L206.753556,8.19 L206.753556,9.786 L203.239556,9.786 L203.239556,10.724 L206.753556,10.724 L206.753556,12.936 L207.733556,12.936 Z M217.682444,3.92 C217.948444,3.92 218.158444,3.836 218.326444,3.682 C218.494444,3.514 218.592444,3.304 218.592444,3.052 C218.592444,2.8 218.508444,2.604 218.354444,2.436 C218.186444,2.268 217.976444,2.198 217.738444,2.198 C217.598444,2.198 217.486444,2.212 217.430444,2.24 C217.430444,1.904 217.528444,1.596 217.738444,1.33 C217.962444,1.022 218.256444,0.812 218.634444,0.7 L218.634444,1.43884904e-13 C218.018444,0.154 217.542444,0.462 217.178444,0.924 C216.814444,1.372 216.646444,1.918 216.646444,2.548 C216.646444,2.94 216.730444,3.276 216.912444,3.528 C217.108444,3.78 217.360444,3.92 217.682444,3.92 Z M214.910444,3.92 C215.190444,3.92 215.414444,3.836 215.582444,3.682 C215.736444,3.514 215.820444,3.304 215.820444,3.052 C215.820444,2.8 215.736444,2.604 215.568444,2.436 C215.400444,2.268 215.204444,2.198 214.980444,2.198 C214.826444,2.198 214.714444,2.212 214.658444,2.24 C214.658444,1.904 214.756444,1.596 214.980444,1.316 C215.190444,1.022 215.484444,0.812 215.862444,0.7 L215.862444,1.43884904e-13 C215.246444,0.154 214.770444,0.462 214.420444,0.924 C214.056444,1.372 213.874444,1.918 213.874444,2.548 C213.874444,2.954 213.958444,3.276 214.154444,3.528 C214.336444,3.78 214.588444,3.92 214.910444,3.92 Z" id="Jetbrains插件请右击服务，选择“" fill="#36435C"></path>
                        <path d="M224.607333,11.872 C225.797333,11.872 226.735333,11.62 227.435333,11.13 C228.135333,10.626 228.485333,9.926 228.485333,9.058 C228.485333,8.148 228.065333,7.448 227.239333,6.944 C226.819333,6.692 225.951333,6.37 224.635333,5.978 C223.669333,5.698 223.053333,5.488 222.801333,5.348 C222.227333,5.04 221.947333,4.634 221.947333,4.13 C221.947333,3.556 222.185333,3.136 222.661333,2.856 C223.081333,2.604 223.655333,2.492 224.397333,2.492 C225.209333,2.492 225.839333,2.66 226.287333,3.024 C226.721333,3.374 227.001333,3.906 227.127333,4.634 L228.261333,4.634 C228.163333,3.584 227.785333,2.786 227.113333,2.254 C226.469333,1.736 225.573333,1.484 224.453333,1.484 C223.417333,1.484 222.563333,1.708 221.905333,2.156 C221.163333,2.632 220.799333,3.318 220.799333,4.186 C220.799333,5.026 221.177333,5.67 221.947333,6.118 C222.269333,6.286 223.039333,6.566 224.243333,6.93 C225.363333,7.252 226.077333,7.49 226.357333,7.658 C227.015333,8.008 227.351333,8.498 227.351333,9.128 C227.351333,9.66 227.099333,10.08 226.595333,10.388 C226.091333,10.696 225.419333,10.85 224.607333,10.85 C223.711333,10.85 223.039333,10.654 222.577333,10.29 C222.073333,9.884 221.765333,9.24 221.667333,8.372 L220.533333,8.372 C220.617333,9.604 221.051333,10.514 221.835333,11.116 C222.507333,11.62 223.431333,11.872 224.607333,11.872 Z M233.660222,11.676 L233.660222,10.738 L232.736222,10.738 C232.484222,10.738 232.302222,10.668 232.204222,10.556 C232.092222,10.444 232.050222,10.248 232.050222,9.982 L232.050222,5.376 L233.842222,5.376 L233.842222,4.438 L232.050222,4.438 L232.050222,2.1 L230.944222,2.562 L230.944222,4.438 L229.488222,4.438 L229.488222,5.376 L230.944222,5.376 L230.944222,9.982 C230.944222,10.528 231.056222,10.934 231.294222,11.214 C231.546222,11.522 231.980222,11.676 232.568222,11.676 L233.660222,11.676 Z M237.533111,11.872 C238.205111,11.872 238.807111,11.718 239.339111,11.424 C239.787111,11.172 240.165111,10.85 240.445111,10.458 L240.445111,11.676 L241.495111,11.676 L241.495111,7.028 C241.495111,6.188 241.271111,5.53 240.851111,5.054 C240.347111,4.508 239.591111,4.242 238.555111,4.242 C237.687111,4.242 237.001111,4.41 236.469111,4.746 C235.881111,5.11 235.503111,5.684 235.349111,6.44 L236.455111,6.524 C236.567111,6.062 236.805111,5.712 237.183111,5.488 C237.519111,5.264 237.953111,5.166 238.485111,5.166 C239.745111,5.166 240.375111,5.768 240.375111,6.986 L240.375111,7.364 L238.639111,7.392 C237.547111,7.406 236.707111,7.616 236.119111,8.008 C235.447111,8.428 235.125111,9.044 235.125111,9.87 C235.125111,10.458 235.349111,10.948 235.797111,11.326 C236.231111,11.69 236.805111,11.872 237.533111,11.872 Z M237.771111,10.99 C237.323111,10.99 236.959111,10.878 236.679111,10.668 C236.399111,10.444 236.273111,10.178 236.273111,9.842 C236.273111,8.792 237.085111,8.26 238.709111,8.232 L240.375111,8.204 L240.375111,8.82 C240.375111,9.38 240.109111,9.884 239.591111,10.318 C239.059111,10.766 238.457111,10.99 237.771111,10.99 Z M244.654,11.676 L244.654,7.84 C244.654,7.168 244.836,6.594 245.228,6.118 C245.606,5.614 246.082,5.376 246.642,5.376 C246.992,5.376 247.356,5.418 247.72,5.53 L247.72,4.41 C247.454,4.298 247.118,4.242 246.726,4.242 C246.222,4.242 245.788,4.396 245.41,4.704 C245.102,4.942 244.85,5.278 244.654,5.698 L244.654,4.438 L243.548,4.438 L243.548,11.676 L244.654,11.676 Z M4.27,31.676 C5.838,31.676 7.042,31.214 7.882,30.304 C8.68,29.436 9.086,28.218 9.086,26.678 C9.086,25.11 8.708,23.892 7.966,23.052 C7.154,22.128 5.964,21.68 4.382,21.68 L0.798,21.68 L0.798,31.676 L4.27,31.676 Z M4.074,30.682 L1.946,30.682 L1.946,22.674 L4.2,22.674 C5.516,22.674 6.468,23.01 7.084,23.696 C7.658,24.34 7.952,25.334 7.952,26.678 C7.952,27.98 7.63,28.974 7.014,29.646 C6.356,30.332 5.376,30.682 4.074,30.682 Z M13.566,31.872 C14.504,31.872 15.274,31.592 15.876,31.06 C16.366,30.612 16.688,30.052 16.856,29.352 L15.736,29.352 C15.554,29.856 15.316,30.234 15.008,30.486 C14.644,30.78 14.154,30.934 13.566,30.934 C12.88,30.934 12.334,30.71 11.942,30.262 C11.55,29.814 11.34,29.184 11.284,28.372 L16.996,28.372 C16.968,27.112 16.688,26.118 16.156,25.418 C15.568,24.634 14.686,24.242 13.524,24.242 C12.474,24.242 11.648,24.62 11.032,25.376 C10.416,26.09 10.122,26.986 10.122,28.05 C10.122,29.226 10.43,30.15 11.074,30.85 C11.69,31.522 12.53,31.872 13.566,31.872 Z M15.834,27.504 L11.312,27.504 C11.382,26.79 11.606,26.23 11.998,25.81 C12.39,25.39 12.908,25.18 13.552,25.18 C14.924,25.18 15.694,25.95 15.834,27.504 Z M21.378,31.676 L24.122,24.438 L22.89,24.438 L20.818,30.276 L18.746,24.438 L17.514,24.438 L20.244,31.676 L21.378,31.676 Z M26.348,31.676 L26.348,23.724 L26.39,23.724 L29.848,31.676 L30.884,31.676 L34.342,23.724 L34.384,23.724 L34.384,31.676 L35.532,31.676 L35.532,21.68 L34.104,21.68 L30.394,30.206 L30.352,30.206 L26.628,21.68 L25.2,21.68 L25.2,31.676 L26.348,31.676 Z M40.642,31.872 C41.72,31.872 42.588,31.494 43.246,30.738 C43.848,30.038 44.156,29.142 44.156,28.064 C44.156,26.972 43.848,26.076 43.232,25.362 C42.588,24.606 41.72,24.242 40.642,24.242 C39.55,24.242 38.696,24.606 38.052,25.362 C37.436,26.076 37.128,26.972 37.128,28.064 C37.128,29.142 37.436,30.038 38.052,30.738 C38.696,31.494 39.55,31.872 40.642,31.872 Z M40.642,30.934 C39.872,30.934 39.27,30.64 38.85,30.052 C38.458,29.52 38.276,28.862 38.276,28.064 C38.276,27.252 38.458,26.594 38.85,26.062 C39.27,25.474 39.872,25.18 40.642,25.18 C41.398,25.18 42,25.474 42.448,26.062 C42.826,26.594 43.022,27.252 43.022,28.064 C43.022,28.848 42.826,29.52 42.448,30.052 C42,30.64 41.398,30.934 40.642,30.934 Z M48.622,31.872 C49.714,31.872 50.526,31.41 51.03,30.486 L51.03,31.676 L52.08,31.676 L52.08,21.484 L50.96,21.484 L50.96,25.768 C50.4,24.746 49.602,24.242 48.566,24.242 C47.53,24.242 46.732,24.62 46.144,25.404 C45.598,26.104 45.332,26.972 45.332,28.036 C45.332,29.128 45.598,30.024 46.144,30.724 C46.732,31.48 47.558,31.872 48.622,31.872 Z M48.762,30.948 C47.978,30.948 47.39,30.654 46.998,30.094 C46.648,29.59 46.48,28.904 46.48,28.036 C46.48,27.168 46.648,26.496 47.012,26.006 C47.404,25.446 48.006,25.166 48.804,25.166 C49.448,25.166 49.98,25.418 50.386,25.95 C50.778,26.468 50.988,27.154 50.988,27.994 L50.988,28.134 C50.988,28.946 50.806,29.604 50.456,30.108 C50.05,30.668 49.49,30.948 48.762,30.948 Z M56.84,31.872 C57.778,31.872 58.548,31.592 59.15,31.06 C59.64,30.612 59.962,30.052 60.13,29.352 L59.01,29.352 C58.828,29.856 58.59,30.234 58.282,30.486 C57.918,30.78 57.428,30.934 56.84,30.934 C56.154,30.934 55.608,30.71 55.216,30.262 C54.824,29.814 54.614,29.184 54.558,28.372 L60.27,28.372 C60.242,27.112 59.962,26.118 59.43,25.418 C58.842,24.634 57.96,24.242 56.798,24.242 C55.748,24.242 54.922,24.62 54.306,25.376 C53.69,26.09 53.396,26.986 53.396,28.05 C53.396,29.226 53.704,30.15 54.348,30.85 C54.964,31.522 55.804,31.872 56.84,31.872 Z M59.108,27.504 L54.586,27.504 C54.656,26.79 54.88,26.23 55.272,25.81 C55.664,25.39 56.182,25.18 56.826,25.18 C58.198,25.18 58.968,25.95 59.108,27.504 Z" id="StarDevMode" fill="#0080FF"></path>
                        <path d="M64.61,23.906 C65.198,23.738 65.688,23.43 66.052,22.982 C66.416,22.52 66.598,21.974 66.598,21.358 C66.598,20.938 66.5,20.616 66.318,20.364 C66.122,20.112 65.856,19.986 65.548,19.986 C65.268,19.986 65.058,20.056 64.904,20.224 C64.722,20.378 64.638,20.588 64.638,20.854 C64.638,21.092 64.722,21.288 64.89,21.456 C65.058,21.624 65.254,21.708 65.492,21.708 C65.632,21.708 65.744,21.694 65.8,21.666 C65.8,22.002 65.702,22.31 65.492,22.604 C65.268,22.884 64.974,23.08 64.61,23.206 L64.61,23.906 Z M61.838,23.906 C62.426,23.738 62.916,23.43 63.28,22.982 C63.644,22.52 63.826,21.974 63.826,21.358 C63.826,20.938 63.728,20.616 63.546,20.364 C63.35,20.112 63.098,19.986 62.79,19.986 C62.51,19.986 62.286,20.056 62.118,20.224 C61.95,20.378 61.88,20.588 61.88,20.854 C61.88,21.092 61.964,21.288 62.132,21.456 C62.286,21.624 62.482,21.708 62.72,21.708 C62.86,21.708 62.972,21.694 63.028,21.666 C63.028,22.002 62.93,22.31 62.706,22.604 C62.482,22.884 62.202,23.08 61.838,23.206 L61.838,23.906 Z M79.184,31.144 L79.184,27.126 L81.41,27.126 L81.41,26.174 L79.184,26.174 L79.184,23.388 L80.962,23.388 L80.962,22.45 L79.184,22.45 L79.184,20.238 L78.204,20.238 L78.204,22.45 L75.992,22.45 L75.992,20.224 L75.026,20.224 L75.026,22.45 L73.374,22.45 L73.374,23.388 L75.026,23.388 L75.026,24.494 C75.026,25.082 74.984,25.642 74.914,26.174 L72.884,26.174 L72.884,27.126 L74.732,27.126 C74.424,28.442 73.822,29.422 72.94,30.052 L73.542,30.864 C74.62,30.052 75.348,28.806 75.712,27.126 L78.204,27.126 L78.204,31.144 L79.184,31.144 Z M71.68,23.346 L72.408,22.632 C71.764,21.904 70.966,21.19 70.028,20.462 L69.342,21.12 C70.336,21.918 71.12,22.66 71.68,23.346 Z M78.204,26.174 L75.88,26.174 C75.95,25.586 75.992,24.942 75.992,24.27 L75.992,23.388 L78.204,23.388 L78.204,26.174 Z M69.874,33.104 C70.644,31.816 71.19,31.172 71.526,31.172 C71.694,31.172 71.876,31.284 72.058,31.522 C72.492,32.026 72.982,32.376 73.528,32.544 C74.088,32.698 74.802,32.782 75.698,32.796 C76.58,32.81 77.406,32.824 78.162,32.824 L81.368,32.824 L81.606,31.816 C81.242,31.844 80.71,31.858 80.038,31.872 C79.352,31.886 78.68,31.9 78.022,31.9 C76.944,31.9 76.034,31.886 75.306,31.872 C74.494,31.844 73.864,31.732 73.444,31.536 C73.052,31.354 72.702,31.06 72.366,30.654 C72.254,30.528 72.142,30.416 72.03,30.332 L72.03,25.096 L69.09,25.096 L69.09,26.02 L71.092,26.02 L71.092,30.276 C70.518,30.528 69.86,31.242 69.118,32.418 L69.874,33.104 Z M83.384,32.88 C86.324,30.976 88.256,28.232 89.18,24.662 C89.25,24.83 89.32,25.026 89.404,25.25 C90.846,28.946 92.694,31.494 94.962,32.866 L95.592,32.054 C93.38,30.668 91.63,28.302 90.314,24.956 C89.446,22.688 88.396,21.106 87.15,20.238 L86.31,20.77 C87.206,21.414 87.976,22.31 88.62,23.486 C87.724,27.21 85.778,30.066 82.782,32.026 L83.384,32.88 Z M97.846,33.048 C99.078,32.404 99.96,31.494 100.492,30.318 C100.912,29.366 101.178,28.176 101.304,26.734 L105.35,26.734 L105.35,32.936 L106.372,32.936 L106.372,26.734 L109.438,26.734 L109.438,25.768 L106.372,25.768 L106.372,22.058 L108.71,22.058 L108.71,21.078 L97.804,21.078 L97.804,22.058 L100.352,22.058 L100.352,25.278 C100.352,25.418 100.338,25.586 100.338,25.768 L97.048,25.768 L97.048,26.734 L100.282,26.734 C100.17,27.854 99.974,28.806 99.68,29.618 C99.232,30.682 98.434,31.536 97.3,32.18 L97.846,33.048 Z M105.35,25.768 L101.374,25.768 C101.374,25.614 101.388,25.446 101.388,25.278 L101.388,22.058 L105.35,22.058 L105.35,25.768 Z M114.198,33.118 C115.892,32.46 117.32,31.732 118.468,30.92 C119.644,31.69 121.128,32.404 122.92,33.062 L123.438,32.124 C121.814,31.564 120.428,30.948 119.294,30.276 C120.442,29.296 121.198,28.204 121.576,27 L121.576,26.132 L115.85,26.132 C116.046,25.628 116.214,25.096 116.382,24.536 L123.2,24.536 L123.2,23.57 L116.648,23.57 C116.9,22.534 117.124,21.442 117.306,20.266 L116.284,20.14 C116.116,21.344 115.892,22.478 115.612,23.57 L113.162,23.57 L113.96,20.812 L112.966,20.644 L111.86,24.536 L115.332,24.536 C114.352,27.658 112.854,30.108 110.81,31.9 L111.328,32.824 C112.924,31.522 114.24,29.772 115.262,27.56 C115.724,28.54 116.494,29.45 117.586,30.29 C116.536,30.976 115.234,31.606 113.666,32.18 L114.198,33.118 Z M121.45,23.276 L122.164,22.562 C121.492,21.792 120.666,21.022 119.658,20.252 L118.986,20.91 C120.036,21.75 120.862,22.534 121.45,23.276 Z M118.412,29.702 C117.292,28.89 116.494,28.008 116.018,27.056 L120.554,27.056 C120.162,28.008 119.448,28.89 118.412,29.702 Z M132.104,23.346 L132.104,22.296 L134.358,22.296 L134.358,23.346 L135.31,23.346 L135.31,22.296 L137.48,22.296 L137.48,21.4 L135.31,21.4 L135.31,20.28 L134.358,20.28 L134.358,21.4 L132.104,21.4 L132.104,20.28 L131.166,20.28 L131.166,21.4 L129.122,21.4 L129.122,22.296 L131.166,22.296 L131.166,23.346 L132.104,23.346 Z M127.764,33.034 L127.764,25.908 C128.128,26.482 128.576,27.224 129.094,28.148 L129.626,27.35 C128.982,26.412 128.366,25.572 127.764,24.844 L127.764,23.92 L129.234,23.92 L129.234,23.01 L127.764,23.01 L127.764,20.294 L126.812,20.294 L126.812,23.01 L125.188,23.01 L125.188,23.92 L126.812,23.92 L126.812,24.004 C126.392,25.712 125.692,27.224 124.726,28.568 L125.16,29.66 C125.832,28.582 126.378,27.378 126.812,26.062 L126.812,33.034 L127.764,33.034 Z M136.99,33.118 L137.662,32.32 C136.01,31.732 134.778,30.962 133.966,30.01 L137.508,30.01 L137.508,29.086 L133.476,29.086 C133.56,28.764 133.644,28.414 133.7,28.022 L136.57,28.022 L136.57,23.78 L129.864,23.78 L129.864,28.022 L132.804,28.022 C132.734,28.386 132.65,28.75 132.538,29.086 L128.856,29.086 L128.856,30.01 L132.118,30.01 C132.006,30.206 131.866,30.388 131.726,30.57 C131.11,31.284 130.116,31.83 128.716,32.208 L129.08,33.048 C130.69,32.586 131.81,31.956 132.454,31.144 C132.678,30.864 132.888,30.542 133.056,30.192 C133.868,31.368 135.17,32.334 136.99,33.118 Z M135.66,25.53 L130.774,25.53 L130.774,24.592 L135.66,24.592 L135.66,25.53 Z M135.66,27.238 L130.774,27.238 L130.774,26.286 L135.66,26.286 L135.66,27.238 Z M149.814,33.034 C150.528,33.02 151.102,31.998 151.522,29.982 L150.612,29.506 C150.318,31.074 150.024,31.872 149.744,31.914 C149.282,31.914 148.75,31.13 148.162,29.59 C147.616,28.022 147.252,26.076 147.084,23.724 L151.354,23.724 L151.354,22.744 L147.028,22.744 C146.986,21.96 146.972,21.134 146.972,20.266 L145.936,20.266 C145.936,21.12 145.95,21.946 145.992,22.744 L139.146,22.744 L139.146,23.724 L146.048,23.724 C146.16,25.488 146.37,27.028 146.692,28.358 C147.532,31.41 148.568,32.978 149.814,33.034 Z M149.562,22.604 L150.402,22.184 C149.982,21.512 149.548,20.896 149.086,20.336 L148.246,20.742 C148.722,21.288 149.156,21.904 149.562,22.604 Z M139.314,32.166 C141.638,31.83 143.822,31.424 145.838,30.934 L145.838,29.954 C144.858,30.206 143.864,30.444 142.828,30.64 L142.828,27 L145.292,27 L145.292,26.048 L139.356,26.048 L139.356,27 L141.82,27 L141.82,30.822 C140.924,30.962 140,31.102 139.076,31.214 L139.314,32.166 Z" id="”进入开发模式" fill="#36435C"></path>
                    </g>
                </g>
            </g>
            <g id="编组-14" mask="url(#mask-2)">
                <g transform="translate(6.000000, 64.000000)">
                    <rect id="矩形" stroke="none" fill="#0080FF" fill-rule="evenodd" x="40" y="77" width="231" height="20" rx="2"></rect>
                    <line x1="7" y1="14" x2="7" y2="176" id="路径-6" stroke="#D4DFEB" stroke-width="1" fill="none" opacity="0.5"></line>
                    <line x1="17" y1="34" x2="17" y2="196" id="路径-6备份" stroke="#D4DFEB" stroke-width="1" fill="none" opacity="0.5"></line>
                    <line x1="27" y1="54" x2="27" y2="216" id="路径-6备份-2" stroke="#D4DFEB" stroke-width="1" fill="none" opacity="0.5"></line>
                    <line x1="37" y1="74" x2="37" y2="236" id="路径-6备份-3" stroke="#D4DFEB" stroke-width="1" fill="none" opacity="0.5"></line>
                    <g id="编组-7" stroke="none" stroke-width="1" fill="none" fill-rule="evenodd">
                        <g id="namespace备份-2" transform="translate(20.000000, 0.000000)" fill="#D4DFEB" fill-rule="nonzero">
                            <g id="应用" transform="translate(1.000000, 0.419851)">
                                <path d="M5.46114286,12.5384047 L5.46114286,7.47263923 C5.46114286,7.03832946 5.17371429,6.60401971 4.81428572,6.38656937 L0.64685715,3.78189259 C0.287428571,3.63653178 0,3.78189259 0,4.14352195 L0,9.20928739 C0,9.64359715 0.287428571,10.0779069 0.64685715,10.2947663 L4.81428572,12.9006249 C5.17371429,13.1174843 5.46114286,12.9727144 5.46114286,12.5384047 Z M1.29314286,2.91327308 L5.38914286,5.51854075 C5.74857143,5.73540018 6.252,5.73540018 6.61085715,5.59063026 L10.7068572,3.49176186 C11.0657143,3.27490243 11.0657143,2.98536258 10.7068572,2.76850315 L6.39542858,0.162644572 C6.10800001,-0.0542148573 5.53257144,-0.0542148573 5.17371429,0.162644572 L1.29371429,2.18942347 C0.934285721,2.4062829 0.934285721,2.69582274 1.29314286,2.91327308 Z M7.25771429,12.900034 L11.3531429,10.8011656 C11.7125714,10.5843062 12,10.1499964 12,9.71568666 L12,4.65051213 C12,4.21620236 11.7125714,4.07143244 11.3531429,4.28888277 L7.25771429,6.38716027 C6.89771428,6.60461059 6.61085715,7.03892036 6.61085715,7.47323012 L6.61085715,12.5389956 C6.61085715,12.9727144 6.89828572,13.1174844 7.25771429,12.900034 Z" id="形状"></path>
                            </g>
                        </g>
                        <g id="arrow_down" stroke="#D4DFEB" stroke-width="2">
                            <polyline id="路径-7" points="2.5 5 7 9.5 11.5 5"></polyline>
                        </g>
                        <path d="M44,3 L96,3 C98.209139,3 100,4.790861 100,7 C100,9.209139 98.209139,11 96,11 L44,11 C41.790861,11 40,9.209139 40,7 C40,4.790861 41.790861,3 44,3 Z" id="矩形" fill="#D4DFEB"></path>
                    </g>
                    <g id="编组-7备份" stroke="none" stroke-width="1" fill="none" fill-rule="evenodd" transform="translate(10.000000, 20.000000)">
                        <g id="app_connected备份-2" transform="translate(20.000000, 0.000000)" fill="#D4DFEB">
                            <path d="M7,2 C8.87116425,2 10.4422446,3.2848121 10.8791657,5.02036107 C12.6334179,5.2088765 14,6.69484707 14,8.5 C14,10.2629068 12.6966339,11.7213961 11.0009499,11.9644196 L11,12 L4,12 C1.790861,12 0,10.209139 0,8 C0,5.95358546 1.53674929,4.26609794 3.5191836,4.02860171 C4.20617545,2.81725705 5.50764742,2 7,2 Z M8.84877393,5.57471429 L6.0203468,8.40314142 L4.60613324,6.98892785 L3.89902646,7.69603463 L6.0203468,9.81735498 L9.55588071,6.28182107 L8.84877393,5.57471429 Z" id="形状结合"></path>
                        </g>
                        <g id="arrow_down" stroke="#D4DFEB" stroke-width="2">
                            <polyline id="路径-7" points="2.5 5 7 9.5 11.5 5"></polyline>
                        </g>
                        <path d="M44,3 L86,3 C88.209139,3 90,4.790861 90,7 C90,9.209139 88.209139,11 86,11 L44,11 C41.790861,11 40,9.209139 40,7 C40,4.790861 41.790861,3 44,3 Z" id="矩形" fill="#D4DFEB"></path>
                    </g>
                    <g id="编组-7备份-2" stroke="none" stroke-width="1" fill="none" fill-rule="evenodd" transform="translate(20.000000, 40.000000)">
                        <g id="arrow_down" stroke="#D4DFEB" stroke-width="2">
                            <polyline id="路径-7" points="2.5 5 7 9.5 11.5 5"></polyline>
                        </g>
                        <rect id="矩形" fill="#D4DFEB" x="20" y="3" width="90" height="8" rx="4"></rect>
                    </g>
                    <g id="编组-7备份-3" stroke="none" stroke-width="1" fill="none" fill-rule="evenodd" transform="translate(30.000000, 60.000000)">
                        <g id="arrow_down" stroke="#D4DFEB" stroke-width="2">
                            <polyline id="路径-7" points="2.5 5 7 9.5 11.5 5"></polyline>
                        </g>
                        <rect id="矩形" fill="#D4DFEB" x="20" y="3" width="80" height="8" rx="4"></rect>
                    </g>
                    <g id="编组-7备份-4" stroke="none" stroke-width="1" fill="none" fill-rule="evenodd" transform="translate(40.000000, 80.000000)">
                        <g id="status_running备份-2" fill="#5DE29E">
                            <circle id="椭圆形" cx="7" cy="7" r="3"></circle>
                        </g>
                        <path d="M24,3 L98,3 C100.209139,3 102,4.790861 102,7 C102,9.209139 100.209139,11 98,11 L24,11 C21.790861,11 20,9.209139 20,7 C20,4.790861 21.790861,3 24,3 Z" id="矩形" fill="#D4DFEB"></path>
                    </g>
                    <g id="编组-7备份-5" stroke="none" stroke-width="1" fill="none" fill-rule="evenodd" transform="translate(40.000000, 100.000000)">
                        <g id="status_running备份-2" fill="#5DE29E">
                            <circle id="椭圆形" cx="7" cy="7" r="3"></circle>
                        </g>
                        <path d="M24,3 L98,3 C100.209139,3 102,4.790861 102,7 C102,9.209139 100.209139,11 98,11 L24,11 C21.790861,11 20,9.209139 20,7 C20,4.790861 21.790861,3 24,3 Z" id="矩形" fill="#D4DFEB"></path>
                    </g>
                    <g id="编组-7备份-6" stroke="none" stroke-width="1" fill="none" fill-rule="evenodd" transform="translate(40.000000, 120.000000)">
                        <g id="status_running备份-2" fill="#5DE29E">
                            <circle id="椭圆形" cx="7" cy="7" r="3"></circle>
                        </g>
                        <path d="M24,3 L98,3 C100.209139,3 102,4.790861 102,7 C102,9.209139 100.209139,11 98,11 L24,11 C21.790861,11 20,9.209139 20,7 C20,4.790861 21.790861,3 24,3 Z" id="矩形" fill="#D4DFEB"></path>
                    </g>
                    <g id="编组-7备份-7" stroke="none" stroke-width="1" fill="none" fill-rule="evenodd" transform="translate(40.000000, 140.000000)">
                        <g id="status_running备份-2" fill="#5DE29E">
                            <circle id="椭圆形" cx="7" cy="7" r="3"></circle>
                        </g>
                        <path d="M24,3 L98,3 C100.209139,3 102,4.790861 102,7 C102,9.209139 100.209139,11 98,11 L24,11 C21.790861,11 20,9.209139 20,7 C20,4.790861 21.790861,3 24,3 Z" id="矩形" fill="#D4DFEB"></path>
                    </g>
                </g>
            </g>
            <g id="编组-16" mask="url(#mask-2)">
                <g transform="translate(158.000000, 135.000000)">
                    <g id="矩形" fill="none">
                        <use fill="black" fill-opacity="1" filter="url(#filter-4)" xlink:href="#path-3"></use>
                        <use fill="#F9FBFD" fill-rule="evenodd" xlink:href="#path-3"></use>
                    </g>
                    <g id="编组-17" stroke-width="1" fill="none" fill-rule="evenodd" transform="translate(6.000000, 6.000000)">
                        <path d="M2,0 L105,0 C106.104569,-2.02906125e-16 107,0.8954305 107,2 L107,18 C107,19.1045695 106.104569,20 105,20 L2,20 C0.8954305,20 1.3527075e-16,19.1045695 0,18 L0,2 C-5.7935996e-16,0.8954305 0.8954305,2.02906125e-16 2,0 Z" id="矩形" fill="#0080FF"></path>
                        <g id="setting_normal备份-2" transform="translate(3.000000, 3.000000)" fill="#FFFFFF" fill-rule="nonzero">
                            <path d="M8.1,3.4 L7.6,1 L6.4,1 L5.9,3.4 L5.2,3.7 L3.2,2.4 L2.3,3.2 L3.6,5.2 L3.4,5.9 L1,6.4 L1,7.6 L3.4,8.1 L3.7,8.9 L2.4,10.9 L3.2,11.7 L5.2,10.4 L6,10.7 L6.4,13 L7.6,13 L8.1,10.6 L8.9,10.3 L10.9,11.6 L11.7,10.8 L10.4,8.8 L10.7,8 L13,7.6 L13,6.4 L10.6,5.9 L10.3,5.1 L11.6,3.1 L10.8,2.3 L8.8,3.6 L8.1,3.4 L8.1,3.4 Z M8.4,0 L8.9,2.4 L11,1.1 L13,3.1 L11.6,5.2 L14,5.6 L14,8.4 L11.6,8.9 L13,11 L11,13 L8.9,11.6 L8.4,14 L5.6,14 L5.1,11.6 L3,12.9 L1,10.9 L2.4,8.8 L0,8.4 L0,5.6 L2.4,5.1 L1.1,3 L3.1,1 L5.2,2.4 L5.6,0 L8.4,0 Z M9,7 C9,8.1 8.1,9 7,9 C5.9,9 5,8.1 5,7 C5,5.9 5.9,5 7,5 C8.1,5 9,5.9 9,7 Z M7,8 C7.6,8 8,7.6 8,7 C8,6.4 7.6,6 7,6 C6.4,6 6,6.4 6,7 C6,7.6 6.4,8 7,8 Z" id="形状"></path>
                        </g>
                        <text id="Star-DevMode" font-family="PingFangSC-Semibold, PingFang SC" font-size="12" font-weight="500" line-spacing="14" fill="#FFFFFF">
                            <tspan x="21" y="16">Star DevMode</tspan>
                        </text>
                    </g>
                    <path d="M31,32 L106,32 C108.209139,32 110,33.790861 110,36 C110,38.209139 108.209139,40 106,40 L31,40 C28.790861,40 27,38.209139 27,36 C27,33.790861 28.790861,32 31,32 Z" id="矩形" fill="#D4DFEB" fill-rule="evenodd"></path>
                    <path d="M31,52 L106,52 C108.209139,52 110,53.790861 110,56 C110,58.209139 108.209139,60 106,60 L31,60 C28.790861,60 27,58.209139 27,56 C27,53.790861 28.790861,52 31,52 Z" id="矩形备份-4" fill="#D4DFEB" fill-rule="evenodd"></path>
                    <rect id="矩形备份" fill="#D4DFEB" fill-rule="evenodd" x="9" y="29" width="14" height="14" rx="2"></rect>
                    <rect id="矩形备份-3" fill="#D4DFEB" fill-rule="evenodd" x="9" y="49" width="14" height="14" rx="2"></rect>
                </g>
            </g>
        </g>
    </g>
</svg>