<?xml version="1.0" encoding="UTF-8"?>
<svg width="100px" height="100px" viewBox="0 0 100 100" version="1.1" xmlns="http://www.w3.org/2000/svg" xmlns:xlink="http://www.w3.org/1999/xlink">
    <title>image_yamlEmpty</title>
    <g id="Web" stroke="none" stroke-width="1" fill="none" fill-rule="evenodd">
        <g id="14-交互补充" transform="translate(-727.000000, -384.000000)" fill-rule="nonzero">
            <g id="编组-3" transform="translate(567.000000, 30.000000)">
                <g id="编组" transform="translate(160.000000, 354.000000)">
                    <g id="小程序-订单为空" transform="translate(0.769231, 0.000000)">
                        <path d="M27.1252412,100 L90.1653645,100 C94.3223259,100 97.6923077,96.6517109 97.6923077,92.5215028 L97.6923077,42.0374576 C97.6923077,39.9718881 96.0077813,38.298209 93.9293007,38.298209 L27.124312,38.298209 C25.0467605,38.298209 23.361305,39.9718881 23.361305,42.0374576 L23.361305,96.2607514 C23.361305,98.3263209 25.0467605,100 27.124312,100 L27.1252412,100 Z" id="路径" fill="#04102D"></path>
                        <path d="M3.72769978,6.3828797 L79.6512442,6.3828797 C81.710213,6.3828797 83.378944,8.04259597 83.378944,10.0904792 L83.378944,89.1806605 C83.378944,96.3938638 86.0251277,100 91.3202825,100 L12.1140952,100 C5.42430492,100 0,94.6056894 0,87.9509997 L0,10.0904792 C0,8.04259597 1.66873101,6.3828797 3.72769978,6.3828797 Z" id="路径" fill="#193067"></path>
                        <path d="M19.7934169,0 L60.9105402,0 C62.4584833,0 63.7137481,1.33391667 63.7137481,2.97873925 L63.7137481,11.914957 C63.7137481,13.5597796 62.4584833,14.8936962 60.9105402,14.8936962 L19.7934169,14.8936962 C18.2454737,14.8936962 16.9902089,13.5597796 16.9902089,11.914957 L16.9902089,2.97873925 C16.9902089,1.33391667 18.2445446,0 19.7934169,0 L19.7934169,0 Z M59.5902357,54.1655763 C61.8252612,54.1623377 63.6544567,55.9465711 63.7109607,58.1850169 C63.7601991,60.4233905 62.0169073,62.2918238 59.7844255,62.393417 L59.5893066,62.3980809 L21.1137213,62.3980809 C18.8783174,62.4028571 17.047729,60.6192987 16.9902089,58.3804967 C16.9404733,56.1414191 18.6844552,54.272275 20.9176733,54.1711658 L21.111863,54.1665115 L59.5893066,54.1665115 L59.5902357,54.1655763 Z M59.5902357,34.0423309 C61.8252612,34.0390924 63.6544567,35.8233257 63.7109607,38.0617716 C63.7601991,40.3001451 62.0169073,42.1685785 59.7844255,42.2701716 L59.5893066,42.2748354 L21.1137213,42.2748354 C18.8776134,42.2795875 17.0467377,40.4949225 16.9902089,38.2553897 C16.9414981,36.0170286 18.6851931,34.1490185 20.9176733,34.0479205 L21.111863,34.0423309 L59.5893066,34.0423309 L59.5902357,34.0423309 Z M40.3515139,74.7468013 C42.5869002,74.7430582 44.4166557,76.5274353 44.473168,78.7662434 C44.5218789,81.0046045 42.7781839,82.8726146 40.5457037,82.9737126 L40.3505848,82.9793073 L21.1137213,82.9793073 C18.8776134,82.9840593 17.0467377,81.1993943 16.9902089,78.9598615 C16.9409858,76.7211421 18.6848242,74.8525651 20.9176733,74.7514614 L21.111863,74.7468013 L40.3505848,74.7468013 L40.3515139,74.7468013 Z" id="形状" fill="#04102D"></path>
                    </g>
                </g>
            </g>
        </g>
    </g>
</svg>