<?xml version="1.0" encoding="UTF-8"?>
<svg width="280px" height="150px" viewBox="0 0 280 150" version="1.1" xmlns="http://www.w3.org/2000/svg" xmlns:xlink="http://www.w3.org/1999/xlink">
    <title>image_failed</title>
    <defs>
        <linearGradient x1="53.595264%" y1="63.3853988%" x2="50%" y2="100%" id="linearGradient-1">
            <stop stop-color="#DFE7EE" offset="0%"></stop>
            <stop stop-color="#EFF4F9" stop-opacity="0" offset="100%"></stop>
        </linearGradient>
        <linearGradient x1="36.1029949%" y1="37.4657886%" x2="64.1182611%" y2="100%" id="linearGradient-2">
            <stop stop-color="#DFE7EE" offset="0%"></stop>
            <stop stop-color="#EFF4F9" stop-opacity="0" offset="100%"></stop>
        </linearGradient>
        <linearGradient x1="64.9830103%" y1="28.7697539%" x2="34.6188683%" y2="100%" id="linearGradient-3">
            <stop stop-color="#DFE7EE" offset="0%"></stop>
            <stop stop-color="#EFF4F9" stop-opacity="0" offset="100%"></stop>
        </linearGradient>
        <linearGradient x1="50%" y1="0%" x2="50%" y2="27.6741639%" id="linearGradient-4">
            <stop stop-color="#DFE7EE" offset="0%"></stop>
            <stop stop-color="#EFF4F9" stop-opacity="0" offset="100%"></stop>
        </linearGradient>
        <path d="M68,84 C68,91.7319865 61.7319865,98 54,98 L0,98 L0,14 C-2.72325209e-15,6.2680135 6.2680135,-3.56013962e-16 14,0 L68,0 C75.7319865,-1.42034288e-15 82,6.2680135 82,14 L82,17 C82,13.1340068 78.8659932,10 75,10 C71.2145483,10 68.1309013,13.0047834 68.004059,16.7593502 L68,17 L68,84 Z" id="path-5"></path>
        <linearGradient x1="50%" y1="50%" x2="50%" y2="100%" id="linearGradient-7">
            <stop stop-color="#DFE7EE" offset="0%"></stop>
            <stop stop-color="#DFE7EE" offset="100%"></stop>
        </linearGradient>
        <linearGradient x1="15.4590595%" y1="15.0794778%" x2="70.3716881%" y2="70.5945717%" id="linearGradient-8">
            <stop stop-color="#FF8181" offset="0%"></stop>
            <stop stop-color="#FF3F3F" offset="100%"></stop>
        </linearGradient>
        <linearGradient x1="50%" y1="0%" x2="50%" y2="132.650821%" id="linearGradient-9">
            <stop stop-color="#DFE7EE" offset="0%"></stop>
            <stop stop-color="#EFF4F9" stop-opacity="0" offset="100%"></stop>
        </linearGradient>
        <linearGradient x1="50%" y1="0%" x2="50%" y2="126.227559%" id="linearGradient-10">
            <stop stop-color="#DFE7EE" offset="0%"></stop>
            <stop stop-color="#EFF4F9" stop-opacity="0" offset="100%"></stop>
        </linearGradient>
    </defs>
    <g id="官网相关" stroke="none" stroke-width="1" fill="none" fill-rule="evenodd">
        <g id="10-应用状态-失败" transform="translate(-580.000000, -172.000000)">
            <g id="编组-4" transform="translate(120.000000, 92.000000)">
                <g id="椭圆形" transform="translate(460.000000, 80.000000)">
                    <path d="M221.957594,78.0874389 C219.789123,83.8459073 219.411178,87.6771503 220.823762,89.5811681 C222.942636,92.4371948 223.313147,95.2867919 222.667702,98.564672 C222.237406,100.749925 220.035547,103.380803 216.062127,106.457304 C221.74417,108.828592 220.410338,114.140675 212.060632,122.393553 C209.067975,122.56905 206.401102,122.624765 204.060013,122.560697 C204.598578,119.628638 205.644796,115.771544 207.198885,110.98928 C209.491273,103.93511 211.807143,98.1961105 214.146496,93.7722803 C205.582737,106.107256 200.49424,115.566497 198.881007,122.150002 C193.458172,121.353981 191.000497,119.467597 191.507801,116.491067 C192.731438,109.311552 196.582438,108.715191 200.628913,105.341237 C202.781293,103.54658 202.928147,101.360164 202.879333,99.2372664 L202.864787,98.7292237 C202.809957,97.0413672 202.722563,95.4174732 203.529252,94.0906445 C205.424973,90.9725971 212.139239,92.4221599 213.798267,86.2703483 C214.904286,82.1691406 217.624062,79.4415041 221.957594,78.0874389 Z" id="形状结合" fill="url(#linearGradient-1)"></path>
                    <path d="M60.7585218,122.393553 C53.5239028,122.393553 48.8604903,119.157518 46.7682842,112.685447 C43.6299751,102.977765 46.0053522,102.977765 46.7682842,102.977765 C47.5312162,102.977765 54.0801549,113.370894 56.0334756,112.685447 C57.9867963,112 50.8519039,99.0879314 50.8519039,89.6058032 C50.8519039,80.1236749 54.6265701,74.013504 58.7052691,73.167327 C62.7839681,72.32115 68.6715976,76.9051899 68.6715976,91.0782797 C68.6715976,99.8486955 70.5708103,100.811389 71.9034566,99.9191724 C73.4502939,98.8835535 75.511435,86.8363271 80.7272487,86.8363271 C87.5938853,86.8363271 93.4955075,97.3623987 91.0825518,114.786158 C89.9758381,117.277637 79.8678281,119.813435 60.7585218,122.393553 Z" id="路径-3" fill="url(#linearGradient-2)"></path>
                    <path d="M240.526315,101.568193 C238.218001,100.237646 235.698203,100.326128 231.91932,102.686269 C228.140438,105.04641 221.737807,111.082225 218.125869,123.396087 L233.262581,127.780746 C235.079397,122.998656 237.500642,118.599892 240.526315,114.584456 C245.064825,108.561301 242.834629,102.89874 240.526315,101.568193 Z" id="路径-10" fill="url(#linearGradient-3)"></path>
                    <ellipse fill="url(#linearGradient-4)" cx="140" cy="179" rx="156" ry="67"></ellipse>
                    <g id="编组-5" transform="translate(92.000000, 26.000000)">
                        <g id="编组-3" transform="translate(14.000000, 0.000000)">
                            <mask id="mask-6" fill="white">
                                <use xlink:href="#path-5"></use>
                            </mask>
                            <use id="形状结合" fill="#F4F8FC" xlink:href="#path-5"></use>
                            <g id="配置" opacity="0.7" mask="url(#mask-6)" fill="#D4DFEB" fill-rule="nonzero">
                                <g transform="translate(6.000000, 6.000000)" id="形状">
                                    <path d="M22.0710086,19.0929904 C21.681078,18.7059073 21.5777229,17.9970322 21.8361107,17.5166761 L22.5267105,15.8517524 C22.6911391,15.3294234 23.2736859,14.9003674 23.8233471,14.9003674 L25.1528693,14.9003674 C25.3736733,14.9003674 25.5991753,14.8164217 25.7683018,14.6485302 C25.9374283,14.4806388 26.0219916,14.2567835 26.0219916,14.0375919 L26.0219916,11.7897117 C26.0219916,11.5705201 25.9374283,11.3466648 25.7683018,11.1787733 C25.5991753,11.0108819 25.3736733,10.9269361 25.1528693,10.9269361 L23.8233471,10.9269361 C23.2736859,10.9269361 22.6864411,10.4978802 22.5220126,9.98021481 L21.8314127,8.31529112 C21.573025,7.83493499 21.681078,7.12139627 22.0663106,6.73431317 L23.0106003,5.79691916 C23.1703308,5.638355 23.26429,5.42382702 23.26429,5.18598078 C23.26429,4.94813454 23.1703308,4.72894291 23.0106003,4.5750424 L21.4085964,2.98473714 C21.2535638,2.82617298 21.0327598,2.73289994 20.7931639,2.73289994 C20.553568,2.73289994 20.332764,2.83083663 20.1777313,2.98940079 L19.2381397,3.9267948 C18.8482091,4.3138779 18.1294215,4.41647824 17.6455318,4.15531374 L15.9683606,3.46975692 C15.4468872,3.30652911 15.0146751,2.72823629 15.0146751,2.18258903 L15.0146751,0.862775579 C15.0146751,0.643583946 14.9301118,0.41972866 14.7609853,0.251837196 C14.5918588,0.0839457321 14.3663568,0 14.1455527,0 L11.8811368,0 C11.6556348,0 11.4348307,0.0839457321 11.2657042,0.251837196 C11.0965777,0.41972866 11.0120145,0.643583946 11.0120145,0.862775579 L11.0120145,2.18258903 C11.0120145,2.72823629 10.5845003,3.31119276 10.0583289,3.46975692 L8.37645983,4.15531374 C7.89257011,4.41647824 7.17848044,4.30921425 6.78854989,3.9267948 L5.84426025,2.98940079 C5.68452967,2.83083663 5.46842358,2.7375636 5.2288277,2.7375636 C4.98923182,2.7375636 4.77312574,2.83550028 4.61339515,2.98940079 L3.01139134,4.57970605 C2.85166075,4.73827021 2.75770158,4.95279819 2.75770158,5.19064443 C2.75770158,5.42849067 2.85635871,5.64768231 3.01139134,5.80158282 L3.95568097,6.73897682 C4.34561152,7.12605992 4.44896661,7.83493499 4.19057889,8.31995478 L3.49997901,9.98487846 C3.33555047,10.5072075 2.75300362,10.9315998 2.20334249,10.9362634 L0.869122304,10.9362634 C0.643620301,10.9362634 0.422816256,11.0202092 0.253689754,11.1881006 C0.0845632512,11.3559921 0,11.5798474 0,11.799039 L0,14.0469192 C0,14.2707744 0.0845632512,14.4899661 0.253689754,14.6578575 C0.422816256,14.825749 0.648318259,14.9096947 0.869122304,14.9096947 L2.20334249,14.9096947 C2.75300362,14.9096947 3.34024842,15.3387507 3.49997901,15.8610797 L4.19057889,17.5260034 C4.45366456,18.0063595 4.34561152,18.7152346 3.95568097,19.1069813 L3.01139134,20.0443754 C2.85166075,20.2029395 2.75770158,20.4174675 2.75770158,20.6553137 C2.75770158,20.89316 2.85635871,21.1123516 3.01139134,21.2662521 L4.60869719,22.8518937 C4.76842778,23.0057942 4.98453386,23.1037309 5.22412974,23.1037309 C5.46372562,23.1037309 5.68452967,23.0057942 5.83956229,22.8518937 L6.78854989,21.9144997 C7.17848044,21.5274166 7.89257011,21.4201526 8.37645983,21.6813171 L10.053631,22.3668739 C10.5798023,22.5301018 11.0073165,23.1083946 11.0073165,23.6540418 L11.0073165,24.9785189 C11.0073165,25.1977106 11.0918798,25.4215659 11.2610063,25.5894573 C11.4301328,25.7573488 11.6556348,25.8412945 11.8764388,25.8412945 L14.1408548,25.8412945 C14.3616588,25.8412945 14.5871608,25.7573488 14.7562873,25.5894573 C14.9254138,25.4215659 15.0099771,25.1977106 15.0099771,24.9785189 L15.0099771,23.6540418 C15.0099771,23.1083946 15.4421893,22.5254381 15.9636626,22.3668739 L17.6408338,21.6813171 C18.1247235,21.4248163 18.8435111,21.5274166 19.2334417,21.9144997 L20.1777313,22.8518937 C20.3374619,23.0057942 20.553568,23.1037309 20.7931639,23.1037309 C21.0327598,23.1037309 21.2488658,23.0057942 21.4085964,22.8518937 L23.0106003,21.2615885 C23.1703308,21.1030243 23.26429,20.8884963 23.26429,20.6506501 C23.26429,20.4128038 23.1656329,20.1936122 23.0106003,20.0397117 L22.0710086,19.0929904 Z M12.6140183,17.33013 C9.93618202,17.33013 7.76102728,15.1755229 7.76102728,12.5125777 C7.76102728,9.85429621 9.93148406,7.69968909 12.6140183,7.69968909 C15.2918546,7.69968909 17.4670093,9.85429621 17.4670093,12.5125777 C17.4670093,15.1755229 15.2965526,17.33013 12.6140183,17.33013 Z M41.8212257,22.7166478 C41.7037767,22.6000565 41.5440461,22.5394291 41.3890135,22.5394291 L40.4541198,22.5394291 C40.0688872,22.5394291 39.6554669,22.2409553 39.5427159,21.8725269 L39.0588261,20.7019503 C38.8756058,20.3615037 38.9507731,19.8624929 39.2232547,19.5920011 L39.8856668,18.9344262 C39.9984178,18.8224986 40.0641892,18.6732617 40.0641892,18.5053703 C40.0641892,18.3374788 39.9984178,18.1835783 39.8856668,18.0763143 L38.7581568,16.9617015 C38.6454058,16.8497739 38.4950711,16.7844828 38.3259446,16.7844828 C38.1568181,16.7844828 38.0017855,16.8544375 37.8937325,16.9617015 L37.2360183,17.6192764 C36.9635367,17.8897682 36.4608552,17.9643867 36.1179042,17.7825042 L34.9387166,17.3021481 C34.5722759,17.1902205 34.2669086,16.7798191 34.2669086,16.3973997 L34.2669086,15.469333 C34.2669086,15.3154324 34.2058351,15.1568683 34.0883862,15.040277 C33.9709372,14.9236857 33.8112066,14.8630582 33.656174,14.8630582 L32.068264,14.8630582 C31.9085335,14.8630582 31.7535008,14.9236857 31.6360519,15.040277 C31.5186029,15.1568683 31.4575295,15.3154324 31.4575295,15.469333 L31.4575295,16.3973997 C31.4575295,16.7798191 31.1568601,17.1902205 30.7857214,17.3021481 L29.6065338,17.7825042 C29.2682808,17.9643867 28.7655993,17.8897682 28.4931177,17.6192764 L27.8307056,16.9617015 C27.7179546,16.8497739 27.5676199,16.7844828 27.3984934,16.7844828 C27.2293669,16.7844828 27.0790322,16.8544375 26.9662812,16.9617015 L25.8387712,18.0763143 C25.7260202,18.1882419 25.6602488,18.3374788 25.6602488,18.5053703 C25.6602488,18.6732617 25.7307182,18.8271622 25.8387712,18.9344262 L26.5011833,19.5920011 C26.7736649,19.8624929 26.8488323,20.3615037 26.6656119,20.7019503 L26.1817222,21.8678632 C26.0689712,22.2362917 25.6602488,22.5347654 25.2703182,22.5347654 L24.3354245,22.5347654 C24.1803919,22.5347654 24.0206613,22.5953929 23.9032123,22.7119842 C23.7857634,22.8285755 23.7246899,22.9871396 23.7246899,23.1410401 L23.7246899,24.7173544 C23.7246899,24.8712549 23.7857634,25.0298191 23.9032123,25.1464104 C24.0206613,25.2630017 24.1803919,25.3236292 24.3354245,25.3236292 L25.2703182,25.3236292 C25.6555508,25.3236292 26.0689712,25.6221029 26.1817222,25.9905314 L26.6656119,27.161108 C26.8488323,27.4968909 26.7736649,27.9959016 26.5011833,28.2710571 L25.8387712,28.928632 C25.7260202,29.0405596 25.6602488,29.1897965 25.6602488,29.357688 C25.6602488,29.5255794 25.7307182,29.6748163 25.8387712,29.7867439 L26.9615833,30.9013567 C27.0743343,31.0086207 27.2246689,31.0785755 27.3937954,31.0785755 C27.5629219,31.0785755 27.7179546,31.0132843 27.8260076,30.9013567 L28.4931177,30.2437818 C28.7655993,29.97329 29.2682808,29.8986716 29.6065338,30.080554 L30.7857214,30.5609101 C31.1568601,30.6728378 31.4575295,31.0832391 31.4575295,31.4656586 L31.4575295,32.3937253 C31.4575295,32.5476258 31.5186029,32.7061899 31.6360519,32.8227812 C31.7535008,32.9393725 31.9132314,33 32.068264,33 L33.656174,33 C33.8112066,33 33.9709372,32.9393725 34.0883862,32.8227812 C34.2058351,32.7015263 34.2669086,32.5476258 34.2669086,32.3937253 L34.2669086,31.4656586 C34.2669086,31.0832391 34.5722759,30.6728378 34.9387166,30.5609101 L36.1132062,30.080554 C36.4561572,29.8986716 36.9588387,29.97329 37.2313203,30.2437818 L37.8937325,30.9013567 C38.0064835,31.0086207 38.1568181,31.0785755 38.3259446,31.0785755 C38.4950711,31.0785755 38.6454058,31.0086207 38.7581568,30.9013567 L39.8856668,29.7867439 C39.9984178,29.6748163 40.0641892,29.5255794 40.0641892,29.357688 C40.0641892,29.1897965 39.9937199,29.0405596 39.8856668,28.928632 L39.2232547,28.2757207 C38.9507731,28.0052289 38.8756058,27.5062182 39.0588261,27.1657716 L39.5427159,25.995195 C39.6554669,25.6267665 40.0688872,25.3282928 40.4541198,25.3282928 L41.3890135,25.3282928 C41.5440461,25.3282928 41.7037767,25.2676653 41.8212257,25.1510741 C41.9433726,25.0344828 41.9997481,24.8759186 41.9997481,24.7220181 L41.9997481,23.1457038 C42.0044461,22.9918033 41.9433726,22.8332391 41.8212257,22.7166478 L41.8212257,22.7166478 Z M32.866917,27.4222725 C30.9266602,27.4222725 29.3528441,25.8599491 29.3528441,23.9338609 C29.3528441,22.0077728 30.9266602,20.4454494 32.866917,20.4454494 C34.8071738,20.4454494 36.3809899,22.0077728 36.3809899,23.9338609 C36.3809899,25.8646128 34.8071738,27.4222725 32.866917,27.4222725 Z"></path>
                                </g>
                            </g>
                            <g id="编组备份-2" mask="url(#mask-6)">
                                <g transform="translate(8.000000, 45.000000)">
                                    <rect id="矩形" stroke="none" fill="#D4DFEB" fill-rule="evenodd" x="0" y="0" width="9" height="9" rx="2"></rect>
                                    <line x1="6.5" y1="2.5" x2="2.5" y2="6.5" id="路径-4" stroke="#FFFFFF" stroke-width="1" fill="none" stroke-linecap="round"></line>
                                    <line x1="6.5" y1="2.5" x2="2.5" y2="6.5" id="路径-4" stroke="#FFFFFF" stroke-width="1" fill="none" stroke-linecap="round" transform="translate(4.500000, 4.500000) scale(-1, 1) translate(-4.500000, -4.500000) "></line>
                                </g>
                            </g>
                            <g id="编组备份-4" mask="url(#mask-6)">
                                <g transform="translate(8.000000, 60.000000)">
                                    <rect id="矩形" stroke="none" fill="#D4DFEB" fill-rule="evenodd" x="0" y="0" width="9" height="9" rx="2"></rect>
                                    <line x1="6.5" y1="2.5" x2="2.5" y2="6.5" id="路径-4" stroke="#FFFFFF" stroke-width="1" fill="none" stroke-linecap="round"></line>
                                    <line x1="6.5" y1="2.5" x2="2.5" y2="6.5" id="路径-4" stroke="#FFFFFF" stroke-width="1" fill="none" stroke-linecap="round" transform="translate(4.500000, 4.500000) scale(-1, 1) translate(-4.500000, -4.500000) "></line>
                                </g>
                            </g>
                            <path d="M22.5,48 L58.5,48 C59.3284271,48 60,48.6715729 60,49.5 C60,50.3284271 59.3284271,51 58.5,51 L22.5,51 C21.6715729,51 21,50.3284271 21,49.5 C21,48.6715729 21.6715729,48 22.5,48 Z" id="矩形备份-7" fill="#D4DFEB" mask="url(#mask-6)"></path>
                            <path d="M22.5,63 L40.5,63 C41.3284271,63 42,63.6715729 42,64.5 C42,65.3284271 41.3284271,66 40.5,66 L22.5,66 C21.6715729,66 21,65.3284271 21,64.5 C21,63.6715729 21.6715729,63 22.5,63 Z" id="矩形备份-8" fill="#D4DFEB" mask="url(#mask-6)"></path>
                        </g>
                        <path d="M68,98 L11,98 C4.92486775,98 7.43989126e-16,93.0751322 0,87 L0,82 C-4.05812251e-16,78.6862915 2.6862915,76 6,76 L68,76 L68,84 C68,87.8659932 71.1340068,91 75,91 C78.8659932,91 82,87.8659932 82,84 C82,91.7319865 75.7319865,98 68,98 Z" id="形状结合" fill="url(#linearGradient-7)"></path>
                        <path d="M89,8 C92.8659932,8 96,11.1340068 96,15 L96,28 C96,31.3137085 93.3137085,34 90,34 L82,34 L82,34 L82,15 C82,11.1340068 85.1340068,8 89,8 Z" id="矩形" fill="#D7E0E7"></path>
                    </g>
                    <g id="编组-2" transform="translate(152.000000, 81.000000)">
                        <circle id="椭圆形" fill="url(#linearGradient-8)" cx="25" cy="25" r="25"></circle>
                        <line x1="34" y1="16" x2="16" y2="34" id="路径-2" stroke="#FFFFFF" stroke-width="3" stroke-linecap="round" transform="translate(25.000000, 25.000000) scale(-1, 1) translate(-25.000000, -25.000000) "></line>
                        <line x1="34" y1="16" x2="16" y2="34" id="路径-2" stroke="#FFFFFF" stroke-width="3" stroke-linecap="round"></line>
                    </g>
                    <path d="M58.5,28 C55.4624339,28 53,25.5375661 53,22.5 C53,19.4624339 55.4624339,17 58.5,17 C59.1399775,17 59.7544252,17.1093056 60.3256928,17.3102663 C61.2617095,14.2362742 64.1196998,12 67.5,12 C71.6421356,12 75,15.3578644 75,19.5 C75,19.6780687 74.9937943,19.8546879 74.9815874,20.0296533 C76.9632507,20.2660979 78.5,21.9535855 78.5,24 C78.5,26.209139 76.709139,28 74.5,28 L74.5,28 Z" id="形状结合" fill="url(#linearGradient-9)" opacity="0.75"></path>
                    <path d="M115,20 C111.134007,20 108,16.8659932 108,13 C108,9.13400675 111.134007,6 115,6 C115.879935,6 116.721949,6.16235995 117.497718,6.45875648 C118.765499,2.70346338 122.317036,0 126.5,0 C131.746705,0 136,4.25329488 136,9.5 C136,9.70064532 135.99378,9.89983782 135.981521,10.0973952 C138.272803,10.5522206 140,12.574406 140,15 C140,17.7614237 137.761424,20 135,20 L135,20 Z" id="形状结合备份" fill="url(#linearGradient-10)" opacity="0.75"></path>
                </g>
            </g>
        </g>
    </g>
</svg>