<?xml version="1.0" encoding="UTF-8"?>
<svg width="283px" height="228px" viewBox="0 0 283 228" version="1.1" xmlns="http://www.w3.org/2000/svg" xmlns:xlink="http://www.w3.org/1999/xlink">
    <title>image_failed_VSCode_CN</title>
    <defs>
        <path d="M4,0 L279,0 C281.209139,-4.05812251e-16 283,1.790861 283,4 L283,224 C283,226.209139 281.209139,228 279,228 L4,228 C1.790861,228 2.705415e-16,226.209139 0,224 L0,4 C-2.705415e-16,1.790861 1.790861,4.05812251e-16 4,0 Z" id="path-1"></path>
    </defs>
    <g id="Web" stroke="none" stroke-width="1" fill="none" fill-rule="evenodd">
        <g id="编组-10备份-2">
            <mask id="mask-2" fill="white">
                <use xlink:href="#path-1"></use>
            </mask>
            <use id="image_failed_VSCode_CN" fill="#F9FBFD" xlink:href="#path-1"></use>
            <g id="编组-11" mask="url(#mask-2)">
                <g id="编组-12">
                    <path d="M4,0 L279,0 C281.209139,-4.05812251e-16 283,1.790861 283,4 L283,54 L283,54 L0,54 L0,4 C-2.705415e-16,1.790861 1.790861,4.05812251e-16 4,0 Z" id="矩形" fill="#E5F2FF"></path>
                    <circle id="椭圆形" stroke="#FFFFFF" fill="#0080FF" cx="13" cy="17" r="4"></circle>
                    <path d="M31.18,22 L34.876,12.004 L33.616,12.004 L30.494,20.754 L30.452,20.754 L27.33,12.004 L26.07,12.004 L29.766,22 L31.18,22 Z M39.468,22.196 C40.658,22.196 41.596,21.944 42.296,21.454 C42.996,20.95 43.346,20.25 43.346,19.382 C43.346,18.472 42.926,17.772 42.1,17.268 C41.68,17.016 40.812,16.694 39.496,16.302 C38.53,16.022 37.914,15.812 37.662,15.672 C37.088,15.364 36.808,14.958 36.808,14.454 C36.808,13.88 37.046,13.46 37.522,13.18 C37.942,12.928 38.516,12.816 39.258,12.816 C40.07,12.816 40.7,12.984 41.148,13.348 C41.582,13.698 41.862,14.23 41.988,14.958 L43.122,14.958 C43.024,13.908 42.646,13.11 41.974,12.578 C41.33,12.06 40.434,11.808 39.314,11.808 C38.278,11.808 37.424,12.032 36.766,12.48 C36.024,12.956 35.66,13.642 35.66,14.51 C35.66,15.35 36.038,15.994 36.808,16.442 C37.13,16.61 37.9,16.89 39.104,17.254 C40.224,17.576 40.938,17.814 41.218,17.982 C41.876,18.332 42.212,18.822 42.212,19.452 C42.212,19.984 41.96,20.404 41.456,20.712 C40.952,21.02 40.28,21.174 39.468,21.174 C38.572,21.174 37.9,20.978 37.438,20.614 C36.934,20.208 36.626,19.564 36.528,18.696 L35.394,18.696 C35.478,19.928 35.912,20.838 36.696,21.44 C37.368,21.944 38.292,22.196 39.468,22.196 Z M49.072,22.196 C50.136,22.196 51.06,21.888 51.83,21.286 C52.656,20.642 53.174,19.732 53.398,18.57 L52.292,18.57 C52.096,19.438 51.69,20.096 51.102,20.544 C50.542,20.964 49.87,21.174 49.072,21.174 C47.896,21.174 47.014,20.782 46.398,20.012 C45.81,19.284 45.53,18.29 45.53,17.044 C45.53,15.798 45.824,14.804 46.412,14.048 C47.042,13.236 47.938,12.83 49.1,12.83 C49.884,12.83 50.542,13.012 51.088,13.39 C51.648,13.782 52.012,14.342 52.152,15.07 L53.258,15.07 C53.118,14.076 52.67,13.278 51.914,12.69 C51.158,12.102 50.22,11.808 49.114,11.808 C47.574,11.808 46.37,12.326 45.53,13.39 C44.76,14.342 44.382,15.56 44.382,17.044 C44.382,18.528 44.746,19.732 45.502,20.656 C46.328,21.678 47.518,22.196 49.072,22.196 Z M58.088,22.196 C59.166,22.196 60.034,21.818 60.692,21.062 C61.294,20.362 61.602,19.466 61.602,18.388 C61.602,17.296 61.294,16.4 60.678,15.686 C60.034,14.93 59.166,14.566 58.088,14.566 C56.996,14.566 56.142,14.93 55.498,15.686 C54.882,16.4 54.574,17.296 54.574,18.388 C54.574,19.466 54.882,20.362 55.498,21.062 C56.142,21.818 56.996,22.196 58.088,22.196 Z M58.088,21.258 C57.318,21.258 56.716,20.964 56.296,20.376 C55.904,19.844 55.722,19.186 55.722,18.388 C55.722,17.576 55.904,16.918 56.296,16.386 C56.716,15.798 57.318,15.504 58.088,15.504 C58.844,15.504 59.446,15.798 59.894,16.386 C60.272,16.918 60.468,17.576 60.468,18.388 C60.468,19.172 60.272,19.844 59.894,20.376 C59.446,20.964 58.844,21.258 58.088,21.258 Z M66.068,22.196 C67.16,22.196 67.972,21.734 68.476,20.81 L68.476,22 L69.526,22 L69.526,11.808 L68.406,11.808 L68.406,16.092 C67.846,15.07 67.048,14.566 66.012,14.566 C64.976,14.566 64.178,14.944 63.59,15.728 C63.044,16.428 62.778,17.296 62.778,18.36 C62.778,19.452 63.044,20.348 63.59,21.048 C64.178,21.804 65.004,22.196 66.068,22.196 Z M66.208,21.272 C65.424,21.272 64.836,20.978 64.444,20.418 C64.094,19.914 63.926,19.228 63.926,18.36 C63.926,17.492 64.094,16.82 64.458,16.33 C64.85,15.77 65.452,15.49 66.25,15.49 C66.894,15.49 67.426,15.742 67.832,16.274 C68.224,16.792 68.434,17.478 68.434,18.318 L68.434,18.458 C68.434,19.27 68.252,19.928 67.902,20.432 C67.496,20.992 66.936,21.272 66.208,21.272 Z M74.286,22.196 C75.224,22.196 75.994,21.916 76.596,21.384 C77.086,20.936 77.408,20.376 77.576,19.676 L76.456,19.676 C76.274,20.18 76.036,20.558 75.728,20.81 C75.364,21.104 74.874,21.258 74.286,21.258 C73.6,21.258 73.054,21.034 72.662,20.586 C72.27,20.138 72.06,19.508 72.004,18.696 L77.716,18.696 C77.688,17.436 77.408,16.442 76.876,15.742 C76.288,14.958 75.406,14.566 74.244,14.566 C73.194,14.566 72.368,14.944 71.752,15.7 C71.136,16.414 70.842,17.31 70.842,18.374 C70.842,19.55 71.15,20.474 71.794,21.174 C72.41,21.846 73.25,22.196 74.286,22.196 Z M76.554,17.828 L72.032,17.828 C72.102,17.114 72.326,16.554 72.718,16.134 C73.11,15.714 73.628,15.504 74.272,15.504 C75.644,15.504 76.414,16.274 76.554,17.828 Z M84.927,23.288 C85.683,23.288 86.061,22.896 86.061,22.112 L86.061,17.94 C86.467,17.73 86.873,17.506 87.293,17.268 L87.293,16.274 C86.887,16.526 86.481,16.75 86.061,16.974 L86.061,14.104 L87.293,14.104 L87.293,13.138 L86.061,13.138 L86.061,10.576 L85.081,10.576 L85.081,13.138 L83.303,13.138 L83.303,14.104 L85.081,14.104 L85.081,17.436 C84.465,17.688 83.849,17.912 83.219,18.094 L83.443,19.046 C83.989,18.85 84.535,18.64 85.081,18.402 L85.081,21.86 C85.081,22.224 84.913,22.406 84.591,22.406 C84.255,22.406 83.905,22.378 83.541,22.336 L83.751,23.288 L84.927,23.288 Z M95.399,23.414 L95.399,16.134 L92.809,16.134 L92.809,17.03 L94.461,17.03 L94.461,18.864 L92.781,18.864 L92.781,19.732 L94.461,19.732 L94.461,21.72 L92.109,21.72 L92.109,14.664 L95.917,14.664 L95.917,13.74 L92.109,13.74 L92.109,12.214 C93.453,12.102 94.629,11.948 95.651,11.738 L95.161,10.898 C93.173,11.248 90.667,11.43 87.643,11.43 L87.965,12.354 C89.113,12.354 90.177,12.326 91.171,12.27 L91.171,13.74 L87.727,13.74 L87.727,14.664 L91.171,14.664 L91.171,21.72 L88.763,21.72 L88.763,19.746 L90.499,19.746 L90.499,18.878 L88.763,18.878 L88.763,17.17 C89.477,16.974 90.135,16.736 90.751,16.456 L90.163,15.658 C89.449,16.05 88.679,16.344 87.853,16.54 L87.853,23.302 L88.763,23.302 L88.763,22.616 L94.461,22.616 L94.461,23.414 L95.399,23.414 Z M99.767,23.414 L99.767,14.062 C100.327,13.068 100.789,12.018 101.153,10.912 L100.201,10.478 C99.529,12.662 98.465,14.608 96.981,16.288 L97.303,17.366 C97.835,16.806 98.325,16.218 98.773,15.602 L98.773,23.414 L99.767,23.414 Z M106.151,23.344 L106.151,18.836 L109.889,18.836 L109.889,17.87 L106.151,17.87 L106.151,14.496 L109.371,14.496 L109.371,13.516 L106.151,13.516 L106.151,10.604 L105.143,10.604 L105.143,13.516 L103.085,13.516 C103.281,12.9 103.435,12.228 103.547,11.528 L102.553,11.402 C102.245,13.264 101.671,14.846 100.817,16.134 L101.461,16.974 C101.979,16.246 102.413,15.42 102.763,14.496 L105.143,14.496 L105.143,17.87 L101.027,17.87 L101.027,18.836 L105.143,18.836 L105.143,23.344 L106.151,23.344 Z M123.917,15.84 L123.917,15 L120.095,15 L120.095,14.048 L123.063,14.048 L123.063,13.236 L120.095,13.236 L120.095,12.298 L123.567,12.298 L123.567,11.472 L120.095,11.472 L120.095,10.562 L119.129,10.562 L119.129,11.472 L115.741,11.472 L115.741,12.298 L119.129,12.298 L119.129,13.236 L116.301,13.236 L116.301,14.048 L119.129,14.048 L119.129,15 L115.349,15 L115.349,15.84 L123.917,15.84 Z M114.495,13.544 L115.181,12.844 C114.537,12.13 113.753,11.416 112.815,10.716 L112.101,11.402 C113.109,12.158 113.907,12.872 114.495,13.544 Z M113.193,22.91 C114.061,22.28 114.901,21.552 115.685,20.74 L115.419,19.676 C114.943,20.166 114.509,20.6 114.089,20.992 L114.089,14.846 L111.121,14.846 L111.121,15.812 L113.123,15.812 L113.123,21.37 C113.123,21.608 113.011,21.818 112.801,22.014 L113.193,22.91 Z M117.379,23.4 L117.379,21.174 L121.901,21.174 L121.901,21.972 C121.901,22.294 121.719,22.462 121.383,22.462 L120.263,22.42 L120.501,23.316 L121.677,23.316 C122.461,23.316 122.867,22.938 122.867,22.182 L122.867,16.722 L116.413,16.722 L116.413,23.4 L117.379,23.4 Z M121.901,18.584 L117.379,18.584 L117.379,17.548 L121.901,17.548 L121.901,18.584 Z M121.901,20.39 L117.379,20.39 L117.379,19.368 L121.901,19.368 L121.901,20.39 Z M136.265,19.172 L136.265,14.678 L131.799,14.678 L131.799,12.9 L137.231,12.9 L137.231,11.948 L131.799,11.948 L131.799,10.59 L130.805,10.59 L130.805,14.678 L126.997,14.678 L126.997,19.172 L136.265,19.172 Z M135.257,18.234 L128.005,18.234 L128.005,15.63 L135.257,15.63 L135.257,18.234 Z M137.021,23.428 L137.861,22.84 C137.385,21.972 136.713,20.95 135.817,19.774 L135.005,20.292 C135.859,21.44 136.531,22.476 137.021,23.428 Z M125.989,23.358 C126.689,22.462 127.291,21.412 127.823,20.194 L126.969,19.788 C126.465,20.936 125.863,21.93 125.163,22.756 L125.989,23.358 Z M133.045,23.4 L134.039,23.176 C133.731,22.056 133.367,21.006 132.947,20.054 L131.995,20.25 C132.415,21.16 132.765,22.21 133.045,23.4 Z M129.769,23.428 L130.777,23.204 C130.553,22.126 130.301,21.118 130.021,20.194 L129.083,20.39 C129.349,21.272 129.573,22.28 129.769,23.428 Z M141.725,23.428 L141.725,22.784 L149.355,22.784 L149.355,23.428 L150.321,23.428 L150.321,18.122 L149.355,18.122 L149.355,21.846 L146.051,21.846 L146.051,16.904 L151.721,16.904 L151.721,15.924 L146.051,15.924 L146.051,13.6 L150.573,13.6 L150.573,12.634 L146.051,12.634 L146.051,10.66 L145.015,10.66 L145.015,12.634 L140.437,12.634 L140.437,13.6 L145.015,13.6 L145.015,15.924 L139.359,15.924 L139.359,16.904 L145.015,16.904 L145.015,21.846 L141.725,21.846 L141.725,18.122 L140.759,18.122 L140.759,23.428 L141.725,23.428 Z M157.965,14.244 C158.231,14.244 158.441,14.16 158.609,14.006 C158.777,13.838 158.875,13.628 158.875,13.376 C158.875,13.124 158.791,12.928 158.637,12.76 C158.469,12.592 158.259,12.522 158.021,12.522 C157.881,12.522 157.769,12.536 157.713,12.564 C157.713,12.228 157.811,11.92 158.021,11.654 C158.245,11.346 158.539,11.136 158.917,11.024 L158.917,10.324 C158.301,10.478 157.825,10.786 157.461,11.248 C157.097,11.696 156.929,12.242 156.929,12.872 C156.929,13.264 157.013,13.6 157.195,13.852 C157.391,14.104 157.643,14.244 157.965,14.244 Z M155.193,14.244 C155.473,14.244 155.697,14.16 155.865,14.006 C156.019,13.838 156.103,13.628 156.103,13.376 C156.103,13.124 156.019,12.928 155.851,12.76 C155.683,12.592 155.487,12.522 155.263,12.522 C155.109,12.522 154.997,12.536 154.941,12.564 C154.941,12.228 155.039,11.92 155.263,11.64 C155.473,11.346 155.767,11.136 156.145,11.024 L156.145,10.324 C155.529,10.478 155.053,10.786 154.703,11.248 C154.339,11.696 154.157,12.242 154.157,12.872 C154.157,13.278 154.241,13.6 154.437,13.852 C154.619,14.104 154.871,14.244 155.193,14.244 Z M186.374,14.23 C186.962,14.062 187.452,13.754 187.816,13.306 C188.18,12.844 188.362,12.298 188.362,11.682 C188.362,11.262 188.264,10.94 188.082,10.688 C187.886,10.436 187.62,10.31 187.312,10.31 C187.032,10.31 186.822,10.38 186.668,10.548 C186.486,10.702 186.402,10.912 186.402,11.178 C186.402,11.416 186.486,11.612 186.654,11.78 C186.822,11.948 187.018,12.032 187.256,12.032 C187.396,12.032 187.508,12.018 187.564,11.99 C187.564,12.326 187.466,12.634 187.256,12.928 C187.032,13.208 186.738,13.404 186.374,13.53 L186.374,14.23 Z M183.602,14.23 C184.19,14.062 184.68,13.754 185.044,13.306 C185.408,12.844 185.59,12.298 185.59,11.682 C185.59,11.262 185.492,10.94 185.31,10.688 C185.114,10.436 184.862,10.31 184.554,10.31 C184.274,10.31 184.05,10.38 183.882,10.548 C183.714,10.702 183.644,10.912 183.644,11.178 C183.644,11.416 183.728,11.612 183.896,11.78 C184.05,11.948 184.246,12.032 184.484,12.032 C184.624,12.032 184.736,12.018 184.792,11.99 C184.792,12.326 184.694,12.634 184.47,12.928 C184.246,13.208 183.966,13.404 183.602,13.53 L183.602,14.23 Z M192.268,23.4 L192.268,22.826 L201.732,22.826 L201.732,23.4 L202.712,23.4 L202.712,11.178 L191.288,11.178 L191.288,23.4 L192.268,23.4 Z M201.732,21.93 L192.268,21.93 L192.268,12.074 L201.732,12.074 L201.732,21.93 Z M193.276,17.814 C194.872,17.464 196.202,17.002 197.28,16.428 C198.26,16.974 199.422,17.422 200.78,17.786 L201.312,17.03 C200.108,16.75 199.044,16.372 198.106,15.924 C198.904,15.364 199.492,14.706 199.884,13.964 L199.884,13.264 L196.188,13.264 C196.328,13.012 196.44,12.76 196.552,12.494 L195.656,12.382 C195.208,13.446 194.34,14.356 193.066,15.112 L193.626,15.84 C194.158,15.504 194.634,15.14 195.054,14.748 C195.446,15.168 195.922,15.56 196.468,15.924 C195.488,16.386 194.27,16.75 192.828,17.002 L193.276,17.814 Z M197.28,15.49 C196.636,15.098 196.062,14.664 195.572,14.188 C195.6,14.132 195.642,14.076 195.698,14.02 L198.876,14.02 C198.498,14.58 197.966,15.07 197.28,15.49 Z M198.498,19.34 L198.974,18.612 C198.064,18.108 197.056,17.66 195.964,17.296 L195.502,17.968 C196.538,18.304 197.532,18.752 198.498,19.34 Z M199.534,21.566 L199.87,20.754 C198.162,20.11 196.37,19.606 194.508,19.256 L194.116,20.012 C195.992,20.376 197.798,20.894 199.534,21.566 Z M207.668,23.386 L207.668,16.372 C208.088,16.904 208.578,17.604 209.152,18.486 L209.726,17.632 C209.04,16.778 208.354,15.994 207.668,15.294 L207.668,14.216 L209.292,14.216 L209.292,13.25 L207.668,13.25 L207.668,10.604 L206.674,10.604 L206.674,13.25 L204.966,13.25 L204.966,14.216 L206.674,14.216 C206.24,15.98 205.526,17.562 204.518,18.934 L204.952,20.026 C205.652,18.934 206.226,17.73 206.674,16.414 L206.674,23.386 L207.668,23.386 Z M216.67,12.354 L216.67,11.402 L210.286,11.402 L210.286,12.354 L216.67,12.354 Z M212.736,23.246 C213.548,23.246 213.968,22.826 213.968,22 L213.968,15.77 L217.398,15.77 L217.398,14.804 L209.544,14.804 L209.544,15.77 L212.96,15.77 L212.96,21.748 C212.96,22.154 212.764,22.364 212.386,22.364 C211.98,22.364 211.56,22.336 211.112,22.308 L211.308,23.246 L212.736,23.246 Z M216.474,22.336 L217.384,21.93 C216.964,20.138 216.46,18.444 215.872,16.862 L214.962,17.156 C215.508,18.668 216.012,20.39 216.474,22.336 Z M209.782,22.21 C210.622,20.782 211.28,19.102 211.728,17.142 L210.804,16.932 C210.412,18.668 209.782,20.236 208.914,21.65 L209.782,22.21 Z M228.948,21.468 L228.948,17.45 L231.174,17.45 L231.174,16.498 L228.948,16.498 L228.948,13.712 L230.726,13.712 L230.726,12.774 L228.948,12.774 L228.948,10.562 L227.968,10.562 L227.968,12.774 L225.756,12.774 L225.756,10.548 L224.79,10.548 L224.79,12.774 L223.138,12.774 L223.138,13.712 L224.79,13.712 L224.79,14.818 C224.79,15.406 224.748,15.966 224.678,16.498 L222.648,16.498 L222.648,17.45 L224.496,17.45 C224.188,18.766 223.586,19.746 222.704,20.376 L223.306,21.188 C224.384,20.376 225.112,19.13 225.476,17.45 L227.968,17.45 L227.968,21.468 L228.948,21.468 Z M221.444,13.67 L222.172,12.956 C221.528,12.228 220.73,11.514 219.792,10.786 L219.106,11.444 C220.1,12.242 220.884,12.984 221.444,13.67 Z M227.968,16.498 L225.644,16.498 C225.714,15.91 225.756,15.266 225.756,14.594 L225.756,13.712 L227.968,13.712 L227.968,16.498 Z M219.638,23.428 C220.408,22.14 220.954,21.496 221.29,21.496 C221.458,21.496 221.64,21.608 221.822,21.846 C222.256,22.35 222.746,22.7 223.292,22.868 C223.852,23.022 224.566,23.106 225.462,23.12 C226.344,23.134 227.17,23.148 227.926,23.148 L231.132,23.148 L231.37,22.14 C231.006,22.168 230.474,22.182 229.802,22.196 C229.116,22.21 228.444,22.224 227.786,22.224 C226.708,22.224 225.798,22.21 225.07,22.196 C224.258,22.168 223.628,22.056 223.208,21.86 C222.816,21.678 222.466,21.384 222.13,20.978 C222.018,20.852 221.906,20.74 221.794,20.656 L221.794,15.42 L218.854,15.42 L218.854,16.344 L220.856,16.344 L220.856,20.6 C220.282,20.852 219.624,21.566 218.882,22.742 L219.638,23.428 Z M233.148,23.204 C236.088,21.3 238.02,18.556 238.944,14.986 C239.014,15.154 239.084,15.35 239.168,15.574 C240.61,19.27 242.458,21.818 244.726,23.19 L245.356,22.378 C243.144,20.992 241.394,18.626 240.078,15.28 C239.21,13.012 238.16,11.43 236.914,10.562 L236.074,11.094 C236.97,11.738 237.74,12.634 238.384,13.81 C237.488,17.534 235.542,20.39 232.546,22.35 L233.148,23.204 Z M247.96,23.344 L247.96,22.588 L251.95,22.588 L251.95,23.344 L252.846,23.344 L252.846,13.726 L251.25,13.726 L251.25,12.102 L253.07,12.102 L253.07,11.15 L246.7,11.15 L246.7,12.102 L248.59,12.102 L248.59,13.726 L247.064,13.726 L247.064,23.344 L247.96,23.344 Z M257.55,23.12 C258.222,23.12 258.656,22.896 258.88,22.476 C259.104,22.042 259.258,21.104 259.356,19.648 L258.362,19.326 C258.32,20.446 258.25,21.202 258.138,21.58 C258.026,21.972 257.774,22.168 257.382,22.168 L255.184,22.168 C254.89,22.154 254.75,21.902 254.75,21.426 L254.75,16.834 L258.572,16.834 L258.572,11.164 L253.532,11.164 L253.532,12.116 L257.592,12.116 L257.592,15.854 L253.77,15.854 L253.77,21.79 C253.77,22.672 254.106,23.12 254.778,23.12 L257.55,23.12 Z M250.382,13.726 L249.458,13.726 L249.458,12.102 L250.382,12.102 L250.382,13.726 Z M251.95,19.354 L247.96,19.354 L247.96,14.65 L248.786,14.65 L248.786,15.56 C248.772,16.848 248.52,17.772 248.016,18.36 L248.548,18.85 C249.136,18.15 249.444,17.058 249.472,15.56 L249.472,14.65 L250.354,14.65 L250.354,17.17 C250.354,17.814 250.648,18.136 251.236,18.136 L251.95,18.136 L251.95,19.354 Z M251.95,17.352 L251.404,17.352 C251.166,17.352 251.054,17.226 251.054,16.988 L251.054,14.65 L251.95,14.65 L251.95,17.352 Z M251.95,21.636 L247.96,21.636 L247.96,20.278 L251.95,20.278 L251.95,21.636 Z M273.272,23.078 L273.272,22.266 L271.242,22.266 L271.242,16.092 L267.182,16.092 C267.238,15.84 267.28,15.574 267.336,15.294 L273.02,15.294 L273.02,14.524 L267.448,14.524 L267.532,13.712 L272.068,13.712 L272.068,11.094 L261.932,11.094 L261.932,13.712 L266.524,13.712 L266.44,14.524 L260.994,14.524 L260.994,15.294 L266.328,15.294 L266.174,16.092 L266.174,16.092 L262.772,16.092 L262.772,22.266 L260.742,22.266 L260.742,23.078 L273.272,23.078 Z M271.116,12.998 L269.03,12.998 L269.03,11.836 L271.116,11.836 L271.116,12.998 Z M268.106,12.998 L265.894,12.998 L265.894,11.836 L268.106,11.836 L268.106,12.998 Z M264.984,12.998 L262.898,12.998 L262.898,11.836 L264.984,11.836 L264.984,12.998 Z M270.248,17.674 L263.752,17.674 L263.752,16.792 L270.248,16.792 L270.248,17.674 Z M270.248,19.186 L263.752,19.186 L263.752,18.304 L270.248,18.304 L270.248,19.186 Z M270.248,20.712 L263.752,20.712 L263.752,19.83 L270.248,19.83 L270.248,20.712 Z M270.248,22.266 L263.752,22.266 L263.752,21.342 L270.248,21.342 L270.248,22.266 Z M29.626,40.278 L29.626,34.608 L36.318,34.608 L36.318,40.25 L37.326,40.25 L37.326,33.628 L33.21,33.628 C33.35,33.152 33.448,32.634 33.532,32.102 L39.16,32.102 L39.16,31.15 L26.84,31.15 L26.84,32.102 L32.468,32.102 C32.398,32.634 32.3,33.138 32.16,33.628 L28.618,33.628 L28.618,40.278 L29.626,40.278 Z M27.624,43.344 C29.668,42.868 31.138,42.21 32.034,41.356 C32.958,40.432 33.462,39.214 33.518,37.674 L33.518,35.448 L32.482,35.448 L32.482,37.674 C32.44,38.906 32.048,39.9 31.292,40.67 C30.494,41.412 29.08,42 27.05,42.448 L27.624,43.344 Z M38.25,43.442 L38.866,42.49 C37.382,41.622 35.73,40.894 33.924,40.278 L33.364,41.104 C35.03,41.664 36.654,42.448 38.25,43.442 Z M41.666,44.254 C42.254,44.1 42.744,43.792 43.108,43.344 C43.472,42.868 43.654,42.322 43.654,41.706 C43.654,41.3 43.556,40.978 43.374,40.726 C43.178,40.46 42.912,40.334 42.604,40.334 C42.324,40.334 42.114,40.404 41.946,40.572 C41.778,40.726 41.694,40.936 41.694,41.202 C41.694,41.44 41.778,41.65 41.946,41.818 C42.114,41.986 42.31,42.07 42.548,42.07 C42.688,42.07 42.8,42.042 42.856,42.014 C42.856,42.35 42.758,42.658 42.548,42.952 C42.324,43.232 42.03,43.442 41.666,43.568 L41.666,44.254 Z M58.662,33.166 L59.572,32.718 C59.152,31.878 58.704,31.108 58.242,30.408 L57.318,30.856 C57.794,31.528 58.242,32.298 58.662,33.166 Z M55.484,43.442 C56.814,42.784 57.766,41.86 58.354,40.67 C58.648,40.04 58.886,39.298 59.054,38.43 L62.918,38.43 L62.918,43.33 L63.954,43.33 L63.954,38.43 L67.244,38.43 L67.244,37.464 L63.954,37.464 L63.954,34.174 L66.698,34.174 L66.698,33.208 L63.562,33.208 C64.038,32.508 64.472,31.696 64.864,30.8 L63.786,30.408 C63.394,31.402 62.946,32.34 62.414,33.208 L55.344,33.208 L55.344,34.174 L58.298,34.174 L58.298,35.532 C58.284,36.218 58.242,36.862 58.158,37.464 L54.77,37.464 L54.77,38.43 L58.004,38.43 C57.892,38.976 57.738,39.466 57.556,39.914 C57.052,41.006 56.156,41.874 54.896,42.518 L55.484,43.442 Z M62.918,37.464 L59.194,37.464 C59.264,36.876 59.306,36.232 59.32,35.532 L59.32,34.174 L62.918,34.174 L62.918,37.464 Z M75.742,43.386 L75.742,42.658 L79.69,42.658 L79.69,43.372 L80.656,43.372 L80.656,36.792 L77.926,36.792 L77.926,34.048 L81.216,34.048 L81.216,33.096 L77.926,33.096 L77.926,30.506 L76.946,30.506 L76.946,36.792 L74.79,36.792 L74.79,43.386 L75.742,43.386 Z M71.99,43.4 L71.99,37.884 C72.424,38.486 72.928,39.284 73.516,40.278 L74.076,39.424 C73.376,38.528 72.676,37.73 71.99,37.016 L71.99,36.456 L74.062,36.456 L74.062,35.518 L71.99,35.518 L71.99,30.59 L71.01,30.59 L71.01,35.518 L68.896,35.518 L68.896,36.456 L70.884,36.456 C70.408,37.94 69.61,39.27 68.504,40.446 L68.91,41.482 C69.806,40.39 70.506,39.158 71.01,37.8 L71.01,43.4 L71.99,43.4 Z M73.306,34.706 C73.712,33.796 73.964,32.76 74.076,31.584 L73.25,31.486 C73.166,32.606 72.942,33.6 72.578,34.468 L73.306,34.706 Z M69.68,34.804 L70.422,34.608 C70.198,33.53 69.96,32.578 69.68,31.738 L68.91,31.99 C69.218,32.886 69.47,33.824 69.68,34.804 Z M79.69,41.706 L75.742,41.706 L75.742,37.73 L79.69,37.73 L79.69,41.706 Z M90.092,43.358 L90.092,42.728 L93.83,42.728 L93.83,43.358 L94.796,43.358 L94.796,36.792 L92.15,36.792 L92.15,34.062 L95.37,34.062 L95.37,33.11 L92.15,33.11 L92.15,30.562 L91.156,30.562 L91.156,36.792 L89.14,36.792 L89.14,43.358 L90.092,43.358 Z M84.114,39.886 L84.114,32.046 L87.292,32.046 L87.292,39.886 L88.202,39.886 L88.202,31.122 L83.19,31.122 L83.19,39.886 L84.114,39.886 Z M83.19,43.386 C84.212,42.896 84.954,42.224 85.402,41.356 C85.85,40.432 86.102,39.2 86.13,37.646 L86.13,33.026 L85.248,33.026 L85.248,37.646 C85.22,38.906 85.038,39.928 84.674,40.712 C84.282,41.468 83.61,42.07 82.644,42.532 L83.19,43.386 Z M93.83,41.776 L90.092,41.776 L90.092,37.73 L93.83,37.73 L93.83,41.776 Z M87.838,43.344 L88.566,42.63 C88.034,41.86 87.39,41.09 86.606,40.306 L85.948,40.936 C86.746,41.79 87.376,42.588 87.838,43.344 Z M97.61,43.372 C98.842,42.728 99.724,41.818 100.256,40.642 C100.676,39.69 100.942,38.5 101.068,37.058 L105.114,37.058 L105.114,43.26 L106.136,43.26 L106.136,37.058 L109.202,37.058 L109.202,36.092 L106.136,36.092 L106.136,32.382 L108.474,32.382 L108.474,31.402 L97.568,31.402 L97.568,32.382 L100.116,32.382 L100.116,35.602 C100.116,35.742 100.102,35.91 100.102,36.092 L96.812,36.092 L96.812,37.058 L100.046,37.058 C99.934,38.178 99.738,39.13 99.444,39.942 C98.996,41.006 98.198,41.86 97.064,42.504 L97.61,43.372 Z M105.114,36.092 L101.138,36.092 C101.138,35.938 101.152,35.77 101.152,35.602 L101.152,32.382 L105.114,32.382 L105.114,36.092 Z M113.962,43.442 C115.656,42.784 117.084,42.056 118.232,41.244 C119.408,42.014 120.892,42.728 122.684,43.386 L123.202,42.448 C121.578,41.888 120.192,41.272 119.058,40.6 C120.206,39.62 120.962,38.528 121.34,37.324 L121.34,36.456 L115.614,36.456 C115.81,35.952 115.978,35.42 116.146,34.86 L122.964,34.86 L122.964,33.894 L116.412,33.894 C116.664,32.858 116.888,31.766 117.07,30.59 L116.048,30.464 C115.88,31.668 115.656,32.802 115.376,33.894 L112.926,33.894 L113.724,31.136 L112.73,30.968 L111.624,34.86 L115.096,34.86 C114.116,37.982 112.618,40.432 110.574,42.224 L111.092,43.148 C112.688,41.846 114.004,40.096 115.026,37.884 C115.488,38.864 116.258,39.774 117.35,40.614 C116.3,41.3 114.998,41.93 113.43,42.504 L113.962,43.442 Z M121.214,33.6 L121.928,32.886 C121.256,32.116 120.43,31.346 119.422,30.576 L118.75,31.234 C119.8,32.074 120.626,32.858 121.214,33.6 Z M118.176,40.026 C117.056,39.214 116.258,38.332 115.782,37.38 L120.318,37.38 C119.926,38.332 119.212,39.214 118.176,40.026 Z M125.05,38.682 C127.234,37.898 128.872,36.904 129.964,35.686 L132.498,35.686 C133.394,36.89 134.892,37.856 136.992,38.612 L137.426,37.688 C135.69,37.198 134.402,36.526 133.562,35.686 L137.048,35.686 L137.048,34.762 L130.664,34.762 C130.888,34.384 131.084,33.992 131.238,33.586 C132.316,33.53 133.366,33.46 134.374,33.404 C134.724,33.74 135.046,34.062 135.326,34.398 L136.166,33.81 C135.438,33.012 134.374,32.074 132.988,30.996 L132.218,31.486 C132.68,31.864 133.114,32.228 133.52,32.592 C131.84,32.704 130.076,32.802 128.2,32.858 C128.998,32.34 129.81,31.668 130.622,30.828 L129.642,30.492 C128.256,31.864 127.108,32.662 126.198,32.886 L126.352,33.768 C127.682,33.726 128.97,33.684 130.216,33.628 C130.062,34.02 129.852,34.398 129.586,34.762 L124.868,34.762 L124.868,35.686 L128.732,35.686 C127.738,36.568 126.352,37.268 124.588,37.786 L125.05,38.682 Z M127.458,39.438 C129.432,38.752 130.888,37.828 131.826,36.652 L131.042,36.176 C130.188,37.212 128.844,38.038 127.024,38.654 L127.458,39.438 Z M127.374,41.328 C129.894,40.88 131.966,39.732 133.604,37.87 L132.82,37.338 C131.392,39.06 129.39,40.138 126.8,40.558 L127.374,41.328 Z M127.164,43.554 C131.462,42.644 134.262,41.034 135.55,38.738 L134.654,38.346 C133.506,40.39 130.818,41.874 126.59,42.77 L127.164,43.554 Z M150.964,43.4 L151.51,42.574 C150.502,41.888 149.648,40.922 148.92,39.662 C149.704,38.01 150.138,36.008 150.208,33.67 L151.118,33.67 L151.118,32.704 L147.422,32.704 C147.534,32.088 147.646,31.416 147.73,30.702 L146.75,30.534 C146.47,33.194 145.91,35.308 145.084,36.876 L145.714,37.646 C146.008,37.142 146.288,36.568 146.54,35.924 C146.918,37.324 147.38,38.556 147.926,39.634 C147.282,40.824 146.428,41.79 145.336,42.546 L145.854,43.386 C146.904,42.63 147.772,41.692 148.444,40.572 C149.144,41.748 149.984,42.7 150.964,43.4 Z M139.162,37.044 C140.366,36.232 141.206,35.28 141.668,34.174 L141.668,36.834 L142.606,36.834 L142.606,35.014 C143.11,35.35 143.712,35.798 144.412,36.358 L144.93,35.574 C144.146,35.098 143.362,34.664 142.606,34.286 L142.606,34.132 L145.154,34.132 L145.154,33.25 L142.606,33.25 L142.606,30.576 L141.668,30.576 L141.668,33.25 L138.938,33.25 L138.938,34.132 L140.926,34.132 C140.506,34.902 139.75,35.602 138.672,36.232 L139.162,37.044 Z M143.922,32.928 C144.37,32.34 144.72,31.738 145,31.122 L144.272,30.786 C144.02,31.374 143.656,31.962 143.208,32.564 L143.922,32.928 Z M140.156,32.914 L140.884,32.578 C140.632,31.962 140.352,31.374 140.016,30.828 L139.218,31.094 C139.554,31.626 139.862,32.228 140.156,32.914 Z M148.388,38.626 C147.828,37.45 147.38,36.036 147.03,34.398 L147.212,33.67 L149.284,33.67 C149.228,35.56 148.934,37.212 148.388,38.626 Z M139.064,43.358 C140.464,42.966 141.626,42.448 142.55,41.804 C143.376,42.168 144.09,42.546 144.706,42.91 L145.252,42.126 C144.636,41.79 143.992,41.482 143.32,41.174 C144.048,40.502 144.566,39.704 144.874,38.78 L144.874,37.954 L141.948,37.954 C142.032,37.702 142.13,37.45 142.228,37.184 L141.29,37.072 C141.192,37.352 141.08,37.646 140.954,37.954 L138.91,37.954 L138.91,38.836 L140.562,38.836 C140.282,39.396 139.96,39.97 139.596,40.586 C140.282,40.838 140.926,41.104 141.542,41.37 C140.73,41.832 139.736,42.21 138.588,42.518 L139.064,43.358 Z M142.396,40.782 C141.892,40.572 141.36,40.376 140.8,40.18 C141.08,39.76 141.332,39.312 141.556,38.836 L143.964,38.836 C143.628,39.564 143.096,40.222 142.396,40.782 Z" id="VSCode插件请点击“”图标进入配置页，并粘贴开发参数" fill="#36435C" fill-rule="nonzero"></path>
                    <g id="setting_normal备份-2" transform="translate(164.000000, 10.000000)" fill="#0080FF" fill-rule="nonzero">
                        <path d="M8.1,3.4 L7.6,1 L6.4,1 L5.9,3.4 L5.2,3.7 L3.2,2.4 L2.3,3.2 L3.6,5.2 L3.4,5.9 L1,6.4 L1,7.6 L3.4,8.1 L3.7,8.9 L2.4,10.9 L3.2,11.7 L5.2,10.4 L6,10.7 L6.4,13 L7.6,13 L8.1,10.6 L8.9,10.3 L10.9,11.6 L11.7,10.8 L10.4,8.8 L10.7,8 L13,7.6 L13,6.4 L10.6,5.9 L10.3,5.1 L11.6,3.1 L10.8,2.3 L8.8,3.6 L8.1,3.4 L8.1,3.4 Z M8.4,0 L8.9,2.4 L11,1.1 L13,3.1 L11.6,5.2 L14,5.6 L14,8.4 L11.6,8.9 L13,11 L11,13 L8.9,11.6 L8.4,14 L5.6,14 L5.1,11.6 L3,12.9 L1,10.9 L2.4,8.8 L0,8.4 L0,5.6 L2.4,5.1 L1.1,3 L3.1,1 L5.2,2.4 L5.6,0 L8.4,0 Z M9,7 C9,8.1 8.1,9 7,9 C5.9,9 5,8.1 5,7 C5,5.9 5.9,5 7,5 C8.1,5 9,5.9 9,7 Z M7,8 C7.6,8 8,7.6 8,7 C8,6.4 7.6,6 7,6 C6.4,6 6,6.4 6,7 C6,7.6 6.4,8 7,8 Z" id="形状"></path>
                    </g>
                </g>
            </g>
            <g id="编组-15" mask="url(#mask-2)">
                <g transform="translate(6.000000, 64.000000)">
                    <rect id="矩形" stroke="none" fill="#0080FF" fill-rule="evenodd" x="40" y="77" width="231" height="20" rx="2"></rect>
                    <g id="setting_normal备份-2" stroke="none" stroke-width="1" fill="none" fill-rule="evenodd" transform="translate(251.000000, 80.000000)">
                        <path d="M8.1,3.4 L7.6,1 L6.4,1 L5.9,3.4 L5.2,3.7 L3.2,2.4 L2.3,3.2 L3.6,5.2 L3.4,5.9 L1,6.4 L1,7.6 L3.4,8.1 L3.7,8.9 L2.4,10.9 L3.2,11.7 L5.2,10.4 L6,10.7 L6.4,13 L7.6,13 L8.1,10.6 L8.9,10.3 L10.9,11.6 L11.7,10.8 L10.4,8.8 L10.7,8 L13,7.6 L13,6.4 L10.6,5.9 L10.3,5.1 L11.6,3.1 L10.8,2.3 L8.8,3.6 L8.1,3.4 L8.1,3.4 Z M8.4,0 L8.9,2.4 L11,1.1 L13,3.1 L11.6,5.2 L14,5.6 L14,8.4 L11.6,8.9 L13,11 L11,13 L8.9,11.6 L8.4,14 L5.6,14 L5.1,11.6 L3,12.9 L1,10.9 L2.4,8.8 L0,8.4 L0,5.6 L2.4,5.1 L1.1,3 L3.1,1 L5.2,2.4 L5.6,0 L8.4,0 Z M9,7 C9,8.1 8.1,9 7,9 C5.9,9 5,8.1 5,7 C5,5.9 5.9,5 7,5 C8.1,5 9,5.9 9,7 Z M7,8 C7.6,8 8,7.6 8,7 C8,6.4 7.6,6 7,6 C6.4,6 6,6.4 6,7 C6,7.6 6.4,8 7,8 Z" id="形状" fill="#FFFFFF" fill-rule="nonzero"></path>
                    </g>
                    <g id="dev_start备份-2" stroke="none" stroke-width="1" fill="none" fill-rule="evenodd" transform="translate(231.000000, 80.000000)">
                        <path d="M12.606,13.3949342 L13.998,12.0029342 L13.993,11.5429342 L6.493,4.4049342 C6.441,4.3549342 6.363,4.2789342 6.261,4.1729342 L6.487,3.9469342 L7.337,3.0979342 C7.817,2.6159342 8.639,2.3139342 9.254,2.4719342 L9.291,2.3319342 L8.09,1.1309342 C7.365,0.405934197 5.955,0.452934197 5.23,1.1769342 L4.445,1.9629342 L4.208,2.1999342 C4.098,2.0879342 4.02,2.0099342 3.975,1.9679342 L3.928,1.9229342 L3.458,1.9279342 L2.53,2.8559342 L2.525,3.3259342 L2.57,3.3729342 C2.607,3.4109342 2.684,3.4889342 2.802,3.6049342 L2.565,3.8429342 L1.715,4.6929342 L1.482,4.9259342 L1.249,4.6929342 L1.203,4.6469342 L0.971,4.4149342 L0.739,4.6469342 L0,5.3869342 L0,5.8509342 L2.564,8.4149342 L3.029,8.4149342 L3.768,7.6749342 L4,7.4449342 L3.768,7.2129342 L3.728,7.1729342 L3.495,6.9399342 L3.728,6.7079342 L4.548,5.8869342 L4.776,5.6589342 C4.886,5.7689342 4.964,5.8449342 5.007,5.8909342 L12.147,13.3909342 L12.606,13.3949342 Z" id="路径" fill="#5DE29E" fill-rule="nonzero"></path>
                    </g>
                    <line x1="7" y1="14" x2="7" y2="176" id="路径-6" stroke="#D4DFEB" stroke-width="1" fill="none" opacity="0.5"></line>
                    <line x1="17" y1="34" x2="17" y2="196" id="路径-6备份" stroke="#D4DFEB" stroke-width="1" fill="none" opacity="0.5"></line>
                    <line x1="27" y1="54" x2="27" y2="216" id="路径-6备份-2" stroke="#D4DFEB" stroke-width="1" fill="none" opacity="0.5"></line>
                    <line x1="37" y1="74" x2="37" y2="236" id="路径-6备份-3" stroke="#D4DFEB" stroke-width="1" fill="none" opacity="0.5"></line>
                    <g id="编组-7" stroke="none" stroke-width="1" fill="none" fill-rule="evenodd">
                        <g id="namespace备份-2" transform="translate(20.000000, 0.000000)" fill="#D4DFEB" fill-rule="nonzero">
                            <g id="应用" transform="translate(1.000000, 0.419851)">
                                <path d="M5.46114286,12.5384047 L5.46114286,7.47263923 C5.46114286,7.03832946 5.17371429,6.60401971 4.81428572,6.38656937 L0.64685715,3.78189259 C0.287428571,3.63653178 0,3.78189259 0,4.14352195 L0,9.20928739 C0,9.64359715 0.287428571,10.0779069 0.64685715,10.2947663 L4.81428572,12.9006249 C5.17371429,13.1174843 5.46114286,12.9727144 5.46114286,12.5384047 Z M1.29314286,2.91327308 L5.38914286,5.51854075 C5.74857143,5.73540018 6.252,5.73540018 6.61085715,5.59063026 L10.7068572,3.49176186 C11.0657143,3.27490243 11.0657143,2.98536258 10.7068572,2.76850315 L6.39542858,0.162644572 C6.10800001,-0.0542148573 5.53257144,-0.0542148573 5.17371429,0.162644572 L1.29371429,2.18942347 C0.934285721,2.4062829 0.934285721,2.69582274 1.29314286,2.91327308 Z M7.25771429,12.900034 L11.3531429,10.8011656 C11.7125714,10.5843062 12,10.1499964 12,9.71568666 L12,4.65051213 C12,4.21620236 11.7125714,4.07143244 11.3531429,4.28888277 L7.25771429,6.38716027 C6.89771428,6.60461059 6.61085715,7.03892036 6.61085715,7.47323012 L6.61085715,12.5389956 C6.61085715,12.9727144 6.89828572,13.1174844 7.25771429,12.900034 Z" id="形状"></path>
                            </g>
                        </g>
                        <g id="arrow_down" stroke="#D4DFEB" stroke-width="2">
                            <polyline id="路径-7" points="2.5 5 7 9.5 11.5 5"></polyline>
                        </g>
                        <path d="M44,3 L96,3 C98.209139,3 100,4.790861 100,7 C100,9.209139 98.209139,11 96,11 L44,11 C41.790861,11 40,9.209139 40,7 C40,4.790861 41.790861,3 44,3 Z" id="矩形" fill="#D4DFEB"></path>
                    </g>
                    <g id="编组-7备份" stroke="none" stroke-width="1" fill="none" fill-rule="evenodd" transform="translate(10.000000, 20.000000)">
                        <g id="app_connected备份-2" transform="translate(20.000000, 0.000000)" fill="#D4DFEB">
                            <path d="M7,2 C8.87116425,2 10.4422446,3.2848121 10.8791657,5.02036107 C12.6334179,5.2088765 14,6.69484707 14,8.5 C14,10.2629068 12.6966339,11.7213961 11.0009499,11.9644196 L11,12 L4,12 C1.790861,12 0,10.209139 0,8 C0,5.95358546 1.53674929,4.26609794 3.5191836,4.02860171 C4.20617545,2.81725705 5.50764742,2 7,2 Z M8.84877393,5.57471429 L6.0203468,8.40314142 L4.60613324,6.98892785 L3.89902646,7.69603463 L6.0203468,9.81735498 L9.55588071,6.28182107 L8.84877393,5.57471429 Z" id="形状结合"></path>
                        </g>
                        <g id="arrow_down" stroke="#D4DFEB" stroke-width="2">
                            <polyline id="路径-7" points="2.5 5 7 9.5 11.5 5"></polyline>
                        </g>
                        <path d="M44,3 L86,3 C88.209139,3 90,4.790861 90,7 C90,9.209139 88.209139,11 86,11 L44,11 C41.790861,11 40,9.209139 40,7 C40,4.790861 41.790861,3 44,3 Z" id="矩形" fill="#D4DFEB"></path>
                    </g>
                    <g id="编组-7备份-2" stroke="none" stroke-width="1" fill="none" fill-rule="evenodd" transform="translate(20.000000, 40.000000)">
                        <g id="arrow_down" stroke="#D4DFEB" stroke-width="2">
                            <polyline id="路径-7" points="2.5 5 7 9.5 11.5 5"></polyline>
                        </g>
                        <rect id="矩形" fill="#D4DFEB" x="20" y="3" width="90" height="8" rx="4"></rect>
                    </g>
                    <g id="编组-7备份-3" stroke="none" stroke-width="1" fill="none" fill-rule="evenodd" transform="translate(30.000000, 60.000000)">
                        <g id="arrow_down" stroke="#D4DFEB" stroke-width="2">
                            <polyline id="路径-7" points="2.5 5 7 9.5 11.5 5"></polyline>
                        </g>
                        <rect id="矩形" fill="#D4DFEB" x="20" y="3" width="80" height="8" rx="4"></rect>
                    </g>
                    <g id="编组-7备份-4" stroke="none" stroke-width="1" fill="none" fill-rule="evenodd" transform="translate(40.000000, 80.000000)">
                        <g id="status_running备份-2" fill="#5DE29E">
                            <circle id="椭圆形" cx="7" cy="7" r="3"></circle>
                        </g>
                        <rect id="矩形" fill="#D4DFEB" x="20" y="3" width="100" height="8" rx="4"></rect>
                    </g>
                    <g id="编组-7备份-5" stroke="none" stroke-width="1" fill="none" fill-rule="evenodd" transform="translate(40.000000, 100.000000)">
                        <g id="status_running备份-2" fill="#5DE29E">
                            <circle id="椭圆形" cx="7" cy="7" r="3"></circle>
                        </g>
                        <rect id="矩形" fill="#D4DFEB" x="20" y="3" width="100" height="8" rx="4"></rect>
                    </g>
                    <g id="编组-7备份-6" stroke="none" stroke-width="1" fill="none" fill-rule="evenodd" transform="translate(40.000000, 120.000000)">
                        <g id="status_running备份-2" fill="#5DE29E">
                            <circle id="椭圆形" cx="7" cy="7" r="3"></circle>
                        </g>
                        <rect id="矩形" fill="#D4DFEB" x="20" y="3" width="100" height="8" rx="4"></rect>
                    </g>
                    <g id="编组-7备份-7" stroke="none" stroke-width="1" fill="none" fill-rule="evenodd" transform="translate(40.000000, 140.000000)">
                        <g id="status_running备份-2" fill="#5DE29E">
                            <circle id="椭圆形" cx="7" cy="7" r="3"></circle>
                        </g>
                        <rect id="矩形" fill="#D4DFEB" x="20" y="3" width="100" height="8" rx="4"></rect>
                    </g>
                </g>
            </g>
        </g>
    </g>
</svg>