<?xml version="1.0" encoding="UTF-8"?>
<svg width="283px" height="228px" viewBox="0 0 283 228" version="1.1" xmlns="http://www.w3.org/2000/svg" xmlns:xlink="http://www.w3.org/1999/xlink">
    <title>image_success_VSCode_EN</title>
    <defs>
        <path d="M4,0 L279,0 C281.209139,-4.05812251e-16 283,1.790861 283,4 L283,224 C283,226.209139 281.209139,228 279,228 L4,228 C1.790861,228 2.705415e-16,226.209139 0,224 L0,4 C-2.705415e-16,1.790861 1.790861,4.05812251e-16 4,0 Z" id="path-1"></path>
    </defs>
    <g id="Web" stroke="none" stroke-width="1" fill="none" fill-rule="evenodd">
        <g id="编组-10备份-2">
            <mask id="mask-2" fill="white">
                <use xlink:href="#path-1"></use>
            </mask>
            <use id="image_success_VSCode_EN" fill="#F9FBFD" xlink:href="#path-1"></use>
            <g id="编组-11" mask="url(#mask-2)">
                <g id="编组-12">
                    <path d="M4,0 L279,0 C281.209139,-4.05812251e-16 283,1.790861 283,4 L283,54 L283,54 L0,54 L0,4 C-2.705415e-16,1.790861 1.790861,4.05812251e-16 4,0 Z" id="矩形" fill="#E5F2FF"></path>
                    <circle id="椭圆形" stroke="#FFFFFF" fill="#0080FF" cx="13" cy="19" r="4"></circle>
                    <path d="M27.9443359,23 L27.9443359,19.4228516 L31.6396484,19.4228516 L31.6396484,18.4936523 L27.9443359,18.4936523 L27.9443359,16.0551758 L32.2143555,16.0551758 L32.2143555,15.1259766 L26.9023438,15.1259766 L26.9023438,23 L27.9443359,23 Z M35.7592773,23.1289062 C36.2569987,23.1289062 36.7162272,23.0125326 37.1369629,22.7797852 C37.5576986,22.5470378 37.8781738,22.2202962 38.0983887,21.7995605 C38.3186035,21.3788249 38.4287109,20.8014323 38.4287109,20.0673828 C38.4287109,19.1614583 38.1798503,18.4515788 37.6821289,17.9377441 C37.1844076,17.4239095 36.543457,17.1669922 35.7592773,17.1669922 C35.0538737,17.1669922 34.4558919,17.3782552 33.965332,17.8007812 C33.3780924,18.3092448 33.0844727,19.0916341 33.0844727,20.1479492 C33.0844727,21.1111654 33.3306478,21.8487956 33.822998,22.3608398 C34.3153483,22.8728841 34.9607747,23.1289062 35.7592773,23.1289062 Z M35.7592773,22.3339844 C35.2758789,22.3339844 34.8748372,22.1522624 34.5561523,21.7888184 C34.2374674,21.4253743 34.078125,20.878418 34.078125,20.1479492 C34.078125,19.4174805 34.2374674,18.8714193 34.5561523,18.5097656 C34.8748372,18.148112 35.2758789,17.9672852 35.7592773,17.9672852 C36.2355143,17.9672852 36.6338704,18.1490072 36.9543457,18.5124512 C37.274821,18.8758952 37.4350586,19.410319 37.4350586,20.1157227 C37.4350586,20.8640951 37.2757161,21.4208984 36.9570312,21.7861328 C36.6383464,22.1513672 36.2390951,22.3339844 35.7592773,22.3339844 Z M40.5180664,23 L40.5180664,20.0136719 C40.5180664,19.6054688 40.5717773,19.2294922 40.6791992,18.8857422 C40.7508138,18.6601562 40.8707682,18.4838053 41.0390625,18.3566895 C41.2073568,18.2295736 41.3971354,18.1660156 41.6083984,18.1660156 C41.8447266,18.1660156 42.0810547,18.2358398 42.3173828,18.3754883 L42.3173828,18.3754883 L42.6503906,17.4785156 C42.3138021,17.2708333 41.9825846,17.1669922 41.6567383,17.1669922 C41.4311523,17.1669922 41.2243652,17.2314453 41.036377,17.3603516 C40.8483887,17.4892578 40.6433919,17.7560221 40.4213867,18.1606445 L40.4213867,18.1606445 L40.4213867,17.2958984 L39.5512695,17.2958984 L39.5512695,23 L40.5180664,23 Z M50.6697591,23 L53.7527669,15.1259766 L52.6892904,15.1259766 L50.5623372,20.8461914 C50.4012044,21.2758789 50.2597656,21.7055664 50.1380208,22.1352539 C50.0270182,21.7342122 49.8891602,21.3045247 49.7244466,20.8461914 L49.7244466,20.8461914 L47.6780599,15.1259766 L46.5501302,15.1259766 L49.6009115,23 L50.6697591,23 Z M57.6897786,23.1342773 C58.2519531,23.1342773 58.7577311,23.0313314 59.2071126,22.8254395 C59.6564941,22.6195475 60.0011393,22.3312988 60.2410482,21.9606934 C60.480957,21.5900879 60.6009115,21.1953125 60.6009115,20.7763672 C60.6009115,20.3538411 60.4916992,19.9805501 60.2732747,19.6564941 C60.0548503,19.3324382 59.7164714,19.0647786 59.258138,18.8535156 C58.9430339,18.7102865 58.3620605,18.5428874 57.5152181,18.3513184 C56.6683757,18.1597493 56.144694,17.9726562 55.9441732,17.7900391 C55.7400716,17.6074219 55.6380208,17.3746745 55.6380208,17.0917969 C55.6380208,16.7659505 55.7821452,16.4875488 56.0703939,16.2565918 C56.3586426,16.0256348 56.8178711,15.9101562 57.4480794,15.9101562 C58.0532227,15.9101562 58.5106608,16.0372721 58.8203939,16.2915039 C59.130127,16.5457357 59.311849,16.9217122 59.3655599,17.4194336 L59.3655599,17.4194336 L60.3645833,17.3442383 C60.3466797,16.8823242 60.2177734,16.46875 59.9778646,16.1035156 C59.7379557,15.7382812 59.3951009,15.4616699 58.9493001,15.2736816 C58.5034993,15.0856934 57.9887695,14.9916992 57.4051107,14.9916992 C56.8751628,14.9916992 56.3935547,15.0812174 55.9602865,15.2602539 C55.5270182,15.4392904 55.1975911,15.7015788 54.9720052,16.0471191 C54.7464193,16.3926595 54.6336263,16.7641602 54.6336263,17.1616211 C54.6336263,17.5232747 54.7258301,17.8500163 54.9102376,18.1418457 C55.0946452,18.4336751 55.3748372,18.6780599 55.7508138,18.875 C56.0408529,19.0289714 56.547526,19.1927897 57.2708333,19.3664551 C57.9941406,19.5401204 58.4614258,19.6681315 58.6726888,19.7504883 C59.0021159,19.8758138 59.238444,20.0306803 59.3816732,20.2150879 C59.5249023,20.3994954 59.5965169,20.6152344 59.5965169,20.8623047 C59.5965169,21.1057943 59.5222168,21.330485 59.3736165,21.536377 C59.2250163,21.7422689 58.9985352,21.9042969 58.6941732,22.0224609 C58.3898112,22.140625 58.0388997,22.199707 57.6414388,22.199707 C57.1938477,22.199707 56.7910156,22.1218262 56.4329427,21.9660645 C56.0748698,21.8103027 55.810791,21.6062012 55.6407064,21.3537598 C55.4706217,21.1013184 55.3623047,20.7781576 55.3157552,20.3842773 L55.3157552,20.3842773 L54.3328451,20.4702148 C54.347168,20.996582 54.4912923,21.4683431 54.7652181,21.885498 C55.0391439,22.302653 55.4169108,22.6150716 55.8985189,22.8227539 C56.380127,23.0304362 56.9772135,23.1342773 57.6897786,23.1342773 Z M65.4241536,23.1342773 C66.2441406,23.1342773 66.9379069,22.9095866 67.5054525,22.4602051 C68.072998,22.0108236 68.4659831,21.3582357 68.6844076,20.5024414 L68.6844076,20.5024414 L67.6424154,20.2392578 C67.4991862,20.9016927 67.2252604,21.4012044 66.820638,21.737793 C66.4160156,22.0743815 65.921875,22.2426758 65.3382161,22.2426758 C64.8583984,22.2426758 64.4125977,22.1191406 64.0008138,21.8720703 C63.5890299,21.625 63.2855632,21.251709 63.0904134,20.7521973 C62.8952637,20.2526855 62.7976888,19.6681315 62.7976888,18.9985352 C62.7976888,18.4793294 62.8800456,17.9753418 63.0447591,17.4865723 C63.2094727,16.9978027 63.4950358,16.6083984 63.9014486,16.3183594 C64.3078613,16.0283203 64.8136393,15.8833008 65.4187826,15.8833008 C65.9451497,15.8833008 66.3819987,16.0139974 66.7293294,16.2753906 C67.0766602,16.5367839 67.3416341,16.9539388 67.5242513,17.5268555 L67.5242513,17.5268555 L68.5501302,17.2851562 C68.3388672,16.5582682 67.964681,15.9943034 67.4275716,15.5932617 C66.8904622,15.1922201 66.2280273,14.9916992 65.4402669,14.9916992 C64.7456055,14.9916992 64.1091309,15.1501465 63.5308431,15.467041 C62.9525553,15.7839355 62.5067546,16.24764 62.1934408,16.8581543 C61.880127,17.4686686 61.7234701,18.1839193 61.7234701,19.0039062 C61.7234701,19.7558594 61.8622233,20.4594727 62.1397298,21.1147461 C62.4172363,21.7700195 62.8218587,22.2704264 63.353597,22.6159668 C63.8853353,22.9615072 64.5755208,23.1342773 65.4241536,23.1342773 Z M72.1595052,23.1289062 C72.6572266,23.1289062 73.1164551,23.0125326 73.5371908,22.7797852 C73.9579264,22.5470378 74.2784017,22.2202962 74.4986165,21.7995605 C74.7188314,21.3788249 74.8289388,20.8014323 74.8289388,20.0673828 C74.8289388,19.1614583 74.5800781,18.4515788 74.0823568,17.9377441 C73.5846354,17.4239095 72.9436849,17.1669922 72.1595052,17.1669922 C71.4541016,17.1669922 70.8561198,17.3782552 70.3655599,17.8007812 C69.7783203,18.3092448 69.4847005,19.0916341 69.4847005,20.1479492 C69.4847005,21.1111654 69.7308757,21.8487956 70.2232259,22.3608398 C70.7155762,22.8728841 71.3610026,23.1289062 72.1595052,23.1289062 Z M72.1595052,22.3339844 C71.6761068,22.3339844 71.2750651,22.1522624 70.9563802,21.7888184 C70.6376953,21.4253743 70.4783529,20.878418 70.4783529,20.1479492 C70.4783529,19.4174805 70.6376953,18.8714193 70.9563802,18.5097656 C71.2750651,18.148112 71.6761068,17.9672852 72.1595052,17.9672852 C72.6357422,17.9672852 73.0340983,18.1490072 73.3545736,18.5124512 C73.6750488,18.8758952 73.8352865,19.410319 73.8352865,20.1157227 C73.8352865,20.8640951 73.675944,21.4208984 73.3572591,21.7861328 C73.0385742,22.1513672 72.6393229,22.3339844 72.1595052,22.3339844 Z M78.0677083,23.1289062 C78.7695312,23.1289062 79.3012695,22.8460286 79.6629232,22.2802734 L79.6629232,22.2802734 L79.6629232,23 L80.5598958,23 L80.5598958,15.1259766 L79.5984701,15.1259766 L79.5984701,17.9511719 C79.4301758,17.7184245 79.2117513,17.529541 78.9431966,17.3845215 C78.6746419,17.239502 78.3684896,17.1669922 78.0247396,17.1669922 C77.5556641,17.1669922 77.1313477,17.2905273 76.7517904,17.5375977 C76.3722331,17.784668 76.0875651,18.1400553 75.8977865,18.6037598 C75.7080078,19.0674642 75.6131185,19.5839844 75.6131185,20.1533203 C75.6131185,20.7369792 75.7178548,21.2534993 75.9273275,21.7028809 C76.1368001,22.1522624 76.4322103,22.5022786 76.8135579,22.7529297 C77.1949056,23.0035807 77.6129557,23.1289062 78.0677083,23.1289062 Z M78.1590169,22.3339844 C77.7400716,22.3339844 77.3766276,22.1531576 77.0686849,21.7915039 C76.7607422,21.4298503 76.6067708,20.8837891 76.6067708,20.1533203 C76.6067708,19.3977865 76.7508952,18.8445638 77.0391439,18.4936523 C77.3273926,18.1427409 77.6863607,17.9672852 78.1160482,17.9672852 C78.5564779,17.9672852 78.9270833,18.1499023 79.2278646,18.5151367 C79.5286458,18.8803711 79.6790365,19.4532878 79.6790365,20.2338867 C79.6790365,20.9428711 79.5313314,21.4701335 79.2359212,21.8156738 C78.9405111,22.1612142 78.581543,22.3339844 78.1590169,22.3339844 Z M84.4754232,23.1289062 C85.1378581,23.1289062 85.6821289,22.9677734 86.1082357,22.6455078 C86.5343424,22.3232422 86.8261719,21.8702799 86.983724,21.2866211 L86.983724,21.2866211 L85.9847005,21.1630859 C85.8378906,21.5712891 85.6391602,21.8684896 85.3885091,22.0546875 C85.1378581,22.2408854 84.8352865,22.3339844 84.4807943,22.3339844 C84.0045573,22.3339844 83.6070964,22.1674805 83.2884115,21.8344727 C82.9697266,21.5014648 82.7924805,21.0216471 82.7566732,20.3950195 L82.7566732,20.3950195 L87.0105794,20.3950195 C87.0141602,20.2804362 87.0159505,20.1944987 87.0159505,20.137207 C87.0159505,19.1954753 86.7742513,18.4650065 86.2908529,17.9458008 C85.8074544,17.4265951 85.1844076,17.1669922 84.4217122,17.1669922 C83.6339518,17.1669922 82.9930013,17.4319661 82.4988607,17.9619141 C82.0047201,18.491862 81.7576497,19.2366536 81.7576497,20.1962891 C81.7576497,21.1236979 82.0020345,21.8443197 82.490804,22.3581543 C82.9795736,22.8719889 83.6411133,23.1289062 84.4754232,23.1289062 Z M85.9954427,19.6000977 L82.8103841,19.6000977 C82.8426107,19.1023763 83.0100098,18.7049154 83.3125814,18.4077148 C83.615153,18.1105143 83.988444,17.9619141 84.4324544,17.9619141 C84.9230143,17.9619141 85.3222656,18.148112 85.6302083,18.5205078 C85.8307292,18.7604167 85.952474,19.1202799 85.9954427,19.6000977 L85.9954427,19.6000977 Z M93.1661784,25.1860352 L93.1661784,22.4091797 C93.3308919,22.616862 93.5412598,22.788737 93.7972819,22.9248047 C94.053304,23.0608724 94.3424479,23.1289062 94.6647135,23.1289062 C95.1051432,23.1289062 95.5249837,23.0044759 95.924235,22.7556152 C96.3234863,22.5067546 96.6278483,22.1486816 96.837321,21.6813965 C97.0467936,21.2141113 97.1515299,20.6886393 97.1515299,20.1049805 C97.1515299,19.5607096 97.0566406,19.0603027 96.866862,18.6037598 C96.6770833,18.1472168 96.3959961,17.7936198 96.0236003,17.5429688 C95.6512044,17.2923177 95.2215169,17.1669922 94.7345378,17.1669922 C94.3621419,17.1669922 94.0452474,17.239502 93.7838542,17.3845215 C93.5224609,17.529541 93.2879232,17.7470703 93.0802409,18.0371094 L93.0802409,18.0371094 L93.0802409,17.2958984 L92.1993815,17.2958984 L92.1993815,25.1860352 L93.1661784,25.1860352 Z M94.6002604,22.3339844 C94.1777344,22.3339844 93.8178711,22.1585286 93.5206706,21.8076172 C93.2234701,21.4567057 93.0748698,20.9142253 93.0748698,20.1801758 C93.0748698,19.4461263 93.2333171,18.8866374 93.5502116,18.501709 C93.8671061,18.1167806 94.2314453,17.9243164 94.6432292,17.9243164 C95.0585937,17.9243164 95.4157715,18.1051432 95.7147624,18.4667969 C96.0137533,18.8284505 96.1632487,19.3727214 96.1632487,20.0996094 C96.1632487,20.8623047 96.0101725,21.4253743 95.7040202,21.7888184 C95.3978678,22.1522624 95.0299479,22.3339844 94.6002604,22.3339844 Z M99.2623698,23 L99.2623698,15.1259766 L98.2955729,15.1259766 L98.2955729,23 L99.2623698,23 Z M102.689128,23.1289062 C103.451823,23.1289062 104.055176,22.8066406 104.499186,22.1621094 L104.499186,22.1621094 L104.499186,23 L105.363932,23 L105.363932,17.2958984 L104.397135,17.2958984 L104.397135,20.3520508 C104.397135,20.8390299 104.34432,21.2105306 104.238688,21.4665527 C104.133057,21.7225749 103.953125,21.9248861 103.698893,22.0734863 C103.444661,22.2220866 103.172526,22.2963867 102.882487,22.2963867 C102.592448,22.2963867 102.348958,22.223877 102.152018,22.0788574 C101.955078,21.9338379 101.826172,21.7342122 101.765299,21.4799805 C101.725911,21.3045247 101.706217,20.9643555 101.706217,20.4594727 L101.706217,20.4594727 L101.706217,17.2958984 L100.739421,17.2958984 L100.739421,20.8300781 C100.739421,21.241862 100.759115,21.5426432 100.798503,21.7324219 C100.855794,22.0152995 100.95516,22.2543132 101.096598,22.4494629 C101.238037,22.6446126 101.454671,22.8066406 101.746501,22.9355469 C102.03833,23.0644531 102.352539,23.1289062 102.689128,23.1289062 Z M108.957194,25.3149414 C109.530111,25.3149414 110.012614,25.2075195 110.404704,24.9926758 C110.796794,24.777832 111.083252,24.4851074 111.264079,24.114502 C111.444906,23.7438965 111.535319,23.1145833 111.535319,22.2265625 L111.535319,22.2265625 L111.535319,17.2958984 L110.643717,17.2958984 L110.643717,17.9833984 C110.206868,17.4391276 109.651855,17.1669922 108.978678,17.1669922 C108.473796,17.1669922 108.034261,17.2923177 107.660075,17.5429688 C107.285889,17.7936198 107.000326,18.1490072 106.803385,18.6091309 C106.606445,19.0692546 106.507975,19.5714518 106.507975,20.1157227 C106.507975,20.9070638 106.722819,21.585612 107.152507,22.1513672 C107.582194,22.7171224 108.189128,23 108.973307,23 C109.603516,23 110.129883,22.7511393 110.552409,22.253418 C110.55599,22.8836263 110.532715,23.2972005 110.482585,23.4941406 C110.396647,23.8164062 110.231934,24.0670573 109.988444,24.2460938 C109.744954,24.4251302 109.399414,24.5146484 108.951823,24.5146484 C108.536458,24.5146484 108.208822,24.4251302 107.968913,24.2460938 C107.789876,24.1136068 107.680664,23.9023438 107.641276,23.6123047 L107.641276,23.6123047 L106.701335,23.4726562 C106.687012,24.0885417 106.889323,24.5495605 107.308268,24.8557129 C107.727214,25.1618652 108.276855,25.3149414 108.957194,25.3149414 Z M109.064616,22.199707 C108.617025,22.199707 108.244629,22.027832 107.947428,21.684082 C107.650228,21.340332 107.501628,20.7942708 107.501628,20.0458984 C107.501628,19.3583984 107.652018,18.8400879 107.952799,18.4909668 C108.253581,18.1418457 108.618815,17.9672852 109.048503,17.9672852 C109.485352,17.9672852 109.858643,18.1445312 110.168376,18.4990234 C110.478109,18.8535156 110.632975,19.3798828 110.632975,20.078125 C110.632975,20.8085938 110.482585,21.3448079 110.181803,21.6867676 C109.881022,22.0287272 109.508626,22.199707 109.064616,22.199707 Z M113.968424,16.237793 L113.968424,15.1259766 L113.001628,15.1259766 L113.001628,16.237793 L113.968424,16.237793 Z M113.968424,23 L113.968424,17.2958984 L113.001628,17.2958984 L113.001628,23 L113.968424,23 Z M116.406901,23 L116.406901,19.8847656 C116.406901,19.1542969 116.556396,18.6583659 116.855387,18.3969727 C117.154378,18.1355794 117.509766,18.0048828 117.921549,18.0048828 C118.179362,18.0048828 118.404053,18.0630697 118.595622,18.1794434 C118.787191,18.2958171 118.920573,18.4515788 118.995768,18.6467285 C119.070964,18.8418783 119.108561,19.1363932 119.108561,19.5302734 L119.108561,19.5302734 L119.108561,23 L120.075358,23 L120.075358,19.4926758 C120.075358,19.0450846 120.057454,18.7317708 120.021647,18.5527344 C119.964355,18.2770182 119.864095,18.0388997 119.720866,17.8383789 C119.577637,17.6378581 119.361898,17.4758301 119.073649,17.3522949 C118.7854,17.2287598 118.469401,17.1669922 118.125651,17.1669922 C117.33431,17.1669922 116.729167,17.480306 116.310221,18.1069336 L116.310221,18.1069336 L116.310221,17.2958984 L115.440104,17.2958984 L115.440104,23 L116.406901,23 Z M122.014323,24.5576172 C122.325846,24.4215495 122.553223,24.2290853 122.696452,23.9802246 C122.839681,23.7313639 122.911296,23.4046224 122.911296,23 L122.911296,23 L122.911296,21.8989258 L121.810221,21.8989258 L121.810221,23 L122.358073,23 C122.347331,23.3258464 122.29362,23.5756022 122.19694,23.7492676 C122.10026,23.9229329 121.94987,24.0545247 121.745768,24.144043 L121.745768,24.144043 L122.014323,24.5576172 Z M129.58252,25.1860352 L129.58252,22.4091797 C129.747233,22.616862 129.957601,22.788737 130.213623,22.9248047 C130.469645,23.0608724 130.758789,23.1289062 131.081055,23.1289062 C131.521484,23.1289062 131.941325,23.0044759 132.340576,22.7556152 C132.739827,22.5067546 133.044189,22.1486816 133.253662,21.6813965 C133.463135,21.2141113 133.567871,20.6886393 133.567871,20.1049805 C133.567871,19.5607096 133.472982,19.0603027 133.283203,18.6037598 C133.093424,18.1472168 132.812337,17.7936198 132.439941,17.5429688 C132.067546,17.2923177 131.637858,17.1669922 131.150879,17.1669922 C130.778483,17.1669922 130.461589,17.239502 130.200195,17.3845215 C129.938802,17.529541 129.704264,17.7470703 129.496582,18.0371094 L129.496582,18.0371094 L129.496582,17.2958984 L128.615723,17.2958984 L128.615723,25.1860352 L129.58252,25.1860352 Z M131.016602,22.3339844 C130.594076,22.3339844 130.234212,22.1585286 129.937012,21.8076172 C129.639811,21.4567057 129.491211,20.9142253 129.491211,20.1801758 C129.491211,19.4461263 129.649658,18.8866374 129.966553,18.501709 C130.283447,18.1167806 130.647786,17.9243164 131.05957,17.9243164 C131.474935,17.9243164 131.832113,18.1051432 132.131104,18.4667969 C132.430094,18.8284505 132.57959,19.3727214 132.57959,20.0996094 C132.57959,20.8623047 132.426514,21.4253743 132.120361,21.7888184 C131.814209,22.1522624 131.446289,22.3339844 131.016602,22.3339844 Z M135.678711,23 L135.678711,15.1259766 L134.711914,15.1259766 L134.711914,23 L135.678711,23 Z M139.572754,23.1289062 C140.235189,23.1289062 140.77946,22.9677734 141.205566,22.6455078 C141.631673,22.3232422 141.923503,21.8702799 142.081055,21.2866211 L142.081055,21.2866211 L141.082031,21.1630859 C140.935221,21.5712891 140.736491,21.8684896 140.48584,22.0546875 C140.235189,22.2408854 139.932617,22.3339844 139.578125,22.3339844 C139.101888,22.3339844 138.704427,22.1674805 138.385742,21.8344727 C138.067057,21.5014648 137.889811,21.0216471 137.854004,20.3950195 L137.854004,20.3950195 L142.10791,20.3950195 C142.111491,20.2804362 142.113281,20.1944987 142.113281,20.137207 C142.113281,19.1954753 141.871582,18.4650065 141.388184,17.9458008 C140.904785,17.4265951 140.281738,17.1669922 139.519043,17.1669922 C138.731283,17.1669922 138.090332,17.4319661 137.596191,17.9619141 C137.102051,18.491862 136.85498,19.2366536 136.85498,20.1962891 C136.85498,21.1236979 137.099365,21.8443197 137.588135,22.3581543 C138.076904,22.8719889 138.738444,23.1289062 139.572754,23.1289062 Z M141.092773,19.6000977 L137.907715,19.6000977 C137.939941,19.1023763 138.10734,18.7049154 138.409912,18.4077148 C138.712484,18.1105143 139.085775,17.9619141 139.529785,17.9619141 C140.020345,17.9619141 140.419596,18.148112 140.727539,18.5205078 C140.92806,18.7604167 141.049805,19.1202799 141.092773,19.6000977 L141.092773,19.6000977 Z M144.916992,23.1289062 C145.296549,23.1289062 145.651937,23.0662435 145.983154,22.940918 C146.314372,22.8155924 146.659017,22.6007487 147.01709,22.2963867 C147.045736,22.5649414 147.110189,22.7994792 147.210449,23 L147.210449,23 L148.220215,23 C148.09847,22.7815755 148.017008,22.553304 147.97583,22.3151855 C147.934652,22.0770671 147.914062,21.5086263 147.914062,20.6098633 L147.914062,19.3208008 C147.914062,18.8911133 147.897949,18.5939128 147.865723,18.4291992 C147.808431,18.1642253 147.708171,17.9449056 147.564941,17.7712402 C147.421712,17.5975749 147.197917,17.4534505 146.893555,17.3388672 C146.589193,17.2242839 146.193522,17.1669922 145.706543,17.1669922 C145.215983,17.1669922 144.784505,17.2341309 144.412109,17.3684082 C144.039714,17.5026855 143.755046,17.6942546 143.558105,17.9431152 C143.361165,18.1919759 143.219727,18.5187174 143.133789,18.9233398 L143.133789,18.9233398 L144.079102,19.0522461 C144.182943,18.6476237 144.34318,18.3656413 144.559814,18.2062988 C144.776449,18.0469564 145.112142,17.9672852 145.566895,17.9672852 C146.053874,17.9672852 146.420898,18.0764974 146.667969,18.2949219 C146.850586,18.4560547 146.941895,18.7335612 146.941895,19.1274414 C146.941895,19.1632487 146.940104,19.2473958 146.936523,19.3798828 C146.567708,19.5087891 145.993001,19.6197917 145.212402,19.7128906 C144.829264,19.7594401 144.542806,19.8077799 144.353027,19.8579102 C144.095215,19.9295247 143.863363,20.0351562 143.657471,20.1748047 C143.451579,20.3144531 143.285075,20.4997559 143.157959,20.7307129 C143.030843,20.9616699 142.967285,21.2167969 142.967285,21.4960938 C142.967285,21.9723307 143.135579,22.3635254 143.472168,22.6696777 C143.808757,22.9758301 144.290365,23.1289062 144.916992,23.1289062 Z M145.147949,22.371582 C144.771973,22.371582 144.48641,22.2856445 144.29126,22.1137695 C144.09611,21.9418945 143.998535,21.7270508 143.998535,21.4692383 C143.998535,21.300944 144.043294,21.1478678 144.132812,21.0100098 C144.222331,20.8721517 144.349447,20.7674154 144.51416,20.6958008 C144.678874,20.6241862 144.959961,20.5597331 145.357422,20.5024414 C146.059245,20.402181 146.585612,20.2804362 146.936523,20.137207 L146.936523,20.137207 L146.936523,20.4916992 C146.936523,20.917806 146.884603,21.2400716 146.780762,21.4584961 C146.644694,21.7413737 146.431641,21.9642741 146.141602,22.1271973 C145.851562,22.2901204 145.520345,22.371582 145.147949,22.371582 Z M151.464355,23.1289062 C151.911947,23.1289062 152.312988,23.0510254 152.66748,22.8952637 C153.021973,22.739502 153.293213,22.5192871 153.481201,22.2346191 C153.669189,21.9499512 153.763184,21.6464844 153.763184,21.3242188 C153.763184,20.9947917 153.686198,20.7190755 153.532227,20.4970703 C153.378255,20.2750651 153.166097,20.1058757 152.895752,19.989502 C152.625407,19.8731283 152.148275,19.7236328 151.464355,19.5410156 C150.991699,19.4121094 150.707031,19.3297526 150.610352,19.2939453 C150.442057,19.2259115 150.318522,19.139974 150.239746,19.0361328 C150.16097,18.9358724 150.121582,18.8230794 150.121582,18.6977539 C150.121582,18.5008138 150.216471,18.3289388 150.40625,18.1821289 C150.596029,18.035319 150.912923,17.9619141 151.356934,17.9619141 C151.73291,17.9619141 152.023844,18.0442708 152.229736,18.2089844 C152.435628,18.3736979 152.560059,18.6028646 152.603027,18.8964844 L152.603027,18.8964844 L153.54834,18.7675781 C153.487467,18.398763 153.376465,18.104248 153.215332,17.8840332 C153.054199,17.6638184 152.804443,17.4892578 152.466064,17.3603516 C152.127686,17.2314453 151.734701,17.1669922 151.287109,17.1669922 C150.989909,17.1669922 150.711507,17.205485 150.451904,17.2824707 C150.192301,17.3594564 149.987305,17.4534505 149.836914,17.5644531 C149.636393,17.7076823 149.477946,17.8876139 149.361572,18.104248 C149.245199,18.3208822 149.187012,18.5563151 149.187012,18.8105469 C149.187012,19.0898438 149.257731,19.3449707 149.39917,19.5759277 C149.540609,19.8068848 149.748291,19.9877116 150.022217,20.1184082 C150.296143,20.2491048 150.787598,20.4039714 151.496582,20.5830078 C152.022949,20.7154948 152.352376,20.824707 152.484863,20.9106445 C152.674642,21.0359701 152.769531,21.2078451 152.769531,21.4262695 C152.769531,21.6697591 152.662109,21.8819173 152.447266,22.0627441 C152.232422,22.243571 151.902995,22.3339844 151.458984,22.3339844 C151.018555,22.3339844 150.6757,22.2319336 150.43042,22.027832 C150.18514,21.8237305 150.035645,21.5301107 149.981934,21.1469727 L149.981934,21.1469727 L149.025879,21.2973633 C149.133301,21.9025065 149.381266,22.3590495 149.769775,22.6669922 C150.158285,22.9749349 150.723145,23.1289062 151.464355,23.1289062 Z M157.308105,23.1289062 C157.97054,23.1289062 158.514811,22.9677734 158.940918,22.6455078 C159.367025,22.3232422 159.658854,21.8702799 159.816406,21.2866211 L159.816406,21.2866211 L158.817383,21.1630859 C158.670573,21.5712891 158.471842,21.8684896 158.221191,22.0546875 C157.97054,22.2408854 157.667969,22.3339844 157.313477,22.3339844 C156.83724,22.3339844 156.439779,22.1674805 156.121094,21.8344727 C155.802409,21.5014648 155.625163,21.0216471 155.589355,20.3950195 L155.589355,20.3950195 L159.843262,20.3950195 C159.846842,20.2804362 159.848633,20.1944987 159.848633,20.137207 C159.848633,19.1954753 159.606934,18.4650065 159.123535,17.9458008 C158.640137,17.4265951 158.01709,17.1669922 157.254395,17.1669922 C156.466634,17.1669922 155.825684,17.4319661 155.331543,17.9619141 C154.837402,18.491862 154.590332,19.2366536 154.590332,20.1962891 C154.590332,21.1236979 154.834717,21.8443197 155.323486,22.3581543 C155.812256,22.8719889 156.473796,23.1289062 157.308105,23.1289062 Z M158.828125,19.6000977 L155.643066,19.6000977 C155.675293,19.1023763 155.842692,18.7049154 156.145264,18.4077148 C156.447835,18.1105143 156.821126,17.9619141 157.265137,17.9619141 C157.755697,17.9619141 158.154948,18.148112 158.462891,18.5205078 C158.663411,18.7604167 158.785156,19.1202799 158.828125,19.6000977 L158.828125,19.6000977 Z M167.330892,23.1289062 C167.953939,23.1289062 168.479411,22.9436035 168.907308,22.572998 C169.335205,22.2023926 169.601074,21.6894531 169.704915,21.0341797 L169.704915,21.0341797 L168.754232,20.9106445 C168.686198,21.394043 168.525065,21.7521159 168.270833,21.9848633 C168.016602,22.2176107 167.699707,22.3339844 167.32015,22.3339844 C166.847493,22.3339844 166.464355,22.160319 166.170736,21.8129883 C165.877116,21.4656576 165.730306,20.9088542 165.730306,20.1425781 C165.730306,19.3870443 165.882487,18.8347168 166.186849,18.4855957 C166.491211,18.1364746 166.886882,17.9619141 167.373861,17.9619141 C167.696126,17.9619141 167.970947,18.0585938 168.198324,18.2519531 C168.4257,18.4453125 168.584147,18.7335612 168.673665,19.1166992 L168.673665,19.1166992 L169.613607,18.9716797 C169.502604,18.3951823 169.250163,17.9502767 168.856283,17.6369629 C168.462402,17.3236491 167.955729,17.1669922 167.336263,17.1669922 C166.845703,17.1669922 166.391846,17.2824707 165.974691,17.5134277 C165.557536,17.7443848 165.246908,18.0908203 165.042806,18.5527344 C164.838704,19.0146484 164.736654,19.5535482 164.736654,20.1694336 C164.736654,21.1219076 164.973877,21.8532715 165.448324,22.3635254 C165.92277,22.8737793 166.550293,23.1289062 167.330892,23.1289062 Z M171.477376,23 L171.477376,15.1259766 L170.510579,15.1259766 L170.510579,23 L171.477376,23 Z M173.948079,16.237793 L173.948079,15.1259766 L172.981283,15.1259766 L172.981283,16.237793 L173.948079,16.237793 Z M173.948079,23 L173.948079,17.2958984 L172.981283,17.2958984 L172.981283,23 L173.948079,23 Z M177.718587,23.1289062 C178.341634,23.1289062 178.867106,22.9436035 179.295003,22.572998 C179.7229,22.2023926 179.98877,21.6894531 180.092611,21.0341797 L180.092611,21.0341797 L179.141927,20.9106445 C179.073893,21.394043 178.91276,21.7521159 178.658529,21.9848633 C178.404297,22.2176107 178.087402,22.3339844 177.707845,22.3339844 C177.235189,22.3339844 176.852051,22.160319 176.558431,21.8129883 C176.264811,21.4656576 176.118001,20.9088542 176.118001,20.1425781 C176.118001,19.3870443 176.270182,18.8347168 176.574544,18.4855957 C176.878906,18.1364746 177.274577,17.9619141 177.761556,17.9619141 C178.083822,17.9619141 178.358643,18.0585938 178.586019,18.2519531 C178.813395,18.4453125 178.971842,18.7335612 179.061361,19.1166992 L179.061361,19.1166992 L180.001302,18.9716797 C179.890299,18.3951823 179.637858,17.9502767 179.243978,17.6369629 C178.850098,17.3236491 178.343424,17.1669922 177.723958,17.1669922 C177.233398,17.1669922 176.779541,17.2824707 176.362386,17.5134277 C175.945231,17.7443848 175.634603,18.0908203 175.430501,18.5527344 C175.2264,19.0146484 175.124349,19.5535482 175.124349,20.1694336 C175.124349,21.1219076 175.361572,21.8532715 175.836019,22.3635254 C176.310465,22.8737793 176.937988,23.1289062 177.718587,23.1289062 Z M181.891927,23 L181.891927,20.7387695 L182.574056,20.0834961 L184.45931,23 L185.651693,23 L183.250814,19.4121094 L185.431478,17.2958984 L184.180013,17.2958984 L181.891927,19.6162109 L181.891927,15.1259766 L180.92513,15.1259766 L180.92513,23 L181.891927,23 Z M191.941569,23.0751953 C192.156413,23.0751953 192.399902,23.0465495 192.672038,22.9892578 L192.672038,22.9892578 L192.532389,22.1352539 C192.356934,22.160319 192.215495,22.1728516 192.108073,22.1728516 C191.964844,22.1728516 191.854736,22.1495768 191.777751,22.1030273 C191.700765,22.0564779 191.645264,21.9938151 191.611247,21.9150391 C191.57723,21.836263 191.560221,21.6590169 191.560221,21.3833008 L191.560221,21.3833008 L191.560221,18.0478516 L192.532389,18.0478516 L192.532389,17.2958984 L191.560221,17.2958984 L191.560221,15.3032227 L190.598796,15.8833008 L190.598796,17.2958984 L189.889811,17.2958984 L189.889811,18.0478516 L190.598796,18.0478516 L190.598796,21.3295898 C190.598796,21.909668 190.638184,22.2901204 190.71696,22.4709473 C190.795736,22.6517741 190.931803,22.7976888 191.125163,22.9086914 C191.318522,23.019694 191.590658,23.0751953 191.941569,23.0751953 Z M194.444499,23 L194.444499,19.8793945 C194.444499,19.4318034 194.49821,19.0808919 194.605632,18.8266602 C194.713053,18.5724284 194.892985,18.3710124 195.145426,18.2224121 C195.397868,18.0738118 195.667318,17.9995117 195.953776,17.9995117 C196.336914,17.9995117 196.633219,18.1096191 196.842692,18.329834 C197.052165,18.5500488 197.156901,18.9018555 197.156901,19.3852539 L197.156901,19.3852539 L197.156901,23 L198.123698,23 L198.123698,19.3852539 C198.123698,18.8266602 198.056559,18.4005534 197.922282,18.1069336 C197.788005,17.8133138 197.565104,17.583252 197.253581,17.416748 C196.942057,17.2502441 196.575033,17.1669922 196.152507,17.1669922 C195.465007,17.1669922 194.895671,17.4283854 194.444499,17.9511719 L194.444499,17.9511719 L194.444499,15.1259766 L193.477702,15.1259766 L193.477702,23 L194.444499,23 Z M201.990885,23.1289062 C202.65332,23.1289062 203.197591,22.9677734 203.623698,22.6455078 C204.049805,22.3232422 204.341634,21.8702799 204.499186,21.2866211 L204.499186,21.2866211 L203.500163,21.1630859 C203.353353,21.5712891 203.154622,21.8684896 202.903971,22.0546875 C202.65332,22.2408854 202.350749,22.3339844 201.996257,22.3339844 C201.52002,22.3339844 201.122559,22.1674805 200.803874,21.8344727 C200.485189,21.5014648 200.307943,21.0216471 200.272135,20.3950195 L200.272135,20.3950195 L204.526042,20.3950195 C204.529622,20.2804362 204.531413,20.1944987 204.531413,20.137207 C204.531413,19.1954753 204.289714,18.4650065 203.806315,17.9458008 C203.322917,17.4265951 202.69987,17.1669922 201.937174,17.1669922 C201.149414,17.1669922 200.508464,17.4319661 200.014323,17.9619141 C199.520182,18.491862 199.273112,19.2366536 199.273112,20.1962891 C199.273112,21.1236979 199.517497,21.8443197 200.006266,22.3581543 C200.495036,22.8719889 201.156576,23.1289062 201.990885,23.1289062 Z M203.510905,19.6000977 L200.325846,19.6000977 C200.358073,19.1023763 200.525472,18.7049154 200.828044,18.4077148 C201.130615,18.1105143 201.503906,17.9619141 201.947917,17.9619141 C202.438477,17.9619141 202.837728,18.148112 203.145671,18.5205078 C203.346191,18.7604167 203.467936,19.1202799 203.510905,19.6000977 L203.510905,19.6000977 Z M210.687012,16.237793 L210.687012,15.1259766 L209.720215,15.1259766 L209.720215,16.237793 L210.687012,16.237793 Z M210.687012,23 L210.687012,17.2958984 L209.720215,17.2958984 L209.720215,23 L210.687012,23 Z M214.45752,23.1289062 C215.080566,23.1289062 215.606038,22.9436035 216.033936,22.572998 C216.461833,22.2023926 216.727702,21.6894531 216.831543,21.0341797 L216.831543,21.0341797 L215.880859,20.9106445 C215.812826,21.394043 215.651693,21.7521159 215.397461,21.9848633 C215.143229,22.2176107 214.826335,22.3339844 214.446777,22.3339844 C213.974121,22.3339844 213.590983,22.160319 213.297363,21.8129883 C213.003743,21.4656576 212.856934,20.9088542 212.856934,20.1425781 C212.856934,19.3870443 213.009115,18.8347168 213.313477,18.4855957 C213.617839,18.1364746 214.013509,17.9619141 214.500488,17.9619141 C214.822754,17.9619141 215.097575,18.0585938 215.324951,18.2519531 C215.552327,18.4453125 215.710775,18.7335612 215.800293,19.1166992 L215.800293,19.1166992 L216.740234,18.9716797 C216.629232,18.3951823 216.37679,17.9502767 215.98291,17.6369629 C215.58903,17.3236491 215.082357,17.1669922 214.462891,17.1669922 C213.972331,17.1669922 213.518473,17.2824707 213.101318,17.5134277 C212.684163,17.7443848 212.373535,18.0908203 212.169434,18.5527344 C211.965332,19.0146484 211.863281,19.5535482 211.863281,20.1694336 C211.863281,21.1219076 212.100505,21.8532715 212.574951,22.3635254 C213.049398,22.8737793 213.676921,23.1289062 214.45752,23.1289062 Z M219.973633,23.1289062 C220.471354,23.1289062 220.930583,23.0125326 221.351318,22.7797852 C221.772054,22.5470378 222.092529,22.2202962 222.312744,21.7995605 C222.532959,21.3788249 222.643066,20.8014323 222.643066,20.0673828 C222.643066,19.1614583 222.394206,18.4515788 221.896484,17.9377441 C221.398763,17.4239095 220.757813,17.1669922 219.973633,17.1669922 C219.268229,17.1669922 218.670247,17.3782552 218.179688,17.8007812 C217.592448,18.3092448 217.298828,19.0916341 217.298828,20.1479492 C217.298828,21.1111654 217.545003,21.8487956 218.037354,22.3608398 C218.529704,22.8728841 219.17513,23.1289062 219.973633,23.1289062 Z M219.973633,22.3339844 C219.490234,22.3339844 219.089193,22.1522624 218.770508,21.7888184 C218.451823,21.4253743 218.29248,20.878418 218.29248,20.1479492 C218.29248,19.4174805 218.451823,18.8714193 218.770508,18.5097656 C219.089193,18.148112 219.490234,17.9672852 219.973633,17.9672852 C220.44987,17.9672852 220.848226,18.1490072 221.168701,18.5124512 C221.489176,18.8758952 221.649414,19.410319 221.649414,20.1157227 C221.649414,20.8640951 221.490072,21.4208984 221.171387,21.7861328 C220.852702,22.1513672 220.453451,22.3339844 219.973633,22.3339844 Z M224.743164,23 L224.743164,19.8847656 C224.743164,19.1542969 224.89266,18.6583659 225.19165,18.3969727 C225.490641,18.1355794 225.846029,18.0048828 226.257813,18.0048828 C226.515625,18.0048828 226.740316,18.0630697 226.931885,18.1794434 C227.123454,18.2958171 227.256836,18.4515788 227.332031,18.6467285 C227.407227,18.8418783 227.444824,19.1363932 227.444824,19.5302734 L227.444824,19.5302734 L227.444824,23 L228.411621,23 L228.411621,19.4926758 C228.411621,19.0450846 228.393717,18.7317708 228.35791,18.5527344 C228.300618,18.2770182 228.200358,18.0388997 228.057129,17.8383789 C227.9139,17.6378581 227.698161,17.4758301 227.409912,17.3522949 C227.121663,17.2287598 226.805664,17.1669922 226.461914,17.1669922 C225.670573,17.1669922 225.06543,17.480306 224.646484,18.1069336 L224.646484,18.1069336 L224.646484,17.2958984 L223.776367,17.2958984 L223.776367,23 L224.743164,23 Z M234.534993,17.9135742 L234.776693,16.4150391 L234.776693,15.1259766 L233.675618,15.1259766 L233.675618,16.4150391 L233.944173,17.9135742 L234.534993,17.9135742 Z M236.302083,17.9135742 L236.559896,16.4150391 L236.559896,15.1259766 L235.458822,15.1259766 L235.458822,16.4150391 L235.722005,17.9135742 L236.302083,17.9135742 Z M257.283854,17.9135742 L257.525553,16.4150391 L257.525553,15.1259766 L256.424479,15.1259766 L256.424479,16.4150391 L256.693034,17.9135742 L257.283854,17.9135742 Z M259.050944,17.9135742 L259.308757,16.4150391 L259.308757,15.1259766 L258.207682,15.1259766 L258.207682,16.4150391 L258.470866,17.9135742 L259.050944,17.9135742 Z M266.071289,23.0751953 C266.286133,23.0751953 266.529622,23.0465495 266.801758,22.9892578 L266.801758,22.9892578 L266.662109,22.1352539 C266.486654,22.160319 266.345215,22.1728516 266.237793,22.1728516 C266.094564,22.1728516 265.984456,22.1495768 265.907471,22.1030273 C265.830485,22.0564779 265.774984,21.9938151 265.740967,21.9150391 C265.70695,21.836263 265.689941,21.6590169 265.689941,21.3833008 L265.689941,21.3833008 L265.689941,18.0478516 L266.662109,18.0478516 L266.662109,17.2958984 L265.689941,17.2958984 L265.689941,15.3032227 L264.728516,15.8833008 L264.728516,17.2958984 L264.019531,17.2958984 L264.019531,18.0478516 L264.728516,18.0478516 L264.728516,21.3295898 C264.728516,21.909668 264.767904,22.2901204 264.84668,22.4709473 C264.925456,22.6517741 265.061523,22.7976888 265.254883,22.9086914 C265.448242,23.019694 265.720378,23.0751953 266.071289,23.0751953 Z M269.922363,23.1289062 C270.420085,23.1289062 270.879313,23.0125326 271.300049,22.7797852 C271.720785,22.5470378 272.04126,22.2202962 272.261475,21.7995605 C272.481689,21.3788249 272.591797,20.8014323 272.591797,20.0673828 C272.591797,19.1614583 272.342936,18.4515788 271.845215,17.9377441 C271.347493,17.4239095 270.706543,17.1669922 269.922363,17.1669922 C269.21696,17.1669922 268.618978,17.3782552 268.128418,17.8007812 C267.541178,18.3092448 267.247559,19.0916341 267.247559,20.1479492 C267.247559,21.1111654 267.493734,21.8487956 267.986084,22.3608398 C268.478434,22.8728841 269.123861,23.1289062 269.922363,23.1289062 Z M269.922363,22.3339844 C269.438965,22.3339844 269.037923,22.1522624 268.719238,21.7888184 C268.400553,21.4253743 268.241211,20.878418 268.241211,20.1479492 C268.241211,19.4174805 268.400553,18.8714193 268.719238,18.5097656 C269.037923,18.148112 269.438965,17.9672852 269.922363,17.9672852 C270.3986,17.9672852 270.796956,18.1490072 271.117432,18.5124512 C271.437907,18.8758952 271.598145,19.410319 271.598145,20.1157227 C271.598145,20.8640951 271.438802,21.4208984 271.120117,21.7861328 C270.801432,22.1513672 270.402181,22.3339844 269.922363,22.3339844 Z M29.1206055,39.1289062 C29.7830404,39.1289062 30.3273112,38.9677734 30.753418,38.6455078 C31.1795247,38.3232422 31.4713542,37.8702799 31.6289062,37.2866211 L31.6289062,37.2866211 L30.6298828,37.1630859 C30.4830729,37.5712891 30.2843424,37.8684896 30.0336914,38.0546875 C29.7830404,38.2408854 29.4804688,38.3339844 29.1259766,38.3339844 C28.6497396,38.3339844 28.2522786,38.1674805 27.9335938,37.8344727 C27.6149089,37.5014648 27.4376628,37.0216471 27.4018555,36.3950195 L27.4018555,36.3950195 L31.6557617,36.3950195 C31.6593424,36.2804362 31.6611328,36.1944987 31.6611328,36.137207 C31.6611328,35.1954753 31.4194336,34.4650065 30.9360352,33.9458008 C30.4526367,33.4265951 29.8295898,33.1669922 29.0668945,33.1669922 C28.2791341,33.1669922 27.6381836,33.4319661 27.144043,33.9619141 C26.6499023,34.491862 26.402832,35.2366536 26.402832,36.1962891 C26.402832,37.1236979 26.6472168,37.8443197 27.1359863,38.3581543 C27.6247559,38.8719889 28.2862956,39.1289062 29.1206055,39.1289062 Z M30.640625,35.6000977 L27.4555664,35.6000977 C27.487793,35.1023763 27.6551921,34.7049154 27.9577637,34.4077148 C28.2603353,34.1105143 28.6336263,33.9619141 29.0776367,33.9619141 C29.5681966,33.9619141 29.9674479,34.148112 30.2753906,34.5205078 C30.4759115,34.7604167 30.5976562,35.1202799 30.640625,35.6000977 L30.640625,35.6000977 Z M33.8095703,39 L33.8095703,35.8847656 C33.8095703,35.1542969 33.9590658,34.6583659 34.2580566,34.3969727 C34.5570475,34.1355794 34.9124349,34.0048828 35.3242188,34.0048828 C35.5820312,34.0048828 35.806722,34.0630697 35.998291,34.1794434 C36.18986,34.2958171 36.3232422,34.4515788 36.3984375,34.6467285 C36.4736328,34.8418783 36.5112305,35.1363932 36.5112305,35.5302734 L36.5112305,35.5302734 L36.5112305,39 L37.4780273,39 L37.4780273,35.4926758 C37.4780273,35.0450846 37.4601237,34.7317708 37.4243164,34.5527344 C37.3670247,34.2770182 37.2667643,34.0388997 37.1235352,33.8383789 C36.980306,33.6378581 36.7645671,33.4758301 36.4763184,33.3522949 C36.1880697,33.2287598 35.8720703,33.1669922 35.5283203,33.1669922 C34.7369792,33.1669922 34.1318359,33.480306 33.7128906,34.1069336 L33.7128906,34.1069336 L33.7128906,33.2958984 L32.8427734,33.2958984 L32.8427734,39 L33.8095703,39 Z M40.4804688,39.0751953 C40.6953125,39.0751953 40.9388021,39.0465495 41.2109375,38.9892578 L41.2109375,38.9892578 L41.0712891,38.1352539 C40.8958333,38.160319 40.7543945,38.1728516 40.6469727,38.1728516 C40.5037435,38.1728516 40.3936361,38.1495768 40.3166504,38.1030273 C40.2396647,38.0564779 40.1841634,37.9938151 40.1501465,37.9150391 C40.1161296,37.836263 40.0991211,37.6590169 40.0991211,37.3833008 L40.0991211,37.3833008 L40.0991211,34.0478516 L41.0712891,34.0478516 L41.0712891,33.2958984 L40.0991211,33.2958984 L40.0991211,31.3032227 L39.1376953,31.8833008 L39.1376953,33.2958984 L38.4287109,33.2958984 L38.4287109,34.0478516 L39.1376953,34.0478516 L39.1376953,37.3295898 C39.1376953,37.909668 39.1770833,38.2901204 39.2558594,38.4709473 C39.3346354,38.6517741 39.4707031,38.7976888 39.6640625,38.9086914 C39.8574219,39.019694 40.1295573,39.0751953 40.4804688,39.0751953 Z M44.4121094,39.1289062 C45.0745443,39.1289062 45.6188151,38.9677734 46.0449219,38.6455078 C46.4710286,38.3232422 46.7628581,37.8702799 46.9204102,37.2866211 L46.9204102,37.2866211 L45.9213867,37.1630859 C45.7745768,37.5712891 45.5758464,37.8684896 45.3251953,38.0546875 C45.0745443,38.2408854 44.7719727,38.3339844 44.4174805,38.3339844 C43.9412435,38.3339844 43.5437826,38.1674805 43.2250977,37.8344727 C42.9064128,37.5014648 42.7291667,37.0216471 42.6933594,36.3950195 L42.6933594,36.3950195 L46.9472656,36.3950195 C46.9508464,36.2804362 46.9526367,36.1944987 46.9526367,36.137207 C46.9526367,35.1954753 46.7109375,34.4650065 46.2275391,33.9458008 C45.7441406,33.4265951 45.1210938,33.1669922 44.3583984,33.1669922 C43.570638,33.1669922 42.9296875,33.4319661 42.4355469,33.9619141 C41.9414062,34.491862 41.6943359,35.2366536 41.6943359,36.1962891 C41.6943359,37.1236979 41.9387207,37.8443197 42.4274902,38.3581543 C42.9162598,38.8719889 43.5777995,39.1289062 44.4121094,39.1289062 Z M45.9321289,35.6000977 L42.7470703,35.6000977 C42.7792969,35.1023763 42.946696,34.7049154 43.2492676,34.4077148 C43.5518392,34.1105143 43.9251302,33.9619141 44.3691406,33.9619141 C44.8597005,33.9619141 45.2589518,34.148112 45.5668945,34.5205078 C45.7674154,34.7604167 45.8891602,35.1202799 45.9321289,35.6000977 L45.9321289,35.6000977 Z M49.090332,39 L49.090332,36.0136719 C49.090332,35.6054688 49.144043,35.2294922 49.2514648,34.8857422 C49.3230794,34.6601562 49.4430339,34.4838053 49.6113281,34.3566895 C49.7796224,34.2295736 49.969401,34.1660156 50.1806641,34.1660156 C50.4169922,34.1660156 50.6533203,34.2358398 50.8896484,34.3754883 L50.8896484,34.3754883 L51.2226562,33.4785156 C50.8860677,33.2708333 50.5548503,33.1669922 50.2290039,33.1669922 C50.003418,33.1669922 49.7966309,33.2314453 49.6086426,33.3603516 C49.4206543,33.4892578 49.2156576,33.7560221 48.9936523,34.1606445 L48.9936523,34.1606445 L48.9936523,33.2958984 L48.1235352,33.2958984 L48.1235352,39 L49.090332,39 Z M56.9589844,39.1289062 C57.6608073,39.1289062 58.1925456,38.8460286 58.5541992,38.2802734 L58.5541992,38.2802734 L58.5541992,39 L59.4511719,39 L59.4511719,31.1259766 L58.4897461,31.1259766 L58.4897461,33.9511719 C58.3214518,33.7184245 58.1030273,33.529541 57.8344727,33.3845215 C57.565918,33.239502 57.2597656,33.1669922 56.9160156,33.1669922 C56.4469401,33.1669922 56.0226237,33.2905273 55.6430664,33.5375977 C55.2635091,33.784668 54.9788411,34.1400553 54.7890625,34.6037598 C54.5992839,35.0674642 54.5043945,35.5839844 54.5043945,36.1533203 C54.5043945,36.7369792 54.6091309,37.2534993 54.8186035,37.7028809 C55.0280762,38.1522624 55.3234863,38.5022786 55.704834,38.7529297 C56.0861816,39.0035807 56.5042318,39.1289062 56.9589844,39.1289062 Z M57.050293,38.3339844 C56.6313477,38.3339844 56.2679036,38.1531576 55.9599609,37.7915039 C55.6520182,37.4298503 55.4980469,36.8837891 55.4980469,36.1533203 C55.4980469,35.3977865 55.6421712,34.8445638 55.9304199,34.4936523 C56.2186686,34.1427409 56.5776367,33.9672852 57.0073242,33.9672852 C57.4477539,33.9672852 57.8183594,34.1499023 58.1191406,34.5151367 C58.4199219,34.8803711 58.5703125,35.4532878 58.5703125,36.2338867 C58.5703125,36.9428711 58.4226074,37.4701335 58.1271973,37.8156738 C57.8317871,38.1612142 57.472819,38.3339844 57.050293,38.3339844 Z M63.3666992,39.1289062 C64.0291341,39.1289062 64.5734049,38.9677734 64.9995117,38.6455078 C65.4256185,38.3232422 65.7174479,37.8702799 65.875,37.2866211 L65.875,37.2866211 L64.8759766,37.1630859 C64.7291667,37.5712891 64.5304362,37.8684896 64.2797852,38.0546875 C64.0291341,38.2408854 63.7265625,38.3339844 63.3720703,38.3339844 C62.8958333,38.3339844 62.4983724,38.1674805 62.1796875,37.8344727 C61.8610026,37.5014648 61.6837565,37.0216471 61.6479492,36.3950195 L61.6479492,36.3950195 L65.9018555,36.3950195 C65.9054362,36.2804362 65.9072266,36.1944987 65.9072266,36.137207 C65.9072266,35.1954753 65.6655273,34.4650065 65.1821289,33.9458008 C64.6987305,33.4265951 64.0756836,33.1669922 63.3129883,33.1669922 C62.5252279,33.1669922 61.8842773,33.4319661 61.3901367,33.9619141 C60.8959961,34.491862 60.6489258,35.2366536 60.6489258,36.1962891 C60.6489258,37.1236979 60.8933105,37.8443197 61.3820801,38.3581543 C61.8708496,38.8719889 62.5323893,39.1289062 63.3666992,39.1289062 Z M64.8867188,35.6000977 L61.7016602,35.6000977 C61.7338867,35.1023763 61.9012858,34.7049154 62.2038574,34.4077148 C62.506429,34.1105143 62.8797201,33.9619141 63.3237305,33.9619141 C63.8142904,33.9619141 64.2135417,34.148112 64.5214844,34.5205078 C64.7220052,34.7604167 64.84375,35.1202799 64.8867188,35.6000977 L64.8867188,35.6000977 Z M69.5756836,39 L71.7348633,33.2958984 L70.7412109,33.2958984 L69.4736328,36.7763672 C69.3196615,37.1988932 69.199707,37.5605469 69.1137695,37.8613281 C69.0027669,37.4638672 68.8810221,37.0807292 68.7485352,36.7119141 L68.7485352,36.7119141 L67.5239258,33.2958984 L66.503418,33.2958984 L68.6733398,39 L69.5756836,39 Z M74.984375,39.1289062 C75.6468099,39.1289062 76.1910807,38.9677734 76.6171875,38.6455078 C77.0432943,38.3232422 77.3351237,37.8702799 77.4926758,37.2866211 L77.4926758,37.2866211 L76.4936523,37.1630859 C76.3468424,37.5712891 76.148112,37.8684896 75.8974609,38.0546875 C75.6468099,38.2408854 75.3442383,38.3339844 74.9897461,38.3339844 C74.5135091,38.3339844 74.1160482,38.1674805 73.7973633,37.8344727 C73.4786784,37.5014648 73.3014323,37.0216471 73.265625,36.3950195 L73.265625,36.3950195 L77.5195312,36.3950195 C77.523112,36.2804362 77.5249023,36.1944987 77.5249023,36.137207 C77.5249023,35.1954753 77.2832031,34.4650065 76.7998047,33.9458008 C76.3164062,33.4265951 75.6933594,33.1669922 74.9306641,33.1669922 C74.1429036,33.1669922 73.5019531,33.4319661 73.0078125,33.9619141 C72.5136719,34.491862 72.2666016,35.2366536 72.2666016,36.1962891 C72.2666016,37.1236979 72.5109863,37.8443197 72.9997559,38.3581543 C73.4885254,38.8719889 74.1500651,39.1289062 74.984375,39.1289062 Z M76.5043945,35.6000977 L73.3193359,35.6000977 C73.3515625,35.1023763 73.5189616,34.7049154 73.8215332,34.4077148 C74.1241048,34.1105143 74.4973958,33.9619141 74.9414062,33.9619141 C75.4319661,33.9619141 75.8312174,34.148112 76.1391602,34.5205078 C76.339681,34.7604167 76.4614258,35.1202799 76.5043945,35.6000977 L76.5043945,35.6000977 Z M79.6518555,39 L79.6518555,31.1259766 L78.6850586,31.1259766 L78.6850586,39 L79.6518555,39 Z M83.465332,39.1289062 C83.9630534,39.1289062 84.4222819,39.0125326 84.8430176,38.7797852 C85.2637533,38.5470378 85.5842285,38.2202962 85.8044434,37.7995605 C86.0246582,37.3788249 86.1347656,36.8014323 86.1347656,36.0673828 C86.1347656,35.1614583 85.8859049,34.4515788 85.3881836,33.9377441 C84.8904622,33.4239095 84.2495117,33.1669922 83.465332,33.1669922 C82.7599284,33.1669922 82.1619466,33.3782552 81.6713867,33.8007812 C81.0841471,34.3092448 80.7905273,35.0916341 80.7905273,36.1479492 C80.7905273,37.1111654 81.0367025,37.8487956 81.5290527,38.3608398 C82.021403,38.8728841 82.6668294,39.1289062 83.465332,39.1289062 Z M83.465332,38.3339844 C82.9819336,38.3339844 82.5808919,38.1522624 82.262207,37.7888184 C81.9435221,37.4253743 81.7841797,36.878418 81.7841797,36.1479492 C81.7841797,35.4174805 81.9435221,34.8714193 82.262207,34.5097656 C82.5808919,34.148112 82.9819336,33.9672852 83.465332,33.9672852 C83.941569,33.9672852 84.3399251,34.1490072 84.6604004,34.5124512 C84.9808757,34.8758952 85.1411133,35.410319 85.1411133,36.1157227 C85.1411133,36.8640951 84.9817708,37.4208984 84.6630859,37.7861328 C84.344401,38.1513672 83.9451497,38.3339844 83.465332,38.3339844 Z M88.2348633,41.1860352 L88.2348633,38.4091797 C88.3995768,38.616862 88.6099447,38.788737 88.8659668,38.9248047 C89.1219889,39.0608724 89.4111328,39.1289062 89.7333984,39.1289062 C90.1738281,39.1289062 90.5936686,39.0044759 90.9929199,38.7556152 C91.3921712,38.5067546 91.6965332,38.1486816 91.9060059,37.6813965 C92.1154785,37.2141113 92.2202148,36.6886393 92.2202148,36.1049805 C92.2202148,35.5607096 92.1253255,35.0603027 91.9355469,34.6037598 C91.7457682,34.1472168 91.464681,33.7936198 91.0922852,33.5429688 C90.7198893,33.2923177 90.2902018,33.1669922 89.8032227,33.1669922 C89.4308268,33.1669922 89.1139323,33.239502 88.8525391,33.3845215 C88.5911458,33.529541 88.3566081,33.7470703 88.1489258,34.0371094 L88.1489258,34.0371094 L88.1489258,33.2958984 L87.2680664,33.2958984 L87.2680664,41.1860352 L88.2348633,41.1860352 Z M89.6689453,38.3339844 C89.2464193,38.3339844 88.886556,38.1585286 88.5893555,37.8076172 C88.2921549,37.4567057 88.1435547,36.9142253 88.1435547,36.1801758 C88.1435547,35.4461263 88.302002,34.8866374 88.6188965,34.501709 C88.935791,34.1167806 89.3001302,33.9243164 89.7119141,33.9243164 C90.1272786,33.9243164 90.4844564,34.1051432 90.7834473,34.4667969 C91.0824382,34.8284505 91.2319336,35.3727214 91.2319336,36.0996094 C91.2319336,36.8623047 91.0788574,37.4253743 90.7727051,37.7888184 C90.4665527,38.1522624 90.0986328,38.3339844 89.6689453,38.3339844 Z M94.3525391,39 L94.3525391,36.0405273 C94.3525391,35.5213216 94.4044596,35.1238607 94.5083008,34.8481445 C94.6121419,34.5724284 94.779541,34.3629557 95.010498,34.2197266 C95.2414551,34.0764974 95.4930013,34.0048828 95.7651367,34.0048828 C96.1232096,34.0048828 96.3810221,34.1123047 96.5385742,34.3271484 C96.6961263,34.5419922 96.7749023,34.8642578 96.7749023,35.2939453 L96.7749023,35.2939453 L96.7749023,39 L97.7416992,39 L97.7416992,35.6860352 C97.7416992,35.0987956 97.8741862,34.6717936 98.1391602,34.4050293 C98.4041341,34.138265 98.7371419,34.0048828 99.1381836,34.0048828 C99.3601888,34.0048828 99.5535482,34.0568034 99.7182617,34.1606445 C99.8829753,34.2644857 99.9966634,34.4014486 100.059326,34.5715332 C100.121989,34.7416178 100.15332,35.0200195 100.15332,35.4067383 L100.15332,35.4067383 L100.15332,39 L101.114746,39 L101.114746,35.0844727 C101.114746,34.4327799 100.962565,33.9502767 100.658203,33.6369629 C100.353841,33.3236491 99.9187826,33.1669922 99.3530273,33.1669922 C98.6297201,33.1669922 98.0424805,33.5 97.5913086,34.1660156 C97.480306,33.8509115 97.2896322,33.6056315 97.0192871,33.4301758 C96.7489421,33.2547201 96.4025065,33.1669922 95.9799805,33.1669922 C95.6004232,33.1669922 95.2620443,33.2520345 94.9648438,33.4221191 C94.6676432,33.5922038 94.4295247,33.8168945 94.2504883,34.0961914 L94.2504883,34.0961914 L94.2504883,33.2958984 L93.3857422,33.2958984 L93.3857422,39 L94.3525391,39 Z M104.944336,39.1289062 C105.606771,39.1289062 106.151042,38.9677734 106.577148,38.6455078 C107.003255,38.3232422 107.295085,37.8702799 107.452637,37.2866211 L107.452637,37.2866211 L106.453613,37.1630859 C106.306803,37.5712891 106.108073,37.8684896 105.857422,38.0546875 C105.606771,38.2408854 105.304199,38.3339844 104.949707,38.3339844 C104.47347,38.3339844 104.076009,38.1674805 103.757324,37.8344727 C103.438639,37.5014648 103.261393,37.0216471 103.225586,36.3950195 L103.225586,36.3950195 L107.479492,36.3950195 C107.483073,36.2804362 107.484863,36.1944987 107.484863,36.137207 C107.484863,35.1954753 107.243164,34.4650065 106.759766,33.9458008 C106.276367,33.4265951 105.65332,33.1669922 104.890625,33.1669922 C104.102865,33.1669922 103.461914,33.4319661 102.967773,33.9619141 C102.473633,34.491862 102.226562,35.2366536 102.226562,36.1962891 C102.226562,37.1236979 102.470947,37.8443197 102.959717,38.3581543 C103.448486,38.8719889 104.110026,39.1289062 104.944336,39.1289062 Z M106.464355,35.6000977 L103.279297,35.6000977 C103.311523,35.1023763 103.478923,34.7049154 103.781494,34.4077148 C104.084066,34.1105143 104.457357,33.9619141 104.901367,33.9619141 C105.391927,33.9619141 105.791178,34.148112 106.099121,34.5205078 C106.299642,34.7604167 106.421387,35.1202799 106.464355,35.6000977 L106.464355,35.6000977 Z M109.633301,39 L109.633301,35.8847656 C109.633301,35.1542969 109.782796,34.6583659 110.081787,34.3969727 C110.380778,34.1355794 110.736165,34.0048828 111.147949,34.0048828 C111.405762,34.0048828 111.630452,34.0630697 111.822021,34.1794434 C112.01359,34.2958171 112.146973,34.4515788 112.222168,34.6467285 C112.297363,34.8418783 112.334961,35.1363932 112.334961,35.5302734 L112.334961,35.5302734 L112.334961,39 L113.301758,39 L113.301758,35.4926758 C113.301758,35.0450846 113.283854,34.7317708 113.248047,34.5527344 C113.190755,34.2770182 113.090495,34.0388997 112.947266,33.8383789 C112.804036,33.6378581 112.588298,33.4758301 112.300049,33.3522949 C112.0118,33.2287598 111.695801,33.1669922 111.352051,33.1669922 C110.56071,33.1669922 109.955566,33.480306 109.536621,34.1069336 L109.536621,34.1069336 L109.536621,33.2958984 L108.666504,33.2958984 L108.666504,39 L109.633301,39 Z M116.304199,39.0751953 C116.519043,39.0751953 116.762533,39.0465495 117.034668,38.9892578 L117.034668,38.9892578 L116.89502,38.1352539 C116.719564,38.160319 116.578125,38.1728516 116.470703,38.1728516 C116.327474,38.1728516 116.217367,38.1495768 116.140381,38.1030273 C116.063395,38.0564779 116.007894,37.9938151 115.973877,37.9150391 C115.93986,37.836263 115.922852,37.6590169 115.922852,37.3833008 L115.922852,37.3833008 L115.922852,34.0478516 L116.89502,34.0478516 L116.89502,33.2958984 L115.922852,33.2958984 L115.922852,31.3032227 L114.961426,31.8833008 L114.961426,33.2958984 L114.252441,33.2958984 L114.252441,34.0478516 L114.961426,34.0478516 L114.961426,37.3295898 C114.961426,37.909668 115.000814,38.2901204 115.07959,38.4709473 C115.158366,38.6517741 115.294434,38.7976888 115.487793,38.9086914 C115.681152,39.019694 115.953288,39.0751953 116.304199,39.0751953 Z M121.863281,39 L121.863281,36.0405273 C121.863281,35.5213216 121.915202,35.1238607 122.019043,34.8481445 C122.122884,34.5724284 122.290283,34.3629557 122.52124,34.2197266 C122.752197,34.0764974 123.003743,34.0048828 123.275879,34.0048828 C123.633952,34.0048828 123.891764,34.1123047 124.049316,34.3271484 C124.206868,34.5419922 124.285645,34.8642578 124.285645,35.2939453 L124.285645,35.2939453 L124.285645,39 L125.252441,39 L125.252441,35.6860352 C125.252441,35.0987956 125.384928,34.6717936 125.649902,34.4050293 C125.914876,34.138265 126.247884,34.0048828 126.648926,34.0048828 C126.870931,34.0048828 127.06429,34.0568034 127.229004,34.1606445 C127.393717,34.2644857 127.507406,34.4014486 127.570068,34.5715332 C127.632731,34.7416178 127.664062,35.0200195 127.664062,35.4067383 L127.664062,35.4067383 L127.664062,39 L128.625488,39 L128.625488,35.0844727 C128.625488,34.4327799 128.473307,33.9502767 128.168945,33.6369629 C127.864583,33.3236491 127.429525,33.1669922 126.86377,33.1669922 C126.140462,33.1669922 125.553223,33.5 125.102051,34.1660156 C124.991048,33.8509115 124.800374,33.6056315 124.530029,33.4301758 C124.259684,33.2547201 123.913249,33.1669922 123.490723,33.1669922 C123.111165,33.1669922 122.772786,33.2520345 122.475586,33.4221191 C122.178385,33.5922038 121.940267,33.8168945 121.76123,34.0961914 L121.76123,34.0961914 L121.76123,33.2958984 L120.896484,33.2958984 L120.896484,39 L121.863281,39 Z M132.374512,39.1289062 C132.872233,39.1289062 133.331462,39.0125326 133.752197,38.7797852 C134.172933,38.5470378 134.493408,38.2202962 134.713623,37.7995605 C134.933838,37.3788249 135.043945,36.8014323 135.043945,36.0673828 C135.043945,35.1614583 134.795085,34.4515788 134.297363,33.9377441 C133.799642,33.4239095 133.158691,33.1669922 132.374512,33.1669922 C131.669108,33.1669922 131.071126,33.3782552 130.580566,33.8007812 C129.993327,34.3092448 129.699707,35.0916341 129.699707,36.1479492 C129.699707,37.1111654 129.945882,37.8487956 130.438232,38.3608398 C130.930583,38.8728841 131.576009,39.1289062 132.374512,39.1289062 Z M132.374512,38.3339844 C131.891113,38.3339844 131.490072,38.1522624 131.171387,37.7888184 C130.852702,37.4253743 130.693359,36.878418 130.693359,36.1479492 C130.693359,35.4174805 130.852702,34.8714193 131.171387,34.5097656 C131.490072,34.148112 131.891113,33.9672852 132.374512,33.9672852 C132.850749,33.9672852 133.249105,34.1490072 133.56958,34.5124512 C133.890055,34.8758952 134.050293,35.410319 134.050293,36.1157227 C134.050293,36.8640951 133.890951,37.4208984 133.572266,37.7861328 C133.253581,38.1513672 132.854329,38.3339844 132.374512,38.3339844 Z M138.282715,39.1289062 C138.984538,39.1289062 139.516276,38.8460286 139.87793,38.2802734 L139.87793,38.2802734 L139.87793,39 L140.774902,39 L140.774902,31.1259766 L139.813477,31.1259766 L139.813477,33.9511719 C139.645182,33.7184245 139.426758,33.529541 139.158203,33.3845215 C138.889648,33.239502 138.583496,33.1669922 138.239746,33.1669922 C137.770671,33.1669922 137.346354,33.2905273 136.966797,33.5375977 C136.58724,33.784668 136.302572,34.1400553 136.112793,34.6037598 C135.923014,35.0674642 135.828125,35.5839844 135.828125,36.1533203 C135.828125,36.7369792 135.932861,37.2534993 136.142334,37.7028809 C136.351807,38.1522624 136.647217,38.5022786 137.028564,38.7529297 C137.409912,39.0035807 137.827962,39.1289062 138.282715,39.1289062 Z M138.374023,38.3339844 C137.955078,38.3339844 137.591634,38.1531576 137.283691,37.7915039 C136.975749,37.4298503 136.821777,36.8837891 136.821777,36.1533203 C136.821777,35.3977865 136.965902,34.8445638 137.25415,34.4936523 C137.542399,34.1427409 137.901367,33.9672852 138.331055,33.9672852 C138.771484,33.9672852 139.14209,34.1499023 139.442871,34.5151367 C139.743652,34.8803711 139.894043,35.4532878 139.894043,36.2338867 C139.894043,36.9428711 139.746338,37.4701335 139.450928,37.8156738 C139.155518,38.1612142 138.796549,38.3339844 138.374023,38.3339844 Z M144.69043,39.1289062 C145.352865,39.1289062 145.897135,38.9677734 146.323242,38.6455078 C146.749349,38.3232422 147.041178,37.8702799 147.19873,37.2866211 L147.19873,37.2866211 L146.199707,37.1630859 C146.052897,37.5712891 145.854167,37.8684896 145.603516,38.0546875 C145.352865,38.2408854 145.050293,38.3339844 144.695801,38.3339844 C144.219564,38.3339844 143.822103,38.1674805 143.503418,37.8344727 C143.184733,37.5014648 143.007487,37.0216471 142.97168,36.3950195 L142.97168,36.3950195 L147.225586,36.3950195 C147.229167,36.2804362 147.230957,36.1944987 147.230957,36.137207 C147.230957,35.1954753 146.989258,34.4650065 146.505859,33.9458008 C146.022461,33.4265951 145.399414,33.1669922 144.636719,33.1669922 C143.848958,33.1669922 143.208008,33.4319661 142.713867,33.9619141 C142.219727,34.491862 141.972656,35.2366536 141.972656,36.1962891 C141.972656,37.1236979 142.217041,37.8443197 142.705811,38.3581543 C143.19458,38.8719889 143.85612,39.1289062 144.69043,39.1289062 Z M146.210449,35.6000977 L143.025391,35.6000977 C143.057617,35.1023763 143.225016,34.7049154 143.527588,34.4077148 C143.83016,34.1105143 144.203451,33.9619141 144.647461,33.9619141 C145.138021,33.9619141 145.537272,34.148112 145.845215,34.5205078 C146.045736,34.7604167 146.16748,35.1202799 146.210449,35.6000977 L146.210449,35.6000977 Z" id="ForVSCodeplugin,pleaseclicktheicon&quot;&quot;toenterdevelopmentmode" fill="#36435C" fill-rule="nonzero"></path>
                    <g id="dev_start备份-2" transform="translate(240.000000, 12.000000)" fill="#5DE29E" fill-rule="nonzero">
                        <path d="M12.606,13.3949342 L13.998,12.0029342 L13.993,11.5429342 L6.493,4.4049342 C6.441,4.3549342 6.363,4.2789342 6.261,4.1729342 L6.487,3.9469342 L7.337,3.0979342 C7.817,2.6159342 8.639,2.3139342 9.254,2.4719342 L9.291,2.3319342 L8.09,1.1309342 C7.365,0.405934197 5.955,0.452934197 5.23,1.1769342 L4.445,1.9629342 L4.208,2.1999342 C4.098,2.0879342 4.02,2.0099342 3.975,1.9679342 L3.928,1.9229342 L3.458,1.9279342 L2.53,2.8559342 L2.525,3.3259342 L2.57,3.3729342 C2.607,3.4109342 2.684,3.4889342 2.802,3.6049342 L2.565,3.8429342 L1.715,4.6929342 L1.482,4.9259342 L1.249,4.6929342 L1.203,4.6469342 L0.971,4.4149342 L0.739,4.6469342 L0,5.3869342 L0,5.8509342 L2.564,8.4149342 L3.029,8.4149342 L3.768,7.6749342 L4,7.4449342 L3.768,7.2129342 L3.728,7.1729342 L3.495,6.9399342 L3.728,6.7079342 L4.548,5.8869342 L4.776,5.6589342 C4.886,5.7689342 4.964,5.8449342 5.007,5.8909342 L12.147,13.3909342 L12.606,13.3949342 Z" id="路径"></path>
                    </g>
                </g>
            </g>
            <g id="编组-15" mask="url(#mask-2)">
                <g transform="translate(6.000000, 64.000000)">
                    <rect id="矩形" stroke="none" fill="#0080FF" fill-rule="evenodd" x="40" y="77" width="231" height="20" rx="2"></rect>
                    <g id="setting_normal备份-2" stroke="none" stroke-width="1" fill="none" fill-rule="evenodd" transform="translate(251.000000, 80.000000)">
                        <path d="M8.1,3.4 L7.6,1 L6.4,1 L5.9,3.4 L5.2,3.7 L3.2,2.4 L2.3,3.2 L3.6,5.2 L3.4,5.9 L1,6.4 L1,7.6 L3.4,8.1 L3.7,8.9 L2.4,10.9 L3.2,11.7 L5.2,10.4 L6,10.7 L6.4,13 L7.6,13 L8.1,10.6 L8.9,10.3 L10.9,11.6 L11.7,10.8 L10.4,8.8 L10.7,8 L13,7.6 L13,6.4 L10.6,5.9 L10.3,5.1 L11.6,3.1 L10.8,2.3 L8.8,3.6 L8.1,3.4 L8.1,3.4 Z M8.4,0 L8.9,2.4 L11,1.1 L13,3.1 L11.6,5.2 L14,5.6 L14,8.4 L11.6,8.9 L13,11 L11,13 L8.9,11.6 L8.4,14 L5.6,14 L5.1,11.6 L3,12.9 L1,10.9 L2.4,8.8 L0,8.4 L0,5.6 L2.4,5.1 L1.1,3 L3.1,1 L5.2,2.4 L5.6,0 L8.4,0 Z M9,7 C9,8.1 8.1,9 7,9 C5.9,9 5,8.1 5,7 C5,5.9 5.9,5 7,5 C8.1,5 9,5.9 9,7 Z M7,8 C7.6,8 8,7.6 8,7 C8,6.4 7.6,6 7,6 C6.4,6 6,6.4 6,7 C6,7.6 6.4,8 7,8 Z" id="形状" fill="#FFFFFF" fill-rule="nonzero"></path>
                    </g>
                    <g id="dev_start备份-2" stroke="none" stroke-width="1" fill="none" fill-rule="evenodd" transform="translate(231.000000, 80.000000)">
                        <path d="M12.606,13.3949342 L13.998,12.0029342 L13.993,11.5429342 L6.493,4.4049342 C6.441,4.3549342 6.363,4.2789342 6.261,4.1729342 L6.487,3.9469342 L7.337,3.0979342 C7.817,2.6159342 8.639,2.3139342 9.254,2.4719342 L9.291,2.3319342 L8.09,1.1309342 C7.365,0.405934197 5.955,0.452934197 5.23,1.1769342 L4.445,1.9629342 L4.208,2.1999342 C4.098,2.0879342 4.02,2.0099342 3.975,1.9679342 L3.928,1.9229342 L3.458,1.9279342 L2.53,2.8559342 L2.525,3.3259342 L2.57,3.3729342 C2.607,3.4109342 2.684,3.4889342 2.802,3.6049342 L2.565,3.8429342 L1.715,4.6929342 L1.482,4.9259342 L1.249,4.6929342 L1.203,4.6469342 L0.971,4.4149342 L0.739,4.6469342 L0,5.3869342 L0,5.8509342 L2.564,8.4149342 L3.029,8.4149342 L3.768,7.6749342 L4,7.4449342 L3.768,7.2129342 L3.728,7.1729342 L3.495,6.9399342 L3.728,6.7079342 L4.548,5.8869342 L4.776,5.6589342 C4.886,5.7689342 4.964,5.8449342 5.007,5.8909342 L12.147,13.3909342 L12.606,13.3949342 Z" id="路径" fill="#5DE29E" fill-rule="nonzero"></path>
                    </g>
                    <line x1="7" y1="14" x2="7" y2="176" id="路径-6" stroke="#D4DFEB" stroke-width="1" fill="none" opacity="0.5"></line>
                    <line x1="17" y1="34" x2="17" y2="196" id="路径-6备份" stroke="#D4DFEB" stroke-width="1" fill="none" opacity="0.5"></line>
                    <line x1="27" y1="54" x2="27" y2="216" id="路径-6备份-2" stroke="#D4DFEB" stroke-width="1" fill="none" opacity="0.5"></line>
                    <line x1="37" y1="74" x2="37" y2="236" id="路径-6备份-3" stroke="#D4DFEB" stroke-width="1" fill="none" opacity="0.5"></line>
                    <g id="编组-7" stroke="none" stroke-width="1" fill="none" fill-rule="evenodd">
                        <g id="namespace备份-2" transform="translate(20.000000, 0.000000)" fill="#D4DFEB" fill-rule="nonzero">
                            <g id="应用" transform="translate(1.000000, 0.419851)">
                                <path d="M5.46114286,12.5384047 L5.46114286,7.47263923 C5.46114286,7.03832946 5.17371429,6.60401971 4.81428572,6.38656937 L0.64685715,3.78189259 C0.287428571,3.63653178 0,3.78189259 0,4.14352195 L0,9.20928739 C0,9.64359715 0.287428571,10.0779069 0.64685715,10.2947663 L4.81428572,12.9006249 C5.17371429,13.1174843 5.46114286,12.9727144 5.46114286,12.5384047 Z M1.29314286,2.91327308 L5.38914286,5.51854075 C5.74857143,5.73540018 6.252,5.73540018 6.61085715,5.59063026 L10.7068572,3.49176186 C11.0657143,3.27490243 11.0657143,2.98536258 10.7068572,2.76850315 L6.39542858,0.162644572 C6.10800001,-0.0542148573 5.53257144,-0.0542148573 5.17371429,0.162644572 L1.29371429,2.18942347 C0.934285721,2.4062829 0.934285721,2.69582274 1.29314286,2.91327308 Z M7.25771429,12.900034 L11.3531429,10.8011656 C11.7125714,10.5843062 12,10.1499964 12,9.71568666 L12,4.65051213 C12,4.21620236 11.7125714,4.07143244 11.3531429,4.28888277 L7.25771429,6.38716027 C6.89771428,6.60461059 6.61085715,7.03892036 6.61085715,7.47323012 L6.61085715,12.5389956 C6.61085715,12.9727144 6.89828572,13.1174844 7.25771429,12.900034 Z" id="形状"></path>
                            </g>
                        </g>
                        <g id="arrow_down" stroke="#D4DFEB" stroke-width="2">
                            <polyline id="路径-7" points="2.5 5 7 9.5 11.5 5"></polyline>
                        </g>
                        <path d="M44,3 L96,3 C98.209139,3 100,4.790861 100,7 C100,9.209139 98.209139,11 96,11 L44,11 C41.790861,11 40,9.209139 40,7 C40,4.790861 41.790861,3 44,3 Z" id="矩形" fill="#D4DFEB"></path>
                    </g>
                    <g id="编组-7备份" stroke="none" stroke-width="1" fill="none" fill-rule="evenodd" transform="translate(10.000000, 20.000000)">
                        <g id="app_connected备份-2" transform="translate(20.000000, 0.000000)" fill="#D4DFEB">
                            <path d="M7,2 C8.87116425,2 10.4422446,3.2848121 10.8791657,5.02036107 C12.6334179,5.2088765 14,6.69484707 14,8.5 C14,10.2629068 12.6966339,11.7213961 11.0009499,11.9644196 L11,12 L4,12 C1.790861,12 0,10.209139 0,8 C0,5.95358546 1.53674929,4.26609794 3.5191836,4.02860171 C4.20617545,2.81725705 5.50764742,2 7,2 Z M8.84877393,5.57471429 L6.0203468,8.40314142 L4.60613324,6.98892785 L3.89902646,7.69603463 L6.0203468,9.81735498 L9.55588071,6.28182107 L8.84877393,5.57471429 Z" id="形状结合"></path>
                        </g>
                        <g id="arrow_down" stroke="#D4DFEB" stroke-width="2">
                            <polyline id="路径-7" points="2.5 5 7 9.5 11.5 5"></polyline>
                        </g>
                        <path d="M44,3 L86,3 C88.209139,3 90,4.790861 90,7 C90,9.209139 88.209139,11 86,11 L44,11 C41.790861,11 40,9.209139 40,7 C40,4.790861 41.790861,3 44,3 Z" id="矩形" fill="#D4DFEB"></path>
                    </g>
                    <g id="编组-7备份-2" stroke="none" stroke-width="1" fill="none" fill-rule="evenodd" transform="translate(20.000000, 40.000000)">
                        <g id="arrow_down" stroke="#D4DFEB" stroke-width="2">
                            <polyline id="路径-7" points="2.5 5 7 9.5 11.5 5"></polyline>
                        </g>
                        <rect id="矩形" fill="#D4DFEB" x="20" y="3" width="90" height="8" rx="4"></rect>
                    </g>
                    <g id="编组-7备份-3" stroke="none" stroke-width="1" fill="none" fill-rule="evenodd" transform="translate(30.000000, 60.000000)">
                        <g id="arrow_down" stroke="#D4DFEB" stroke-width="2">
                            <polyline id="路径-7" points="2.5 5 7 9.5 11.5 5"></polyline>
                        </g>
                        <rect id="矩形" fill="#D4DFEB" x="20" y="3" width="80" height="8" rx="4"></rect>
                    </g>
                    <g id="编组-7备份-4" stroke="none" stroke-width="1" fill="none" fill-rule="evenodd" transform="translate(40.000000, 80.000000)">
                        <g id="status_running备份-2" fill="#5DE29E">
                            <circle id="椭圆形" cx="7" cy="7" r="3"></circle>
                        </g>
                        <rect id="矩形" fill="#D4DFEB" x="20" y="3" width="100" height="8" rx="4"></rect>
                    </g>
                    <g id="编组-7备份-5" stroke="none" stroke-width="1" fill="none" fill-rule="evenodd" transform="translate(40.000000, 100.000000)">
                        <g id="status_running备份-2" fill="#5DE29E">
                            <circle id="椭圆形" cx="7" cy="7" r="3"></circle>
                        </g>
                        <rect id="矩形" fill="#D4DFEB" x="20" y="3" width="100" height="8" rx="4"></rect>
                    </g>
                    <g id="编组-7备份-6" stroke="none" stroke-width="1" fill="none" fill-rule="evenodd" transform="translate(40.000000, 120.000000)">
                        <g id="status_running备份-2" fill="#5DE29E">
                            <circle id="椭圆形" cx="7" cy="7" r="3"></circle>
                        </g>
                        <rect id="矩形" fill="#D4DFEB" x="20" y="3" width="100" height="8" rx="4"></rect>
                    </g>
                    <g id="编组-7备份-7" stroke="none" stroke-width="1" fill="none" fill-rule="evenodd" transform="translate(40.000000, 140.000000)">
                        <g id="status_running备份-2" fill="#5DE29E">
                            <circle id="椭圆形" cx="7" cy="7" r="3"></circle>
                        </g>
                        <rect id="矩形" fill="#D4DFEB" x="20" y="3" width="100" height="8" rx="4"></rect>
                    </g>
                </g>
            </g>
        </g>
    </g>
</svg>