<?xml version="1.0" encoding="UTF-8"?>
<svg width="283px" height="228px" viewBox="0 0 283 228" version="1.1" xmlns="http://www.w3.org/2000/svg" xmlns:xlink="http://www.w3.org/1999/xlink">
    <title>image_success_VSCode_CN</title>
    <defs>
        <path d="M4,0 L279,0 C281.209139,-4.05812251e-16 283,1.790861 283,4 L283,224 C283,226.209139 281.209139,228 279,228 L4,228 C1.790861,228 2.705415e-16,226.209139 0,224 L0,4 C-2.705415e-16,1.790861 1.790861,4.05812251e-16 4,0 Z" id="path-1"></path>
    </defs>
    <g id="Web" stroke="none" stroke-width="1" fill="none" fill-rule="evenodd">
        <g id="编组-10备份-2">
            <mask id="mask-2" fill="white">
                <use xlink:href="#path-1"></use>
            </mask>
            <use id="image_success_VSCode_CN" fill="#F9FBFD" xlink:href="#path-1"></use>
            <g id="编组-11" mask="url(#mask-2)">
                <g id="编组-12">
                    <path d="M4,0 L279,0 C281.209139,-4.05812251e-16 283,1.790861 283,4 L283,54 L283,54 L0,54 L0,4 C-2.705415e-16,1.790861 1.790861,4.05812251e-16 4,0 Z" id="矩形" fill="#E5F2FF"></path>
                    <circle id="椭圆形" stroke="#FFFFFF" fill="#0080FF" cx="13" cy="17" r="4"></circle>
                    <path d="M31.18,22 L34.876,12.004 L33.616,12.004 L30.494,20.754 L30.452,20.754 L27.33,12.004 L26.07,12.004 L29.766,22 L31.18,22 Z M39.468,22.196 C40.658,22.196 41.596,21.944 42.296,21.454 C42.996,20.95 43.346,20.25 43.346,19.382 C43.346,18.472 42.926,17.772 42.1,17.268 C41.68,17.016 40.812,16.694 39.496,16.302 C38.53,16.022 37.914,15.812 37.662,15.672 C37.088,15.364 36.808,14.958 36.808,14.454 C36.808,13.88 37.046,13.46 37.522,13.18 C37.942,12.928 38.516,12.816 39.258,12.816 C40.07,12.816 40.7,12.984 41.148,13.348 C41.582,13.698 41.862,14.23 41.988,14.958 L43.122,14.958 C43.024,13.908 42.646,13.11 41.974,12.578 C41.33,12.06 40.434,11.808 39.314,11.808 C38.278,11.808 37.424,12.032 36.766,12.48 C36.024,12.956 35.66,13.642 35.66,14.51 C35.66,15.35 36.038,15.994 36.808,16.442 C37.13,16.61 37.9,16.89 39.104,17.254 C40.224,17.576 40.938,17.814 41.218,17.982 C41.876,18.332 42.212,18.822 42.212,19.452 C42.212,19.984 41.96,20.404 41.456,20.712 C40.952,21.02 40.28,21.174 39.468,21.174 C38.572,21.174 37.9,20.978 37.438,20.614 C36.934,20.208 36.626,19.564 36.528,18.696 L35.394,18.696 C35.478,19.928 35.912,20.838 36.696,21.44 C37.368,21.944 38.292,22.196 39.468,22.196 Z M49.072,22.196 C50.136,22.196 51.06,21.888 51.83,21.286 C52.656,20.642 53.174,19.732 53.398,18.57 L52.292,18.57 C52.096,19.438 51.69,20.096 51.102,20.544 C50.542,20.964 49.87,21.174 49.072,21.174 C47.896,21.174 47.014,20.782 46.398,20.012 C45.81,19.284 45.53,18.29 45.53,17.044 C45.53,15.798 45.824,14.804 46.412,14.048 C47.042,13.236 47.938,12.83 49.1,12.83 C49.884,12.83 50.542,13.012 51.088,13.39 C51.648,13.782 52.012,14.342 52.152,15.07 L53.258,15.07 C53.118,14.076 52.67,13.278 51.914,12.69 C51.158,12.102 50.22,11.808 49.114,11.808 C47.574,11.808 46.37,12.326 45.53,13.39 C44.76,14.342 44.382,15.56 44.382,17.044 C44.382,18.528 44.746,19.732 45.502,20.656 C46.328,21.678 47.518,22.196 49.072,22.196 Z M58.088,22.196 C59.166,22.196 60.034,21.818 60.692,21.062 C61.294,20.362 61.602,19.466 61.602,18.388 C61.602,17.296 61.294,16.4 60.678,15.686 C60.034,14.93 59.166,14.566 58.088,14.566 C56.996,14.566 56.142,14.93 55.498,15.686 C54.882,16.4 54.574,17.296 54.574,18.388 C54.574,19.466 54.882,20.362 55.498,21.062 C56.142,21.818 56.996,22.196 58.088,22.196 Z M58.088,21.258 C57.318,21.258 56.716,20.964 56.296,20.376 C55.904,19.844 55.722,19.186 55.722,18.388 C55.722,17.576 55.904,16.918 56.296,16.386 C56.716,15.798 57.318,15.504 58.088,15.504 C58.844,15.504 59.446,15.798 59.894,16.386 C60.272,16.918 60.468,17.576 60.468,18.388 C60.468,19.172 60.272,19.844 59.894,20.376 C59.446,20.964 58.844,21.258 58.088,21.258 Z M66.068,22.196 C67.16,22.196 67.972,21.734 68.476,20.81 L68.476,22 L69.526,22 L69.526,11.808 L68.406,11.808 L68.406,16.092 C67.846,15.07 67.048,14.566 66.012,14.566 C64.976,14.566 64.178,14.944 63.59,15.728 C63.044,16.428 62.778,17.296 62.778,18.36 C62.778,19.452 63.044,20.348 63.59,21.048 C64.178,21.804 65.004,22.196 66.068,22.196 Z M66.208,21.272 C65.424,21.272 64.836,20.978 64.444,20.418 C64.094,19.914 63.926,19.228 63.926,18.36 C63.926,17.492 64.094,16.82 64.458,16.33 C64.85,15.77 65.452,15.49 66.25,15.49 C66.894,15.49 67.426,15.742 67.832,16.274 C68.224,16.792 68.434,17.478 68.434,18.318 L68.434,18.458 C68.434,19.27 68.252,19.928 67.902,20.432 C67.496,20.992 66.936,21.272 66.208,21.272 Z M74.286,22.196 C75.224,22.196 75.994,21.916 76.596,21.384 C77.086,20.936 77.408,20.376 77.576,19.676 L76.456,19.676 C76.274,20.18 76.036,20.558 75.728,20.81 C75.364,21.104 74.874,21.258 74.286,21.258 C73.6,21.258 73.054,21.034 72.662,20.586 C72.27,20.138 72.06,19.508 72.004,18.696 L77.716,18.696 C77.688,17.436 77.408,16.442 76.876,15.742 C76.288,14.958 75.406,14.566 74.244,14.566 C73.194,14.566 72.368,14.944 71.752,15.7 C71.136,16.414 70.842,17.31 70.842,18.374 C70.842,19.55 71.15,20.474 71.794,21.174 C72.41,21.846 73.25,22.196 74.286,22.196 Z M76.554,17.828 L72.032,17.828 C72.102,17.114 72.326,16.554 72.718,16.134 C73.11,15.714 73.628,15.504 74.272,15.504 C75.644,15.504 76.414,16.274 76.554,17.828 Z M88.4235,23.288 C89.1795,23.288 89.5575,22.896 89.5575,22.112 L89.5575,17.94 C89.9635,17.73 90.3695,17.506 90.7895,17.268 L90.7895,16.274 C90.3835,16.526 89.9775,16.75 89.5575,16.974 L89.5575,14.104 L90.7895,14.104 L90.7895,13.138 L89.5575,13.138 L89.5575,10.576 L88.5775,10.576 L88.5775,13.138 L86.7995,13.138 L86.7995,14.104 L88.5775,14.104 L88.5775,17.436 C87.9615,17.688 87.3455,17.912 86.7155,18.094 L86.9395,19.046 C87.4855,18.85 88.0315,18.64 88.5775,18.402 L88.5775,21.86 C88.5775,22.224 88.4095,22.406 88.0875,22.406 C87.7515,22.406 87.4015,22.378 87.0375,22.336 L87.2475,23.288 L88.4235,23.288 Z M98.8955,23.414 L98.8955,16.134 L96.3055,16.134 L96.3055,17.03 L97.9575,17.03 L97.9575,18.864 L96.2775,18.864 L96.2775,19.732 L97.9575,19.732 L97.9575,21.72 L95.6055,21.72 L95.6055,14.664 L99.4135,14.664 L99.4135,13.74 L95.6055,13.74 L95.6055,12.214 C96.9495,12.102 98.1255,11.948 99.1475,11.738 L98.6575,10.898 C96.6695,11.248 94.1635,11.43 91.1395,11.43 L91.4615,12.354 C92.6095,12.354 93.6735,12.326 94.6675,12.27 L94.6675,13.74 L91.2235,13.74 L91.2235,14.664 L94.6675,14.664 L94.6675,21.72 L92.2595,21.72 L92.2595,19.746 L93.9955,19.746 L93.9955,18.878 L92.2595,18.878 L92.2595,17.17 C92.9735,16.974 93.6315,16.736 94.2475,16.456 L93.6595,15.658 C92.9455,16.05 92.1755,16.344 91.3495,16.54 L91.3495,23.302 L92.2595,23.302 L92.2595,22.616 L97.9575,22.616 L97.9575,23.414 L98.8955,23.414 Z M103.2635,23.414 L103.2635,14.062 C103.8235,13.068 104.2855,12.018 104.6495,10.912 L103.6975,10.478 C103.0255,12.662 101.9615,14.608 100.4775,16.288 L100.7995,17.366 C101.3315,16.806 101.8215,16.218 102.2695,15.602 L102.2695,23.414 L103.2635,23.414 Z M109.6475,23.344 L109.6475,18.836 L113.3855,18.836 L113.3855,17.87 L109.6475,17.87 L109.6475,14.496 L112.8675,14.496 L112.8675,13.516 L109.6475,13.516 L109.6475,10.604 L108.6395,10.604 L108.6395,13.516 L106.5815,13.516 C106.7775,12.9 106.9315,12.228 107.0435,11.528 L106.0495,11.402 C105.7415,13.264 105.1675,14.846 104.3135,16.134 L104.9575,16.974 C105.4755,16.246 105.9095,15.42 106.2595,14.496 L108.6395,14.496 L108.6395,17.87 L104.5235,17.87 L104.5235,18.836 L108.6395,18.836 L108.6395,23.344 L109.6475,23.344 Z M127.4135,15.84 L127.4135,15 L123.5915,15 L123.5915,14.048 L126.5595,14.048 L126.5595,13.236 L123.5915,13.236 L123.5915,12.298 L127.0635,12.298 L127.0635,11.472 L123.5915,11.472 L123.5915,10.562 L122.6255,10.562 L122.6255,11.472 L119.2375,11.472 L119.2375,12.298 L122.6255,12.298 L122.6255,13.236 L119.7975,13.236 L119.7975,14.048 L122.6255,14.048 L122.6255,15 L118.8455,15 L118.8455,15.84 L127.4135,15.84 Z M117.9915,13.544 L118.6775,12.844 C118.0335,12.13 117.2495,11.416 116.3115,10.716 L115.5975,11.402 C116.6055,12.158 117.4035,12.872 117.9915,13.544 Z M116.6895,22.91 C117.5575,22.28 118.3975,21.552 119.1815,20.74 L118.9155,19.676 C118.4395,20.166 118.0055,20.6 117.5855,20.992 L117.5855,14.846 L114.6175,14.846 L114.6175,15.812 L116.6195,15.812 L116.6195,21.37 C116.6195,21.608 116.5075,21.818 116.2975,22.014 L116.6895,22.91 Z M120.8755,23.4 L120.8755,21.174 L125.3975,21.174 L125.3975,21.972 C125.3975,22.294 125.2155,22.462 124.8795,22.462 L123.7595,22.42 L123.9975,23.316 L125.1735,23.316 C125.9575,23.316 126.3635,22.938 126.3635,22.182 L126.3635,16.722 L119.9095,16.722 L119.9095,23.4 L120.8755,23.4 Z M125.3975,18.584 L120.8755,18.584 L120.8755,17.548 L125.3975,17.548 L125.3975,18.584 Z M125.3975,20.39 L120.8755,20.39 L120.8755,19.368 L125.3975,19.368 L125.3975,20.39 Z M139.7615,19.172 L139.7615,14.678 L135.2955,14.678 L135.2955,12.9 L140.7275,12.9 L140.7275,11.948 L135.2955,11.948 L135.2955,10.59 L134.3015,10.59 L134.3015,14.678 L130.4935,14.678 L130.4935,19.172 L139.7615,19.172 Z M138.7535,18.234 L131.5015,18.234 L131.5015,15.63 L138.7535,15.63 L138.7535,18.234 Z M140.5175,23.428 L141.3575,22.84 C140.8815,21.972 140.2095,20.95 139.3135,19.774 L138.5015,20.292 C139.3555,21.44 140.0275,22.476 140.5175,23.428 Z M129.4855,23.358 C130.1855,22.462 130.7875,21.412 131.3195,20.194 L130.4655,19.788 C129.9615,20.936 129.3595,21.93 128.6595,22.756 L129.4855,23.358 Z M136.5415,23.4 L137.5355,23.176 C137.2275,22.056 136.8635,21.006 136.4435,20.054 L135.4915,20.25 C135.9115,21.16 136.2615,22.21 136.5415,23.4 Z M133.2655,23.428 L134.2735,23.204 C134.0495,22.126 133.7975,21.118 133.5175,20.194 L132.5795,20.39 C132.8455,21.272 133.0695,22.28 133.2655,23.428 Z M145.2215,23.428 L145.2215,22.784 L152.8515,22.784 L152.8515,23.428 L153.8175,23.428 L153.8175,18.122 L152.8515,18.122 L152.8515,21.846 L149.5475,21.846 L149.5475,16.904 L155.2175,16.904 L155.2175,15.924 L149.5475,15.924 L149.5475,13.6 L154.0695,13.6 L154.0695,12.634 L149.5475,12.634 L149.5475,10.66 L148.5115,10.66 L148.5115,12.634 L143.9335,12.634 L143.9335,13.6 L148.5115,13.6 L148.5115,15.924 L142.8555,15.924 L142.8555,16.904 L148.5115,16.904 L148.5115,21.846 L145.2215,21.846 L145.2215,18.122 L144.2555,18.122 L144.2555,23.428 L145.2215,23.428 Z M158.2975,23.4 L158.2975,22.826 L167.7615,22.826 L167.7615,23.4 L168.7415,23.4 L168.7415,11.178 L157.3175,11.178 L157.3175,23.4 L158.2975,23.4 Z M167.7615,21.93 L158.2975,21.93 L158.2975,12.074 L167.7615,12.074 L167.7615,21.93 Z M159.3055,17.814 C160.9015,17.464 162.2315,17.002 163.3095,16.428 C164.2895,16.974 165.4515,17.422 166.8095,17.786 L167.3415,17.03 C166.1375,16.75 165.0735,16.372 164.1355,15.924 C164.9335,15.364 165.5215,14.706 165.9135,13.964 L165.9135,13.264 L162.2175,13.264 C162.3575,13.012 162.4695,12.76 162.5815,12.494 L161.6855,12.382 C161.2375,13.446 160.3695,14.356 159.0955,15.112 L159.6555,15.84 C160.1875,15.504 160.6635,15.14 161.0835,14.748 C161.4755,15.168 161.9515,15.56 162.4975,15.924 C161.5175,16.386 160.2995,16.75 158.8575,17.002 L159.3055,17.814 Z M163.3095,15.49 C162.6655,15.098 162.0915,14.664 161.6015,14.188 C161.6295,14.132 161.6715,14.076 161.7275,14.02 L164.9055,14.02 C164.5275,14.58 163.9955,15.07 163.3095,15.49 Z M164.5275,19.34 L165.0035,18.612 C164.0935,18.108 163.0855,17.66 161.9935,17.296 L161.5315,17.968 C162.5675,18.304 163.5615,18.752 164.5275,19.34 Z M165.5635,21.566 L165.8995,20.754 C164.1915,20.11 162.3995,19.606 160.5375,19.256 L160.1455,20.012 C162.0215,20.376 163.8275,20.894 165.5635,21.566 Z M173.6975,23.386 L173.6975,16.372 C174.1175,16.904 174.6075,17.604 175.1815,18.486 L175.7555,17.632 C175.0695,16.778 174.3835,15.994 173.6975,15.294 L173.6975,14.216 L175.3215,14.216 L175.3215,13.25 L173.6975,13.25 L173.6975,10.604 L172.7035,10.604 L172.7035,13.25 L170.9955,13.25 L170.9955,14.216 L172.7035,14.216 C172.2695,15.98 171.5555,17.562 170.5475,18.934 L170.9815,20.026 C171.6815,18.934 172.2555,17.73 172.7035,16.414 L172.7035,23.386 L173.6975,23.386 Z M182.6995,12.354 L182.6995,11.402 L176.3155,11.402 L176.3155,12.354 L182.6995,12.354 Z M178.7655,23.246 C179.5775,23.246 179.9975,22.826 179.9975,22 L179.9975,15.77 L183.4275,15.77 L183.4275,14.804 L175.5735,14.804 L175.5735,15.77 L178.9895,15.77 L178.9895,21.748 C178.9895,22.154 178.7935,22.364 178.4155,22.364 C178.0095,22.364 177.5895,22.336 177.1415,22.308 L177.3375,23.246 L178.7655,23.246 Z M182.5035,22.336 L183.4135,21.93 C182.9935,20.138 182.4895,18.444 181.9015,16.862 L180.9915,17.156 C181.5375,18.668 182.0415,20.39 182.5035,22.336 Z M175.8115,22.21 C176.6515,20.782 177.3095,19.102 177.7575,17.142 L176.8335,16.932 C176.4415,18.668 175.8115,20.236 174.9435,21.65 L175.8115,22.21 Z M189.4615,14.244 C189.7275,14.244 189.9375,14.16 190.1055,14.006 C190.2735,13.838 190.3715,13.628 190.3715,13.376 C190.3715,13.124 190.2875,12.928 190.1335,12.76 C189.9655,12.592 189.7555,12.522 189.5175,12.522 C189.3775,12.522 189.2655,12.536 189.2095,12.564 C189.2095,12.228 189.3075,11.92 189.5175,11.654 C189.7415,11.346 190.0355,11.136 190.4135,11.024 L190.4135,10.324 C189.7975,10.478 189.3215,10.786 188.9575,11.248 C188.5935,11.696 188.4255,12.242 188.4255,12.872 C188.4255,13.264 188.5095,13.6 188.6915,13.852 C188.8875,14.104 189.1395,14.244 189.4615,14.244 Z M186.6895,14.244 C186.9695,14.244 187.1935,14.16 187.3615,14.006 C187.5155,13.838 187.5995,13.628 187.5995,13.376 C187.5995,13.124 187.5155,12.928 187.3475,12.76 C187.1795,12.592 186.9835,12.522 186.7595,12.522 C186.6055,12.522 186.4935,12.536 186.4375,12.564 C186.4375,12.228 186.5355,11.92 186.7595,11.64 C186.9695,11.346 187.2635,11.136 187.6415,11.024 L187.6415,10.324 C187.0255,10.478 186.5495,10.786 186.1995,11.248 C185.8355,11.696 185.6535,12.242 185.6535,12.872 C185.6535,13.278 185.7375,13.6 185.9335,13.852 C186.1155,14.104 186.3675,14.244 186.6895,14.244 Z M214.374,14.23 C214.962,14.062 215.452,13.754 215.816,13.306 C216.18,12.844 216.362,12.298 216.362,11.682 C216.362,11.262 216.264,10.94 216.082,10.688 C215.886,10.436 215.62,10.31 215.312,10.31 C215.032,10.31 214.822,10.38 214.668,10.548 C214.486,10.702 214.402,10.912 214.402,11.178 C214.402,11.416 214.486,11.612 214.654,11.78 C214.822,11.948 215.018,12.032 215.256,12.032 C215.396,12.032 215.508,12.018 215.564,11.99 C215.564,12.326 215.466,12.634 215.256,12.928 C215.032,13.208 214.738,13.404 214.374,13.53 L214.374,14.23 Z M211.602,14.23 C212.19,14.062 212.68,13.754 213.044,13.306 C213.408,12.844 213.59,12.298 213.59,11.682 C213.59,11.262 213.492,10.94 213.31,10.688 C213.114,10.436 212.862,10.31 212.554,10.31 C212.274,10.31 212.05,10.38 211.882,10.548 C211.714,10.702 211.644,10.912 211.644,11.178 C211.644,11.416 211.728,11.612 211.896,11.78 C212.05,11.948 212.246,12.032 212.484,12.032 C212.624,12.032 212.736,12.018 212.792,11.99 C212.792,12.326 212.694,12.634 212.47,12.928 C212.246,13.208 211.966,13.404 211.602,13.53 L211.602,14.23 Z M228.948,21.468 L228.948,17.45 L231.174,17.45 L231.174,16.498 L228.948,16.498 L228.948,13.712 L230.726,13.712 L230.726,12.774 L228.948,12.774 L228.948,10.562 L227.968,10.562 L227.968,12.774 L225.756,12.774 L225.756,10.548 L224.79,10.548 L224.79,12.774 L223.138,12.774 L223.138,13.712 L224.79,13.712 L224.79,14.818 C224.79,15.406 224.748,15.966 224.678,16.498 L222.648,16.498 L222.648,17.45 L224.496,17.45 C224.188,18.766 223.586,19.746 222.704,20.376 L223.306,21.188 C224.384,20.376 225.112,19.13 225.476,17.45 L227.968,17.45 L227.968,21.468 L228.948,21.468 Z M221.444,13.67 L222.172,12.956 C221.528,12.228 220.73,11.514 219.792,10.786 L219.106,11.444 C220.1,12.242 220.884,12.984 221.444,13.67 Z M227.968,16.498 L225.644,16.498 C225.714,15.91 225.756,15.266 225.756,14.594 L225.756,13.712 L227.968,13.712 L227.968,16.498 Z M219.638,23.428 C220.408,22.14 220.954,21.496 221.29,21.496 C221.458,21.496 221.64,21.608 221.822,21.846 C222.256,22.35 222.746,22.7 223.292,22.868 C223.852,23.022 224.566,23.106 225.462,23.12 C226.344,23.134 227.17,23.148 227.926,23.148 L231.132,23.148 L231.37,22.14 C231.006,22.168 230.474,22.182 229.802,22.196 C229.116,22.21 228.444,22.224 227.786,22.224 C226.708,22.224 225.798,22.21 225.07,22.196 C224.258,22.168 223.628,22.056 223.208,21.86 C222.816,21.678 222.466,21.384 222.13,20.978 C222.018,20.852 221.906,20.74 221.794,20.656 L221.794,15.42 L218.854,15.42 L218.854,16.344 L220.856,16.344 L220.856,20.6 C220.282,20.852 219.624,21.566 218.882,22.742 L219.638,23.428 Z M233.148,23.204 C236.088,21.3 238.02,18.556 238.944,14.986 C239.014,15.154 239.084,15.35 239.168,15.574 C240.61,19.27 242.458,21.818 244.726,23.19 L245.356,22.378 C243.144,20.992 241.394,18.626 240.078,15.28 C239.21,13.012 238.16,11.43 236.914,10.562 L236.074,11.094 C236.97,11.738 237.74,12.634 238.384,13.81 C237.488,17.534 235.542,20.39 232.546,22.35 L233.148,23.204 Z M247.61,23.372 C248.842,22.728 249.724,21.818 250.256,20.642 C250.676,19.69 250.942,18.5 251.068,17.058 L255.114,17.058 L255.114,23.26 L256.136,23.26 L256.136,17.058 L259.202,17.058 L259.202,16.092 L256.136,16.092 L256.136,12.382 L258.474,12.382 L258.474,11.402 L247.568,11.402 L247.568,12.382 L250.116,12.382 L250.116,15.602 C250.116,15.742 250.102,15.91 250.102,16.092 L246.812,16.092 L246.812,17.058 L250.046,17.058 C249.934,18.178 249.738,19.13 249.444,19.942 C248.996,21.006 248.198,21.86 247.064,22.504 L247.61,23.372 Z M255.114,16.092 L251.138,16.092 C251.138,15.938 251.152,15.77 251.152,15.602 L251.152,12.382 L255.114,12.382 L255.114,16.092 Z M263.962,23.442 C265.656,22.784 267.084,22.056 268.232,21.244 C269.408,22.014 270.892,22.728 272.684,23.386 L273.202,22.448 C271.578,21.888 270.192,21.272 269.058,20.6 C270.206,19.62 270.962,18.528 271.34,17.324 L271.34,16.456 L265.614,16.456 C265.81,15.952 265.978,15.42 266.146,14.86 L272.964,14.86 L272.964,13.894 L266.412,13.894 C266.664,12.858 266.888,11.766 267.07,10.59 L266.048,10.464 C265.88,11.668 265.656,12.802 265.376,13.894 L262.926,13.894 L263.724,11.136 L262.73,10.968 L261.624,14.86 L265.096,14.86 C264.116,17.982 262.618,20.432 260.574,22.224 L261.092,23.148 C262.688,21.846 264.004,20.096 265.026,17.884 C265.488,18.864 266.258,19.774 267.35,20.614 C266.3,21.3 264.998,21.93 263.43,22.504 L263.962,23.442 Z M271.214,13.6 L271.928,12.886 C271.256,12.116 270.43,11.346 269.422,10.576 L268.75,11.234 C269.8,12.074 270.626,12.858 271.214,13.6 Z M268.176,20.026 C267.056,19.214 266.258,18.332 265.782,17.38 L270.318,17.38 C269.926,18.332 269.212,19.214 268.176,20.026 Z M33.868,33.67 L33.868,32.62 L36.122,32.62 L36.122,33.67 L37.074,33.67 L37.074,32.62 L39.244,32.62 L39.244,31.724 L37.074,31.724 L37.074,30.604 L36.122,30.604 L36.122,31.724 L33.868,31.724 L33.868,30.604 L32.93,30.604 L32.93,31.724 L30.886,31.724 L30.886,32.62 L32.93,32.62 L32.93,33.67 L33.868,33.67 Z M29.528,43.358 L29.528,36.232 C29.892,36.806 30.34,37.548 30.858,38.472 L31.39,37.674 C30.746,36.736 30.13,35.896 29.528,35.168 L29.528,34.244 L30.998,34.244 L30.998,33.334 L29.528,33.334 L29.528,30.618 L28.576,30.618 L28.576,33.334 L26.952,33.334 L26.952,34.244 L28.576,34.244 L28.576,34.328 C28.156,36.036 27.456,37.548 26.49,38.892 L26.924,39.984 C27.596,38.906 28.142,37.702 28.576,36.386 L28.576,43.358 L29.528,43.358 Z M38.754,43.442 L39.426,42.644 C37.774,42.056 36.542,41.286 35.73,40.334 L39.272,40.334 L39.272,39.41 L35.24,39.41 C35.324,39.088 35.408,38.738 35.464,38.346 L38.334,38.346 L38.334,34.104 L31.628,34.104 L31.628,38.346 L34.568,38.346 C34.498,38.71 34.414,39.074 34.302,39.41 L30.62,39.41 L30.62,40.334 L33.882,40.334 C33.77,40.53 33.63,40.712 33.49,40.894 C32.874,41.608 31.88,42.154 30.48,42.532 L30.844,43.372 C32.454,42.91 33.574,42.28 34.218,41.468 C34.442,41.188 34.652,40.866 34.82,40.516 C35.632,41.692 36.934,42.658 38.754,43.442 Z M37.424,35.854 L32.538,35.854 L32.538,34.916 L37.424,34.916 L37.424,35.854 Z M37.424,37.562 L32.538,37.562 L32.538,36.61 L37.424,36.61 L37.424,37.562 Z M51.578,43.358 C52.292,43.344 52.866,42.322 53.286,40.306 L52.376,39.83 C52.082,41.398 51.788,42.196 51.508,42.238 C51.046,42.238 50.514,41.454 49.926,39.914 C49.38,38.346 49.016,36.4 48.848,34.048 L53.118,34.048 L53.118,33.068 L48.792,33.068 C48.75,32.284 48.736,31.458 48.736,30.59 L47.7,30.59 C47.7,31.444 47.714,32.27 47.756,33.068 L40.91,33.068 L40.91,34.048 L47.812,34.048 C47.924,35.812 48.134,37.352 48.456,38.682 C49.296,41.734 50.332,43.302 51.578,43.358 Z M51.326,32.928 L52.166,32.508 C51.746,31.836 51.312,31.22 50.85,30.66 L50.01,31.066 C50.486,31.612 50.92,32.228 51.326,32.928 Z M41.078,42.49 C43.402,42.154 45.586,41.748 47.602,41.258 L47.602,40.278 C46.622,40.53 45.628,40.768 44.592,40.964 L44.592,37.324 L47.056,37.324 L47.056,36.372 L41.12,36.372 L41.12,37.324 L43.584,37.324 L43.584,41.146 C42.688,41.286 41.764,41.426 40.84,41.538 L41.078,42.49 Z" id="VSCode插件请点击图标“”进入开发模式" fill="#36435C" fill-rule="nonzero"></path>
                    <g id="dev_start备份-2" transform="translate(194.000000, 10.000000)" fill="#5DE29E" fill-rule="nonzero">
                        <path d="M12.606,13.3949342 L13.998,12.0029342 L13.993,11.5429342 L6.493,4.4049342 C6.441,4.3549342 6.363,4.2789342 6.261,4.1729342 L6.487,3.9469342 L7.337,3.0979342 C7.817,2.6159342 8.639,2.3139342 9.254,2.4719342 L9.291,2.3319342 L8.09,1.1309342 C7.365,0.405934197 5.955,0.452934197 5.23,1.1769342 L4.445,1.9629342 L4.208,2.1999342 C4.098,2.0879342 4.02,2.0099342 3.975,1.9679342 L3.928,1.9229342 L3.458,1.9279342 L2.53,2.8559342 L2.525,3.3259342 L2.57,3.3729342 C2.607,3.4109342 2.684,3.4889342 2.802,3.6049342 L2.565,3.8429342 L1.715,4.6929342 L1.482,4.9259342 L1.249,4.6929342 L1.203,4.6469342 L0.971,4.4149342 L0.739,4.6469342 L0,5.3869342 L0,5.8509342 L2.564,8.4149342 L3.029,8.4149342 L3.768,7.6749342 L4,7.4449342 L3.768,7.2129342 L3.728,7.1729342 L3.495,6.9399342 L3.728,6.7079342 L4.548,5.8869342 L4.776,5.6589342 C4.886,5.7689342 4.964,5.8449342 5.007,5.8909342 L12.147,13.3909342 L12.606,13.3949342 Z" id="路径"></path>
                    </g>
                </g>
            </g>
            <g id="编组-15" mask="url(#mask-2)">
                <g transform="translate(6.000000, 64.000000)">
                    <rect id="矩形" stroke="none" fill="#0080FF" fill-rule="evenodd" x="40" y="77" width="231" height="20" rx="2"></rect>
                    <g id="setting_normal备份-2" stroke="none" stroke-width="1" fill="none" fill-rule="evenodd" transform="translate(251.000000, 80.000000)">
                        <path d="M8.1,3.4 L7.6,1 L6.4,1 L5.9,3.4 L5.2,3.7 L3.2,2.4 L2.3,3.2 L3.6,5.2 L3.4,5.9 L1,6.4 L1,7.6 L3.4,8.1 L3.7,8.9 L2.4,10.9 L3.2,11.7 L5.2,10.4 L6,10.7 L6.4,13 L7.6,13 L8.1,10.6 L8.9,10.3 L10.9,11.6 L11.7,10.8 L10.4,8.8 L10.7,8 L13,7.6 L13,6.4 L10.6,5.9 L10.3,5.1 L11.6,3.1 L10.8,2.3 L8.8,3.6 L8.1,3.4 L8.1,3.4 Z M8.4,0 L8.9,2.4 L11,1.1 L13,3.1 L11.6,5.2 L14,5.6 L14,8.4 L11.6,8.9 L13,11 L11,13 L8.9,11.6 L8.4,14 L5.6,14 L5.1,11.6 L3,12.9 L1,10.9 L2.4,8.8 L0,8.4 L0,5.6 L2.4,5.1 L1.1,3 L3.1,1 L5.2,2.4 L5.6,0 L8.4,0 Z M9,7 C9,8.1 8.1,9 7,9 C5.9,9 5,8.1 5,7 C5,5.9 5.9,5 7,5 C8.1,5 9,5.9 9,7 Z M7,8 C7.6,8 8,7.6 8,7 C8,6.4 7.6,6 7,6 C6.4,6 6,6.4 6,7 C6,7.6 6.4,8 7,8 Z" id="形状" fill="#FFFFFF" fill-rule="nonzero"></path>
                    </g>
                    <g id="dev_start备份-2" stroke="none" stroke-width="1" fill="none" fill-rule="evenodd" transform="translate(231.000000, 80.000000)">
                        <path d="M12.606,13.3949342 L13.998,12.0029342 L13.993,11.5429342 L6.493,4.4049342 C6.441,4.3549342 6.363,4.2789342 6.261,4.1729342 L6.487,3.9469342 L7.337,3.0979342 C7.817,2.6159342 8.639,2.3139342 9.254,2.4719342 L9.291,2.3319342 L8.09,1.1309342 C7.365,0.405934197 5.955,0.452934197 5.23,1.1769342 L4.445,1.9629342 L4.208,2.1999342 C4.098,2.0879342 4.02,2.0099342 3.975,1.9679342 L3.928,1.9229342 L3.458,1.9279342 L2.53,2.8559342 L2.525,3.3259342 L2.57,3.3729342 C2.607,3.4109342 2.684,3.4889342 2.802,3.6049342 L2.565,3.8429342 L1.715,4.6929342 L1.482,4.9259342 L1.249,4.6929342 L1.203,4.6469342 L0.971,4.4149342 L0.739,4.6469342 L0,5.3869342 L0,5.8509342 L2.564,8.4149342 L3.029,8.4149342 L3.768,7.6749342 L4,7.4449342 L3.768,7.2129342 L3.728,7.1729342 L3.495,6.9399342 L3.728,6.7079342 L4.548,5.8869342 L4.776,5.6589342 C4.886,5.7689342 4.964,5.8449342 5.007,5.8909342 L12.147,13.3909342 L12.606,13.3949342 Z" id="路径" fill="#5DE29E" fill-rule="nonzero"></path>
                    </g>
                    <line x1="7" y1="14" x2="7" y2="176" id="路径-6" stroke="#D4DFEB" stroke-width="1" fill="none" opacity="0.5"></line>
                    <line x1="17" y1="34" x2="17" y2="196" id="路径-6备份" stroke="#D4DFEB" stroke-width="1" fill="none" opacity="0.5"></line>
                    <line x1="27" y1="54" x2="27" y2="216" id="路径-6备份-2" stroke="#D4DFEB" stroke-width="1" fill="none" opacity="0.5"></line>
                    <line x1="37" y1="74" x2="37" y2="236" id="路径-6备份-3" stroke="#D4DFEB" stroke-width="1" fill="none" opacity="0.5"></line>
                    <g id="编组-7" stroke="none" stroke-width="1" fill="none" fill-rule="evenodd">
                        <g id="namespace备份-2" transform="translate(20.000000, 0.000000)" fill="#D4DFEB" fill-rule="nonzero">
                            <g id="应用" transform="translate(1.000000, 0.419851)">
                                <path d="M5.46114286,12.5384047 L5.46114286,7.47263923 C5.46114286,7.03832946 5.17371429,6.60401971 4.81428572,6.38656937 L0.64685715,3.78189259 C0.287428571,3.63653178 0,3.78189259 0,4.14352195 L0,9.20928739 C0,9.64359715 0.287428571,10.0779069 0.64685715,10.2947663 L4.81428572,12.9006249 C5.17371429,13.1174843 5.46114286,12.9727144 5.46114286,12.5384047 Z M1.29314286,2.91327308 L5.38914286,5.51854075 C5.74857143,5.73540018 6.252,5.73540018 6.61085715,5.59063026 L10.7068572,3.49176186 C11.0657143,3.27490243 11.0657143,2.98536258 10.7068572,2.76850315 L6.39542858,0.162644572 C6.10800001,-0.0542148573 5.53257144,-0.0542148573 5.17371429,0.162644572 L1.29371429,2.18942347 C0.934285721,2.4062829 0.934285721,2.69582274 1.29314286,2.91327308 Z M7.25771429,12.900034 L11.3531429,10.8011656 C11.7125714,10.5843062 12,10.1499964 12,9.71568666 L12,4.65051213 C12,4.21620236 11.7125714,4.07143244 11.3531429,4.28888277 L7.25771429,6.38716027 C6.89771428,6.60461059 6.61085715,7.03892036 6.61085715,7.47323012 L6.61085715,12.5389956 C6.61085715,12.9727144 6.89828572,13.1174844 7.25771429,12.900034 Z" id="形状"></path>
                            </g>
                        </g>
                        <g id="arrow_down" stroke="#D4DFEB" stroke-width="2">
                            <polyline id="路径-7" points="2.5 5 7 9.5 11.5 5"></polyline>
                        </g>
                        <path d="M44,3 L96,3 C98.209139,3 100,4.790861 100,7 C100,9.209139 98.209139,11 96,11 L44,11 C41.790861,11 40,9.209139 40,7 C40,4.790861 41.790861,3 44,3 Z" id="矩形" fill="#D4DFEB"></path>
                    </g>
                    <g id="编组-7备份" stroke="none" stroke-width="1" fill="none" fill-rule="evenodd" transform="translate(10.000000, 20.000000)">
                        <g id="app_connected备份-2" transform="translate(20.000000, 0.000000)" fill="#D4DFEB">
                            <path d="M7,2 C8.87116425,2 10.4422446,3.2848121 10.8791657,5.02036107 C12.6334179,5.2088765 14,6.69484707 14,8.5 C14,10.2629068 12.6966339,11.7213961 11.0009499,11.9644196 L11,12 L4,12 C1.790861,12 0,10.209139 0,8 C0,5.95358546 1.53674929,4.26609794 3.5191836,4.02860171 C4.20617545,2.81725705 5.50764742,2 7,2 Z M8.84877393,5.57471429 L6.0203468,8.40314142 L4.60613324,6.98892785 L3.89902646,7.69603463 L6.0203468,9.81735498 L9.55588071,6.28182107 L8.84877393,5.57471429 Z" id="形状结合"></path>
                        </g>
                        <g id="arrow_down" stroke="#D4DFEB" stroke-width="2">
                            <polyline id="路径-7" points="2.5 5 7 9.5 11.5 5"></polyline>
                        </g>
                        <path d="M44,3 L86,3 C88.209139,3 90,4.790861 90,7 C90,9.209139 88.209139,11 86,11 L44,11 C41.790861,11 40,9.209139 40,7 C40,4.790861 41.790861,3 44,3 Z" id="矩形" fill="#D4DFEB"></path>
                    </g>
                    <g id="编组-7备份-2" stroke="none" stroke-width="1" fill="none" fill-rule="evenodd" transform="translate(20.000000, 40.000000)">
                        <g id="arrow_down" stroke="#D4DFEB" stroke-width="2">
                            <polyline id="路径-7" points="2.5 5 7 9.5 11.5 5"></polyline>
                        </g>
                        <rect id="矩形" fill="#D4DFEB" x="20" y="3" width="90" height="8" rx="4"></rect>
                    </g>
                    <g id="编组-7备份-3" stroke="none" stroke-width="1" fill="none" fill-rule="evenodd" transform="translate(30.000000, 60.000000)">
                        <g id="arrow_down" stroke="#D4DFEB" stroke-width="2">
                            <polyline id="路径-7" points="2.5 5 7 9.5 11.5 5"></polyline>
                        </g>
                        <rect id="矩形" fill="#D4DFEB" x="20" y="3" width="80" height="8" rx="4"></rect>
                    </g>
                    <g id="编组-7备份-4" stroke="none" stroke-width="1" fill="none" fill-rule="evenodd" transform="translate(40.000000, 80.000000)">
                        <g id="status_running备份-2" fill="#5DE29E">
                            <circle id="椭圆形" cx="7" cy="7" r="3"></circle>
                        </g>
                        <rect id="矩形" fill="#D4DFEB" x="20" y="3" width="100" height="8" rx="4"></rect>
                    </g>
                    <g id="编组-7备份-5" stroke="none" stroke-width="1" fill="none" fill-rule="evenodd" transform="translate(40.000000, 100.000000)">
                        <g id="status_running备份-2" fill="#5DE29E">
                            <circle id="椭圆形" cx="7" cy="7" r="3"></circle>
                        </g>
                        <rect id="矩形" fill="#D4DFEB" x="20" y="3" width="100" height="8" rx="4"></rect>
                    </g>
                    <g id="编组-7备份-6" stroke="none" stroke-width="1" fill="none" fill-rule="evenodd" transform="translate(40.000000, 120.000000)">
                        <g id="status_running备份-2" fill="#5DE29E">
                            <circle id="椭圆形" cx="7" cy="7" r="3"></circle>
                        </g>
                        <rect id="矩形" fill="#D4DFEB" x="20" y="3" width="100" height="8" rx="4"></rect>
                    </g>
                    <g id="编组-7备份-7" stroke="none" stroke-width="1" fill="none" fill-rule="evenodd" transform="translate(40.000000, 140.000000)">
                        <g id="status_running备份-2" fill="#5DE29E">
                            <circle id="椭圆形" cx="7" cy="7" r="3"></circle>
                        </g>
                        <rect id="矩形" fill="#D4DFEB" x="20" y="3" width="100" height="8" rx="4"></rect>
                    </g>
                </g>
            </g>
        </g>
    </g>
</svg>