<svg xmlns="http://www.w3.org/2000/svg" width="32" height="24"><path fill="#ffffff" fill-rule="evenodd" d="M15.843 0c.17 1.768 1.546 3.28 3.504 4.069 3.63 1.178 6.568 4.038 7.98 7.126.415-.813 1.157-1.355 2.004-1.355 1.301 0 2.355 1.277 2.355 2.852 0 1.576-1.054 2.852-2.355 2.852-.396 0-.768-.118-1.095-.327-.112 5.114-5.615 8.434-12.393 8.443-6.778-.009-12.28-3.329-12.392-8.443-.328.209-.7.327-1.096.327-1.3 0-2.355-1.276-2.355-2.852C0 11.117 1.054 9.84 2.355 9.84c.847 0 1.59.542 2.004 1.355 1.412-3.088 4.35-5.948 7.98-7.126 1.959-.789 3.334-2.301 3.504-4.07zm4.076 10.308c-1.593 0-3.033.587-4.076 1.532-1.043-.945-2.483-1.532-4.076-1.532-2.068 0-3.881.988-4.898 2.47-.423.64-.703 1.75-.813 2.476l-.003.02a4.645 4.645 0 00-.038.365l-.004.076a4.75 4.75 0 00-.007.23c0 3.7 4.403 6.283 9.84 6.291 5.436-.008 9.838-2.592 9.838-6.29a4.75 4.75 0 00-.006-.231l-.004-.076a5.163 5.163 0 00-.042-.385c-.11-.726-.39-1.836-.813-2.475-1.016-1.483-2.83-2.47-4.898-2.47zM9.634 13.231c.285 0 .516.28.516.625 0 .346-.231.626-.516.626-.285 0-.516-.28-.516-.626 0-.345.23-.625.516-.625zm12.264 0c.285 0 .516.28.516.625 0 .346-.231.626-.516.626-.286 0-.517-.28-.517-.626 0-.345.231-.625.517-.625zm8.155-.352c-.11-.411-.601-.586-1.096-.391-.495.194-.807.685-.697 1.096.11.41.601.585 1.096.39.495-.194.807-.685.697-1.095zm-27.324-.391c-.495-.195-.985-.02-1.095.39-.11.411.202.902.697 1.097.494.194.985.02 1.095-.391.11-.41-.202-.902-.697-1.096z"/></svg>