<svg height="340" viewBox="0 0 310 340" width="310" xmlns="http://www.w3.org/2000/svg"><g fill="none" fill-opacity=".1" fill-rule="evenodd"><path d="m73.2 267.5c.6351275 0 1.2101275.257436 1.6263456.673654.4162181.416219.6736544.991219.6736544 1.626346v18.4c0 .635127-.2574363 1.210127-.6736544 1.626346-.4162181.416218-.9912181.673654-1.6263456.673654h-18.4c-.6351275 0-1.2101275-.257436-1.6263456-.673654-.4162181-.416219-.6736544-.991219-.6736544-1.626346v-18.4c0-.635127.2574363-1.210127.6736544-1.626346.4162181-.416218.9912181-.673654 1.6263456-.673654z" fill="#008bff" stroke="#0080ff"/><path d="m22.32 316.5c.325848 0 .620848.132076.834386.345614s.345614.508538.345614.834386v10.32c0 3.175637-1.2871813 6.050637-3.368272 8.131728s-4.9560907 3.368272-8.131728 3.368272c-3.17563731 0-6.05063731-1.287181-8.13172798-3.368272-2.08109068-2.081091-3.36827202-4.956091-3.36827202-8.131728 0-3.122714 1.24462712-5.954734 3.26489021-8.027024 2.02414163-2.076268 4.82686698-3.389988 7.93652409-3.469178z" fill="#1ee7e7" stroke="#1feaea"/><circle cx="114" cy="93" fill="#ed58ed" r="27.5" stroke="#ed58ed"/><circle cx="269" cy="28" fill="#f062f0" r="27.5" stroke="#ed58ed"/><g fill="#7a40fe" stroke="#6f38ff"><circle cx="163" cy="209" r="58.5"/><circle cx="286" cy="150" r="23.5"/></g></g></svg>