<svg height="20" viewBox="0 0 20 20" width="20" xmlns="http://www.w3.org/2000/svg"><path d="m10 1c-5.5228475 0-10 4.4771525-10 10s4.4771525 10 10 10 10-4.4771525 10-10c0-2.6521649-1.0535684-5.19570403-2.9289322-7.07106781-1.8753638-1.87536379-4.4189029-2.92893219-7.0710678-2.92893219zm-5 8.75c0-.69035594.55964406-1.25 1.25-1.25s1.25.55964406 1.25 1.25c0 .6903559-.55964406 1.25-1.25 1.25s-1.25-.5596441-1.25-1.25zm5 7.0833333c-1.84094917 0-3.33333333-1.4923841-3.33333333-3.3333333h1.66666666c0 .9204746.74619209 1.6666667 1.66666667 1.6666667.9204746 0 1.6666667-.7461921 1.6666667-1.6666667h1.6666666c0 1.8409492-1.4923841 3.3333333-3.3333333 3.3333333zm3.75-5.8333333c-.6903559 0-1.25-.5596441-1.25-1.25 0-.69035594.5596441-1.25 1.25-1.25s1.25.55964406 1.25 1.25c0 .6903559-.5596441 1.25-1.25 1.25z" fill="#1ee7e7" transform="translate(0 -1)"/></svg>