<svg height="62" viewBox="0 0 63 62" width="63" xmlns="http://www.w3.org/2000/svg"><g fill="none" fill-rule="evenodd" transform="translate(.5)"><circle cx="31" cy="31" fill="#6f38ff" r="31" transform="matrix(-1 0 0 1 62 0)"/><path d="m36.6693572 22.6141489 10.1672886 17.1238545c.8458883 1.424654.376706 3.2652922-1.047948 4.1111805-.4634953.2752004-.9925771.4204357-1.5316162.4204357h-20.3345772c-1.6568543 0-3-1.3431457-3-3 0-.5390391.1452353-1.0681208.4204357-1.5316162l10.1672886-17.1238545c.8458883-1.424654 2.6865265-1.8938363 4.1111805-1.047948.4314591.2561788.7917692.6164889 1.047948 1.047948z" fill="#fff" transform="matrix(0 1 -1 0 65.36 -2.82)"/></g></svg>