<svg height="60" viewBox="0 0 192 60" width="192" xmlns="http://www.w3.org/2000/svg"><g fill="none" fill-rule="evenodd"><g transform="translate(12.053 11.92)"><circle cx="22.9" cy="12.053" fill="#6f38ff" r="12.053"/><path d="m42.6666667 3.61581921h11.0885122c.9319155 0 1.6873823.75546679 1.6873823 1.6873823v11.08851219c0 .9319156-.7554668 1.6873823-1.6873823 1.6873823h-11.0885122c-.9319155 0-1.6873823-.7554667-1.6873823-1.6873823v-11.08851219c0-.93191551.7554668-1.6873823 1.6873823-1.6873823z" fill="#0080ff"/><path d="m45.3182674 12.0527307c.9319155 0 1.6873823.7554668 1.6873823 1.6873823v10.3653484c0 6.6565394-5.3961913 12.0527307-12.0527307 12.0527307-6.6565393 0-12.0527307-5.3961913-12.0527307-12.0527307 0-6.589974 5.2888072-11.9446808 11.8534168-12.051116l.1993139-.0016147z" fill="#1ee7e7"/><path d="m45.3182674 12.0527307c.9319155 0 1.6873823.7554668 1.6873823 1.6873823l-.0003653 4.3386177-4.3386177.0003653c-.9319155 0-1.6873823-.7554667-1.6873823-1.6873823v-4.338983z" fill="#03bde3"/><path d="m34.952919 12.0527307-.003702.3016876c-.1601083 6.5171339-5.493346 11.7510431-12.0490287 11.7510431 0-6.5556827 5.2339092-11.8889204 11.7510431-12.0490287z" fill="#5570ff"/><circle cx="8.437" cy="20.49" fill="#ed58ed" r="8.437"/><path d="m10.853641 12.4039565c3.481856 1.0391734 6.020182 4.2660006 6.020182 8.0856857 0 .6457199-.0725405 1.2744971-.2099169 1.8786268-3.3262395-2.0151599-5.5991139-5.5924396-5.801698-9.7139855z" fill="#cb6afb"/></g><path d="m11.2693032 15.75288v-.02244h1.8481657v-14.53044c0-.6627417-.5396191-1.2-1.205273-1.2h-1.769823v9.7614l-7.3688232-9.28302539c-.22858233-.28796125-.57695876-.45593461-.94560753-.45593461h-1.82794217v15.708h2.97509605v-10.59168zm9.6239849.2244c3.6061771 0 5.7924219-2.5806 5.7924219-5.76708v-4.08708c0-.92783838-.7554668-1.68-1.6873823-1.68h-4.1275782c-3.5385612 0-5.7473446 2.60304-5.7473446 5.76708 0 3.18648 2.1637062 5.76708 5.7698832 5.76708zm0-2.51328c-2.0059359 0-3.0201732-1.5708-3.0201732-3.2538 0-1.66056 1.0367759-3.27624 3.0201732-3.27624 1.8481658 0 3.0201733 1.61568 3.0201733 3.27624 0 1.683-1.0142373 3.2538-3.0201733 3.2538zm12.9371601 2.60304c1.6453183 0 2.9976347-.49368 4.2823352-1.75032l-1.8481657-1.7952c-.6761582.6732-1.5551638.92004-2.4341695.92004-1.7129341 0-3.1554049-1.122-3.1554049-3.23136 0-1.92984 1.3523164-3.27624 3.2004821-3.27624.7663126 0 1.5777025.29172 2.2313221.87516l1.7354727-1.81764c-1.2170848-1.18932-2.4341695-1.63812-4.011872-1.63812-3.2230207 0-5.9051149 1.92984-5.9051149 5.85684s2.6820942 5.85684 5.9051149 5.85684zm10.6156836 0c1.2396234-.02244 2.9750961-.65076 3.6061771-1.95228l.1352316 1.61568h2.5919397v-9.86292c0-.6627417-.5396191-1.2-1.205273-1.2h-1.4317439l-.0901544 1.52592c-.631081-1.09956-2.0510132-1.7952-3.5385613-1.7952-3.2455593-.02244-5.7924218 1.97472-5.7924218 5.78952 0 3.88212 2.4341695 5.90172 5.724806 5.87928zm.3155405-2.51328c-1.8256271 0-3.2906365-1.25664-3.2906365-3.366s1.4650094-3.34356 3.2906365-3.34356c4.3274124 0 4.3274124 6.70956 0 6.70956zm11.0664558 2.17668v-14.48556c0-.6627417-.5396192-1.2-1.2052731-1.2h-1.5218983v15.68556zm5.1613408 0v-5.65488c0-1.66056 1.1269303-3.0294 2.74971-3.0294 1.4650094 0 2.5243239.85272 2.5243239 2.87232v5.81196h2.74971v-5.8344c0-3.2538-1.3973936-5.3856-4.5527985-5.3856-1.2621619 0-2.4792467.38148-3.4709454 1.66056v-4.94856c0-.6627417-.5396191-1.2-1.205273-1.2h-1.544437v15.708zm15.5967157.24684c3.606177 0 5.7924218-2.5806 5.7924218-5.76708 0-3.16404-2.2763992-5.76708-5.8149604-5.76708-3.5385613 0-5.7473447 2.60304-5.7473447 5.76708 0 3.18648 2.1637062 5.76708 5.7698833 5.76708zm0-2.51328c-2.005936 0-3.0201733-1.5708-3.0201733-3.2538 0-1.66056 1.0367759-3.27624 3.0201733-3.27624 1.8481657 0 3.0201732 1.61568 3.0201732 3.27624 0 1.683-1.0142373 3.2538-3.0201732 3.2538zm12.2159246 2.64792c3.1779435 0 4.7781846-1.683 4.7781846-3.63528 0-2.4692976-1.8765824-3.19689216-3.7194499-3.44631007l-.1315503-.01701939c-.0657207-.00812014-.1313404-.01566873-.196772-.02270333l-.1305867-.01340095-.1299306-.01213263-.1291198-.01096666-.1918209-.0144876-.183561-.0123104-.1117783-.00865473-.1084398-.01003161c-1.2279118-.12328067-1.7961885-.51970155-1.7961885-1.18926263 0-.69564.7212355-1.09956 2.0284746-1.09956 1.0593145 0 1.9608588.24684 2.74971.98736l1.5326252-1.7952c-1.2847005-1.122-2.5919397-1.4586-4.3274124-1.4586-2.0284746 0-4.6880301.8976-4.6880301 3.45576 0 2.261952 2.0264461 3.1061448 3.9597852 3.3668752l.1287281.0165268c.0428478.0052269.0856265.0101748.1283126.0148529l.1277577.013234.1270631.0116701c.0422231.0036354.0843072.0070194.126229.010161l.1097991.0067116.1066793.0074746c.0175212.0013103.0349135.0026532.0521774.0040289l.1020457.0086519.0989877.0094587.0959541.010283c.0157409.0017835.0313565.0036021.0468472.0054561l.0914501.0115524c.0299867.0039946.059478.0081338.0884782.0124206l.0855311.0133064.0826085.0142096.0797107.0151304.0768375.0160687c.0628409.0137865.1227146.0285686.1796853.0443922l.0669755.0194911c.0109317.0033328.0217483.0067079.0324504.0101259l.0628414.0210235c.5225351.1831104.7497242.4793184.7497242.9370944 0 .80784-.9691601 1.3464-2.005936 1.32396-1.2396233-.02244-3.0427118-.6732-3.831563-1.54836l-1.3523164 1.95228c1.2801928 1.3277 2.6445465 1.7895429 4.0266674 1.9253704l.1168398.0107144c.0194798.0016604.0389629.0032592.0584488.0047978l.11695.0085219c.0194971.001304.0389968.0025509.0584989.0037422l.1170401.0064924c.019511.0009748.0390241.001897.058539.0027681l.1171102.0046257c.0195216.0006728.0390446.0012975.058569.0018756l.1171603.0029218.1171826.0018766.1171959.0010131zm11.5803618-.2445847.072098-.0022553c.833928-.02244 1.487548-.15708 2.276399-.47124l-.766313-2.33376c-.405695.20196-.901544.3366-1.329777.3366-.8564675 0-1.4424712-.51612-1.4424712-1.5708v-4.77972h3.0877892v-2.3562h-3.0652506v-1.80693769c0-.6627417-.5396191-1.2-1.2052731-1.2-.0426593 0-.0852886.00225491-.1277077.00675521l-1.4167292.15030248v2.84988h-2.0735518v2.3562h2.0735518v4.77972c0 2.7325188 1.5463062 4.1014441 3.9172356 4.0414553z" fill="#0b0f13" fill-rule="nonzero" transform="translate(77.141 21.83)"/></g></svg>