<svg height="12" viewBox="0 0 60 12" width="60" xmlns="http://www.w3.org/2000/svg"><g fill="none" fill-rule="evenodd"><path d="m43.16 0c.4639192 0 .84.37608081.84.84v5.16c0 3.3137085-2.6862915 6-6 6s-6-2.6862915-6-6c0-3.23839694 2.5655749-5.87757176 5.7750617-5.99586153l.2249383-.00413847z" fill="#1ee7e7"/><path d="m49.4 0h9.2c.7731986 0 1.4.62680135 1.4 1.4v9.2c0 .7731986-.6268014 1.4-1.4 1.4h-9.2c-.7731986 0-1.4-.6268014-1.4-1.4v-9.2c0-.77319865.6268014-1.4 1.4-1.4z" fill="#0080ff"/><circle cx="6" cy="6" fill="#ed58ed" r="6"/><circle cx="22" cy="6" fill="#6f38ff" r="6"/></g></svg>