<svg height="120" viewBox="0 0 120 120" width="120" xmlns="http://www.w3.org/2000/svg"><g fill="none" fill-rule="evenodd"><path d="m111.6 0c4.639192 0 8.4 3.7608081 8.4 8.4v51.6c0 33.137085-26.862915 60-60 60s-60-26.862915-60-60c0-32.3839694 25.6557489-58.77571762 57.7506174-59.95861528l2.2493826-.04138472z" fill="#1ee7e7"/><path d="m62.4 31c10.2825379 0 18.6771786 8.1136663 19.1765025 18.3108238l.0227236 1.136771c8.1421575 1.1647351 14.4007739 8.1930944 14.4007739 16.6887688 0 9.0030783-7.0285325 16.3583366-15.878231 16.8386837l-.921769.0249527h-36c-10.6038672 0-19.2-8.6286939-19.2-19.2727273 0-10.3214869 8.0830487-18.7479255 18.2417264-19.2491408l.9582736-.0235864c.20184 0 .4029526.0031263.6032923.0093333 2.1235337-8.3140567 9.6446468-14.4638788 18.5967077-14.4638788z" fill="#fcfeff" fill-rule="nonzero"/></g></svg>