<svg height="480" viewBox="0 0 1200 480" width="1200" xmlns="http://www.w3.org/2000/svg" xmlns:xlink="http://www.w3.org/1999/xlink"><linearGradient id="a" x1="50%" x2="50%" y1="0%" y2="100%"><stop offset="0" stop-color="#e7fafa"/><stop offset="1" stop-color="#fffefe"/></linearGradient><g fill="none" fill-rule="evenodd"><path d="m0 0h1200v480h-1200z" fill="url(#a)"/><g opacity=".05" transform="translate(4 4)"><path d="m144.66 0c2.396916 0 4.34 1.94308419 4.34 4.34v26.66c0 17.1208272-13.879173 31-31 31s-31-13.8791728-31-31c0-16.7317175 13.25547-30.3674541 29.837819-30.97861789l1.162181-.02138211z" fill="#1ee7e7"/><path d="m181.233333 0h47.533334c3.994859 0 7.233333 3.23847364 7.233333 7.23333333v47.53333337c0 3.9948597-3.238474 7.2333333-7.233333 7.2333333h-47.533334c-3.994859 0-7.233333-3.2384736-7.233333-7.2333333v-47.53333337c0-3.99485969 3.238474-7.23333333 7.233333-7.23333333z" fill="#0080ff"/><circle cx="31" cy="31" fill="#6f38ff" r="31"/><path d="m144.66 164c2.396916 0 4.34 1.943084 4.34 4.34v26.66c0 17.120827-13.879173 31-31 31s-31-13.879173-31-31c0-16.731718 13.25547-30.367454 29.837819-30.978618l1.162181-.021382z" fill="#1ee7e7" transform="matrix(0 1 -1 0 313 77)"/><path d="m181.233333 164h47.533334c3.994859 0 7.233333 3.238474 7.233333 7.233333v47.533334c0 3.994859-3.238474 7.233333-7.233333 7.233333h-47.533334c-3.994859 0-7.233333-3.238474-7.233333-7.233333v-47.533334c0-3.994859 3.238474-7.233333 7.233333-7.233333z" fill="#0080ff"/><circle cx="31" cy="195" fill="#6f38ff" r="31"/><path d="m144.66 328c2.396916 0 4.34 1.943084 4.34 4.34v26.66c0 17.120827-13.879173 31-31 31s-31-13.879173-31-31c0-16.731718 13.25547-30.367454 29.837819-30.978618l1.162181-.021382z" fill="#1ee7e7" transform="matrix(0 -1 1 0 -241 477)"/><path d="m181.233333 328h47.533334c3.994859 0 7.233333 3.238474 7.233333 7.233333v47.533334c0 3.994859-3.238474 7.233333-7.233333 7.233333h-47.533334c-3.994859 0-7.233333-3.238474-7.233333-7.233333v-47.533334c0-3.994859 3.238474-7.233333 7.233333-7.233333z" fill="#0080ff"/><circle cx="31" cy="359" fill="#6f38ff" r="31"/><path d="m57.66 82c2.3969158 0 4.34 1.9430842 4.34 4.34v26.66c0 17.120827-13.8791728 31-31 31s-31-13.879173-31-31c0-16.7317175 13.2554703-30.3674541 29.837819-30.9786179l1.162181-.0213821z" fill="#1ee7e7" transform="matrix(-1 0 0 1 62 0)"/><circle cx="205" cy="113" fill="#ed58ed" r="31" transform="matrix(-1 0 0 1 410 0)"/><circle cx="118" cy="113" fill="#6f38ff" r="31" transform="matrix(-1 0 0 1 236 0)"/><path d="m57.66 246c2.3969158 0 4.34 1.943084 4.34 4.34v26.66c0 17.120827-13.8791728 31-31 31s-31-13.879173-31-31c0-16.731718 13.2554703-30.367454 29.837819-30.978618l1.162181-.021382z" fill="#1ee7e7" transform="matrix(0 1 1 0 -246 246)"/><circle cx="205" cy="277" fill="#ed58ed" r="31" transform="matrix(-1 0 0 1 410 0)"/><circle cx="118" cy="277" fill="#6f38ff" r="31" transform="matrix(-1 0 0 1 236 0)"/><path d="m57.66 410c2.3969158 0 4.34 1.943084 4.34 4.34v26.66c0 17.120827-13.8791728 31-31 31s-31-13.879173-31-31c0-16.731718 13.2554703-30.367454 29.837819-30.978618l1.162181-.021382z" fill="#1ee7e7" transform="matrix(1 0 0 -1 0 882)"/><circle cx="205" cy="441" fill="#ed58ed" r="31" transform="matrix(-1 0 0 1 410 0)"/><circle cx="118" cy="441" fill="#6f38ff" r="31" transform="matrix(1 0 0 -1 0 882)"/><path d="m492.66 0c2.396916 0 4.34 1.94308419 4.34 4.34v26.66c0 17.1208272-13.879173 31-31 31s-31-13.8791728-31-31c0-16.7317175 13.25547-30.3674541 29.837819-30.97861789l1.162181-.02138211z" fill="#1ee7e7" transform="matrix(0 1 -1 0 497 -435)"/><path d="m529.233333 0h47.533334c3.994859 0 7.233333 3.23847364 7.233333 7.23333333v47.53333337c0 3.9948597-3.238474 7.2333333-7.233333 7.2333333h-47.533334c-3.994859 0-7.233333-3.2384736-7.233333-7.2333333v-47.53333337c0-3.99485969 3.238474-7.23333333 7.233333-7.23333333z" fill="#0080ff"/><circle cx="292" cy="31" fill="#ed58ed" r="31"/><circle cx="379" cy="31" fill="#6f38ff" r="31"/><path d="m492.66 164c2.396916 0 4.34 1.943084 4.34 4.34v26.66c0 17.120827-13.879173 31-31 31s-31-13.879173-31-31c0-16.731718 13.25547-30.367454 29.837819-30.978618l1.162181-.021382z" fill="#1ee7e7" transform="matrix(0 -1 1 0 271 661)"/><path d="m529.233333 164h47.533334c3.994859 0 7.233333 3.238474 7.233333 7.233333v47.533334c0 3.994859-3.238474 7.233333-7.233333 7.233333h-47.533334c-3.994859 0-7.233333-3.238474-7.233333-7.233333v-47.533334c0-3.994859 3.238474-7.233333 7.233333-7.233333z" fill="#0080ff"/><circle cx="292" cy="195" fill="#ed58ed" r="31"/><circle cx="379" cy="195" fill="#6f38ff" r="31"/><path d="m492.66 328c2.396916 0 4.34 1.943084 4.34 4.34v26.66c0 17.120827-13.879173 31-31 31s-31-13.879173-31-31c0-16.731718 13.25547-30.367454 29.837819-30.978618l1.162181-.021382z" fill="#1ee7e7"/><path d="m529.233333 328h47.533334c3.994859 0 7.233333 3.238474 7.233333 7.233333v47.533334c0 3.994859-3.238474 7.233333-7.233333 7.233333h-47.533334c-3.994859 0-7.233333-3.238474-7.233333-7.233333v-47.533334c0-3.994859 3.238474-7.233333 7.233333-7.233333z" fill="#0080ff"/><circle cx="292" cy="359" fill="#ed58ed" r="31"/><circle cx="379" cy="359" fill="#6f38ff" r="31"/><path d="m405.66 82c2.396916 0 4.34 1.9430842 4.34 4.34v26.66c0 17.120827-13.879173 31-31 31s-31-13.879173-31-31c0-16.7317175 13.25547-30.3674541 29.837819-30.9786179l1.162181-.0213821z" fill="#1ee7e7" transform="matrix(0 1 1 0 266 -266)"/><path d="m268.233333 82h47.533334c3.994859 0 7.233333 3.2384736 7.233333 7.2333333v47.5333337c0 3.994859-3.238474 7.233333-7.233333 7.233333h-47.533334c-3.994859 0-7.233333-3.238474-7.233333-7.233333v-47.5333337c0-3.9948597 3.238474-7.2333333 7.233333-7.2333333z" fill="#0080ff" transform="matrix(-1 0 0 1 584 0)"/><circle cx="553" cy="113" fill="#ed58ed" r="31" transform="matrix(-1 0 0 1 1106 0)"/><circle cx="466" cy="113" fill="#6f38ff" r="31" transform="matrix(-1 0 0 1 932 0)"/><path d="m405.66 246c2.396916 0 4.34 1.943084 4.34 4.34v26.66c0 17.120827-13.879173 31-31 31s-31-13.879173-31-31c0-16.731718 13.25547-30.367454 29.837819-30.978618l1.162181-.021382z" fill="#1ee7e7" transform="matrix(-1 0 0 1 758 0)"/><path d="m268.233333 246h47.533334c3.994859 0 7.233333 3.238474 7.233333 7.233333v47.533334c0 3.994859-3.238474 7.233333-7.233333 7.233333h-47.533334c-3.994859 0-7.233333-3.238474-7.233333-7.233333v-47.533334c0-3.994859 3.238474-7.233333 7.233333-7.233333z" fill="#0080ff" transform="matrix(-1 0 0 1 584 0)"/><circle cx="553" cy="277" fill="#ed58ed" r="31" transform="matrix(-1 0 0 1 1106 0)"/><circle cx="466" cy="277" fill="#6f38ff" r="31" transform="matrix(-1 0 0 1 932 0)"/><path d="m405.66 410c2.396916 0 4.34 1.943084 4.34 4.34v26.66c0 17.120827-13.879173 31-31 31s-31-13.879173-31-31c0-16.731718 13.25547-30.367454 29.837819-30.978618l1.162181-.021382z" fill="#1ee7e7" transform="matrix(0 1 1 0 -62 62)"/><path d="m268.233333 410h47.533334c3.994859 0 7.233333 3.238474 7.233333 7.233333v47.533334c0 3.994859-3.238474 7.233333-7.233333 7.233333h-47.533334c-3.994859 0-7.233333-3.238474-7.233333-7.233333v-47.533334c0-3.994859 3.238474-7.233333 7.233333-7.233333z" fill="#0080ff" transform="matrix(-1 0 0 1 584 0)"/><circle cx="553" cy="441" fill="#ed58ed" r="31" transform="matrix(-1 0 0 1 1106 0)"/><circle cx="466" cy="441" fill="#6f38ff" r="31" transform="matrix(-1 0 0 1 932 0)"/><path d="m840.66 0c2.396916 0 4.34 1.94308419 4.34 4.34v26.66c0 17.1208272-13.879173 31-31 31s-31-13.8791728-31-31c0-16.7317175 13.25547-30.3674541 29.837819-30.97861789l1.162181-.02138211z" fill="#1ee7e7" transform="matrix(-1 0 0 -1 1628 62)"/><path d="m877.233333 0h47.533334c3.994859 0 7.233333 3.23847364 7.233333 7.23333333v47.53333337c0 3.9948597-3.238474 7.2333333-7.233333 7.2333333h-47.533334c-3.994859 0-7.233333-3.2384736-7.233333-7.2333333v-47.53333337c0-3.99485969 3.238474-7.23333333 7.233333-7.23333333z" fill="#0080ff"/><circle cx="640" cy="31" fill="#ed58ed" r="31"/><circle cx="727" cy="31" fill="#6f38ff" r="31"/><path d="m840.66 164c2.396916 0 4.34 1.943084 4.34 4.34v26.66c0 17.120827-13.879173 31-31 31s-31-13.879173-31-31c0-16.731718 13.25547-30.367454 29.837819-30.978618l1.162181-.021382z" fill="#1ee7e7" transform="matrix(0 1 -1 0 1009 -619)"/><path d="m877.233333 164h47.533334c3.994859 0 7.233333 3.238474 7.233333 7.233333v47.533334c0 3.994859-3.238474 7.233333-7.233333 7.233333h-47.533334c-3.994859 0-7.233333-3.238474-7.233333-7.233333v-47.533334c0-3.994859 3.238474-7.233333 7.233333-7.233333z" fill="#0080ff"/><circle cx="640" cy="195" fill="#ed58ed" r="31"/><circle cx="727" cy="195" fill="#6f38ff" r="31"/><path d="m840.66 328c2.396916 0 4.34 1.943084 4.34 4.34v26.66c0 17.120827-13.879173 31-31 31s-31-13.879173-31-31c0-16.731718 13.25547-30.367454 29.837819-30.978618l1.162181-.021382z" fill="#1ee7e7"/><path d="m877.233333 328h47.533334c3.994859 0 7.233333 3.238474 7.233333 7.233333v47.533334c0 3.994859-3.238474 7.233333-7.233333 7.233333h-47.533334c-3.994859 0-7.233333-3.238474-7.233333-7.233333v-47.533334c0-3.994859 3.238474-7.233333 7.233333-7.233333z" fill="#0080ff"/><circle cx="640" cy="359" fill="#ed58ed" r="31"/><circle cx="727" cy="359" fill="#6f38ff" r="31"/><path d="m1188.66 328c2.39692 0 4.34 1.943084 4.34 4.34v26.66c0 17.120827-13.87917 31-31 31s-31-13.879173-31-31c0-16.731718 13.25547-30.367454 29.83782-30.978618l1.16218-.021382z" fill="#1ee7e7"/><circle cx="988" cy="359" fill="#ed58ed" r="31"/><circle cx="1075" cy="359" fill="#6f38ff" r="31"/><path d="m1188.66 0c2.39692 0 4.34 1.94308419 4.34 4.34v26.66c0 17.1208272-13.87917 31-31 31s-31-13.8791728-31-31c0-16.7317175 13.25547-30.3674541 29.83782-30.97861789l1.16218-.02138211z" fill="#1ee7e7"/><circle cx="988" cy="31" fill="#ed58ed" r="31"/><circle cx="1075" cy="31" fill="#6f38ff" r="31"/><path d="m1188.66 164c2.39692 0 4.34 1.943084 4.34 4.34v26.66c0 17.120827-13.87917 31-31 31s-31-13.879173-31-31c0-16.731718 13.25547-30.367454 29.83782-30.978618l1.16218-.021382z" fill="#1ee7e7" transform="matrix(-1 0 0 -1 2324 390)"/><circle cx="988" cy="195" fill="#ed58ed" r="31"/><circle cx="1075" cy="195" fill="#6f38ff" r="31"/><path d="m753.66 82c2.396916 0 4.34 1.9430842 4.34 4.34v26.66c0 17.120827-13.879173 31-31 31s-31-13.879173-31-31c0-16.7317175 13.25547-30.3674541 29.837819-30.9786179l1.162181-.0213821z" fill="#1ee7e7" transform="matrix(-1 0 0 1 1454 0)"/><path d="m616.233333 82h47.533334c3.994859 0 7.233333 3.2384736 7.233333 7.2333333v47.5333337c0 3.994859-3.238474 7.233333-7.233333 7.233333h-47.533334c-3.994859 0-7.233333-3.238474-7.233333-7.233333v-47.5333337c0-3.9948597 3.238474-7.2333333 7.233333-7.2333333z" fill="#0080ff" transform="matrix(-1 0 0 1 1280 0)"/><circle cx="901" cy="113" fill="#ed58ed" r="31" transform="matrix(-1 0 0 1 1802 0)"/><circle cx="814" cy="113" fill="#6f38ff" r="31" transform="matrix(-1 0 0 1 1628 0)"/><path d="m753.66 246c2.396916 0 4.34 1.943084 4.34 4.34v26.66c0 17.120827-13.879173 31-31 31s-31-13.879173-31-31c0-16.731718 13.25547-30.367454 29.837819-30.978618l1.162181-.021382z" fill="#1ee7e7" transform="matrix(0 -1 -1 0 1004 1004)"/><path d="m616.233333 246h47.533334c3.994859 0 7.233333 3.238474 7.233333 7.233333v47.533334c0 3.994859-3.238474 7.233333-7.233333 7.233333h-47.533334c-3.994859 0-7.233333-3.238474-7.233333-7.233333v-47.533334c0-3.994859 3.238474-7.233333 7.233333-7.233333z" fill="#0080ff" transform="matrix(-1 0 0 1 1280 0)"/><circle cx="901" cy="277" fill="#ed58ed" r="31" transform="matrix(-1 0 0 1 1802 0)"/><circle cx="814" cy="277" fill="#6f38ff" r="31" transform="matrix(-1 0 0 1 1628 0)"/><path d="m1101.66 246c2.39692 0 4.34 1.943084 4.34 4.34v26.66c0 17.120827-13.87917 31-31 31s-31-13.879173-31-31c0-16.731718 13.25547-30.367454 29.83782-30.978618l1.16218-.021382z" fill="#1ee7e7" transform="matrix(0 -1 -1 0 1352 1352)"/><path d="m964.233333 246h47.533337c3.99486 0 7.23333 3.238474 7.23333 7.233333v47.533334c0 3.994859-3.23847 7.233333-7.23333 7.233333h-47.533337c-3.994859 0-7.233333-3.238474-7.233333-7.233333v-47.533334c0-3.994859 3.238474-7.233333 7.233333-7.233333z" fill="#0080ff" transform="matrix(-1 0 0 1 1976 0)"/><circle cx="1162" cy="277" fill="#6f38ff" r="31" transform="matrix(-1 0 0 1 2324 0)"/><path d="m753.66 410c2.396916 0 4.34 1.943084 4.34 4.34v26.66c0 17.120827-13.879173 31-31 31s-31-13.879173-31-31c0-16.731718 13.25547-30.367454 29.837819-30.978618l1.162181-.021382z" fill="#1ee7e7" transform="matrix(0 1 1 0 286 -286)"/><path d="m616.233333 410h47.533334c3.994859 0 7.233333 3.238474 7.233333 7.233333v47.533334c0 3.994859-3.238474 7.233333-7.233333 7.233333h-47.533334c-3.994859 0-7.233333-3.238474-7.233333-7.233333v-47.533334c0-3.994859 3.238474-7.233333 7.233333-7.233333z" fill="#0080ff" transform="matrix(-1 0 0 1 1280 0)"/><circle cx="901" cy="441" fill="#ed58ed" r="31" transform="matrix(-1 0 0 1 1802 0)"/><circle cx="814" cy="441" fill="#6f38ff" r="31" transform="matrix(-1 0 0 1 1628 0)"/><path d="m1101.66 410c2.39692 0 4.34 1.943084 4.34 4.34v26.66c0 17.120827-13.87917 31-31 31s-31-13.879173-31-31c0-16.731718 13.25547-30.367454 29.83782-30.978618l1.16218-.021382z" fill="#1ee7e7" transform="matrix(0 1 1 0 634 -634)"/><path d="m964.233333 410h47.533337c3.99486 0 7.23333 3.238474 7.23333 7.233333v47.533334c0 3.994859-3.23847 7.233333-7.23333 7.233333h-47.533337c-3.994859 0-7.233333-3.238474-7.233333-7.233333v-47.533334c0-3.994859 3.238474-7.233333 7.233333-7.233333z" fill="#0080ff" transform="matrix(-1 0 0 1 1976 0)"/><circle cx="1162" cy="441" fill="#6f38ff" r="31" transform="matrix(-1 0 0 1 2324 0)"/><path d="m1101.66 82c2.39692 0 4.34 1.9430842 4.34 4.34v26.66c0 17.120827-13.87917 31-31 31s-31-13.879173-31-31c0-16.7317175 13.25547-30.3674541 29.83782-30.9786179l1.16218-.0213821z" fill="#1ee7e7" transform="matrix(0 1 1 0 962 -962)"/><path d="m964.233333 82h47.533337c3.99486 0 7.23333 3.2384736 7.23333 7.2333333v47.5333337c0 3.994859-3.23847 7.233333-7.23333 7.233333h-47.533337c-3.994859 0-7.233333-3.238474-7.233333-7.233333v-47.5333337c0-3.9948597 3.238474-7.2333333 7.233333-7.2333333z" fill="#0080ff" transform="matrix(-1 0 0 1 1976 0)"/><circle cx="1162" cy="113" fill="#6f38ff" r="31" transform="matrix(-1 0 0 1 2324 0)"/></g></g></svg>