<svg height="120" viewBox="0 0 120 120" width="120" xmlns="http://www.w3.org/2000/svg"><g fill="none" fill-rule="evenodd"><path d="m14 0h92c7.731986 0 14 6.2680135 14 14v92c0 7.731986-6.268014 14-14 14h-92c-7.7319865 0-14-6.268014-14-14v-92c0-7.7319865 6.2680135-14 14-14z" fill="#0080ff"/><path d="m64.727955 0c.6754221 0 1.3508442.29598309 1.8386491.84566596l12.6829269 14.16490484c.3752345.422833.6003752.8879493.6754221 1.3530656.0375234.0845666.0375234.1691332.0375234.2536998v.0422833c0 .0845665 0 .1691331.0375235.2536997v.5073996c0 .0845666 0 .1268499-.0375235.2114165v.0845666c0 .0845666-.0375234.1691332-.0750469.2959831v.0422833c-.0375234.0845666-.0750469.2114165-.1125703.2959831v.0422833c-.0375235.0845666-.0750469.1691332-.1125704.2536998 0 .0422833-.0375234.0422833-.0375234.0845666-.0375235.0845666-.0750469.1268499-.1125704.2114164-.0375234.0422833-.0375234.0845666-.0750469.0845666-.0375234.0422833-.0375234.0845666-.0750469.0845666-.0375234.0845666-.1125703.1268499-.1876172.2114165 0 0-.0375235.0422833-.0375235.0422833-.0375235.0422833-.0750469.0845666-.1125704.1268499-.0375234 0-.0375234.0422833-.0750469.0422833-.0750469.0422833-.1125703.0845666-.1876172.1268499-.0375235.0422833-.0750469.0422833-.1125704.0845666-.0375234 0-.0750469.0422833-.1125703.0422833-.0750469.0422833-.1125704.0422833-.1876173.0845666h-.0375234c-.075047.0422833-.1500939.0422833-.2626642.0845666h-.0750469c-.0750469 0-.1500938.0422833-.2251407.0422833h-75.49718577c-.0750469 0-.15009381-.0422833-.22514071-.0422833h-.07504691c-.0750469-.0422833-.15009381-.0422833-.26266416-.0845666 0 0-.03752346 0-.03752346-.0422833-.0750469-.0422833-.11257035-.0422833-.18761726-.0845666-.03752345 0-.0750469-.0422833-.11257035-.0422833-.03752345-.0422833-.07504691-.0422833-.11257036-.0845666-.0750469-.0422833-.11257036-.0845666-.18761726-.1268499-.03752345 0-.03752345-.0422833-.0750469-.0422833-.03752346-.0422833-.07504691-.0845666-.11257036-.1268499 0 0-.03752345-.0422833-.03752345-.0422833-.07504691-.0845666-.11257036-.1268499-.18761726-.2114165-.03752345-.0422833-.03752345-.0845666-.07504691-.0845666-.03752345-.0422833-.03752345-.0845666-.0750469-.0845666-.03752345-.0845665-.07504691-.1268498-.11257036-.2114164 0-.0422833-.03752345-.0422833-.03752345-.0845666l-.11257036-.2536998v-.0422833c-.03752345-.0845666-.0750469-.1691332-.11257035-.2959831v-.0422833c-.03752346-.0845666-.03752346-.1691332-.07504691-.2959831v-.0845666c0-.0845666-.03752345-.1268499-.03752345-.2114165v-.5073996c0-.0845666 0-.1691332.03752345-.2536997v-.0422833c0-.0845666.03752345-.1691332.03752345-.2536998.11257036-.4651163.33771107-.9302326.67542214-1.3530656l12.68292686-14.12262154c.4878049-.54968287 1.1257035-.84566596 1.8386491-.84566596zm-24.727955 5c-3.8659932 0-7 1.34314575-7 3s3.1340068 3 7 3 7-1.34314575 7-3-3.1340068-3-7-3zm-39.99851014 15.901266c.03059891.0054087.03311882.0446718.06839757.0839348.0379925 0 .0379925.0422833.07598499.0845666.07598499.0845666.11397749.1268499.18996248.2114165 0 0 .03799249.0422833.03799249.0422833.0379925.0422833.07598499.0845666.11397749.1268499.03799249 0 .03799249.0422833.07598499.0422833.07598499.0422833.11397749.0845666.18996248.1268499.03799249.0422833.07598499.0422833.11397748.0845666.0379925 0 .07598499.0422833.11397749.0422833.07598499.0422833.11397748.0422833.18996247.0845666 0 .0422833.0379925.0422833.0379925.0422833.11397748.0422833.18996248.0422833.26594747.0845666h.07598499c.07598499 0 .15196998.0422833.22795497.0422833h76.44090058c.075985 0 .15197-.0422833.227955-.0422833h.0759849c.1139775-.0422833.1899625-.0422833.2659475-.0845666h.0379925c.075985-.0422833.1139775-.0422833.1899625-.0845666.0379925 0 .075985-.0422833.1139775-.0422833.0379925-.0422833.075985-.0422833.1139775-.0845666.0759849-.0422833.1139774-.0845666.1899624-.1268499.0379925 0 .0379925-.0422833.075985-.0422833.0379925-.0422833.075985-.0845666.1139775-.1268499 0 0 .0379925-.0422833.0379925-.0422833.075985-.0845666.15197-.1268499.1899625-.2114165.0379925 0 .0379925-.0422833.075985-.0845666.0379925 0 .0379925-.0422833.075985-.0845666l-.0060976.0073485v16.4152255c0 1.9117549-1.5497836 3.4615385-3.4615385 3.4615385h-73.07692304c-1.9117549 0-3.46153846-1.5497836-3.46153846-3.4615385zm67.49851014 5.098734c-.8284271 0-1.5.6715729-1.5 1.5s.6715729 1.5 1.5 1.5 1.5-.6715729 1.5-1.5-.6715729-1.5-1.5-1.5zm5 1c-.2761424 0-.5.2238576-.5.5s.2238576.5.5.5.5-.2238576.5-.5-.2238576-.5-.5-.5z" fill="#fff" transform="translate(20 38)"/></g></svg>