<svg xmlns="http://www.w3.org/2000/svg" width="1201" height="541"><linearGradient id="a" x1="0%" x2="96.334%" y1="50%" y2="50%"><stop offset="0" stop-color="#979dac"/><stop offset="1" stop-color="#1ee7e7"/></linearGradient><g fill="none" fill-rule="evenodd"><g stroke="#cae4e4"><path d="M0 135.5h284m-284 81h284m-284 81h284m-284 81h284m-284 81h284m-284 81h284"/><rect width="179" height="485" x="292.5" y="55.5" fill="#fff" rx="4"/><path d="M302 540.5h160"/></g><path fill="#e1e4eb" fill-rule="nonzero" d="M434 490c-5.523 0-10 4.477-10 10s4.477 10 10 10 10-4.477 10-10a10 10 0 00-10-10zm-5 8.75a1.25 1.25 0 112.5 0 1.25 1.25 0 01-2.5 0zm6.667 6.25a1.667 1.667 0 00-3.334 0h-1.666a3.333 3.333 0 116.666 0zm2.083-5a1.25 1.25 0 110-2.5 1.25 1.25 0 010 2.5zM408 490c-5.523 0-10 4.477-10 10s4.477 10 10 10 10-4.477 10-10a10 10 0 00-10-10zm-5 8.75a1.25 1.25 0 112.5 0 1.25 1.25 0 01-2.5 0zm6.667 6.25a1.667 1.667 0 00-3.334 0h-1.666a3.333 3.333 0 116.666 0zm2.083-5a1.25 1.25 0 110-2.5 1.25 1.25 0 010 2.5zM382 490c-5.523 0-10 4.477-10 10s4.477 10 10 10 10-4.477 10-10a10 10 0 00-10-10zm-5 8.75a1.25 1.25 0 112.5 0 1.25 1.25 0 01-2.5 0zm6.667 6.25a1.667 1.667 0 00-3.334 0h-1.666a3.333 3.333 0 116.666 0zm2.083-5a1.25 1.25 0 110-2.5 1.25 1.25 0 010 2.5zM356 490c-5.523 0-10 4.477-10 10s4.477 10 10 10 10-4.477 10-10a10 10 0 00-10-10zm-5 8.75a1.25 1.25 0 112.5 0 1.25 1.25 0 01-2.5 0zm6.667 6.25a1.667 1.667 0 00-3.334 0h-1.666a3.333 3.333 0 116.666 0zm2.083-5a1.25 1.25 0 110-2.5 1.25 1.25 0 010 2.5z"/><path fill="#38caca" d="M330 490c-5.523 0-10 4.477-10 10s4.477 10 10 10 10-4.477 10-10a10 10 0 00-10-10zm-5 8.75a1.25 1.25 0 112.5 0 1.25 1.25 0 01-2.5 0zm5 7.083a3.333 3.333 0 01-3.333-3.333h1.666a1.667 1.667 0 103.334 0h1.666a3.333 3.333 0 01-3.333 3.333zm3.75-5.833a1.25 1.25 0 110-2.5 1.25 1.25 0 010 2.5z"/><path stroke="#cae4e4" d="M302 459.5h160"/><path fill="#e1e4eb" fill-rule="nonzero" d="M434 409c-5.523 0-10 4.477-10 10s4.477 10 10 10 10-4.477 10-10a10 10 0 00-10-10zm-5 8.75a1.25 1.25 0 112.5 0 1.25 1.25 0 01-2.5 0zm6.667 6.25a1.667 1.667 0 00-3.334 0h-1.666a3.333 3.333 0 116.666 0zm2.083-5a1.25 1.25 0 110-2.5 1.25 1.25 0 010 2.5zM408 409c-5.523 0-10 4.477-10 10s4.477 10 10 10 10-4.477 10-10a10 10 0 00-10-10zm-5 8.75a1.25 1.25 0 112.5 0 1.25 1.25 0 01-2.5 0zm6.667 6.25a1.667 1.667 0 00-3.334 0h-1.666a3.333 3.333 0 116.666 0zm2.083-5a1.25 1.25 0 110-2.5 1.25 1.25 0 010 2.5zM382 409c-5.523 0-10 4.477-10 10s4.477 10 10 10 10-4.477 10-10a10 10 0 00-10-10zm-5 8.75a1.25 1.25 0 112.5 0 1.25 1.25 0 01-2.5 0zm6.667 6.25a1.667 1.667 0 00-3.334 0h-1.666a3.333 3.333 0 116.666 0zm2.083-5a1.25 1.25 0 110-2.5 1.25 1.25 0 010 2.5zM356 409c-5.523 0-10 4.477-10 10s4.477 10 10 10 10-4.477 10-10a10 10 0 00-10-10zm-5 8.75a1.25 1.25 0 112.5 0 1.25 1.25 0 01-2.5 0zm6.667 6.25a1.667 1.667 0 00-3.334 0h-1.666a3.333 3.333 0 116.666 0zm2.083-5a1.25 1.25 0 110-2.5 1.25 1.25 0 010 2.5z"/><path fill="#38caca" d="M330 409c-5.523 0-10 4.477-10 10s4.477 10 10 10 10-4.477 10-10a10 10 0 00-10-10zm-5 8.75a1.25 1.25 0 112.5 0 1.25 1.25 0 01-2.5 0zm5 7.083a3.333 3.333 0 01-3.333-3.333h1.666a1.667 1.667 0 103.334 0h1.666a3.333 3.333 0 01-3.333 3.333zm3.75-5.833a1.25 1.25 0 110-2.5 1.25 1.25 0 010 2.5z"/><path stroke="#cae4e4" d="M302 378.5h160"/><path fill="#e1e4eb" fill-rule="nonzero" d="M434 328c-5.523 0-10 4.477-10 10s4.477 10 10 10 10-4.477 10-10a10 10 0 00-10-10zm-5 8.75a1.25 1.25 0 112.5 0 1.25 1.25 0 01-2.5 0zm6.667 6.25a1.667 1.667 0 00-3.334 0h-1.666a3.333 3.333 0 116.666 0zm2.083-5a1.25 1.25 0 110-2.5 1.25 1.25 0 010 2.5zM408 328c-5.523 0-10 4.477-10 10s4.477 10 10 10 10-4.477 10-10a10 10 0 00-10-10zm-5 8.75a1.25 1.25 0 112.5 0 1.25 1.25 0 01-2.5 0zm6.667 6.25a1.667 1.667 0 00-3.334 0h-1.666a3.333 3.333 0 116.666 0zm2.083-5a1.25 1.25 0 110-2.5 1.25 1.25 0 010 2.5zM382 328c-5.523 0-10 4.477-10 10s4.477 10 10 10 10-4.477 10-10a10 10 0 00-10-10zm-5 8.75a1.25 1.25 0 112.5 0 1.25 1.25 0 01-2.5 0zm6.667 6.25a1.667 1.667 0 00-3.334 0h-1.666a3.333 3.333 0 116.666 0zm2.083-5a1.25 1.25 0 110-2.5 1.25 1.25 0 010 2.5zM356 328c-5.523 0-10 4.477-10 10s4.477 10 10 10 10-4.477 10-10a10 10 0 00-10-10zm-5 8.75a1.25 1.25 0 112.5 0 1.25 1.25 0 01-2.5 0zm6.667 6.25a1.667 1.667 0 00-3.334 0h-1.666a3.333 3.333 0 116.666 0zm2.083-5a1.25 1.25 0 110-2.5 1.25 1.25 0 010 2.5z"/><path fill="#38caca" d="M330 328c-5.523 0-10 4.477-10 10s4.477 10 10 10 10-4.477 10-10a10 10 0 00-10-10zm-5 8.75a1.25 1.25 0 112.5 0 1.25 1.25 0 01-2.5 0zm5 7.083a3.333 3.333 0 01-3.333-3.333h1.666a1.667 1.667 0 103.334 0h1.666a3.333 3.333 0 01-3.333 3.333zm3.75-5.833a1.25 1.25 0 110-2.5 1.25 1.25 0 010 2.5z"/><path stroke="#cae4e4" d="M302 297.5h160"/><path fill="#e1e4eb" fill-rule="nonzero" d="M434 247c-5.523 0-10 4.477-10 10s4.477 10 10 10 10-4.477 10-10a10 10 0 00-10-10zm-5 8.75a1.25 1.25 0 112.5 0 1.25 1.25 0 01-2.5 0zm6.667 6.25a1.667 1.667 0 00-3.334 0h-1.666a3.333 3.333 0 116.666 0zm2.083-5a1.25 1.25 0 110-2.5 1.25 1.25 0 010 2.5zM408 247c-5.523 0-10 4.477-10 10s4.477 10 10 10 10-4.477 10-10a10 10 0 00-10-10zm-5 8.75a1.25 1.25 0 112.5 0 1.25 1.25 0 01-2.5 0zm6.667 6.25a1.667 1.667 0 00-3.334 0h-1.666a3.333 3.333 0 116.666 0zm2.083-5a1.25 1.25 0 110-2.5 1.25 1.25 0 010 2.5zM382 247c-5.523 0-10 4.477-10 10s4.477 10 10 10 10-4.477 10-10a10 10 0 00-10-10zm-5 8.75a1.25 1.25 0 112.5 0 1.25 1.25 0 01-2.5 0zm6.667 6.25a1.667 1.667 0 00-3.334 0h-1.666a3.333 3.333 0 116.666 0zm2.083-5a1.25 1.25 0 110-2.5 1.25 1.25 0 010 2.5zM356 247c-5.523 0-10 4.477-10 10s4.477 10 10 10 10-4.477 10-10a10 10 0 00-10-10zm-5 8.75a1.25 1.25 0 112.5 0 1.25 1.25 0 01-2.5 0zm6.667 6.25a1.667 1.667 0 00-3.334 0h-1.666a3.333 3.333 0 116.666 0zm2.083-5a1.25 1.25 0 110-2.5 1.25 1.25 0 010 2.5z"/><path fill="#38caca" d="M330 247c-5.523 0-10 4.477-10 10s4.477 10 10 10 10-4.477 10-10a10 10 0 00-10-10zm-5 8.75a1.25 1.25 0 112.5 0 1.25 1.25 0 01-2.5 0zm5 7.083a3.333 3.333 0 01-3.333-3.333h1.666a1.667 1.667 0 103.334 0h1.666a3.333 3.333 0 01-3.333 3.333zm3.75-5.833a1.25 1.25 0 110-2.5 1.25 1.25 0 010 2.5z"/><path stroke="#cae4e4" d="M302 216.5h160"/><g fill="#38caca"><path d="M434 166c-5.523 0-10 4.477-10 10s4.477 10 10 10 10-4.477 10-10a10 10 0 00-10-10zm-5 8.75a1.25 1.25 0 112.5 0 1.25 1.25 0 01-2.5 0zm5 7.083a3.333 3.333 0 01-3.333-3.333h1.666a1.667 1.667 0 103.334 0h1.666a3.333 3.333 0 01-3.333 3.333zm3.75-5.833a1.25 1.25 0 110-2.5 1.25 1.25 0 010 2.5zM408 166c-5.523 0-10 4.477-10 10s4.477 10 10 10 10-4.477 10-10a10 10 0 00-10-10zm-5 8.75a1.25 1.25 0 112.5 0 1.25 1.25 0 01-2.5 0zm5 7.083a3.333 3.333 0 01-3.333-3.333h1.666a1.667 1.667 0 103.334 0h1.666a3.333 3.333 0 01-3.333 3.333zm3.75-5.833a1.25 1.25 0 110-2.5 1.25 1.25 0 010 2.5zM382 166c-5.523 0-10 4.477-10 10s4.477 10 10 10 10-4.477 10-10a10 10 0 00-10-10zm-5 8.75a1.25 1.25 0 112.5 0 1.25 1.25 0 01-2.5 0zm5 7.083a3.333 3.333 0 01-3.333-3.333h1.666a1.667 1.667 0 103.334 0h1.666a3.333 3.333 0 01-3.333 3.333zm3.75-5.833a1.25 1.25 0 110-2.5 1.25 1.25 0 010 2.5zM356 166c-5.523 0-10 4.477-10 10s4.477 10 10 10 10-4.477 10-10a10 10 0 00-10-10zm-5 8.75a1.25 1.25 0 112.5 0 1.25 1.25 0 01-2.5 0zm5 7.083a3.333 3.333 0 01-3.333-3.333h1.666a1.667 1.667 0 103.334 0h1.666a3.333 3.333 0 01-3.333 3.333zm3.75-5.833a1.25 1.25 0 110-2.5 1.25 1.25 0 010 2.5zM330 166c-5.523 0-10 4.477-10 10s4.477 10 10 10 10-4.477 10-10a10 10 0 00-10-10zm-5 8.75a1.25 1.25 0 112.5 0 1.25 1.25 0 01-2.5 0zm5 7.083a3.333 3.333 0 01-3.333-3.333h1.666a1.667 1.667 0 103.334 0h1.666a3.333 3.333 0 01-3.333 3.333zm3.75-5.833a1.25 1.25 0 110-2.5 1.25 1.25 0 010 2.5z"/></g><path stroke="#cae4e4" d="M292 135.5h180"/><path fill="#d3d9df" d="M296 55h172a4 4 0 014 4v76H292V59a4 4 0 014-4z"/><rect width="179" height="485" x="474.5" y="55.5" fill="#fff" stroke="#cae4e4" rx="4"/><path stroke="#cae4e4" d="M484 540.5h160"/><path fill="#e1e4eb" fill-rule="nonzero" d="M616 490c-5.523 0-10 4.477-10 10s4.477 10 10 10 10-4.477 10-10a10 10 0 00-10-10zm-5 8.75a1.25 1.25 0 112.5 0 1.25 1.25 0 01-2.5 0zm6.667 6.25a1.667 1.667 0 00-3.334 0h-1.666a3.333 3.333 0 116.666 0zm2.083-5a1.25 1.25 0 110-2.5 1.25 1.25 0 010 2.5zM590 490c-5.523 0-10 4.477-10 10s4.477 10 10 10 10-4.477 10-10a10 10 0 00-10-10zm-5 8.75a1.25 1.25 0 112.5 0 1.25 1.25 0 01-2.5 0zm6.667 6.25a1.667 1.667 0 00-3.334 0h-1.666a3.333 3.333 0 116.666 0zm2.083-5a1.25 1.25 0 110-2.5 1.25 1.25 0 010 2.5zM564 490c-5.523 0-10 4.477-10 10s4.477 10 10 10 10-4.477 10-10a10 10 0 00-10-10zm-5 8.75a1.25 1.25 0 112.5 0 1.25 1.25 0 01-2.5 0zm6.667 6.25a1.667 1.667 0 00-3.334 0h-1.666a3.333 3.333 0 116.666 0zm2.083-5a1.25 1.25 0 110-2.5 1.25 1.25 0 010 2.5zM538 490c-5.523 0-10 4.477-10 10s4.477 10 10 10 10-4.477 10-10a10 10 0 00-10-10zm-5 8.75a1.25 1.25 0 112.5 0 1.25 1.25 0 01-2.5 0zm6.667 6.25a1.667 1.667 0 00-3.334 0h-1.666a3.333 3.333 0 116.666 0zm2.083-5a1.25 1.25 0 110-2.5 1.25 1.25 0 010 2.5z"/><path fill="#38caca" d="M512 490c-5.523 0-10 4.477-10 10s4.477 10 10 10 10-4.477 10-10a10 10 0 00-10-10zm-5 8.75a1.25 1.25 0 112.5 0 1.25 1.25 0 01-2.5 0zm5 7.083a3.333 3.333 0 01-3.333-3.333h1.666a1.667 1.667 0 103.334 0h1.666a3.333 3.333 0 01-3.333 3.333zm3.75-5.833a1.25 1.25 0 110-2.5 1.25 1.25 0 010 2.5z"/><path stroke="#cae4e4" d="M484 459.5h160"/><path fill="#e1e4eb" fill-rule="nonzero" d="M616 409c-5.523 0-10 4.477-10 10s4.477 10 10 10 10-4.477 10-10a10 10 0 00-10-10zm-5 8.75a1.25 1.25 0 112.5 0 1.25 1.25 0 01-2.5 0zm6.667 6.25a1.667 1.667 0 00-3.334 0h-1.666a3.333 3.333 0 116.666 0zm2.083-5a1.25 1.25 0 110-2.5 1.25 1.25 0 010 2.5zM590 409c-5.523 0-10 4.477-10 10s4.477 10 10 10 10-4.477 10-10a10 10 0 00-10-10zm-5 8.75a1.25 1.25 0 112.5 0 1.25 1.25 0 01-2.5 0zm6.667 6.25a1.667 1.667 0 00-3.334 0h-1.666a3.333 3.333 0 116.666 0zm2.083-5a1.25 1.25 0 110-2.5 1.25 1.25 0 010 2.5zM564 409c-5.523 0-10 4.477-10 10s4.477 10 10 10 10-4.477 10-10a10 10 0 00-10-10zm-5 8.75a1.25 1.25 0 112.5 0 1.25 1.25 0 01-2.5 0zm6.667 6.25a1.667 1.667 0 00-3.334 0h-1.666a3.333 3.333 0 116.666 0zm2.083-5a1.25 1.25 0 110-2.5 1.25 1.25 0 010 2.5z"/><path fill="#38caca" d="M538 409c-5.523 0-10 4.477-10 10s4.477 10 10 10 10-4.477 10-10a10 10 0 00-10-10zm-5 8.75a1.25 1.25 0 112.5 0 1.25 1.25 0 01-2.5 0zm5 7.083a3.333 3.333 0 01-3.333-3.333h1.666a1.667 1.667 0 103.334 0h1.666a3.333 3.333 0 01-3.333 3.333zm3.75-5.833a1.25 1.25 0 110-2.5 1.25 1.25 0 010 2.5zM512 409c-5.523 0-10 4.477-10 10s4.477 10 10 10 10-4.477 10-10a10 10 0 00-10-10zm-5 8.75a1.25 1.25 0 112.5 0 1.25 1.25 0 01-2.5 0zm5 7.083a3.333 3.333 0 01-3.333-3.333h1.666a1.667 1.667 0 103.334 0h1.666a3.333 3.333 0 01-3.333 3.333zm3.75-5.833a1.25 1.25 0 110-2.5 1.25 1.25 0 010 2.5z"/><path stroke="#cae4e4" d="M484 378.5h160"/><path fill="#e1e4eb" fill-rule="nonzero" d="M616 328c-5.523 0-10 4.477-10 10s4.477 10 10 10 10-4.477 10-10a10 10 0 00-10-10zm-5 8.75a1.25 1.25 0 112.5 0 1.25 1.25 0 01-2.5 0zm6.667 6.25a1.667 1.667 0 00-3.334 0h-1.666a3.333 3.333 0 116.666 0zm2.083-5a1.25 1.25 0 110-2.5 1.25 1.25 0 010 2.5zM590 328c-5.523 0-10 4.477-10 10s4.477 10 10 10 10-4.477 10-10a10 10 0 00-10-10zm-5 8.75a1.25 1.25 0 112.5 0 1.25 1.25 0 01-2.5 0zm6.667 6.25a1.667 1.667 0 00-3.334 0h-1.666a3.333 3.333 0 116.666 0zm2.083-5a1.25 1.25 0 110-2.5 1.25 1.25 0 010 2.5zM564 328c-5.523 0-10 4.477-10 10s4.477 10 10 10 10-4.477 10-10a10 10 0 00-10-10zm-5 8.75a1.25 1.25 0 112.5 0 1.25 1.25 0 01-2.5 0zm6.667 6.25a1.667 1.667 0 00-3.334 0h-1.666a3.333 3.333 0 116.666 0zm2.083-5a1.25 1.25 0 110-2.5 1.25 1.25 0 010 2.5z"/><path fill="#38caca" d="M538 328c-5.523 0-10 4.477-10 10s4.477 10 10 10 10-4.477 10-10a10 10 0 00-10-10zm-5 8.75a1.25 1.25 0 112.5 0 1.25 1.25 0 01-2.5 0zm5 7.083a3.333 3.333 0 01-3.333-3.333h1.666a1.667 1.667 0 103.334 0h1.666a3.333 3.333 0 01-3.333 3.333zm3.75-5.833a1.25 1.25 0 110-2.5 1.25 1.25 0 010 2.5zM512 328c-5.523 0-10 4.477-10 10s4.477 10 10 10 10-4.477 10-10a10 10 0 00-10-10zm-5 8.75a1.25 1.25 0 112.5 0 1.25 1.25 0 01-2.5 0zm5 7.083a3.333 3.333 0 01-3.333-3.333h1.666a1.667 1.667 0 103.334 0h1.666a3.333 3.333 0 01-3.333 3.333zm3.75-5.833a1.25 1.25 0 110-2.5 1.25 1.25 0 010 2.5z"/><path stroke="#cae4e4" d="M484 297.5h160"/><path fill="#e1e4eb" fill-rule="nonzero" d="M616 247c-5.523 0-10 4.477-10 10s4.477 10 10 10 10-4.477 10-10a10 10 0 00-10-10zm-5 8.75a1.25 1.25 0 112.5 0 1.25 1.25 0 01-2.5 0zm6.667 6.25a1.667 1.667 0 00-3.334 0h-1.666a3.333 3.333 0 116.666 0zm2.083-5a1.25 1.25 0 110-2.5 1.25 1.25 0 010 2.5zM590 247c-5.523 0-10 4.477-10 10s4.477 10 10 10 10-4.477 10-10a10 10 0 00-10-10zm-5 8.75a1.25 1.25 0 112.5 0 1.25 1.25 0 01-2.5 0zm6.667 6.25a1.667 1.667 0 00-3.334 0h-1.666a3.333 3.333 0 116.666 0zm2.083-5a1.25 1.25 0 110-2.5 1.25 1.25 0 010 2.5zM564 247c-5.523 0-10 4.477-10 10s4.477 10 10 10 10-4.477 10-10a10 10 0 00-10-10zm-5 8.75a1.25 1.25 0 112.5 0 1.25 1.25 0 01-2.5 0zm6.667 6.25a1.667 1.667 0 00-3.334 0h-1.666a3.333 3.333 0 116.666 0zm2.083-5a1.25 1.25 0 110-2.5 1.25 1.25 0 010 2.5z"/><path fill="#38caca" d="M538 247c-5.523 0-10 4.477-10 10s4.477 10 10 10 10-4.477 10-10a10 10 0 00-10-10zm-5 8.75a1.25 1.25 0 112.5 0 1.25 1.25 0 01-2.5 0zm5 7.083a3.333 3.333 0 01-3.333-3.333h1.666a1.667 1.667 0 103.334 0h1.666a3.333 3.333 0 01-3.333 3.333zm3.75-5.833a1.25 1.25 0 110-2.5 1.25 1.25 0 010 2.5zM512 247c-5.523 0-10 4.477-10 10s4.477 10 10 10 10-4.477 10-10a10 10 0 00-10-10zm-5 8.75a1.25 1.25 0 112.5 0 1.25 1.25 0 01-2.5 0zm5 7.083a3.333 3.333 0 01-3.333-3.333h1.666a1.667 1.667 0 103.334 0h1.666a3.333 3.333 0 01-3.333 3.333zm3.75-5.833a1.25 1.25 0 110-2.5 1.25 1.25 0 010 2.5z"/><path stroke="#cae4e4" d="M484 216.5h160"/><path fill="#e1e4eb" fill-rule="nonzero" d="M616 166c-5.523 0-10 4.477-10 10s4.477 10 10 10 10-4.477 10-10a10 10 0 00-10-10zm-5 8.75a1.25 1.25 0 112.5 0 1.25 1.25 0 01-2.5 0zm6.667 6.25a1.667 1.667 0 00-3.334 0h-1.666a3.333 3.333 0 116.666 0zm2.083-5a1.25 1.25 0 110-2.5 1.25 1.25 0 010 2.5zM590 166c-5.523 0-10 4.477-10 10s4.477 10 10 10 10-4.477 10-10a10 10 0 00-10-10zm-5 8.75a1.25 1.25 0 112.5 0 1.25 1.25 0 01-2.5 0zm6.667 6.25a1.667 1.667 0 00-3.334 0h-1.666a3.333 3.333 0 116.666 0zm2.083-5a1.25 1.25 0 110-2.5 1.25 1.25 0 010 2.5z"/><path fill="#38caca" d="M564 166c-5.523 0-10 4.477-10 10s4.477 10 10 10 10-4.477 10-10a10 10 0 00-10-10zm-5 8.75a1.25 1.25 0 112.5 0 1.25 1.25 0 01-2.5 0zm5 7.083a3.333 3.333 0 01-3.333-3.333h1.666a1.667 1.667 0 103.334 0h1.666a3.333 3.333 0 01-3.333 3.333zm3.75-5.833a1.25 1.25 0 110-2.5 1.25 1.25 0 010 2.5zM538 166c-5.523 0-10 4.477-10 10s4.477 10 10 10 10-4.477 10-10a10 10 0 00-10-10zm-5 8.75a1.25 1.25 0 112.5 0 1.25 1.25 0 01-2.5 0zm5 7.083a3.333 3.333 0 01-3.333-3.333h1.666a1.667 1.667 0 103.334 0h1.666a3.333 3.333 0 01-3.333 3.333zm3.75-5.833a1.25 1.25 0 110-2.5 1.25 1.25 0 010 2.5zM512 166c-5.523 0-10 4.477-10 10s4.477 10 10 10 10-4.477 10-10a10 10 0 00-10-10zm-5 8.75a1.25 1.25 0 112.5 0 1.25 1.25 0 01-2.5 0zm5 7.083a3.333 3.333 0 01-3.333-3.333h1.666a1.667 1.667 0 103.334 0h1.666a3.333 3.333 0 01-3.333 3.333zm3.75-5.833a1.25 1.25 0 110-2.5 1.25 1.25 0 010 2.5z"/><path stroke="#cae4e4" d="M474 135.5h180"/><path fill="#aedce1" d="M478 55h172a4 4 0 014 4v76H474V59a4 4 0 014-4z"/><rect width="179" height="485" x="656.5" y="55.5" fill="#fff" stroke="#cae4e4" rx="4"/><path stroke="#cae4e4" d="M666 540.5h160"/><path fill="#e1e4eb" fill-rule="nonzero" d="M798 490c-5.523 0-10 4.477-10 10s4.477 10 10 10 10-4.477 10-10a10 10 0 00-10-10zm-5 8.75a1.25 1.25 0 112.5 0 1.25 1.25 0 01-2.5 0zm6.667 6.25a1.667 1.667 0 00-3.334 0h-1.666a3.333 3.333 0 116.666 0zm2.083-5a1.25 1.25 0 110-2.5 1.25 1.25 0 010 2.5zM772 490c-5.523 0-10 4.477-10 10s4.477 10 10 10 10-4.477 10-10a10 10 0 00-10-10zm-5 8.75a1.25 1.25 0 112.5 0 1.25 1.25 0 01-2.5 0zm6.667 6.25a1.667 1.667 0 00-3.334 0h-1.666a3.333 3.333 0 116.666 0zm2.083-5a1.25 1.25 0 110-2.5 1.25 1.25 0 010 2.5zM746 490c-5.523 0-10 4.477-10 10s4.477 10 10 10 10-4.477 10-10a10 10 0 00-10-10zm-5 8.75a1.25 1.25 0 112.5 0 1.25 1.25 0 01-2.5 0zm6.667 6.25a1.667 1.667 0 00-3.334 0h-1.666a3.333 3.333 0 116.666 0zm2.083-5a1.25 1.25 0 110-2.5 1.25 1.25 0 010 2.5z"/><path fill="#38caca" d="M720 490c-5.523 0-10 4.477-10 10s4.477 10 10 10 10-4.477 10-10a10 10 0 00-10-10zm-5 8.75a1.25 1.25 0 112.5 0 1.25 1.25 0 01-2.5 0zm5 7.083a3.333 3.333 0 01-3.333-3.333h1.666a1.667 1.667 0 103.334 0h1.666a3.333 3.333 0 01-3.333 3.333zm3.75-5.833a1.25 1.25 0 110-2.5 1.25 1.25 0 010 2.5zM694 490c-5.523 0-10 4.477-10 10s4.477 10 10 10 10-4.477 10-10a10 10 0 00-10-10zm-5 8.75a1.25 1.25 0 112.5 0 1.25 1.25 0 01-2.5 0zm5 7.083a3.333 3.333 0 01-3.333-3.333h1.666a1.667 1.667 0 103.334 0h1.666a3.333 3.333 0 01-3.333 3.333zm3.75-5.833a1.25 1.25 0 110-2.5 1.25 1.25 0 010 2.5z"/><path stroke="#cae4e4" d="M666 459.5h160"/><path fill="#e1e4eb" fill-rule="nonzero" d="M798 409c-5.523 0-10 4.477-10 10s4.477 10 10 10 10-4.477 10-10a10 10 0 00-10-10zm-5 8.75a1.25 1.25 0 112.5 0 1.25 1.25 0 01-2.5 0zm6.667 6.25a1.667 1.667 0 00-3.334 0h-1.666a3.333 3.333 0 116.666 0zm2.083-5a1.25 1.25 0 110-2.5 1.25 1.25 0 010 2.5z"/><path fill="#38caca" d="M772 409c-5.523 0-10 4.477-10 10s4.477 10 10 10 10-4.477 10-10a10 10 0 00-10-10zm-5 8.75a1.25 1.25 0 112.5 0 1.25 1.25 0 01-2.5 0zm5 7.083a3.333 3.333 0 01-3.333-3.333h1.666a1.667 1.667 0 103.334 0h1.666a3.333 3.333 0 01-3.333 3.333zm3.75-5.833a1.25 1.25 0 110-2.5 1.25 1.25 0 010 2.5zM746 409c-5.523 0-10 4.477-10 10s4.477 10 10 10 10-4.477 10-10a10 10 0 00-10-10zm-5 8.75a1.25 1.25 0 112.5 0 1.25 1.25 0 01-2.5 0zm5 7.083a3.333 3.333 0 01-3.333-3.333h1.666a1.667 1.667 0 103.334 0h1.666a3.333 3.333 0 01-3.333 3.333zm3.75-5.833a1.25 1.25 0 110-2.5 1.25 1.25 0 010 2.5zM720 409c-5.523 0-10 4.477-10 10s4.477 10 10 10 10-4.477 10-10a10 10 0 00-10-10zm-5 8.75a1.25 1.25 0 112.5 0 1.25 1.25 0 01-2.5 0zm5 7.083a3.333 3.333 0 01-3.333-3.333h1.666a1.667 1.667 0 103.334 0h1.666a3.333 3.333 0 01-3.333 3.333zm3.75-5.833a1.25 1.25 0 110-2.5 1.25 1.25 0 010 2.5zM694 409c-5.523 0-10 4.477-10 10s4.477 10 10 10 10-4.477 10-10a10 10 0 00-10-10zm-5 8.75a1.25 1.25 0 112.5 0 1.25 1.25 0 01-2.5 0zm5 7.083a3.333 3.333 0 01-3.333-3.333h1.666a1.667 1.667 0 103.334 0h1.666a3.333 3.333 0 01-3.333 3.333zm3.75-5.833a1.25 1.25 0 110-2.5 1.25 1.25 0 010 2.5z"/><path stroke="#cae4e4" d="M666 378.5h160"/><path fill="#e1e4eb" fill-rule="nonzero" d="M798 328c-5.523 0-10 4.477-10 10s4.477 10 10 10 10-4.477 10-10a10 10 0 00-10-10zm-5 8.75a1.25 1.25 0 112.5 0 1.25 1.25 0 01-2.5 0zm6.667 6.25a1.667 1.667 0 00-3.334 0h-1.666a3.333 3.333 0 116.666 0zm2.083-5a1.25 1.25 0 110-2.5 1.25 1.25 0 010 2.5z"/><path fill="#38caca" d="M772 328c-5.523 0-10 4.477-10 10s4.477 10 10 10 10-4.477 10-10a10 10 0 00-10-10zm-5 8.75a1.25 1.25 0 112.5 0 1.25 1.25 0 01-2.5 0zm5 7.083a3.333 3.333 0 01-3.333-3.333h1.666a1.667 1.667 0 103.334 0h1.666a3.333 3.333 0 01-3.333 3.333zm3.75-5.833a1.25 1.25 0 110-2.5 1.25 1.25 0 010 2.5zM746 328c-5.523 0-10 4.477-10 10s4.477 10 10 10 10-4.477 10-10a10 10 0 00-10-10zm-5 8.75a1.25 1.25 0 112.5 0 1.25 1.25 0 01-2.5 0zm5 7.083a3.333 3.333 0 01-3.333-3.333h1.666a1.667 1.667 0 103.334 0h1.666a3.333 3.333 0 01-3.333 3.333zm3.75-5.833a1.25 1.25 0 110-2.5 1.25 1.25 0 010 2.5zM720 328c-5.523 0-10 4.477-10 10s4.477 10 10 10 10-4.477 10-10a10 10 0 00-10-10zm-5 8.75a1.25 1.25 0 112.5 0 1.25 1.25 0 01-2.5 0zm5 7.083a3.333 3.333 0 01-3.333-3.333h1.666a1.667 1.667 0 103.334 0h1.666a3.333 3.333 0 01-3.333 3.333zm3.75-5.833a1.25 1.25 0 110-2.5 1.25 1.25 0 010 2.5zM694 328c-5.523 0-10 4.477-10 10s4.477 10 10 10 10-4.477 10-10a10 10 0 00-10-10zm-5 8.75a1.25 1.25 0 112.5 0 1.25 1.25 0 01-2.5 0zm5 7.083a3.333 3.333 0 01-3.333-3.333h1.666a1.667 1.667 0 103.334 0h1.666a3.333 3.333 0 01-3.333 3.333zm3.75-5.833a1.25 1.25 0 110-2.5 1.25 1.25 0 010 2.5z"/><path stroke="#cae4e4" d="M666 297.5h160"/><path fill="#e1e4eb" fill-rule="nonzero" d="M798 247c-5.523 0-10 4.477-10 10s4.477 10 10 10 10-4.477 10-10a10 10 0 00-10-10zm-5 8.75a1.25 1.25 0 112.5 0 1.25 1.25 0 01-2.5 0zm6.667 6.25a1.667 1.667 0 00-3.334 0h-1.666a3.333 3.333 0 116.666 0zm2.083-5a1.25 1.25 0 110-2.5 1.25 1.25 0 010 2.5zM772 247c-5.523 0-10 4.477-10 10s4.477 10 10 10 10-4.477 10-10a10 10 0 00-10-10zm-5 8.75a1.25 1.25 0 112.5 0 1.25 1.25 0 01-2.5 0zm6.667 6.25a1.667 1.667 0 00-3.334 0h-1.666a3.333 3.333 0 116.666 0zm2.083-5a1.25 1.25 0 110-2.5 1.25 1.25 0 010 2.5z"/><path fill="#38caca" d="M746 247c-5.523 0-10 4.477-10 10s4.477 10 10 10 10-4.477 10-10a10 10 0 00-10-10zm-5 8.75a1.25 1.25 0 112.5 0 1.25 1.25 0 01-2.5 0zm5 7.083a3.333 3.333 0 01-3.333-3.333h1.666a1.667 1.667 0 103.334 0h1.666a3.333 3.333 0 01-3.333 3.333zm3.75-5.833a1.25 1.25 0 110-2.5 1.25 1.25 0 010 2.5zM720 247c-5.523 0-10 4.477-10 10s4.477 10 10 10 10-4.477 10-10a10 10 0 00-10-10zm-5 8.75a1.25 1.25 0 112.5 0 1.25 1.25 0 01-2.5 0zm5 7.083a3.333 3.333 0 01-3.333-3.333h1.666a1.667 1.667 0 103.334 0h1.666a3.333 3.333 0 01-3.333 3.333zm3.75-5.833a1.25 1.25 0 110-2.5 1.25 1.25 0 010 2.5zM694 247c-5.523 0-10 4.477-10 10s4.477 10 10 10 10-4.477 10-10a10 10 0 00-10-10zm-5 8.75a1.25 1.25 0 112.5 0 1.25 1.25 0 01-2.5 0zm5 7.083a3.333 3.333 0 01-3.333-3.333h1.666a1.667 1.667 0 103.334 0h1.666a3.333 3.333 0 01-3.333 3.333zm3.75-5.833a1.25 1.25 0 110-2.5 1.25 1.25 0 010 2.5z"/><path stroke="#cae4e4" d="M666 216.5h160"/><path fill="#e1e4eb" fill-rule="nonzero" d="M798 166c-5.523 0-10 4.477-10 10s4.477 10 10 10 10-4.477 10-10a10 10 0 00-10-10zm-5 8.75a1.25 1.25 0 112.5 0 1.25 1.25 0 01-2.5 0zm6.667 6.25a1.667 1.667 0 00-3.334 0h-1.666a3.333 3.333 0 116.666 0zm2.083-5a1.25 1.25 0 110-2.5 1.25 1.25 0 010 2.5zM772 166c-5.523 0-10 4.477-10 10s4.477 10 10 10 10-4.477 10-10a10 10 0 00-10-10zm-5 8.75a1.25 1.25 0 112.5 0 1.25 1.25 0 01-2.5 0zm6.667 6.25a1.667 1.667 0 00-3.334 0h-1.666a3.333 3.333 0 116.666 0zm2.083-5a1.25 1.25 0 110-2.5 1.25 1.25 0 010 2.5z"/><path fill="#38caca" d="M746 166c-5.523 0-10 4.477-10 10s4.477 10 10 10 10-4.477 10-10a10 10 0 00-10-10zm-5 8.75a1.25 1.25 0 112.5 0 1.25 1.25 0 01-2.5 0zm5 7.083a3.333 3.333 0 01-3.333-3.333h1.666a1.667 1.667 0 103.334 0h1.666a3.333 3.333 0 01-3.333 3.333zm3.75-5.833a1.25 1.25 0 110-2.5 1.25 1.25 0 010 2.5zM720 166c-5.523 0-10 4.477-10 10s4.477 10 10 10 10-4.477 10-10a10 10 0 00-10-10zm-5 8.75a1.25 1.25 0 112.5 0 1.25 1.25 0 01-2.5 0zm5 7.083a3.333 3.333 0 01-3.333-3.333h1.666a1.667 1.667 0 103.334 0h1.666a3.333 3.333 0 01-3.333 3.333zm3.75-5.833a1.25 1.25 0 110-2.5 1.25 1.25 0 010 2.5zM694 166c-5.523 0-10 4.477-10 10s4.477 10 10 10 10-4.477 10-10a10 10 0 00-10-10zm-5 8.75a1.25 1.25 0 112.5 0 1.25 1.25 0 01-2.5 0zm5 7.083a3.333 3.333 0 01-3.333-3.333h1.666a1.667 1.667 0 103.334 0h1.666a3.333 3.333 0 01-3.333 3.333zm3.75-5.833a1.25 1.25 0 110-2.5 1.25 1.25 0 010 2.5z"/><path stroke="#cae4e4" d="M656 135.5h180"/><path fill="#9adee2" d="M660 55h172a4 4 0 014 4v76H656V59a4 4 0 014-4z"/><rect width="179" height="485" x="838.5" y="55.5" fill="#fff" stroke="#cae4e4" rx="4"/><path stroke="#cae4e4" d="M848 540.5h160"/><path fill="#e1e4eb" fill-rule="nonzero" d="M980 490c-5.523 0-10 4.477-10 10s4.477 10 10 10 10-4.477 10-10a10 10 0 00-10-10zm-5 8.75a1.25 1.25 0 112.5 0 1.25 1.25 0 01-2.5 0zm6.667 6.25a1.667 1.667 0 00-3.334 0h-1.666a3.333 3.333 0 116.666 0zm2.083-5a1.25 1.25 0 110-2.5 1.25 1.25 0 010 2.5zM954 490c-5.523 0-10 4.477-10 10s4.477 10 10 10 10-4.477 10-10a10 10 0 00-10-10zm-5 8.75a1.25 1.25 0 112.5 0 1.25 1.25 0 01-2.5 0zm6.667 6.25a1.667 1.667 0 00-3.334 0h-1.666a3.333 3.333 0 116.666 0zm2.083-5a1.25 1.25 0 110-2.5 1.25 1.25 0 010 2.5z"/><path fill="#38caca" d="M928 490c-5.523 0-10 4.477-10 10s4.477 10 10 10 10-4.477 10-10a10 10 0 00-10-10zm-5 8.75a1.25 1.25 0 112.5 0 1.25 1.25 0 01-2.5 0zm5 7.083a3.333 3.333 0 01-3.333-3.333h1.666a1.667 1.667 0 103.334 0h1.666a3.333 3.333 0 01-3.333 3.333zm3.75-5.833a1.25 1.25 0 110-2.5 1.25 1.25 0 010 2.5zM902 490c-5.523 0-10 4.477-10 10s4.477 10 10 10 10-4.477 10-10a10 10 0 00-10-10zm-5 8.75a1.25 1.25 0 112.5 0 1.25 1.25 0 01-2.5 0zm5 7.083a3.333 3.333 0 01-3.333-3.333h1.666a1.667 1.667 0 103.334 0h1.666a3.333 3.333 0 01-3.333 3.333zm3.75-5.833a1.25 1.25 0 110-2.5 1.25 1.25 0 010 2.5zM876 490c-5.523 0-10 4.477-10 10s4.477 10 10 10 10-4.477 10-10a10 10 0 00-10-10zm-5 8.75a1.25 1.25 0 112.5 0 1.25 1.25 0 01-2.5 0zm5 7.083a3.333 3.333 0 01-3.333-3.333h1.666a1.667 1.667 0 103.334 0h1.666a3.333 3.333 0 01-3.333 3.333zm3.75-5.833a1.25 1.25 0 110-2.5 1.25 1.25 0 010 2.5z"/><path stroke="#cae4e4" d="M848 459.5h160"/><g fill="#38caca"><path d="M980 409c-5.523 0-10 4.477-10 10s4.477 10 10 10 10-4.477 10-10a10 10 0 00-10-10zm-5 8.75a1.25 1.25 0 112.5 0 1.25 1.25 0 01-2.5 0zm5 7.083a3.333 3.333 0 01-3.333-3.333h1.666a1.667 1.667 0 103.334 0h1.666a3.333 3.333 0 01-3.333 3.333zm3.75-5.833a1.25 1.25 0 110-2.5 1.25 1.25 0 010 2.5zM954 409c-5.523 0-10 4.477-10 10s4.477 10 10 10 10-4.477 10-10a10 10 0 00-10-10zm-5 8.75a1.25 1.25 0 112.5 0 1.25 1.25 0 01-2.5 0zm5 7.083a3.333 3.333 0 01-3.333-3.333h1.666a1.667 1.667 0 103.334 0h1.666a3.333 3.333 0 01-3.333 3.333zm3.75-5.833a1.25 1.25 0 110-2.5 1.25 1.25 0 010 2.5zM928 409c-5.523 0-10 4.477-10 10s4.477 10 10 10 10-4.477 10-10a10 10 0 00-10-10zm-5 8.75a1.25 1.25 0 112.5 0 1.25 1.25 0 01-2.5 0zm5 7.083a3.333 3.333 0 01-3.333-3.333h1.666a1.667 1.667 0 103.334 0h1.666a3.333 3.333 0 01-3.333 3.333zm3.75-5.833a1.25 1.25 0 110-2.5 1.25 1.25 0 010 2.5zM902 409c-5.523 0-10 4.477-10 10s4.477 10 10 10 10-4.477 10-10a10 10 0 00-10-10zm-5 8.75a1.25 1.25 0 112.5 0 1.25 1.25 0 01-2.5 0zm5 7.083a3.333 3.333 0 01-3.333-3.333h1.666a1.667 1.667 0 103.334 0h1.666a3.333 3.333 0 01-3.333 3.333zm3.75-5.833a1.25 1.25 0 110-2.5 1.25 1.25 0 010 2.5zM876 409c-5.523 0-10 4.477-10 10s4.477 10 10 10 10-4.477 10-10a10 10 0 00-10-10zm-5 8.75a1.25 1.25 0 112.5 0 1.25 1.25 0 01-2.5 0zm5 7.083a3.333 3.333 0 01-3.333-3.333h1.666a1.667 1.667 0 103.334 0h1.666a3.333 3.333 0 01-3.333 3.333zm3.75-5.833a1.25 1.25 0 110-2.5 1.25 1.25 0 010 2.5z"/></g><path stroke="#cae4e4" d="M848 378.5h160"/><g fill="#38caca"><path d="M980 328c-5.523 0-10 4.477-10 10s4.477 10 10 10 10-4.477 10-10a10 10 0 00-10-10zm-5 8.75a1.25 1.25 0 112.5 0 1.25 1.25 0 01-2.5 0zm5 7.083a3.333 3.333 0 01-3.333-3.333h1.666a1.667 1.667 0 103.334 0h1.666a3.333 3.333 0 01-3.333 3.333zm3.75-5.833a1.25 1.25 0 110-2.5 1.25 1.25 0 010 2.5zM954 328c-5.523 0-10 4.477-10 10s4.477 10 10 10 10-4.477 10-10a10 10 0 00-10-10zm-5 8.75a1.25 1.25 0 112.5 0 1.25 1.25 0 01-2.5 0zm5 7.083a3.333 3.333 0 01-3.333-3.333h1.666a1.667 1.667 0 103.334 0h1.666a3.333 3.333 0 01-3.333 3.333zm3.75-5.833a1.25 1.25 0 110-2.5 1.25 1.25 0 010 2.5zM928 328c-5.523 0-10 4.477-10 10s4.477 10 10 10 10-4.477 10-10a10 10 0 00-10-10zm-5 8.75a1.25 1.25 0 112.5 0 1.25 1.25 0 01-2.5 0zm5 7.083a3.333 3.333 0 01-3.333-3.333h1.666a1.667 1.667 0 103.334 0h1.666a3.333 3.333 0 01-3.333 3.333zm3.75-5.833a1.25 1.25 0 110-2.5 1.25 1.25 0 010 2.5zM902 328c-5.523 0-10 4.477-10 10s4.477 10 10 10 10-4.477 10-10a10 10 0 00-10-10zm-5 8.75a1.25 1.25 0 112.5 0 1.25 1.25 0 01-2.5 0zm5 7.083a3.333 3.333 0 01-3.333-3.333h1.666a1.667 1.667 0 103.334 0h1.666a3.333 3.333 0 01-3.333 3.333zm3.75-5.833a1.25 1.25 0 110-2.5 1.25 1.25 0 010 2.5zM876 328c-5.523 0-10 4.477-10 10s4.477 10 10 10 10-4.477 10-10a10 10 0 00-10-10zm-5 8.75a1.25 1.25 0 112.5 0 1.25 1.25 0 01-2.5 0zm5 7.083a3.333 3.333 0 01-3.333-3.333h1.666a1.667 1.667 0 103.334 0h1.666a3.333 3.333 0 01-3.333 3.333zm3.75-5.833a1.25 1.25 0 110-2.5 1.25 1.25 0 010 2.5z"/></g><path stroke="#cae4e4" d="M848 297.5h160"/><g fill="#38caca"><path d="M980 247c-5.523 0-10 4.477-10 10s4.477 10 10 10 10-4.477 10-10a10 10 0 00-10-10zm-5 8.75a1.25 1.25 0 112.5 0 1.25 1.25 0 01-2.5 0zm5 7.083a3.333 3.333 0 01-3.333-3.333h1.666a1.667 1.667 0 103.334 0h1.666a3.333 3.333 0 01-3.333 3.333zm3.75-5.833a1.25 1.25 0 110-2.5 1.25 1.25 0 010 2.5zM954 247c-5.523 0-10 4.477-10 10s4.477 10 10 10 10-4.477 10-10a10 10 0 00-10-10zm-5 8.75a1.25 1.25 0 112.5 0 1.25 1.25 0 01-2.5 0zm5 7.083a3.333 3.333 0 01-3.333-3.333h1.666a1.667 1.667 0 103.334 0h1.666a3.333 3.333 0 01-3.333 3.333zm3.75-5.833a1.25 1.25 0 110-2.5 1.25 1.25 0 010 2.5zM928 247c-5.523 0-10 4.477-10 10s4.477 10 10 10 10-4.477 10-10a10 10 0 00-10-10zm-5 8.75a1.25 1.25 0 112.5 0 1.25 1.25 0 01-2.5 0zm5 7.083a3.333 3.333 0 01-3.333-3.333h1.666a1.667 1.667 0 103.334 0h1.666a3.333 3.333 0 01-3.333 3.333zm3.75-5.833a1.25 1.25 0 110-2.5 1.25 1.25 0 010 2.5zM902 247c-5.523 0-10 4.477-10 10s4.477 10 10 10 10-4.477 10-10a10 10 0 00-10-10zm-5 8.75a1.25 1.25 0 112.5 0 1.25 1.25 0 01-2.5 0zm5 7.083a3.333 3.333 0 01-3.333-3.333h1.666a1.667 1.667 0 103.334 0h1.666a3.333 3.333 0 01-3.333 3.333zm3.75-5.833a1.25 1.25 0 110-2.5 1.25 1.25 0 010 2.5zM876 247c-5.523 0-10 4.477-10 10s4.477 10 10 10 10-4.477 10-10a10 10 0 00-10-10zm-5 8.75a1.25 1.25 0 112.5 0 1.25 1.25 0 01-2.5 0zm5 7.083a3.333 3.333 0 01-3.333-3.333h1.666a1.667 1.667 0 103.334 0h1.666a3.333 3.333 0 01-3.333 3.333zm3.75-5.833a1.25 1.25 0 110-2.5 1.25 1.25 0 010 2.5z"/></g><path stroke="#cae4e4" d="M848 216.5h160"/><path fill="#e1e4eb" fill-rule="nonzero" d="M980 166c-5.523 0-10 4.477-10 10s4.477 10 10 10 10-4.477 10-10a10 10 0 00-10-10zm-5 8.75a1.25 1.25 0 112.5 0 1.25 1.25 0 01-2.5 0zm6.667 6.25a1.667 1.667 0 00-3.334 0h-1.666a3.333 3.333 0 116.666 0zm2.083-5a1.25 1.25 0 110-2.5 1.25 1.25 0 010 2.5zM954 166c-5.523 0-10 4.477-10 10s4.477 10 10 10 10-4.477 10-10a10 10 0 00-10-10zm-5 8.75a1.25 1.25 0 112.5 0 1.25 1.25 0 01-2.5 0zm6.667 6.25a1.667 1.667 0 00-3.334 0h-1.666a3.333 3.333 0 116.666 0zm2.083-5a1.25 1.25 0 110-2.5 1.25 1.25 0 010 2.5zM928 166c-5.523 0-10 4.477-10 10s4.477 10 10 10 10-4.477 10-10a10 10 0 00-10-10zm-5 8.75a1.25 1.25 0 112.5 0 1.25 1.25 0 01-2.5 0zm6.667 6.25a1.667 1.667 0 00-3.334 0h-1.666a3.333 3.333 0 116.666 0zm2.083-5a1.25 1.25 0 110-2.5 1.25 1.25 0 010 2.5zM902 166c-5.523 0-10 4.477-10 10s4.477 10 10 10 10-4.477 10-10a10 10 0 00-10-10zm-5 8.75a1.25 1.25 0 112.5 0 1.25 1.25 0 01-2.5 0zm6.667 6.25a1.667 1.667 0 00-3.334 0h-1.666a3.333 3.333 0 116.666 0zm2.083-5a1.25 1.25 0 110-2.5 1.25 1.25 0 010 2.5z"/><path fill="#38caca" d="M876 166c-5.523 0-10 4.477-10 10s4.477 10 10 10 10-4.477 10-10a10 10 0 00-10-10zm-5 8.75a1.25 1.25 0 112.5 0 1.25 1.25 0 01-2.5 0zm5 7.083a3.333 3.333 0 01-3.333-3.333h1.666a1.667 1.667 0 103.334 0h1.666a3.333 3.333 0 01-3.333 3.333zm3.75-5.833a1.25 1.25 0 110-2.5 1.25 1.25 0 010 2.5z"/><path stroke="#cae4e4" d="M838 135.5h180"/><path fill="#6fe0e3" d="M842 55h172a4 4 0 014 4v76H838V59a4 4 0 014-4z"/><rect width="179" height="484" x="1020.5" y="56.5" fill="#fff" stroke="#cae4e4" rx="4"/><path stroke="#cae4e4" d="M1030 540.5h160"/><g fill="#38caca"><path d="M1162 490c-5.523 0-10 4.477-10 10s4.477 10 10 10 10-4.477 10-10a10 10 0 00-10-10zm-5 8.75a1.25 1.25 0 112.5 0 1.25 1.25 0 01-2.5 0zm5 7.083a3.333 3.333 0 01-3.333-3.333h1.666a1.667 1.667 0 103.334 0h1.666a3.333 3.333 0 01-3.333 3.333zm3.75-5.833a1.25 1.25 0 110-2.5 1.25 1.25 0 010 2.5zM1136 490c-5.523 0-10 4.477-10 10s4.477 10 10 10 10-4.477 10-10a10 10 0 00-10-10zm-5 8.75a1.25 1.25 0 112.5 0 1.25 1.25 0 01-2.5 0zm5 7.083a3.333 3.333 0 01-3.333-3.333h1.666a1.667 1.667 0 103.334 0h1.666a3.333 3.333 0 01-3.333 3.333zm3.75-5.833a1.25 1.25 0 110-2.5 1.25 1.25 0 010 2.5zM1110 490c-5.523 0-10 4.477-10 10s4.477 10 10 10 10-4.477 10-10a10 10 0 00-10-10zm-5 8.75a1.25 1.25 0 112.5 0 1.25 1.25 0 01-2.5 0zm5 7.083a3.333 3.333 0 01-3.333-3.333h1.666a1.667 1.667 0 103.334 0h1.666a3.333 3.333 0 01-3.333 3.333zm3.75-5.833a1.25 1.25 0 110-2.5 1.25 1.25 0 010 2.5zM1084 490c-5.523 0-10 4.477-10 10s4.477 10 10 10 10-4.477 10-10a10 10 0 00-10-10zm-5 8.75a1.25 1.25 0 112.5 0 1.25 1.25 0 01-2.5 0zm5 7.083a3.333 3.333 0 01-3.333-3.333h1.666a1.667 1.667 0 103.334 0h1.666a3.333 3.333 0 01-3.333 3.333zm3.75-5.833a1.25 1.25 0 110-2.5 1.25 1.25 0 010 2.5zM1058 490c-5.523 0-10 4.477-10 10s4.477 10 10 10 10-4.477 10-10a10 10 0 00-10-10zm-5 8.75a1.25 1.25 0 112.5 0 1.25 1.25 0 01-2.5 0zm5 7.083a3.333 3.333 0 01-3.333-3.333h1.666a1.667 1.667 0 103.334 0h1.666a3.333 3.333 0 01-3.333 3.333zm3.75-5.833a1.25 1.25 0 110-2.5 1.25 1.25 0 010 2.5z"/></g><path stroke="#cae4e4" d="M1030 459.5h160"/><g fill="#38caca"><path d="M1162 409c-5.523 0-10 4.477-10 10s4.477 10 10 10 10-4.477 10-10a10 10 0 00-10-10zm-5 8.75a1.25 1.25 0 112.5 0 1.25 1.25 0 01-2.5 0zm5 7.083a3.333 3.333 0 01-3.333-3.333h1.666a1.667 1.667 0 103.334 0h1.666a3.333 3.333 0 01-3.333 3.333zm3.75-5.833a1.25 1.25 0 110-2.5 1.25 1.25 0 010 2.5zM1136 409c-5.523 0-10 4.477-10 10s4.477 10 10 10 10-4.477 10-10a10 10 0 00-10-10zm-5 8.75a1.25 1.25 0 112.5 0 1.25 1.25 0 01-2.5 0zm5 7.083a3.333 3.333 0 01-3.333-3.333h1.666a1.667 1.667 0 103.334 0h1.666a3.333 3.333 0 01-3.333 3.333zm3.75-5.833a1.25 1.25 0 110-2.5 1.25 1.25 0 010 2.5zM1110 409c-5.523 0-10 4.477-10 10s4.477 10 10 10 10-4.477 10-10a10 10 0 00-10-10zm-5 8.75a1.25 1.25 0 112.5 0 1.25 1.25 0 01-2.5 0zm5 7.083a3.333 3.333 0 01-3.333-3.333h1.666a1.667 1.667 0 103.334 0h1.666a3.333 3.333 0 01-3.333 3.333zm3.75-5.833a1.25 1.25 0 110-2.5 1.25 1.25 0 010 2.5zM1084 409c-5.523 0-10 4.477-10 10s4.477 10 10 10 10-4.477 10-10a10 10 0 00-10-10zm-5 8.75a1.25 1.25 0 112.5 0 1.25 1.25 0 01-2.5 0zm5 7.083a3.333 3.333 0 01-3.333-3.333h1.666a1.667 1.667 0 103.334 0h1.666a3.333 3.333 0 01-3.333 3.333zm3.75-5.833a1.25 1.25 0 110-2.5 1.25 1.25 0 010 2.5zM1058 409c-5.523 0-10 4.477-10 10s4.477 10 10 10 10-4.477 10-10a10 10 0 00-10-10zm-5 8.75a1.25 1.25 0 112.5 0 1.25 1.25 0 01-2.5 0zm5 7.083a3.333 3.333 0 01-3.333-3.333h1.666a1.667 1.667 0 103.334 0h1.666a3.333 3.333 0 01-3.333 3.333zm3.75-5.833a1.25 1.25 0 110-2.5 1.25 1.25 0 010 2.5z"/></g><path stroke="#cae4e4" d="M1030 378.5h160"/><g fill="#38caca"><path d="M1162 328c-5.523 0-10 4.477-10 10s4.477 10 10 10 10-4.477 10-10a10 10 0 00-10-10zm-5 8.75a1.25 1.25 0 112.5 0 1.25 1.25 0 01-2.5 0zm5 7.083a3.333 3.333 0 01-3.333-3.333h1.666a1.667 1.667 0 103.334 0h1.666a3.333 3.333 0 01-3.333 3.333zm3.75-5.833a1.25 1.25 0 110-2.5 1.25 1.25 0 010 2.5zM1136 328c-5.523 0-10 4.477-10 10s4.477 10 10 10 10-4.477 10-10a10 10 0 00-10-10zm-5 8.75a1.25 1.25 0 112.5 0 1.25 1.25 0 01-2.5 0zm5 7.083a3.333 3.333 0 01-3.333-3.333h1.666a1.667 1.667 0 103.334 0h1.666a3.333 3.333 0 01-3.333 3.333zm3.75-5.833a1.25 1.25 0 110-2.5 1.25 1.25 0 010 2.5zM1110 328c-5.523 0-10 4.477-10 10s4.477 10 10 10 10-4.477 10-10a10 10 0 00-10-10zm-5 8.75a1.25 1.25 0 112.5 0 1.25 1.25 0 01-2.5 0zm5 7.083a3.333 3.333 0 01-3.333-3.333h1.666a1.667 1.667 0 103.334 0h1.666a3.333 3.333 0 01-3.333 3.333zm3.75-5.833a1.25 1.25 0 110-2.5 1.25 1.25 0 010 2.5zM1084 328c-5.523 0-10 4.477-10 10s4.477 10 10 10 10-4.477 10-10a10 10 0 00-10-10zm-5 8.75a1.25 1.25 0 112.5 0 1.25 1.25 0 01-2.5 0zm5 7.083a3.333 3.333 0 01-3.333-3.333h1.666a1.667 1.667 0 103.334 0h1.666a3.333 3.333 0 01-3.333 3.333zm3.75-5.833a1.25 1.25 0 110-2.5 1.25 1.25 0 010 2.5zM1058 328c-5.523 0-10 4.477-10 10s4.477 10 10 10 10-4.477 10-10a10 10 0 00-10-10zm-5 8.75a1.25 1.25 0 112.5 0 1.25 1.25 0 01-2.5 0zm5 7.083a3.333 3.333 0 01-3.333-3.333h1.666a1.667 1.667 0 103.334 0h1.666a3.333 3.333 0 01-3.333 3.333zm3.75-5.833a1.25 1.25 0 110-2.5 1.25 1.25 0 010 2.5z"/></g><path stroke="#cae4e4" d="M1030 297.5h160"/><g fill="#38caca"><path d="M1162 247c-5.523 0-10 4.477-10 10s4.477 10 10 10 10-4.477 10-10a10 10 0 00-10-10zm-5 8.75a1.25 1.25 0 112.5 0 1.25 1.25 0 01-2.5 0zm5 7.083a3.333 3.333 0 01-3.333-3.333h1.666a1.667 1.667 0 103.334 0h1.666a3.333 3.333 0 01-3.333 3.333zm3.75-5.833a1.25 1.25 0 110-2.5 1.25 1.25 0 010 2.5zM1136 247c-5.523 0-10 4.477-10 10s4.477 10 10 10 10-4.477 10-10a10 10 0 00-10-10zm-5 8.75a1.25 1.25 0 112.5 0 1.25 1.25 0 01-2.5 0zm5 7.083a3.333 3.333 0 01-3.333-3.333h1.666a1.667 1.667 0 103.334 0h1.666a3.333 3.333 0 01-3.333 3.333zm3.75-5.833a1.25 1.25 0 110-2.5 1.25 1.25 0 010 2.5zM1110 247c-5.523 0-10 4.477-10 10s4.477 10 10 10 10-4.477 10-10a10 10 0 00-10-10zm-5 8.75a1.25 1.25 0 112.5 0 1.25 1.25 0 01-2.5 0zm5 7.083a3.333 3.333 0 01-3.333-3.333h1.666a1.667 1.667 0 103.334 0h1.666a3.333 3.333 0 01-3.333 3.333zm3.75-5.833a1.25 1.25 0 110-2.5 1.25 1.25 0 010 2.5zM1084 247c-5.523 0-10 4.477-10 10s4.477 10 10 10 10-4.477 10-10a10 10 0 00-10-10zm-5 8.75a1.25 1.25 0 112.5 0 1.25 1.25 0 01-2.5 0zm5 7.083a3.333 3.333 0 01-3.333-3.333h1.666a1.667 1.667 0 103.334 0h1.666a3.333 3.333 0 01-3.333 3.333zm3.75-5.833a1.25 1.25 0 110-2.5 1.25 1.25 0 010 2.5zM1058 247c-5.523 0-10 4.477-10 10s4.477 10 10 10 10-4.477 10-10a10 10 0 00-10-10zm-5 8.75a1.25 1.25 0 112.5 0 1.25 1.25 0 01-2.5 0zm5 7.083a3.333 3.333 0 01-3.333-3.333h1.666a1.667 1.667 0 103.334 0h1.666a3.333 3.333 0 01-3.333 3.333zm3.75-5.833a1.25 1.25 0 110-2.5 1.25 1.25 0 010 2.5z"/></g><path stroke="#cae4e4" d="M1030 216.5h160"/><g fill="#38caca"><path d="M1162 166c-5.523 0-10 4.477-10 10s4.477 10 10 10 10-4.477 10-10a10 10 0 00-10-10zm-5 8.75a1.25 1.25 0 112.5 0 1.25 1.25 0 01-2.5 0zm5 7.083a3.333 3.333 0 01-3.333-3.333h1.666a1.667 1.667 0 103.334 0h1.666a3.333 3.333 0 01-3.333 3.333zm3.75-5.833a1.25 1.25 0 110-2.5 1.25 1.25 0 010 2.5zM1136 166c-5.523 0-10 4.477-10 10s4.477 10 10 10 10-4.477 10-10a10 10 0 00-10-10zm-5 8.75a1.25 1.25 0 112.5 0 1.25 1.25 0 01-2.5 0zm5 7.083a3.333 3.333 0 01-3.333-3.333h1.666a1.667 1.667 0 103.334 0h1.666a3.333 3.333 0 01-3.333 3.333zm3.75-5.833a1.25 1.25 0 110-2.5 1.25 1.25 0 010 2.5zM1110 166c-5.523 0-10 4.477-10 10s4.477 10 10 10 10-4.477 10-10a10 10 0 00-10-10zm-5 8.75a1.25 1.25 0 112.5 0 1.25 1.25 0 01-2.5 0zm5 7.083a3.333 3.333 0 01-3.333-3.333h1.666a1.667 1.667 0 103.334 0h1.666a3.333 3.333 0 01-3.333 3.333zm3.75-5.833a1.25 1.25 0 110-2.5 1.25 1.25 0 010 2.5zM1084 166c-5.523 0-10 4.477-10 10s4.477 10 10 10 10-4.477 10-10a10 10 0 00-10-10zm-5 8.75a1.25 1.25 0 112.5 0 1.25 1.25 0 01-2.5 0zm5 7.083a3.333 3.333 0 01-3.333-3.333h1.666a1.667 1.667 0 103.334 0h1.666a3.333 3.333 0 01-3.333 3.333zm3.75-5.833a1.25 1.25 0 110-2.5 1.25 1.25 0 010 2.5zM1058 166c-5.523 0-10 4.477-10 10s4.477 10 10 10 10-4.477 10-10a10 10 0 00-10-10zm-5 8.75a1.25 1.25 0 112.5 0 1.25 1.25 0 01-2.5 0zm5 7.083a3.333 3.333 0 01-3.333-3.333h1.666a1.667 1.667 0 103.334 0h1.666a3.333 3.333 0 01-3.333 3.333zm3.75-5.833a1.25 1.25 0 110-2.5 1.25 1.25 0 010 2.5z"/></g><path stroke="#cae4e4" d="M1020 135.5h180"/><path fill="#1ee7e7" d="M1024 56h172a4 4 0 014 4v75h-180V60a4 4 0 014-4z"/><path stroke="#cae4e4" stroke-dasharray="5 6" stroke-linecap="square" d="M292 40.5h908"/><path fill="url(#a)" fill-rule="nonzero" d="M697 7.5l14 7-14 7v-6H197v-2h500z" transform="translate(292)"/><text fill="#979dac" font-family="NexaBold, Nexa Bold" font-size="20" font-weight="bold" transform="translate(292)"><tspan x="32" y="19">100% </tspan><tspan x="86.74" y="19" font-family="PingFangTC-Semibold, PingFang TC" font-weight="500">本地开发</tspan></text><g transform="translate(292 2)"><circle cx="12" cy="12" r="12" fill="#0080ff"/><path fill="#979dac" d="M2.8 0h18.4A2.8 2.8 0 0124 2.8v18.4a2.8 2.8 0 01-2.8 2.8H2.8A2.8 2.8 0 010 21.2V2.8A2.8 2.8 0 012.8 0z"/><path d="M16.946 7.6c.135 0 .27.06.367.17l2.537 2.832a.54.54 0 01.135.27c.007.018.007.035.007.051v.009c0 .017 0 .034.008.05v.102c0 .017 0 .026-.008.042v.017c0 .017-.007.034-.015.06v.008l-.022.06v.008l-.023.05c0 .009-.007.009-.007.017l-.023.043c-.007.008-.007.016-.015.016-.007.009-.007.017-.015.017-.007.017-.022.026-.037.043l-.008.008-.022.026c-.008 0-.008.008-.015.008-.015.008-.023.017-.038.025-.007.009-.015.009-.022.017l-.023.009c-.015.008-.022.008-.037.017h-.008c-.015.008-.03.008-.052.017h-.015c-.015 0-.03.008-.045.008H4.45c-.015 0-.03-.008-.045-.008H4.39c-.015-.009-.03-.009-.052-.017 0 0-.008 0-.008-.009-.015-.008-.022-.008-.037-.017-.008 0-.015-.008-.023-.008-.007-.009-.015-.009-.022-.017-.015-.009-.023-.017-.038-.025-.007 0-.007-.009-.015-.009l-.022-.025-.008-.009-.037-.042c-.008-.009-.008-.017-.015-.017-.008-.008-.008-.017-.015-.017-.008-.017-.015-.025-.023-.042 0-.009-.007-.009-.007-.017l-.023-.05v-.01a.441.441 0 01-.022-.058v-.009c-.008-.017-.008-.034-.015-.06v-.016c0-.017-.008-.025-.008-.042v-.102c0-.017 0-.034.008-.05v-.009c0-.017.007-.034.007-.05a.7.7 0 01.135-.271l2.537-2.825a.482.482 0 01.367-.169zM12 8.6c-.773 0-1.4.269-1.4.6s.627.6 1.4.6 1.4-.269 1.4-.6-.627-.6-1.4-.6zm-8 3.18c.006.001.007.01.014.017.008 0 .008.008.015.017l.038.042.008.009.023.025c.007 0 .007.009.015.009.015.008.023.016.038.025.007.008.015.008.023.017.007 0 .015.008.022.008l.038.017c0 .009.008.009.008.009.023.008.038.008.053.017h.015c.016 0 .03.008.046.008h15.288c.015 0 .03-.008.046-.008h.015c.023-.009.038-.009.053-.017.023-.009.03-.009.046-.017.007 0 .015-.009.022-.009.008-.008.016-.008.023-.017l.038-.025c.008 0 .008-.008.015-.008l.023-.026.008-.008c.015-.017.03-.026.038-.043.007 0 .007-.008.015-.017.008 0 .008-.008.015-.016H20v3.284c0 .382-.31.692-.692.692H4.692A.692.692 0 014 15.073zm13.5 1.02a.3.3 0 100 .6.3.3 0 000-.6z" fill="#fff"/></g><text fill="#1ee7e7" font-family="NexaBold, Nexa Bold" font-size="20" font-weight="bold" transform="translate(1033)"><tspan x="32" y="19">100% </tspan><tspan x="86.74" y="19" font-family="PingFangTC-Semibold, PingFang TC" font-weight="500">云端开发</tspan></text><path fill="#1ee7e7" d="M1055.32 2c.928 0 1.68.752 1.68 1.68V14c0 6.627-5.373 12-12 12s-12-5.373-12-12c0-6.477 5.131-11.755 11.55-11.992L1045 2z"/><path fill="#fcfeff" fill-rule="nonzero" d="M1045.48 8.2a3.847 3.847 0 013.835 3.662l.005.228a3.368 3.368 0 012.88 3.337c0 1.8-1.406 3.272-3.176 3.368l-.184.005h-7.2a3.847 3.847 0 01-3.84-3.855 3.848 3.848 0 013.648-3.85l.192-.004c.04 0 .08 0 .12.002a3.844 3.844 0 013.72-2.893z"/><text fill="#0b0f13" font-family="PingFangTC-Semibold, PingFang TC" font-size="14" font-weight="500"><tspan x="302" y="79">整套应用运行在本地</tspan></text><text fill="#ed58ed" font-family="PingFangTC-Semibold, PingFang TC" font-size="16" font-weight="500" transform="translate(0 154)"><tspan x="0" y="17">反馈循环有多快？</tspan></text><text fill="#979dac" font-family="PingFangTC-Regular, PingFang TC" font-size="12" transform="translate(0 154)"><tspan x="0" y="38">编码到自测的反馈循环</tspan></text><text fill="#ed58ed" font-family="PingFangTC-Semibold, PingFang TC" font-size="16" font-weight="500" transform="translate(0 235)"><tspan x="0" y="17">成本有多低？</tspan></text><text fill="#979dac" font-family="PingFangTC-Regular, PingFang TC" font-size="12" transform="translate(0 235)"><tspan x="0" y="38">为支持这种开发模式要付出的平均</tspan> <tspan x="180" y="38" font-family="SFUIDisplay-Regular, SF UI Display">IT </tspan><tspan x="195.527" y="38">设施成本</tspan></text><text fill="#ed58ed" font-family="PingFangTC-Semibold, PingFang TC" font-size="16" font-weight="500" transform="translate(0 316)"><tspan x="0" y="17">扩展性如何？</tspan></text><text fill="#979dac" font-family="PingFangTC-Regular, PingFang TC" font-size="12" transform="translate(0 316)"><tspan x="0" y="38">能否随着开发者和微服务数量的上升而扩展</tspan></text><g><text fill="#ed58ed" font-family="PingFangTC-Semibold, PingFang TC" font-size="16" font-weight="500" transform="translate(0 397)"><tspan x="0" y="17">跟生产环境的近似性如何？</tspan></text><text fill="#979dac" font-family="PingFangTC-Regular, PingFang TC" font-size="12" transform="translate(0 397)"><tspan x="0" y="38">越近似，开发者越有信心</tspan></text></g><g><text fill="#ed58ed" font-family="PingFangTC-Semibold, PingFang TC" font-size="16" font-weight="500" transform="translate(0 478)"><tspan x="0" y="17">开发环境管理是否足够简单？</tspan></text><text fill="#979dac" font-family="PingFangTC-Regular, PingFang TC" font-size="12" transform="translate(0 478)"><tspan x="0" y="38">计算资源、权限、自动化</tspan></text></g><text fill="#0b0f13" font-family="PingFangTC-Semibold, PingFang TC" font-size="14" font-weight="500"><tspan x="484" y="79">基础服务运行在云端，</tspan> <tspan x="484" y="99">业务服务运行在本地</tspan></text><text fill="#0b0f13" font-family="PingFangTC-Semibold, PingFang TC" font-size="14" font-weight="500"><tspan x="666" y="79">开发中的服务运行在本</tspan> <tspan x="666" y="99">地，其它运行在云端</tspan></text><text fill="#0b0f13" font-family="PingFangTC-Semibold, PingFang TC" font-size="14" font-weight="500"><tspan x="848" y="79">全部服务运行在云端，不</tspan> <tspan x="848" y="99">使用 Nocalhost</tspan></text><text fill="#0b0f13" font-family="PingFangTC-Semibold, PingFang TC" font-size="14" font-weight="500"><tspan x="1030" y="79">全部服务运行在云端，使</tspan> <tspan x="1030" y="99">用</tspan> <tspan x="1044" y="99" font-family="NexaBold, Nexa Bold" font-weight="bold">Nocalhost</tspan></text><text fill="#0b0f13" font-family="PingFangTC-Semibold, PingFang TC" font-size="12" font-weight="500"><tspan x="0" y="122">对比项</tspan></text></g></svg>